<svg xmlns="http://www.w3.org/2000/svg" width="28.75" height="23" viewBox="0 0 28.75 23">
  <path id="Icon_awesome-car-alt" data-name="Icon awesome-car-alt" d="M26.274,13.384,25.6,11.7,24.407,8.717A6.676,6.676,0,0,0,18.178,4.5H10.572A6.676,6.676,0,0,0,4.343,8.717L3.149,11.7l-.673,1.683A3.825,3.825,0,0,0,0,16.958v2.875a3.8,3.8,0,0,0,.958,2.511v3.239A1.917,1.917,0,0,0,2.875,27.5H4.792a1.917,1.917,0,0,0,1.917-1.917V23.667H22.042v1.917A1.917,1.917,0,0,0,23.958,27.5h1.917a1.917,1.917,0,0,0,1.917-1.917V22.345a3.8,3.8,0,0,0,.958-2.511V16.958A3.825,3.825,0,0,0,26.274,13.384ZM7.9,10.14a2.875,2.875,0,0,1,2.67-1.807h7.607a2.875,2.875,0,0,1,2.67,1.807l1.194,2.985H6.708L7.9,10.14Zm-3.11,9.681a1.808,1.808,0,0,1-1.917-1.911A1.808,1.808,0,0,1,4.792,16a3.687,3.687,0,0,1,2.875,2.866C7.667,20.012,5.942,19.821,4.792,19.821Zm19.167,0c-1.15,0-2.875.191-2.875-.955A3.687,3.687,0,0,1,23.958,16a1.808,1.808,0,0,1,1.917,1.911,1.808,1.808,0,0,1-1.917,1.911Z" transform="translate(0 -4.5)" fill="#ff914d"/>
</svg>
