<svg xmlns="http://www.w3.org/2000/svg" width="20.5" height="23.429" viewBox="0 0 20.5 23.429">
  <path id="Icon_awesome-building" data-name="Icon awesome-building" d="M19.951,21.964h-.915V1.1a1.1,1.1,0,0,0-1.1-1.1H2.563a1.1,1.1,0,0,0-1.1,1.1V21.964H.549A.549.549,0,0,0,0,22.513v.915H20.5v-.915A.549.549,0,0,0,19.951,21.964ZM5.857,3.478a.549.549,0,0,1,.549-.549h1.83a.549.549,0,0,1,.549.549v1.83a.549.549,0,0,1-.549.549H6.406a.549.549,0,0,1-.549-.549Zm0,4.393a.549.549,0,0,1,.549-.549h1.83a.549.549,0,0,1,.549.549V9.7a.549.549,0,0,1-.549.549H6.406A.549.549,0,0,1,5.857,9.7Zm2.379,6.772H6.406a.549.549,0,0,1-.549-.549v-1.83a.549.549,0,0,1,.549-.549h1.83a.549.549,0,0,1,.549.549v1.83A.549.549,0,0,1,8.237,14.643Zm3.478,7.321H8.786V18.121a.549.549,0,0,1,.549-.549h1.83a.549.549,0,0,1,.549.549Zm2.929-7.871a.549.549,0,0,1-.549.549h-1.83a.549.549,0,0,1-.549-.549v-1.83a.549.549,0,0,1,.549-.549h1.83a.549.549,0,0,1,.549.549Zm0-4.393a.549.549,0,0,1-.549.549h-1.83a.549.549,0,0,1-.549-.549V7.871a.549.549,0,0,1,.549-.549h1.83a.549.549,0,0,1,.549.549Zm0-4.393a.549.549,0,0,1-.549.549h-1.83a.549.549,0,0,1-.549-.549V3.478a.549.549,0,0,1,.549-.549h1.83a.549.549,0,0,1,.549.549Z" fill="#ff914d"/>
</svg>
