<svg xmlns="http://www.w3.org/2000/svg" width="195.01" height="195" viewBox="0 0 195.01 195">
  <g id="Group_604" data-name="Group 604" transform="translate(-82 -64)">
    <path id="Path_8661" data-name="Path 8661" d="M97.5,0A97.5,97.5,0,1,1,0,97.5,97.5,97.5,0,0,1,97.5,0Z" transform="translate(82 64)" fill="#fff4ed"/>
    <g id="Contact_us-cuate" data-name="Contact us-cuate" transform="translate(49.59 59.161)">
      <g id="freepik--background-complete--inject-5" transform="translate(42.41 53.81)">
        <path id="Path_7833" data-name="Path 7833" d="M672.9,302.761l-3.65.078-1.853.031c-.62.014-1.244,0-1.864.017h-.122v-.125l-.017-3.121V299.5h.139l3.683.017c1.23,0,2.457.031,3.683.044h.078v.078c0,.529-.022,1.054-.036,1.575Zm0,0-.039-1.572c-.014-.517-.031-1.029-.036-1.541l.075.078c-1.227.014-2.454.045-3.683.045l-3.683.017.139-.139v3.113l-.125-.122c.607,0,1.213,0,1.822.014l1.811.047Z" transform="translate(-492.073 -231.148)" fill="#ebebeb"/>
        <path id="Path_7834" data-name="Path 7834" d="M658.169,316.892l-3.65.078-1.856.031c-.618,0-1.241,0-1.861.017h-.122V313.64h.139l3.683.019c1.227,0,2.457.031,3.683.045h.078v.075c0,.529-.022,1.054-.036,1.575Zm0,0-.039-1.572c-.014-.517-.031-1.029-.036-1.541l.075.078c-1.227.014-2.457.045-3.683.045l-3.683.017.139-.139v3.113l-.125-.122c.606,0,1.213,0,1.822.014l1.828.033Z" transform="translate(-481.456 -241.354)" fill="#ebebeb"/>
        <path id="Path_7835" data-name="Path 7835" d="M687.666,316.892l-3.65.078-1.853.031c-.62,0-1.244,0-1.864.017h-.122v-.125l-.017-3.113v-.139h.139l3.683.019c1.23,0,2.457.031,3.683.045h.078v.075c0,.529-.025,1.054-.036,1.575Zm0,0-.039-1.572c0-.517-.031-1.029-.036-1.541l.075.078c-1.227.014-2.454.045-3.683.045l-3.683.017.139-.139v3.113l-.125-.122c.609,0,1.213,0,1.822.014l1.831.033Z" transform="translate(-502.734 -241.354)" fill="#ebebeb"/>
        <path id="Path_7836" data-name="Path 7836" d="M295.316,169.589l-3.65.078-1.853.031h-1.986v-.125l-.017-3.113v-.139h.139l3.683.017c1.23,0,2.457.031,3.683.045h.078v.075c0,.529-.025,1.052-.039,1.572Zm0,0-.039-1.575c0-.517-.031-1.029-.036-1.538l.075.075c-1.227,0-2.454.045-3.683.045l-3.683.019.139-.139-.014,3.113-.125-.125c.606,0,1.213,0,1.822.017l1.831.031Z" transform="translate(-219.538 -135.019)" fill="#ebebeb"/>
        <path id="Path_7837" data-name="Path 7837" d="M280.512,183.749l-3.65.078-1.856.031c-.618,0-1.241,0-1.861.014h-.122v-.125L273,180.639V180.5h.139l3.683.017c1.227,0,2.457.031,3.683.045h.078v.078c0,.529-.022,1.052-.036,1.572Zm0,0-.039-1.575c-.014-.517-.031-1.029-.036-1.538l.075.075c-1.227.014-2.457.045-3.683.045l-3.683.019.139-.139-.006,3.113-.125-.125c.606,0,1.213,0,1.822.017l1.828.031Z" transform="translate(-208.848 -145.254)" fill="#ebebeb"/>
        <path id="Path_7838" data-name="Path 7838" d="M310.086,183.749l-3.65.078-1.853.031c-.62,0-1.241,0-1.864.014H302.6v-.125l-.017-3.108V180.5h.139l3.683.017c1.23,0,2.457.031,3.683.045h.078v.078c0,.529-.025,1.052-.036,1.572Zm0,0-.039-1.575c0-.517-.031-1.029-.036-1.538l.075.075c-1.227.014-2.454.045-3.683.045l-3.683.019.139-.139-.014,3.113-.125-.125c.609,0,1.213,0,1.822.017l1.831.031Z" transform="translate(-230.199 -145.254)" fill="#ebebeb"/>
        <path id="Path_7839" data-name="Path 7839" d="M79.478,243.665l-3.65.078-1.856.031c-.618,0-1.241,0-1.861.014H72V240.41h.139l3.683.017c1.227,0,2.457.031,3.683.045h.078v.075c0,.529-.022,1.052-.036,1.572Zm0,0-.039-1.575c0-.517-.031-1.029-.036-1.538l.075.075c-1.227.014-2.457.045-3.683.045l-3.683.019.139-.139-.014,3.113-.125-.125c.606,0,1.213,0,1.822.017l1.828.031Z" transform="translate(-63.768 -188.497)" fill="#ebebeb"/>
        <path id="Path_7840" data-name="Path 7840" d="M518.386,169.615l-3.65.078-1.853.031c-.62.014-1.244,0-1.864.014H510.9v-.125l-.017-3.113v-.139h.139l3.683.017c1.23,0,2.457.033,3.683.047h.078v.075c0,.529-.022,1.054-.036,1.572Zm0,0-.039-1.572c-.014-.52-.031-1.032-.036-1.541l.075.075c-1.227.014-2.454.045-3.683.047l-3.683.017.139-.139-.014,3.113-.125-.125c.607,0,1.213,0,1.822.017l1.831.031Z" transform="translate(-380.549 -135.048)" fill="#ebebeb"/>
        <path id="Path_7841" data-name="Path 7841" d="M671.409,60.942l-3.65.078-1.856.031c-.618,0-1.241,0-1.861.017h-.122V57.69h.139l3.683.017c1.227,0,2.457.033,3.683.047h.078v.075c0,.529-.022,1.054-.036,1.572Zm0,0-.039-1.572c-.014-.52-.031-1.032-.036-1.541l.075.075c-1.227,0-2.457.045-3.683.047l-3.683.017.139-.139-.014,3.113-.125-.125c.606,0,1.213,0,1.822.017l1.828.031Z" transform="translate(-491.012 -56.611)" fill="#ebebeb"/>
        <path id="Path_7842" data-name="Path 7842" d="M686.136,75.045l-3.65.078-1.853.031c-.62.014-1.244,0-1.864.014h-.122v-.125l-.017-3.113V71.79h.139l3.683.017c1.23,0,2.457.033,3.683.047h.078v.075c0,.529-.025,1.054-.039,1.572Zm0,0-.039-1.572c0-.52-.031-1.032-.036-1.541l.075.075c-1.227.014-2.454.045-3.683.047l-3.683.017.139-.139v3.113l-.125-.125c.607,0,1.213,0,1.822.017l1.831.031Z" transform="translate(-501.63 -66.788)" fill="#ebebeb"/>
        <path id="Path_7843" data-name="Path 7843" d="M49.9,60.952l-3.653.078-1.853.031c-.618,0-1.241,0-1.861.017H42.41V57.7h.142l3.683.019c1.227,0,2.454.031,3.683.045h.075v.075c0,.529-.025,1.054-.036,1.575Zm0,0L49.86,59.38c0-.52-.031-1.032-.036-1.541l.078.075c-1.23.017-2.457.045-3.683.047l-3.683.017.139-.139-.017,3.113-.122-.109h1.819l1.831.031Z" transform="translate(-42.41 -56.618)" fill="#ebebeb"/>
        <g id="freepik--ZZtZDI--inject-5" transform="translate(79.369 22.259)">
          <path id="Path_7844" data-name="Path 7844" d="M346.056,162.666a2.559,2.559,0,0,1-1.224.643c-.278.072-.587.114-.882.167h-1.007c-.415-.064-.835-.114-1.238-.195a11.618,11.618,0,0,1-4.2-1.825,27.264,27.264,0,0,1-8.224-8.519,10.571,10.571,0,0,1-1.419-3.672c-.061-.342-.108-.687-.161-1.032v-1.007c.083-.387.15-.779.253-1.16a2.173,2.173,0,0,1,.556-.946c.05.045.095.081.139.125l4.81,4.8a.323.323,0,0,1,.095.364,2.387,2.387,0,0,0,.517,2.309,49.129,49.129,0,0,0,4.387,4.39,2.4,2.4,0,0,0,2.329.515c.117-.031.2-.05.3.05q2.457,2.47,4.924,4.93C346.02,162.614,346.031,162.639,346.056,162.666Z" transform="translate(-327.7 -141.976)" fill="#ebebeb"/>
          <path id="Path_7845" data-name="Path 7845" d="M386.623,183.655v.334a6.658,6.658,0,0,1-.47.6c-.5.515-1.007,1.013-1.511,1.516l-.156.147-4.946-4.944c.648-.64,1.294-1.294,1.961-1.931a.737.737,0,0,1,1.057.056c.373.362.734.732,1.113,1.1.86.862,1.725,1.719,2.576,2.587a4.175,4.175,0,0,1,.376.537Z" transform="translate(-365.118 -166.562)" fill="#ebebeb"/>
          <path id="Path_7846" data-name="Path 7846" d="M340.872,139.095c-.612.593-1.238,1.171-1.844,1.744l-4.908-4.9c.108-.1.234-.2.348-.312.451-.448.893-.907,1.352-1.347a6.241,6.241,0,0,1,.587-.456h.337a4.355,4.355,0,0,1,.534.387q1.8,1.786,3.592,3.589A.8.8,0,0,1,340.872,139.095Z" transform="translate(-332.334 -133.82)" fill="#ebebeb"/>
        </g>
        <path id="Path_7847" data-name="Path 7847" d="M62.76,109.6h32.2V89.17H62.76V109.6Z" transform="translate(-57.098 -79.333)" fill="#ebebeb"/>
        <path id="Path_7848" data-name="Path 7848" d="M184.513,146.314H178.49V140.04Z" transform="translate(-140.632 -116.05)" fill="#ebebeb"/>
        <rect id="Rectangle_1236" data-name="Rectangle 1236" width="24.744" height="0.389" transform="translate(9.387 13.368)" fill="#fff"/>
        <rect id="Rectangle_1237" data-name="Rectangle 1237" width="12.789" height="0.389" transform="translate(9.387 15.465)" fill="#fff"/>
        <rect id="Rectangle_1238" data-name="Rectangle 1238" width="20.009" height="0.389" transform="translate(9.387 19.658)" fill="#fff"/>
        <rect id="Rectangle_1239" data-name="Rectangle 1239" width="24.744" height="0.389" transform="translate(9.387 21.753)" fill="#fff"/>
        <rect id="Rectangle_1240" data-name="Rectangle 1240" width="24.744" height="0.389" transform="translate(9.387 23.848)" fill="#fff"/>
        <rect id="Rectangle_1241" data-name="Rectangle 1241" width="8.791" height="0.389" transform="translate(9.387 25.945)" fill="#fff"/>
        <rect id="Rectangle_1242" data-name="Rectangle 1242" width="32.197" height="18.014" transform="translate(147.199 38.42)" fill="#dbdbdb"/>
        <path id="Path_7849" data-name="Path 7849" d="M549.86,240.394h6.023V234.12Z" transform="translate(-408.684 -183.957)" fill="#dbdbdb"/>
        <rect id="Rectangle_1243" data-name="Rectangle 1243" width="21.541" height="0.389" transform="translate(150.999 47.826)" fill="#fff"/>
        <rect id="Rectangle_1244" data-name="Rectangle 1244" width="17.112" height="0.389" transform="translate(150.999 49.924)" fill="#fff"/>
        <rect id="Rectangle_1245" data-name="Rectangle 1245" width="18.403" height="0.389" transform="translate(150.999 43.634)" fill="#fff"/>
        <rect id="Rectangle_1246" data-name="Rectangle 1246" width="24.029" height="0.389" transform="translate(150.999 41.539)" fill="#fff"/>
        <rect id="Rectangle_1247" data-name="Rectangle 1247" width="18.887" height="0.389" transform="translate(150.999 52.019)" fill="#fff"/>
        <rect id="Rectangle_1248" data-name="Rectangle 1248" width="59.122" height="2.593" transform="translate(104.007 19.274)" fill="#ebebeb"/>
        <rect id="Rectangle_1249" data-name="Rectangle 1249" width="2.593" height="8.574" transform="translate(107.321 21.87)" fill="#ebebeb"/>
        <rect id="Rectangle_1250" data-name="Rectangle 1250" width="2.593" height="2.651" transform="translate(107.321 21.87)" fill="#dbdbdb"/>
        <rect id="Rectangle_1251" data-name="Rectangle 1251" width="2.593" height="8.574" transform="translate(157.223 21.87)" fill="#ebebeb"/>
        <rect id="Rectangle_1252" data-name="Rectangle 1252" width="2.593" height="2.651" transform="translate(157.223 21.87)" fill="#dbdbdb"/>
        <rect id="Rectangle_1253" data-name="Rectangle 1253" width="16.523" height="4.162" transform="translate(119.206 2.751) rotate(90)" fill="#c7c7c7"/>
        <rect id="Rectangle_1254" data-name="Rectangle 1254" width="1.817" height="4.162" transform="translate(119.206 1.867) rotate(90)" fill="#dbdbdb"/>
        <rect id="Rectangle_1255" data-name="Rectangle 1255" width="0.673" height="4.162" transform="translate(119.203 6.012) rotate(90)" fill="#dbdbdb"/>
        <rect id="Rectangle_1256" data-name="Rectangle 1256" width="1.817" height="4.679" transform="translate(119.723 15.293) rotate(90)" fill="#dbdbdb"/>
        <rect id="Rectangle_1257" data-name="Rectangle 1257" width="19.274" height="2.907" transform="translate(122.113 0) rotate(90)" fill="#dbdbdb"/>
        <rect id="Rectangle_1258" data-name="Rectangle 1258" width="7.414" height="1.744" transform="translate(121.52 1.811) rotate(90)" fill="#ebebeb"/>
        <rect id="Rectangle_1259" data-name="Rectangle 1259" width="19.274" height="2.907" transform="matrix(0.711, 0.703, -0.703, 0.711, 129.085, 3.665)" fill="#c7c7c7"/>
        <rect id="Rectangle_1260" data-name="Rectangle 1260" width="7.414" height="1.744" transform="matrix(0.711, 0.703, -0.703, 0.711, 133.902, 9.232)" fill="#dbdbdb"/>
        <rect id="Rectangle_1261" data-name="Rectangle 1261" width="14.642" height="4.938" transform="translate(127.048 4.638) rotate(90)" fill="#a6a6a6"/>
        <rect id="Rectangle_1262" data-name="Rectangle 1262" width="1.363" height="4.938" transform="translate(127.048 16.361) rotate(90)" fill="#c7c7c7"/>
        <rect id="Rectangle_1263" data-name="Rectangle 1263" width="0.529" height="4.938" transform="translate(127.048 14.94) rotate(90)" fill="#c7c7c7"/>
        <rect id="Rectangle_1264" data-name="Rectangle 1264" width="13.76" height="3.411" transform="translate(115.044 5.52) rotate(90)" fill="#a6a6a6"/>
        <rect id="Rectangle_1265" data-name="Rectangle 1265" width="1.283" height="3.411" transform="translate(115.044 16.537) rotate(90)" fill="#c7c7c7"/>
        <rect id="Rectangle_1266" data-name="Rectangle 1266" width="1.283" height="3.411" transform="translate(115.044 8.355) rotate(90)" fill="#c7c7c7"/>
        <rect id="Rectangle_1267" data-name="Rectangle 1267" width="0.498" height="3.411" transform="translate(115.044 10.516) rotate(90)" fill="#c7c7c7"/>
        <path id="Path_7850" data-name="Path 7850" d="M573.466,81.861l-.37.982-.228.6-.373.985-1.452,3.848h-7.854l-1.458-3.848-.373-.985-.225-.6-.373-.982,2.9-4.226-1.5-2.785h9.921l-1.511,2.785Z" transform="translate(-416.552 -68.997)" fill="#dbdbdb"/>
        <path id="Path_7851" data-name="Path 7851" d="M573.466,100.05l-.37.982H561.133l-.373-.982Z" transform="translate(-416.552 -87.186)" fill="#a6a6a6"/>
        <path id="Path_7852" data-name="Path 7852" d="M574.419,105.73l-.373.985H563.283l-.373-.985Z" transform="translate(-418.104 -91.286)" fill="#a6a6a6"/>
      </g>
      <g id="freepik--Table--inject-5" transform="translate(46.141 147.935)">
        <path id="Path_7853" data-name="Path 7853" d="M55.82,392.276l22.2-.067,22.2-.025,44.4-.044,44.4.044,22.2.025,22.2.067-22.2.07-22.2.025-44.4.044-44.4-.044-22.2-.025Z" transform="translate(-55.82 -392.14)" fill="#263238"/>
      </g>
      <g id="freepik--character-2--inject-5" transform="translate(132.529 85.08)">
        <path id="Path_7854" data-name="Path 7854" d="M366.34,289.92h34.125l-6.8-39.58h-25.52Z" transform="translate(-366.34 -226.934)" fill="#dbdbdb"/>
        <path id="Path_7855" data-name="Path 7855" d="M366.34,289.92h2.993l1.678-39.58h-2.868Z" transform="translate(-366.34 -226.934)" fill="#a6a6a6"/>
        <path id="Path_7856" data-name="Path 7856" d="M471.154,258.076c3.861,8.624,13.193,22.938,17.368,19.391,6.246-5.3,10.474-17.032,12.144-21.775.938-2.657-12.6-7.1-13.426-4.691-1.18,3.427-3.03,10.591-4.1,11.607-.556.531-4.991-5.692-8.346-8.644C469.949,249.71,469.922,255.321,471.154,258.076Z" transform="translate(-441.503 -226.91)" fill="#ad6359"/>
        <path id="Path_7857" data-name="Path 7857" d="M547.309,222.246c-1.2,2.71-5.842,7.292-7.384,7.968s-9.682-6.677-9.512-8.407,5.027-10.794,7.717-12.185S548.558,219.436,547.309,222.246Z" transform="translate(-484.765 -197.458)" fill="#ad6359"/>
        <path id="Path_7858" data-name="Path 7858" d="M526.824,209.528a24.582,24.582,0,0,0-.779-7.117c-.818-2.74-2.34-6.716-.885-7.211,2.994-1.015,6.788,8.9,6.788,8.9s.974,4.646-1.9,5.915A3.124,3.124,0,0,1,526.824,209.528Z" transform="translate(-480.539 -187.082)" fill="#ad6359"/>
        <path id="Path_7859" data-name="Path 7859" d="M544.795,203.7c.195,1.561,1.922.437,1.922.437s-2.095,2.226-1.271,3.747c.8,1.472,2.838.039,2.985-.061-.111.12-1.981,2.206-.993,3.658,1.027,1.508,2.824-.278,2.941-.4-.07.142-.943,2.064.058,3,1.719,1.6,4.09-3.252,5.915-3.795,0,0,1.274,2.985,1.327,3.06,0,0,2.351-4.574,1.483-6.994a1.644,1.644,0,0,0-1.739-1.1,2.579,2.579,0,0,0,.181-2.559c-.384-.6-1.669-.52-1.669-.52a2.055,2.055,0,0,0-.033-2.139,1.976,1.976,0,0,0-1.786-.6,2.453,2.453,0,0,0-.7-2.031C551.686,196.151,544.375,200.355,544.795,203.7Z" transform="translate(-495.135 -188.564)" fill="#ad6359"/>
        <path id="Path_7860" data-name="Path 7860" d="M558.632,205.219c.025-.014,0-.05-.014-.042a14.578,14.578,0,0,0-7.275,4.777c-.058.075.036.2.117.131A30.37,30.37,0,0,1,558.632,205.219Z" transform="translate(-499.861 -194.335)" fill="#263238"/>
        <path id="Path_7861" data-name="Path 7861" d="M565.05,214.853c.031-.014,0-.064-.025-.056a13.7,13.7,0,0,0-7.615,5.706c-.058.1-.014.245.064.139C558.765,218.84,562.58,216.013,565.05,214.853Z" transform="translate(-504.234 -201.279)" fill="#263238"/>
        <path id="Path_7862" data-name="Path 7862" d="M564.476,232.183a18.831,18.831,0,0,1,6.98-6.037c.033-.019,0-.067-.031-.058a12.237,12.237,0,0,0-4.451,2.546,8.4,8.4,0,0,0-2.587,3.489C564.362,232.183,564.44,232.244,564.476,232.183Z" transform="translate(-509.286 -209.428)" fill="#263238"/>
        <path id="Path_7863" data-name="Path 7863" d="M547.106,222.16c-.07.089.139.092.072.184-.278.384-1.767,2.846-1.085,3.617.556.615,1.75.3,2.167,0l1.043-.754-.718,1.082a5.322,5.322,0,0,0-.723,1.55,1.878,1.878,0,0,0,.142,1.536,1.074,1.074,0,0,0,1.266.487,3.235,3.235,0,0,0,1.36-.9l1.057-1.113-.634,1.391a5.043,5.043,0,0,0-.381,1.207,2.048,2.048,0,0,0,.092,1.174.971.971,0,0,0,.835.581,2.145,2.145,0,0,0,1.113-.451,17.007,17.007,0,0,0,1.972-1.767c.32-.312.64-.626.977-.926a3.194,3.194,0,0,1,1.113-.723,3.4,3.4,0,0,0-1.04.815c-.309.32-.6.654-.9.99a14.666,14.666,0,0,1-1.92,1.911,2.535,2.535,0,0,1-1.319.581,1.391,1.391,0,0,1-1.277-.81,2.5,2.5,0,0,1-.153-1.455,5.376,5.376,0,0,1,.4-1.349l.423.278a3.753,3.753,0,0,1-1.6,1.085,1.558,1.558,0,0,1-1.057-.039,1.772,1.772,0,0,1-.79-.682,2.384,2.384,0,0,1-.178-1.947,5.661,5.661,0,0,1,.821-1.689l.326.317a2.4,2.4,0,0,1-2.818.014C544.624,225.048,546.7,222.583,547.106,222.16Z" transform="translate(-495.579 -206.594)" fill="#263238"/>
        <path id="Path_7864" data-name="Path 7864" d="M546.136,217.2a3.229,3.229,0,0,1-.94.22.729.729,0,0,1-.673-.309,1.486,1.486,0,0,1-.153-.835c.017-.317.05-.648.1-.99a2.467,2.467,0,0,0-.44.943,1.458,1.458,0,0,0,.125,1.113,1.057,1.057,0,0,0,.492.384,1.079,1.079,0,0,0,.593.022A1.7,1.7,0,0,0,546.136,217.2Z" transform="translate(-494.554 -201.635)" fill="#263238"/>
        <path id="Path_7865" data-name="Path 7865" d="M486.115,253.73l14.088,9.812s-8.416,17.435-13.615,17.388-12.711-13.106-15.3-18.751-1.046-10.427,4.2-5.286,7.119,7.261,7.289,7.192C483.088,263.957,486.115,253.73,486.115,253.73Z" transform="translate(-441.201 -229.381)" fill="#9bd19d"/>
        <path id="Path_7866" data-name="Path 7866" d="M500.158,263.55s-5.842,12.091-10.792,16.108a4.673,4.673,0,0,1-2.824,1.277c-5.2-.045-12.711-13.106-15.315-18.748-1.611-3.494-1.625-6.657-.161-7.339.9-.42,2.365.1,4.359,2.062,5.286,5.177,7.117,7.258,7.289,7.189.328-.134,3.358-10.358,3.358-10.358Z" transform="translate(-441.156 -229.388)" fill="#ff914d"/>
        <path id="Path_7867" data-name="Path 7867" d="M491.5,281.129c-.172.2-.348.4-.523.584a13.276,13.276,0,0,1-5.219,1.911,10.96,10.96,0,0,1-1.541.061l-.32-.2a10.719,10.719,0,0,0,1.842-.047,9.341,9.341,0,0,0,2.145-.5l.526-.172.509-.214c.17-.072.345-.134.509-.217l.492-.25A13.669,13.669,0,0,0,491.5,281.129Zm-10.689-15.36a15.044,15.044,0,0,0-4.332,2.98,22.85,22.85,0,0,0-2.256,2.585c.033.061.07.125.109.186a22.536,22.536,0,0,1,2.29-2.623,15.046,15.046,0,0,1,3.564-2.6l.492-.25a2.781,2.781,0,0,1,.278-.122Zm12.169.888a22.383,22.383,0,0,0-4.173-1.55c-.15-.036-.3-.072-.453-.1-.1-.022-.2-.045-.295-.061a11.964,11.964,0,0,0-3.7-.189c-.181.025-.359.053-.54.086-.02.064-.042.131-.061.192.206-.036.415-.067.623-.092a11.792,11.792,0,0,1,3.439.142l.3.056c.214.044.428.092.643.145a22.208,22.208,0,0,1,4.14,1.519,55.866,55.866,0,0,1,5.77,3.269c.028-.047.053-.095.075-.139A55.642,55.642,0,0,0,492.982,266.656Zm1.461-3.6a13.73,13.73,0,0,0-6.4,1.886l-.239.139a15.541,15.541,0,0,0-1.422.963,33.977,33.977,0,0,0-6.1,6.491c-.907,1.177-1.8,2.362-2.738,3.508-.067.083-.136.164-.206.248l.106.153c.081-.095.161-.189.239-.278.946-1.149,1.839-2.334,2.749-3.508a33.847,33.847,0,0,1,6.07-6.44,15.446,15.446,0,0,1,1.6-1.071c.075-.047.153-.092.231-.134a14.278,14.278,0,0,1,2.02-.935l.52-.189c.172-.061.353-.1.531-.156l.531-.147.556-.109a9.355,9.355,0,0,1,2.189-.228h.033Zm-17.29-.971a14.745,14.745,0,0,1-3.03.971l-.543.106c-.181.033-.364.045-.556.07l-.556.064-.556.022a8.722,8.722,0,0,1-1.525-.028l.05.184a14.005,14.005,0,0,0,6.852-1.235.76.76,0,0,0-.136-.153Zm-4.012-3.455a32.1,32.1,0,0,1-3.06,1.839v.228a31.158,31.158,0,0,0,3.255-1.964C473.268,258.7,473.2,258.661,473.14,258.63Z" transform="translate(-441.219 -232.918)" fill="#fff"/>
        <path id="Path_7868" data-name="Path 7868" d="M538.278,273.775c-.373-.309-.748-.609-1.127-.91q-1.152-.91-2.3-1.811c-1.53-1.193-3.094-2.345-4.668-3.478-.893-.645-1.772-1.324-2.693-1.928a.042.042,0,1,0-.05.067c.732.645,1.516,1.235,2.276,1.85S531.226,268.8,532,269.4q2.3,1.786,4.652,3.5c.437.323.868.662,1.321.965.231.156.451.328.684.479s.484.278.712.448a.025.025,0,0,0,.031-.039C539.016,274.434,538.66,274.086,538.278,273.775Z" transform="translate(-482.607 -237.978)" fill="#263238"/>
        <path id="Path_7869" data-name="Path 7869" d="M510.715,289.766a35.643,35.643,0,0,0-1.324,4.451c-.184.746-.328,1.5-.47,2.251a17.179,17.179,0,0,0-.3,2.262c0,.028.042.028.047,0,.234-.726.406-1.483.573-2.226s.356-1.491.523-2.226c.337-1.5.732-2.98,1.024-4.485a.039.039,0,1,0-.072-.028Z" transform="translate(-469.037 -255.373)" fill="#263238"/>
        <path id="Path_7870" data-name="Path 7870" d="M489.366,282.53a4.673,4.673,0,0,1-2.824,1.277c-5.2-.045-12.711-13.106-15.315-18.748-1.611-3.494-1.625-6.657-.161-7.339Z" transform="translate(-441.156 -232.261)" opacity="0.1"/>
        <path id="Path_7871" data-name="Path 7871" d="M422.846,289.92H389.024c-.373-.684,5.169-30.308,16.576-38.651,2.532-1.85,7.022-.659,8.268,1.141C420.144,261.454,422.846,289.92,422.846,289.92Z" transform="translate(-382.701 -226.933)" fill="#ff914d"/>
        <path id="Path_7872" data-name="Path 7872" d="M426.951,283.468a24.753,24.753,0,0,1-2.479-1.032c-1.132-.542-2.226-1.143-3.313-1.778l-.159-.095c-1.113-.659-2.226-1.358-3.316-2.061l-.156-.1-.74-.478a72.905,72.905,0,0,0-7.642-4.543,16.717,16.717,0,0,0-4.173-1.436,9.14,9.14,0,0,0-2.2-.122,4.372,4.372,0,0,0-.556.064c-.125.025-.25.042-.378.067.019-.044.036-.086.058-.131.1-.019.2-.036.3-.058.184-.022.37-.05.556-.064a9.252,9.252,0,0,1,2.226.12,16.755,16.755,0,0,1,4.218,1.438,72.18,72.18,0,0,1,7.667,4.538l.734.47.159.1c1.113.715,2.226,1.424,3.38,2.095l.159.095c1.057.615,2.134,1.2,3.241,1.725a24.82,24.82,0,0,0,2.373.988Zm-3.01-14.125-.114.108a33.9,33.9,0,0,0-5.258,7.186q-.479.815-.963,1.628c-.025.047-.05.092-.078.136-.409.69-.821,1.377-1.249,2.053-.376.6-.768,1.182-1.185,1.75-.039.053-.075.106-.114.156a18.264,18.264,0,0,1-1.363,1.633,10.964,10.964,0,0,1-1.669,1.447l-.225.159c-.075.053-.159.095-.237.142l-.476.278a8.507,8.507,0,0,1-1.013.431,13.81,13.81,0,0,1-4.351.7,20.211,20.211,0,0,1-4.379-.5c-1.391-.295-2.74-.69-4.1-1.085a.436.436,0,0,1-.036.131c1.358.4,2.721.8,4.106,1.1a20.452,20.452,0,0,0,4.432.512,14.014,14.014,0,0,0,4.4-.707,8.23,8.23,0,0,0,1.035-.437l.487-.278a2.6,2.6,0,0,0,.239-.145l.231-.161a11.037,11.037,0,0,0,1.694-1.463,19.364,19.364,0,0,0,1.452-1.75c.042-.053.078-.1.114-.156.4-.54.768-1.093,1.113-1.655.431-.676.835-1.363,1.252-2.05l.081-.136.965-1.63a33.809,33.809,0,0,1,5.239-7.136l.036-.033C423.982,269.491,423.96,269.416,423.941,269.343Zm1.605,6.607c-.214.278-.431.54-.651.807a23.3,23.3,0,0,1-3.074,3.188c-.223.175-.445.351-.676.515l-.145.1a8.483,8.483,0,0,1-1.01.612l-.242.131c-.081.045-.17.075-.253.114l-.506.217a8.186,8.186,0,0,1-1.057.3,12.551,12.551,0,0,1-2.623.278h-.214a14.749,14.749,0,0,1-1.566-.1,20.136,20.136,0,0,1-4.3-1.032c-1.391-.481-2.763-1.074-4.126-1.669a35.844,35.844,0,0,0-4.173-1.583,12.438,12.438,0,0,0-1.28-.3l-.042.12c.434.081.865.184,1.285.306a35.659,35.659,0,0,1,4.148,1.586c1.363.587,2.726,1.182,4.131,1.669a20.552,20.552,0,0,0,4.34,1.046c.49.056.979.092,1.469.1h.214a12.735,12.735,0,0,0,2.782-.262,9.176,9.176,0,0,0,1.079-.309l.517-.223c.086-.039.172-.07.256-.114l.248-.134a8.393,8.393,0,0,0,1.091-.665l.145-.1c.211-.153.42-.314.626-.479a23.316,23.316,0,0,0,3.1-3.2q.278-.342.556-.693C425.579,276.1,425.563,276.026,425.546,275.951Zm-3.494-12.311c-.195.047-.389.092-.584.131l-.543.106c-.181.033-.364.045-.556.07l-.556.064-.556.022a9.367,9.367,0,0,1-2.2-.117,11.66,11.66,0,0,1-3.272-1.082l-.278-.136c-.195-.1-.387-.206-.576-.314a21.958,21.958,0,0,1-3.567-2.61l-.122.122a22.5,22.5,0,0,0,3.6,2.643c.134.078.278.153.406.225l.278.139a12.107,12.107,0,0,0,3.505,1.2,13.184,13.184,0,0,0,5.08-.278A1.167,1.167,0,0,0,422.052,263.64Zm-1.981-4.02a25.621,25.621,0,0,1-4.7,2.49,15.608,15.608,0,0,1-1.833.587l-.262.067a15.038,15.038,0,0,1-2.2.342l-.556.036c-.184.014-.367,0-.556,0H409.4l-.556-.045a9.328,9.328,0,0,1-1.981-.331c-.039.053-.078.106-.114.161a13.688,13.688,0,0,0,6.766-.025l.278-.07a15.166,15.166,0,0,0,1.636-.534,25.871,25.871,0,0,0,4.729-2.5Zm8.321,34.089c-.278,0-.579.025-.868.033H427.5l-.17.014a11.6,11.6,0,0,0-4.087,1.216,18.787,18.787,0,0,0-2.607,1.647h.175a18.306,18.306,0,0,1,2.482-1.547,11.5,11.5,0,0,1,4.123-1.2h.17c.278,0,.54-.031.807-.028A.5.5,0,0,0,428.392,293.709Zm.145,1.28q-.453-.576-.938-1.132c-.031-.039-.064-.075-.1-.111l-.114-.134a16.9,16.9,0,0,0-3.325-2.971,9.087,9.087,0,0,0-2.009-.982c-.175-.058-.359-.108-.537-.159a3.942,3.942,0,0,0-.556-.114c-.367-.07-.743-.075-1.113-.111a11.525,11.525,0,0,0-4.393.7A20.266,20.266,0,0,0,411.491,292c-2.226,1.433-4.254,3.119-6.421,4.615h.092c2.156-1.472,4.173-3.127,6.376-4.529a20.006,20.006,0,0,1,3.951-2.011,11.406,11.406,0,0,1,4.348-.687c.364.039.737.044,1.1.114.184.025.359.078.54.114a4.286,4.286,0,0,1,.529.156,8.9,8.9,0,0,1,1.978.974,16.6,16.6,0,0,1,3.291,2.955c.017.019.033.036.047.056l.1.109c.39.453.771.915,1.138,1.391a1.3,1.3,0,0,0-.025-.27Z" transform="translate(-388.564 -233.632)" fill="#fff"/>
        <path id="Path_7873" data-name="Path 7873" d="M398.123,260.641c-6.886,7.965-16.167,22.034-12.375,25.144,6.235,5.113,24.443,8.068,28.622,8.563,1.8.217,5.414-11.568,4.209-13.092s-20.456-2.6-20.587-3.784c-.075-.671,2.849-6.5,4.729-13.654C404.883,255.573,400.062,258.4,398.123,260.641Z" transform="translate(-379.714 -232.676)" fill="#ad6359"/>
        <path id="Path_7874" data-name="Path 7874" d="M484.564,337.325s5.525-.042,9.139.1c2.017.078,5.461.523,6.916,1.26,2.176,1.1,10.572,7.094,9.164,9.161-1.277,1.87-7.837-4.2-7.837-4.2s7.161,5.536,5.211,7.512-8.452-5.865-8.452-5.865,7.233,5.842,4.9,7.567c-1.764,1.294-8.051-5.472-8.051-5.472s6.179,5.072,4.423,6.482c-1.947,1.558-8.138-4.323-8.138-4.323-5.063,2.832-8.624,2.109-11.128,1.294C480.124,350.637,484.564,337.325,484.564,337.325Z" transform="translate(-448.854 -289.715)" fill="#ad6359"/>
        <path id="Path_7875" data-name="Path 7875" d="M548.631,352.62c.865.62,1.744,1.241,2.551,1.947s1.589,1.416,2.329,2.184a17.947,17.947,0,0,1,2.587,3.255,39.1,39.1,0,0,0-5.113-5.225c-.807-.7-1.577-1.427-2.381-2.12C548.583,352.631,548.611,352.606,548.631,352.62Z" transform="translate(-497.891 -300.756)" fill="#263238"/>
        <path id="Path_7876" data-name="Path 7876" d="M539.447,362.931c1.068.835,2.162,1.63,3.194,2.518s2.429,2.167,3.394,3.119c.072.072,0,.211-.078.142-1-.913-2.49-2.159-3.5-3.06s-1.989-1.839-3.03-2.7C539.408,362.947,539.43,362.917,539.447,362.931Z" transform="translate(-491.267 -308.199)" fill="#263238"/>
        <path id="Path_7877" data-name="Path 7877" d="M529.874,370.344a30.44,30.44,0,0,1,4.59,4.226c.072.075,0,.086-.089.014-1.5-1.433-2.668-2.568-4.543-4.173C529.81,370.378,529.846,370.319,529.874,370.344Z" transform="translate(-484.343 -313.548)" fill="#263238"/>
        <path id="Path_7878" data-name="Path 7878" d="M491.789,336.684c2.521-.017,9.924-.036,12.439.159a11.674,11.674,0,0,1,5.926,1.883,29.8,29.8,0,0,1,7.233,6.677c.389.556.954,1.455.44,2.078-.632.757-2.955.017-5.406-2.2-.089-.081-.033-.131.058-.056,3.441,2.782,4.81,2.465,5.169,1.989.234-.309,0-.835-.2-1.252a7.935,7.935,0,0,0-1.219-1.622,34.146,34.146,0,0,0-5.219-4.554,13.354,13.354,0,0,0-6.955-2.612c-2.576-.211-9.7-.145-12.277-.392A.05.05,0,0,1,491.789,336.684Z" transform="translate(-456.855 -289.25)" fill="#263238"/>
        <path id="Path_7879" data-name="Path 7879" d="M564.877,373.021a5.594,5.594,0,0,0-1.029-1.883,12.824,12.824,0,0,0-1.633-1.984c-.025-.025-.072,0-.047.039a19.971,19.971,0,0,1,1.444,1.908,11.089,11.089,0,0,1,.64,1.135,1.984,1.984,0,0,1,.3,1.238c-.178.818-1.219.8-1.833.579a6.933,6.933,0,0,1-1.146-.556,11.288,11.288,0,0,1-1.408-1.06c-.036-.033-.136-.019-.1.017.918.874,2.657,2.69,4.076,2.025A1.285,1.285,0,0,0,564.877,373.021Z" transform="translate(-506.165 -312.686)" fill="#263238"/>
        <path id="Path_7880" data-name="Path 7880" d="M413.92,278.546,407.3,293.569s-23.13-5.222-24.471-9.612,5.906-16.136,12.447-23.469c6.432-7.206,7.384-2.317,5.784,3.255s-4.223,12-3.931,12.478S413.92,278.546,413.92,278.546Z" transform="translate(-378.126 -231.651)" fill="#ff914d"/>
        <path id="Path_7881" data-name="Path 7881" d="M398.67,272.729c-.017.042-.031.086-.047.128a16.5,16.5,0,0,0-4.051-1.374,9.142,9.142,0,0,0-2.2-.122,4.372,4.372,0,0,0-.556.064,3.7,3.7,0,0,0-.54.106c-.362.078-.7.217-1.057.326a11.359,11.359,0,0,0-3.683,2.287l.175-.3a11.328,11.328,0,0,1,3.466-2.095c.356-.111.7-.253,1.071-.331.181-.05.367-.072.556-.111a4.265,4.265,0,0,1,.556-.064,9.249,9.249,0,0,1,2.226.12A16.6,16.6,0,0,1,398.67,272.729Zm12.241,7.364-.159-.095-.634-.376-.384-.045c.278.175.581.353.874.523l.159.095c.835.487,1.669.954,2.526,1.391l.067-.153Q412.124,280.8,410.911,280.093Zm-4.515-.921c-.167.278-.337.556-.509.821-.376.6-.768,1.182-1.185,1.75-.039.053-.075.106-.114.156a18.259,18.259,0,0,1-1.363,1.633,10.962,10.962,0,0,1-1.669,1.447l-.225.159c-.075.053-.159.095-.236.142l-.476.278a8.505,8.505,0,0,1-1.013.431,13.81,13.81,0,0,1-4.351.7,20.212,20.212,0,0,1-4.373-.5c-1.449-.309-2.871-.729-4.3-1.143-1.266-.367-2.54-.737-3.842-.979v.131c1.288.242,2.548.615,3.809.979,1.424.417,2.852.835,4.307,1.155a20.454,20.454,0,0,0,4.432.512,14.014,14.014,0,0,0,4.4-.707,8.239,8.239,0,0,0,1.035-.437l.487-.278a2.6,2.6,0,0,0,.239-.145l.231-.161a11.031,11.031,0,0,0,1.694-1.463,19.369,19.369,0,0,0,1.452-1.75c.042-.053.078-.1.114-.156.4-.54.768-1.093,1.113-1.655.189-.295.373-.6.556-.893Zm4.707.556c-.114.089-.231.178-.351.262l-.145.1a8.482,8.482,0,0,1-1.01.612l-.242.131c-.081.045-.17.075-.253.114l-.506.217a8.183,8.183,0,0,1-1.057.3,12.547,12.547,0,0,1-2.623.278H404.7a14.749,14.749,0,0,1-1.566-.1,20.134,20.134,0,0,1-4.3-1.032c-1.391-.481-2.763-1.074-4.126-1.669a35.861,35.861,0,0,0-4.173-1.583,9.515,9.515,0,0,0-4.426-.342,5.269,5.269,0,0,0-1.352.47c-.028.056-.056.114-.081.17a5.358,5.358,0,0,1,1.455-.523,9.429,9.429,0,0,1,4.368.348,35.654,35.654,0,0,1,4.148,1.586c1.363.587,2.726,1.182,4.131,1.669a20.547,20.547,0,0,0,4.346,1.054c.49.056.979.092,1.469.1h.214a12.737,12.737,0,0,0,2.782-.262,9.176,9.176,0,0,0,1.079-.309l.517-.223c.086-.039.172-.07.256-.114l.248-.134a8.394,8.394,0,0,0,1.091-.665l.145-.1c.145-.106.278-.217.434-.328ZM398.99,259.3c-.12-.106-.237-.209-.353-.317l-.15.1.389.348a23.471,23.471,0,0,0,2.893,2.212v-.206A23.279,23.279,0,0,1,399,259.306Zm1.691,3.338-.556.036c-.184.014-.367,0-.556,0h-.556l-.556-.044a9.569,9.569,0,0,1-2.17-.384c-.309-.092-.615-.2-.915-.32L395.3,262l-.064.072a9.568,9.568,0,0,0,.993.353,13.273,13.273,0,0,0,5.406.3,1.309,1.309,0,0,1,.031-.206,8.294,8.294,0,0,1-.982.125Zm8.78,26.168a11.526,11.526,0,0,0-4.393.707,20.268,20.268,0,0,0-3.964,2.031c-.7.451-1.374.924-2.045,1.41l.109.031h0c.651-.47,1.31-.924,1.986-1.355a20.006,20.006,0,0,1,3.951-2.011,11.406,11.406,0,0,1,4.348-.687c.192.019.384.031.576.047l.053-.117c-.2-.017-.409-.028-.615-.047Z" transform="translate(-378.177 -233.17)" fill="#fff"/>
        <path id="Path_7882" data-name="Path 7882" d="M459.687,347.952c.225-.428.442-.857.659-1.288q.654-1.31,1.3-2.626c.857-1.742,1.669-3.505,2.451-5.286.448-1.007.935-2,1.338-3.03a.043.043,0,0,0-.078-.036c-.481.849-.9,1.736-1.344,2.607s-.9,1.733-1.327,2.612q-1.28,2.612-2.482,5.266c-.225.5-.47.985-.673,1.491-.106.259-.228.509-.331.771s-.181.529-.278.787a.023.023,0,0,0,.042.019C459.191,348.808,459.456,348.391,459.687,347.952Z" transform="translate(-433.165 -288.518)" fill="#263238"/>
        <path id="Path_7883" data-name="Path 7883" d="M408.2,362.814l-.465,1.052-.014.033h-.044c-2.189-.406-4.365-.893-6.527-1.436s-4.307-1.157-6.429-1.842a57.443,57.443,0,0,1-6.257-2.387,23.086,23.086,0,0,1-2.955-1.6,10.4,10.4,0,0,1-1.333-1.032,3.339,3.339,0,0,1-.954-1.366,3.536,3.536,0,0,0,1.049,1.26,10.065,10.065,0,0,0,1.394.9,27.513,27.513,0,0,0,2.988,1.433c2.045.849,4.145,1.572,6.257,2.251s4.243,1.31,6.379,1.917,4.282,1.207,6.429,1.783l-.056.028Z" transform="translate(-378.524 -301.929)" fill="#263238"/>
        <path id="Path_7884" data-name="Path 7884" d="M450.49,302.419l.231-.6.025.042c-2.32-.153-4.638-.339-6.955-.581s-4.621-.506-6.925-.851c-.576-.089-1.152-.184-1.728-.295-.278-.058-.576-.114-.874-.2-.075-.022-.147-.045-.228-.075a.754.754,0,0,1-.134-.058.577.577,0,0,1-.092-.061.339.339,0,0,1-.075-.089.716.716,0,0,1-.031-.067.117.117,0,0,1,0-.033,1.013,1.013,0,0,1,.017-.317c.014-.075.028-.156.047-.225.295-1.155.668-2.245,1.046-3.338.757-2.2,1.58-4.373,2.448-6.532-.67,2.226-1.358,4.451-2.042,6.677-.328,1.113-.69,2.226-.943,3.338-.017.07-.025.134-.039.2s0,.145-.014.117h0a.13.13,0,0,0-.017-.042c0-.028-.05-.056-.039-.05s-.014,0,0,0l.07.028.184.058c.278.072.556.125.835.181.556.1,1.138.192,1.708.278q1.719.259,3.444.487l3.453.465c2.3.306,4.6.634,6.9.971h.042l-.017.036Z" transform="translate(-414.96 -254.94)" fill="#263238"/>
        <path id="Path_7885" data-name="Path 7885" d="M443.639,294.26a5.758,5.758,0,0,1-.615,1.113,4.355,4.355,0,0,1-.835.949c.211-.37.437-.721.676-1.068A8.286,8.286,0,0,1,443.639,294.26Z" transform="translate(-421.088 -258.635)" fill="#263238"/>
        <path id="Path_7886" data-name="Path 7886" d="M453.543,242.012c-1.964.556-5.5-2.317-6.955-4.713-.1-.164.295-6.93.234-8.279,0-.278,8.552,1.669,8.552,1.669a21.475,21.475,0,0,0-.581,5.216C454.8,236.105,455.437,241.472,453.543,242.012Z" transform="translate(-424.25 -211.525)" fill="#ad6359"/>
        <path id="Path_7887" data-name="Path 7887" d="M447,233.264a9.938,9.938,0,0,0,8.068,1.691,23.27,23.27,0,0,1,.593-4.257s-8.569-1.947-8.555-1.669C447.156,229.661,447.086,231.486,447,233.264Z" transform="translate(-424.56 -211.533)" fill="#263238"/>
        <path id="Path_7888" data-name="Path 7888" d="M477.995,204.737a3.221,3.221,0,1,0,2.782-3.962A3.435,3.435,0,0,0,477.995,204.737Z" transform="translate(-446.914 -191.146)" fill="#455a64"/>
        <path id="Path_7889" data-name="Path 7889" d="M474.347,204.43a3.579,3.579,0,1,0,3.085-4.41A3.819,3.819,0,0,0,474.347,204.43Z" transform="translate(-444.279 -190.6)" fill="#c7c7c7"/>
        <path id="Path_7890" data-name="Path 7890" d="M442.484,180.056c-.935,3,.6,11.685,2.721,13.632,3.08,2.824,8.149,3.121,10.552-.584,2.331-3.594.134-14.876-2.242-16.648C450.018,173.841,443.864,175.63,442.484,180.056Z" transform="translate(-421.098 -172.728)" fill="#ad6359"/>
        <path id="Path_7891" data-name="Path 7891" d="M468.243,212.139c0-.019-.039.036-.033.061.128.579.181,1.266-.309,1.561-.017,0,0,.039,0,.031C468.538,213.578,468.46,212.668,468.243,212.139Z" transform="translate(-439.641 -199.358)" fill="#263238"/>
        <path id="Path_7892" data-name="Path 7892" d="M465.325,210.312c-.951.109-.665,2.006.217,1.906S466.123,210.223,465.325,210.312Z" transform="translate(-437.359 -198.04)" fill="#263238"/>
        <path id="Path_7893" data-name="Path 7893" d="M481.284,210.494c0-.022.05.022.053.047.07.59.25,1.252.81,1.369.017,0,.022.033,0,.033C481.482,211.949,481.256,211.065,481.284,210.494Z" transform="translate(-449.304 -198.169)" fill="#263238"/>
        <path id="Path_7894" data-name="Path 7894" d="M481.7,207.956c.935-.214,1.294,1.669.428,1.87S480.908,208.142,481.7,207.956Z" transform="translate(-449.287 -196.329)" fill="#263238"/>
        <path id="Path_7895" data-name="Path 7895" d="M462.15,203.79a6.957,6.957,0,0,0,.7-.37,1.274,1.274,0,0,0,.637-.512.406.406,0,0,0-.139-.476,1,1,0,0,0-1.015.05,1.477,1.477,0,0,0-.748.759.431.431,0,0,0,.57.548Z" transform="translate(-435.064 -192.272)" fill="#263238"/>
        <path id="Path_7896" data-name="Path 7896" d="M480.642,201.169a7.415,7.415,0,0,1-.785-.081,1.266,1.266,0,0,1-.782-.234.406.406,0,0,1-.053-.5,1.015,1.015,0,0,1,.963-.337,1.475,1.475,0,0,1,.977.426.431.431,0,0,1-.32.721Z" transform="translate(-447.63 -190.602)" fill="#263238"/>
        <path id="Path_7897" data-name="Path 7897" d="M470.182,231.928a.994.994,0,0,0,.556.278,1.566,1.566,0,0,0,.609-.242.02.02,0,1,1,.031.025.793.793,0,0,1-.7.431.629.629,0,0,1-.54-.448C470.115,231.945,470.157,231.912,470.182,231.928Z" transform="translate(-441.257 -213.641)" fill="#263238"/>
        <path id="Path_7898" data-name="Path 7898" d="M471.525,207.782a2.025,2.025,0,0,0,1.469.687,2.57,2.57,0,0,0,.726-.075.676.676,0,0,0,.134-.039,1.28,1.28,0,0,0,.125-.039.147.147,0,0,0,.1-.147h0a.2.2,0,0,0-.014-.058h0v-.05c-.058-.453-.206-1.135-.206-1.135.178.058,1.079.309,1.029.075a30.082,30.082,0,0,0-1.691-5.934.056.056,0,0,0-.106.031c.323,1.878.974,3.686,1.33,5.564a3.512,3.512,0,0,0-.988-.142c-.061.028.309,1.31.317,1.516a.047.047,0,0,1,0,.022,2.809,2.809,0,0,1-2.167-.328C471.522,207.7,471.483,207.74,471.525,207.782Z" transform="translate(-442.249 -191.345)" fill="#263238"/>
        <path id="Path_7899" data-name="Path 7899" d="M473.142,225.67a2.384,2.384,0,0,1-.835.879,1.1,1.1,0,0,1-.643.139c-.487-.053-.556-.481-.534-.862a2.625,2.625,0,0,1,.125-.6,3.11,3.11,0,0,0,1.886.44Z" transform="translate(-441.975 -208.81)" fill="#263238"/>
        <path id="Path_7900" data-name="Path 7900" d="M472.3,228.116a1.1,1.1,0,0,1-.643.139c-.487-.053-.556-.481-.534-.862A1.09,1.09,0,0,1,472.3,228.116Z" transform="translate(-441.967 -210.369)" fill="#ff99ba"/>
        <path id="Path_7901" data-name="Path 7901" d="M443.9,188.988c-.342.862-1.046,2.888-1.447,3.03-.381-2.815-.4-5.369.3-6.938a5.784,5.784,0,0,1,1.2-1.739C444.012,184.094,444.265,188.086,443.9,188.988Z" transform="translate(-421.091 -178.574)" fill="#263238" opacity="0.2"/>
        <path id="Path_7902" data-name="Path 7902" d="M462.828,189.121a2.782,2.782,0,0,1-2.34,1.391,2.849,2.849,0,0,1-2.456-1.285.022.022,0,0,0-.039.022,2.815,2.815,0,0,0,2.5,1.488,2.871,2.871,0,0,0,2.4-1.572.041.041,0,1,0-.07-.045Z" transform="translate(-432.492 -182.733)" fill="#263238"/>
        <path id="Path_7903" data-name="Path 7903" d="M483,168.316a3.561,3.561,0,0,0-1.833-1.619,4.928,4.928,0,0,0-3.249.167.022.022,0,0,0,0,.045,4.925,4.925,0,0,1,2.8-.184,3.508,3.508,0,0,1,1.9,1.391,3.419,3.419,0,0,1-.643,4.426,3.472,3.472,0,0,1-2.646.76c-.036,0-.053.05-.014.056a3.486,3.486,0,0,0,3.678-5.041Z" transform="translate(-446.856 -166.404)" fill="#263238"/>
        <path id="Path_7904" data-name="Path 7904" d="M438.917,175.27s-2.011-2.585-1.038-4.451c.556-1.06,2.952-1.352,2.952-1.352a4.629,4.629,0,0,1,2.451-2.023,9.215,9.215,0,0,1,4.451-.328,4.034,4.034,0,0,1,3.647-.712,3.729,3.729,0,0,1,.79,6.435c-1.6,1.155-4.234.025-4.234.025-.223.07-2.309,1.883-4.435.111,0,0-1.21,1.525-2.654.857a2.109,2.109,0,0,1-1.931,1.438Z" transform="translate(-417.785 -166.209)" fill="#263238"/>
        <path id="Path_7905" data-name="Path 7905" d="M440.043,212.342s-2-2.782-3.263-2.062.278,4.763,1.769,5.286a1.519,1.519,0,0,0,2.025-.835Z" transform="translate(-416.846 -197.934)" fill="#ad6359"/>
        <path id="Path_7906" data-name="Path 7906" d="M439.619,214.73c-.025,0-.028.031,0,.039a3.848,3.848,0,0,1,2.02,2.376.837.837,0,0,0-1.257-.211c-.028.019,0,.061.028.056a.938.938,0,0,1,1.027.32,4.45,4.45,0,0,1,.5.835c.05.092.217.039.181-.067v-.025C442.12,216.7,441.054,214.844,439.619,214.73Z" transform="translate(-419.218 -201.231)" fill="#263238"/>
        <path id="Path_7907" data-name="Path 7907" d="M442.276,180.291s-1.082-4.312-.239-6.955a7.111,7.111,0,0,1,8.652-4.593s-4.638.6-6.891,4.474c-1.035,1.781-.042,6.922-.042,6.922Z" transform="translate(-420.745 -167.83)" fill="#c7c7c7"/>
        <path id="Path_7908" data-name="Path 7908" d="M441.348,207.41a3.623,3.623,0,1,1-4.3-3.338A3.867,3.867,0,0,1,441.348,207.41Z" transform="translate(-415.327 -193.497)" fill="#c7c7c7"/>
        <path id="Path_7909" data-name="Path 7909" d="M439.446,208.551a3.255,3.255,0,1,1-3.864-3.007A3.473,3.473,0,0,1,439.446,208.551Z" transform="translate(-414.477 -194.565)" fill="#455a64"/>
      </g>
      <g id="freepik--character-1--inject-5" transform="translate(45.978 88.887)">
        <path id="Path_7910" data-name="Path 7910" d="M59.3,289.92H93.425l-6.8-39.58H61.1Z" transform="translate(-58.169 -230.741)" fill="#dbdbdb"/>
        <path id="Path_7911" data-name="Path 7911" d="M59.3,289.92h2.991l1.68-39.58H61.1Z" transform="translate(-58.169 -230.741)" fill="#a6a6a6"/>
        <path id="Path_7912" data-name="Path 7912" d="M115.35,182.893c-3.169,3.152-4.079,8.346-4.079,8.346s-3.038,5.227-2.189,8.068a5.169,5.169,0,0,0,3.288,3.5l-.3-1.569s1.018,2.017,4.421,2.829a17.139,17.139,0,0,0,10.246-1.419,8.989,8.989,0,0,0,3.439-3.027L129.3,201.9a6.759,6.759,0,0,0,5.264-3.631c1.961-3.514-3.672-8.563-4.151-9.651s-1.085-9.014-9.423-7.648A7.942,7.942,0,0,0,115.35,182.893Z" transform="translate(-93.993 -180.557)" fill="#263238"/>
        <path id="Path_7913" data-name="Path 7913" d="M108.392,226.821a7.34,7.34,0,0,1-2.2-2.309,4.819,4.819,0,0,1-.526-3.121,10.8,10.8,0,0,1,1.564-3.519c.657-1.1,1.447-2.226,2.106-3.386.036-.064-.061-.117-.106-.067a30.32,30.32,0,0,0-2.07,2.729,13.91,13.91,0,0,0-1.636,2.8,5.211,5.211,0,0,0-.384,2.918,5.066,5.066,0,0,0,1.04,2.192,10.774,10.774,0,0,0,2.17,1.831C108.392,226.927,108.439,226.857,108.392,226.821Z" transform="translate(-91.208 -204.799)" fill="#263238"/>
        <path id="Path_7914" data-name="Path 7914" d="M183.018,200.857c-1-2.918-3.617-4.771-5.222-7.317a25.076,25.076,0,0,0-2.657-4.1c-.031-.033-.086.019-.058.053a19.275,19.275,0,0,1,2.125,3.617,21.355,21.355,0,0,0,2.482,3.433c1.653,1.981,3.631,4.326,3.252,7.1a3.658,3.658,0,0,1-2.245,3.1c-.05.017-.019.1.031.078a4.109,4.109,0,0,0,2.29-2.3A5.225,5.225,0,0,0,183.018,200.857Z" transform="translate(-141.733 -186.778)" fill="#263238"/>
        <path id="Path_7915" data-name="Path 7915" d="M188.513,212.922a5.361,5.361,0,0,0-.729-3.166,7.663,7.663,0,0,0-2.384-2.226,8.411,8.411,0,0,1-2.8-2.451c-.028-.047-.095,0-.07.047,1.052,1.814,3.06,2.66,4.4,4.187a5.54,5.54,0,0,1,.484,6.279,8.825,8.825,0,0,1-2.782,3.032c-.019,0,0,.042.022.028C186.621,217.362,188.354,215.376,188.513,212.922Z" transform="translate(-147.108 -198.058)" fill="#263238"/>
        <path id="Path_7916" data-name="Path 7916" d="M150.843,238.245c8.444,4.635,18.551,10.452,24.744,9.083,2.746-.607,15.076-16.77,15.6-18.64.448-1.605-10.716-8.068-11.963-6.8-2.1,2.123-7.79,14.074-8.624,14.275s-7.923-1.238-15.3-2.571C148.2,232.316,144.982,235.029,150.843,238.245Z" transform="translate(-122.047 -210.086)" fill="#eb9481"/>
        <path id="Path_7917" data-name="Path 7917" d="M270.734,200.509c.963-1.213,4.891-7.161,5.611-9.061s2.406-7.512,1.01-8.218-2.014.893-2.014.893.337-2.484-1.135-3.06-2.362,1.947-2.362,1.947.159-2.576-1.352-3.06-1.978,2.226-1.978,2.226.256-2.348-1.152-2.226c-1.691.164-1.669,4.549-2.626,6.585-.217.462-5.066,9.064-5.066,9.064Z" transform="translate(-202.795 -179.892)" fill="#eb9481"/>
        <path id="Path_7918" data-name="Path 7918" d="M285.783,187a11.472,11.472,0,0,1-2.226,7.325c-.033.05.036.111.078.061,1.892-2.482,2.843-4.151,2.315-7.395C285.914,186.829,285.783,186.843,285.783,187Z" transform="translate(-220.03 -184.932)" fill="#263238"/>
        <path id="Path_7919" data-name="Path 7919" d="M297.043,189.941a16.968,16.968,0,0,1-2.434,7.831c-.022.042.047.083.072.042,1.772-2.76,2.685-4.451,2.529-7.831C297.218,189.83,297.057,189.788,297.043,189.941Z" transform="translate(-228.01 -187.076)" fill="#263238"/>
        <path id="Path_7920" data-name="Path 7920" d="M307.938,195.268a15.266,15.266,0,0,1-2.963,7.6.059.059,0,0,0,.092.075,10.826,10.826,0,0,0,2.968-7.651C308.033,195.093,307.971,195.065,307.938,195.268Z" transform="translate(-235.486 -190.89)" fill="#263238"/>
        <path id="Path_7921" data-name="Path 7921" d="M250.844,205.394a39.273,39.273,0,0,1,.053-5.826c.289-1.794,3.82-8.087,5.211-7.4,1.811.887.487,4.921-.42,6.813,0,0,4.19,2.042,3.867,5.144S250.844,205.394,250.844,205.394Z" transform="translate(-196.358 -188.714)" fill="#eb9481"/>
        <path id="Path_7922" data-name="Path 7922" d="M268.842,193.722c1.068,2-.278,4.407-1.024,6.307a.186.186,0,0,0,.159.262c1.7.974,3.814,2.843,4,4.9a.047.047,0,1,0,.095,0c.106-2.226-1.822-4.24-3.75-5.189.79-1.947,2.039-4.41.556-6.293C268.853,193.7,268.837,193.711,268.842,193.722Z" transform="translate(-208.665 -189.864)" fill="#263238"/>
        <path id="Path_7923" data-name="Path 7923" d="M163.674,263.367l-10.163,8.519a75.616,75.616,0,0,1-10.786-6.936c-4.582-3.708.492-5.511,8.36-4.19S163.674,263.367,163.674,263.367Z" transform="translate(-117.131 -237.951)" fill="#ff914d"/>
        <path id="Path_7924" data-name="Path 7924" d="M156.148,268.681a6.187,6.187,0,0,0-.993-1.066,6.894,6.894,0,0,0,1.744,2.309A6.04,6.04,0,0,0,156.148,268.681Zm-8.9-.122.122.095a3.351,3.351,0,0,0,.236-.278,2.861,2.861,0,0,0-.364.195Zm17.012.056a6.325,6.325,0,0,0-1.452-.045,6.33,6.33,0,0,0,1.408.353,6.169,6.169,0,0,0,1.452.047,6.3,6.3,0,0,0-1.413-.356Zm-3.4-3.294a4.054,4.054,0,0,0,.019.556,4.432,4.432,0,0,0,.173-.512Z" transform="translate(-121.643 -241.553)" fill="#fff"/>
        <path id="Path_7925" data-name="Path 7925" d="M177.8,276.881c2.067-1.986,4.276-3.831,6.516-5.628.634-.506,1.28-1,1.947-1.477.019-.014.045,0,.025.025-1.052.971-2.145,1.9-3.233,2.829s-2.189,1.864-3.305,2.768c-.632.512-1.26,1.024-1.9,1.522C177.81,276.939,177.773,276.906,177.8,276.881Z" transform="translate(-143.694 -244.765)" fill="#263238"/>
        <path id="Path_7926" data-name="Path 7926" d="M157.819,272.028l-4.321,3.617a75.472,75.472,0,0,1-10.786-6.933c-1.628-1.316-2.036-2.39-1.538-3.172Z" transform="translate(-117.121 -241.712)" fill="#263238"/>
        <path id="Path_7927" data-name="Path 7927" d="M109.976,295.362H77.59s7.036-27.172,13.549-34.823c.145-.175.295-.342.445-.5.031-.036.058-.061.089-.092a6.924,6.924,0,0,1,1.739-1.347c.114-.061.228-.12.348-.17,2.5-1.155,5.158-.2,7.069,1.438.606.517,7.473,9.459,8.068,12.856.526,3.007-1.505,6.237-1.505,6.237Z" transform="translate(-71.37 -236.216)" fill="#ff914d"/>
        <path id="Path_7928" data-name="Path 7928" d="M146.2,329.368a27.878,27.878,0,0,0-4.09.709c-.668.178-1.319.384-1.972.6-.325.111-.651.211-.979.309a4.425,4.425,0,0,1-1.054.206.025.025,0,1,0,0,.05,7.327,7.327,0,0,0,1.018-.028,7.133,7.133,0,0,0,.965-.189c.679-.175,1.347-.378,2.023-.556,1.363-.362,2.724-.723,4.109-.988a.059.059,0,0,0-.019-.117Z" transform="translate(-115.032 -287.782)" fill="#263238"/>
        <path id="Path_7929" data-name="Path 7929" d="M161.783,333.3a30.608,30.608,0,0,0-3.425-.136c-.556.014-1.138.058-1.708.117-.278.031-.556.064-.812.1s-.59.12-.887.156c-.031,0-.031.053,0,.05.278-.025.57,0,.854-.014l.854-.031c.556-.017,1.138-.031,1.708-.056,1.141-.047,2.279-.083,3.419-.095C161.847,333.39,161.842,333.3,161.783,333.3Z" transform="translate(-127.192 -290.517)" fill="#263238"/>
        <path id="Path_7930" data-name="Path 7930" d="M97.344,270.943a6.2,6.2,0,0,0-.479-.556l-.12.25c.111.172.231.342.353.506a6.151,6.151,0,0,0,.993,1.057A6.739,6.739,0,0,0,97.344,270.943Zm3.759-7.128a6.054,6.054,0,0,0-.028,1.31,6.023,6.023,0,0,0,.348-1.416,1.977,1.977,0,0,1,.028-.22C101.333,263.593,101.217,263.7,101.1,263.815Zm9.829,9.053a6.267,6.267,0,0,0-.356,1.413,6.512,6.512,0,0,0-.047,1.455,5.906,5.906,0,0,0,.351-1.413,6.026,6.026,0,0,0,.053-1.455Zm-6.19,15.669a6.209,6.209,0,0,0-.351,1.408,6.351,6.351,0,0,0-.045,1.455A6.955,6.955,0,0,0,104.741,288.537ZM94.22,276.708a6.469,6.469,0,0,0-.351,1.416,6.3,6.3,0,0,0-.045,1.452,6.286,6.286,0,0,0,.348-1.413A6.193,6.193,0,0,0,94.22,276.708Zm8.708-1.986a6.325,6.325,0,0,0-1.452-.045,6.33,6.33,0,0,0,1.408.353,6.171,6.171,0,0,0,1.452.047,6.3,6.3,0,0,0-1.4-.367Zm11.651,13.354a6.345,6.345,0,0,0-1.455-.045,6.955,6.955,0,0,0,2.863.4,6.359,6.359,0,0,0-1.4-.356Zm-21.75-1.283a6.573,6.573,0,0,0-1.427-.05h0a6.4,6.4,0,0,0,1.391.342,6.321,6.321,0,0,0,1.452.044A6.287,6.287,0,0,0,92.829,286.793Zm12.219,11.487a6.328,6.328,0,0,0-1.452-.044,6.916,6.916,0,0,0,2.866.392,6.434,6.434,0,0,0-1.424-.348Zm-13.142-1.408a6.347,6.347,0,0,0-1.455-.045,6.35,6.35,0,0,0,1.408.348,5.909,5.909,0,0,0,1.455.045,6.352,6.352,0,0,0-1.419-.348Zm13.46-29.067a6.44,6.44,0,0,0-1.066,1,6.542,6.542,0,0,0,1.252-.748,6.1,6.1,0,0,0,1.057-1A6.6,6.6,0,0,0,105.365,267.8Zm3.466,14.892a6.046,6.046,0,0,0-1.057.993,6.191,6.191,0,0,0,1.244-.751,5.943,5.943,0,0,0,1.057-.993,6.319,6.319,0,0,0-1.244.757Zm-12.155,9.1a5.875,5.875,0,0,0-1.06,1,6.6,6.6,0,0,0,1.244-.751,6.535,6.535,0,0,0,1.066-.993,5.764,5.764,0,0,0-1.249.754Zm20.187-13.1a6.186,6.186,0,0,0-.993-1.066,6.894,6.894,0,0,0,1.744,2.309,6.041,6.041,0,0,0-.751-1.238Zm-4.142,16.851a6.526,6.526,0,0,0-.993-1.066,5.7,5.7,0,0,0,.748,1.249,6.068,6.068,0,0,0,.993,1.06A6.589,6.589,0,0,0,112.72,295.556Zm-12.2-13.254a6.3,6.3,0,0,0-.993-1.066,5.843,5.843,0,0,0,.751,1.249,5.959,5.959,0,0,0,.993,1.06A6.431,6.431,0,0,0,100.524,282.3Z" transform="translate(-80.653 -240.232)" fill="#fff"/>
        <path id="Path_7931" data-name="Path 7931" d="M74.34,263.142c-6.229,5.022-22.181,24.922-18.584,29.52s27.506,2.5,34.447.328c2.064-.645-3.567-13.746-5.8-14.35-1.858-.5-12.163,2.543-12.363,1.947-.225-.673,2.546-4.4,6.068-12.469C82.171,258.81,77.091,260.924,74.34,263.142Z" transform="translate(-55.234 -238.607)" fill="#eb9481"/>
        <path id="Path_7932" data-name="Path 7932" d="M200.54,318.206c4.76.556,5.9,1.422,10.163-.248,2.8-1.093,4.7.223,2.651,2.585-3.338,3.864-9.637,4.451-11.877,4.017Z" transform="translate(-160.115 -279.266)" fill="#eb9481"/>
        <path id="Path_7933" data-name="Path 7933" d="M152.55,320.635a48.91,48.91,0,0,1,11.036-1.444c3.55.058,11.256,1.046,16.486,10.257,1.241,2.184,1.461,6.179-1.864,3.338-2.359-2.011-3.247-4-4.832-4.921,0,0-.326,5.111-2.562,6.271a46.464,46.464,0,0,1-6.062,2.607,9.41,9.41,0,0,1-.59-1.091,8.29,8.29,0,0,1-5.564-.342Z" transform="translate(-125.476 -280.435)" fill="#eb9481"/>
        <path id="Path_7934" data-name="Path 7934" d="M191.914,321.35a27.371,27.371,0,0,1,5.842,6.955c1.769,3.355,4.273,10.294,1.783,11.576-1.825.94-3.016-1.628-3.016-1.628s.431,3.088-1.391,3.575c-1.669.445-2.473-1.6-2.473-1.6s-.061,1.917-1.753,2.036c-2.036.139-1.575-3.895-3.761-5.539C186.653,336.359,191.914,321.35,191.914,321.35Z" transform="translate(-150.423 -281.995)" fill="#eb9481"/>
        <path id="Path_7935" data-name="Path 7935" d="M211.459,350.981a15.081,15.081,0,0,1,2.668,8.6c0,.078-.064.117-.075.044a37.222,37.222,0,0,0-2.623-8.624.02.02,0,0,1,.031-.025Z" transform="translate(-167.971 -303.378)" fill="#263238"/>
        <path id="Path_7936" data-name="Path 7936" d="M199.473,357.7a16.953,16.953,0,0,1,2.151,8.75c0,.078-.07.111-.078.039a39.87,39.87,0,0,0-2.106-8.775.019.019,0,0,1,.033-.014Z" transform="translate(-159.321 -308.232)" fill="#263238"/>
        <path id="Path_7937" data-name="Path 7937" d="M227.323,350.29a12.677,12.677,0,0,1,3.2,3.021,21.44,21.44,0,0,0,1.614,1.722c.523.487,1.294,1.219,2.078.871a1.288,1.288,0,0,0,.593-1.152,3.408,3.408,0,0,0-.209-1.436c0-.022.033-.039.042-.014a4.623,4.623,0,0,1,.334,1.266,2.059,2.059,0,0,1-.17,1.2c-.434.768-1.436.623-2.064.22a6.906,6.906,0,0,1-1.032-.876c-.309-.3-.6-.62-.89-.943-.587-.668-1.135-1.366-1.714-2.036a19.874,19.874,0,0,0-1.819-1.8C227.262,350.312,227.3,350.273,227.323,350.29Z" transform="translate(-179.414 -302.881)" fill="#263238"/>
        <path id="Path_7938" data-name="Path 7938" d="M224.5,356.367a47.955,47.955,0,0,0-1.811-6.054.022.022,0,1,1,.039-.022,25.289,25.289,0,0,1,2.189,5.89,8.388,8.388,0,0,1,.111,3.4,1.789,1.789,0,0,1-1.922,1.569,2.1,2.1,0,0,1-1.277-.556,4.27,4.27,0,0,1-.913-1.447c0-.025.025-.047.039-.022a2.993,2.993,0,0,0,2.006,1.708,1.477,1.477,0,0,0,1.113-.278,1.892,1.892,0,0,0,.576-1.2A8.775,8.775,0,0,0,224.5,356.367Z" transform="translate(-174.825 -302.877)" fill="#263238"/>
        <path id="Path_7939" data-name="Path 7939" d="M207.073,384.05a3.012,3.012,0,0,0,1.127,1.33,1.669,1.669,0,0,0,1.552.053,2.106,2.106,0,0,0,.932-1.277,13.521,13.521,0,0,0,.181-2.053c0-.033.042-.036.045,0a7.48,7.48,0,0,1-.078,2.24,2.226,2.226,0,0,1-1,1.4,1.653,1.653,0,0,1-1.725-.086,3.5,3.5,0,0,1-1.113-1.591C206.993,384.05,207.065,384.039,207.073,384.05Z" transform="translate(-164.771 -325.827)" fill="#263238"/>
        <path id="Path_7940" data-name="Path 7940" d="M187.887,375.726a3.879,3.879,0,0,1,.52.732c.164.278.32.543.467.821a9.179,9.179,0,0,1,.7,1.764,4.731,4.731,0,0,0,.737,1.783,1.511,1.511,0,0,0,1.7.484,1.469,1.469,0,0,0,.743-.654,2.919,2.919,0,0,0,.376-1.043.022.022,0,1,1,.042,0,4.927,4.927,0,0,1-.172.988,1.761,1.761,0,0,1-.52.746,1.691,1.691,0,0,1-1.753.184,2.453,2.453,0,0,1-1.191-1.53c-.242-.693-.4-1.408-.679-2.092-.142-.362-.278-.723-.451-1.071s-.412-.709-.556-1.082A.024.024,0,0,1,187.887,375.726Z" transform="translate(-150.951 -321.237)" fill="#263238"/>
        <path id="Path_7941" data-name="Path 7941" d="M180.138,378.849a14.113,14.113,0,0,0,2.657.131c.028,0,.045.081.017.086a6.2,6.2,0,0,1-1.335.1,4.528,4.528,0,0,1-1.33-.259C180.11,378.891,180.11,378.843,180.138,378.849Z" transform="translate(-145.375 -323.497)" fill="#263238"/>
        <path id="Path_7942" data-name="Path 7942" d="M81.97,332.9a34.448,34.448,0,0,1,4.6-1.825,33.315,33.315,0,0,1,4.763-1.113c.921-.153,1.844-.262,2.782-.376a.021.021,0,1,1,0,.042,43.039,43.039,0,0,0-4.8,1.063q-2.359.643-4.691,1.372c-.879.278-1.747.59-2.618.893C81.97,332.981,81.942,332.923,81.97,332.9Z" transform="translate(-74.524 -287.943)" fill="#263238"/>
        <path id="Path_7943" data-name="Path 7943" d="M77.13,275.021l13.184,1.433a75.245,75.245,0,0,0,5.113-11.76c1.75-5.639-3.219-4.543-9.025.924S77.13,275.021,77.13,275.021Z" transform="translate(-71.038 -238.404)" fill="#9bd19d"/>
        <path id="Path_7944" data-name="Path 7944" d="M77.13,275.021l13.184,1.433a75.245,75.245,0,0,0,5.113-11.76c1.75-5.639-3.219-4.543-9.025.924S77.13,275.021,77.13,275.021Z" transform="translate(-71.038 -238.404)" fill="#ff914d"/>
        <path id="Path_7945" data-name="Path 7945" d="M98.707,263.567a.215.215,0,0,1,0,.042,6.346,6.346,0,0,0-.045,1.455,6.023,6.023,0,0,0,.348-1.416c0-.083.022-.164.031-.248ZM91.8,276.643a5.429,5.429,0,0,0-.278.938l.278.028a5.092,5.092,0,0,0,0-.965Zm-4.574-2.968h0l-.128.134a2.637,2.637,0,0,0,.437-.025C87.431,273.741,87.331,273.7,87.228,273.674Zm11.832.926c.078.031.159.061.239.086a.909.909,0,0,1,.05-.106C99.255,274.584,99.157,274.589,99.06,274.6Zm-4.134-3.722a6.523,6.523,0,0,0-.993-1.066,5.782,5.782,0,0,0,.748,1.252,6.15,6.15,0,0,0,.993,1.057,6.738,6.738,0,0,0-.748-1.244Z" transform="translate(-78.235 -240.168)" fill="#fff"/>
        <path id="Path_7946" data-name="Path 7946" d="M122.533,298.771h.556c.058-.17,1.194-2.782,1.472-3.339.573-1.143,1.213-2.256,1.836-3.372.019-.036.075,0,.056.025-.44.974-.862,1.947-1.31,2.927.111-.131.223-.262.331-.4.22-.278.42-.556.629-.851a.027.027,0,0,1,.045.031,5.073,5.073,0,0,1-.748,1.113,4.114,4.114,0,0,1-.409.414c-.036.081-.072.164-.111.242-.278.556-1.65,3.361-1.7,3.358l-.634-.078C122.5,298.857,122.5,298.768,122.533,298.771Z" transform="translate(-103.791 -260.843)" fill="#263238"/>
        <path id="Path_7947" data-name="Path 7947" d="M85.989,303.46c2.86.192,5.712.584,8.546,1.029q1.207.192,2.4.437c.022,0,.022.039,0,.036-1.424-.125-2.846-.309-4.268-.484s-2.854-.364-4.276-.59c-.8-.122-1.605-.245-2.4-.381C85.953,303.51,85.953,303.457,85.989,303.46Z" transform="translate(-77.413 -269.082)" fill="#263238"/>
        <path id="Path_7948" data-name="Path 7948" d="M140.53,236.53c.05.579,2.2,4.6,4.782,4.849.835.078,1.477-4.487,1.477-4.487l.122-.326L148.645,232l-5.036-4.354-.732-.584s-.392,1.28-.862,2.879c-.022.075-.047.15-.07.228s-.056.175-.081.259c-.072.239-.147.481-.214.726-.053.186-.106.367-.156.556s-.1.389-.156.584a31.623,31.623,0,0,0-.81,4.237Z" transform="translate(-116.8 -213.938)" fill="#eb9481"/>
        <path id="Path_7949" data-name="Path 7949" d="M145.87,229.939a9.81,9.81,0,0,0,4.9,6.627L152.5,232l-5.036-4.354-.732-.584S146.34,228.34,145.87,229.939Z" transform="translate(-120.654 -213.938)" fill="#263238"/>
        <path id="Path_7950" data-name="Path 7950" d="M174.914,208.379a3.218,3.218,0,1,0,2.309-4.251A3.445,3.445,0,0,0,174.914,208.379Z" transform="translate(-141.545 -197.335)" fill="#455a64"/>
        <path id="Path_7951" data-name="Path 7951" d="M171.355,208.379a3.58,3.58,0,1,0,2.571-4.729A3.826,3.826,0,0,0,171.355,208.379Z" transform="translate(-138.967 -196.984)" fill="#c7c7c7"/>
        <path id="Path_7952" data-name="Path 7952" d="M150.895,188.986c2.337,8.249-2.34,10.572-4.12,11.084-1.616.456-7.175,1.8-10.352-6.162s-.081-11.66,3.558-12.9S148.558,180.734,150.895,188.986Z" transform="translate(-112.882 -180.378)" fill="#eb9481"/>
        <path id="Path_7953" data-name="Path 7953" d="M178.131,205.061a5.224,5.224,0,0,1-.59.025.952.952,0,0,1-.609-.086.306.306,0,0,1-.095-.362.754.754,0,0,1,.679-.356,1.113,1.113,0,0,1,.773.2.328.328,0,0,1-.159.576Z" transform="translate(-142.989 -197.492)" fill="#263238"/>
        <path id="Path_7954" data-name="Path 7954" d="M160.95,211.324a5.5,5.5,0,0,0,.556-.206.971.971,0,0,0,.529-.317.309.309,0,0,0-.056-.37.759.759,0,0,0-.765-.064,1.113,1.113,0,0,0-.632.49.325.325,0,0,0,.367.467Z" transform="translate(-131.247 -201.835)" fill="#263238"/>
        <path id="Path_7955" data-name="Path 7955" d="M167.48,219.218c0-.022-.036.039-.028.061.178.556.278,1.224-.167,1.555-.014,0,0,.036.014.031C167.889,220.6,167.733,219.71,167.48,219.218Z" transform="translate(-136.108 -208.273)" fill="#263238"/>
        <path id="Path_7956" data-name="Path 7956" d="M164.249,217.6c-.924.189-.479,2.02.378,1.845S165.023,217.446,164.249,217.6Z" transform="translate(-133.55 -207.106)" fill="#263238"/>
        <path id="Path_7957" data-name="Path 7957" d="M161.552,218.242c-.134.145-.248.364-.434.431s-.434-.075-.623-.225c-.019-.014-.033,0-.028.031.081.351.3.679.693.64s.526-.406.526-.782C161.688,218.267,161.607,218.186,161.552,218.242Z" transform="translate(-131.189 -207.559)" fill="#263238"/>
        <path id="Path_7958" data-name="Path 7958" d="M179.69,215.6c0-.022.053.017.056.039.117.573.345,1.21.9,1.277a.017.017,0,0,1,0,.033C180,217.01,179.709,216.162,179.69,215.6Z" transform="translate(-145.066 -205.663)" fill="#263238"/>
        <path id="Path_7959" data-name="Path 7959" d="M180.028,212.985c.9-.278,1.391,1.53.556,1.794S179.28,213.221,180.028,212.985Z" transform="translate(-145.039 -203.757)" fill="#263238"/>
        <path id="Path_7960" data-name="Path 7960" d="M182.309,212.182c.17.056.359.192.534.156s.295-.278.37-.5c0-.022.028,0,.033,0,.106.345.092.737-.225.9s-.593-.092-.771-.415C182.217,212.271,182.239,212.151,182.309,212.182Z" transform="translate(-146.903 -202.941)" fill="#263238"/>
        <path id="Path_7961" data-name="Path 7961" d="M172.484,235.593c.161.108.334.278.556.242a1.566,1.566,0,0,0,.59-.264.02.02,0,1,1,.031.025.79.79,0,0,1-.668.453.62.62,0,0,1-.556-.42C172.418,235.6,172.459,235.58,172.484,235.593Z" transform="translate(-139.827 -220.076)" fill="#263238"/>
        <path id="Path_7962" data-name="Path 7962" d="M174.562,211.371s.331.815.434,1.213a2.073,2.073,0,0,1-2.253-.111.042.042,0,1,1,.047-.07,2.943,2.943,0,0,0,1.856.053c0-.117-.618-1.377-.556-1.391a3.586,3.586,0,0,1,.957-.028c-.645-1.717-1.558-3.316-2.173-5.038a.056.056,0,0,1,.1-.053,29.706,29.706,0,0,1,2.571,5.328C175.636,211.488,174.748,211.4,174.562,211.371Z" transform="translate(-140.037 -198.68)" fill="#263238"/>
        <path id="Path_7963" data-name="Path 7963" d="M174.657,229.609a2.342,2.342,0,0,1-.7.946,1.06,1.06,0,0,1-.6.211c-.476,0-.6-.392-.618-.762a2.555,2.555,0,0,1,.047-.584A2.993,2.993,0,0,0,174.657,229.609Z" transform="translate(-140.052 -215.641)" fill="#263238"/>
        <path id="Path_7964" data-name="Path 7964" d="M173.966,232.018a1.06,1.06,0,0,1-.6.211c-.476,0-.6-.392-.618-.762A1.078,1.078,0,0,1,173.966,232.018Z" transform="translate(-140.056 -217.104)" fill="#ff99ba"/>
        <path id="Path_7965" data-name="Path 7965" d="M135.513,193.689c1.6.1,1.781-3.55,1.781-3.55s6.677-1.555,6.916-7.086a9.315,9.315,0,0,0,5.008,4.8s-.6-6.009-5.45-6.888c0,0-6.059-1.8-9.106,3.11S134.442,193.619,135.513,193.689Z" transform="translate(-111.575 -180.436)" fill="#263238"/>
        <path id="Path_7966" data-name="Path 7966" d="M158.046,187.83a5.984,5.984,0,0,1-.147,2.529,6.2,6.2,0,0,1-1.141,2.3,5.047,5.047,0,0,1-.426.484l-.223.236c-.078.072-.161.139-.245.209-.167.134-.328.278-.5.4a6.037,6.037,0,0,1-.556.339c-.092.053-.181.111-.278.161l-.278.134-.581.264c-.4.139-.807.256-1.21.367.376-.192.765-.345,1.135-.537l.542-.306.278-.153c.086-.056.167-.12.25-.181.167-.122.334-.242.5-.359s.306-.278.459-.4l.231-.2.206-.228a5.2,5.2,0,0,0,.4-.462,7.233,7.233,0,0,0,1.16-2.148,7.62,7.62,0,0,0,.306-1.2A7.423,7.423,0,0,0,158.046,187.83Z" transform="translate(-125.411 -185.622)" fill="#263238"/>
        <path id="Path_7967" data-name="Path 7967" d="M135.968,223.079s-2.342-2.279-3.408-1.391,1.046,4.432,2.546,4.682a1.449,1.449,0,0,0,1.761-1.13Z" transform="translate(-110.838 -209.912)" fill="#eb9481"/>
        <path id="Path_7968" data-name="Path 7968" d="M135.529,225.79a.019.019,0,1,0,0,.039,3.67,3.67,0,0,1,2.3,1.895.811.811,0,0,0-1.219,0c-.022.025,0,.058.036.047a.9.9,0,0,1,1.024.122,4.259,4.259,0,0,1,.612.69c.061.081.211,0,.159-.092l-.014-.022C138.206,227.234,136.9,225.659,135.529,225.79Z" transform="translate(-113.177 -213.015)" fill="#263238"/>
        <path id="Path_7969" data-name="Path 7969" d="M136.936,191.9s-1.519-4.048-.993-6.691c.584-2.943,4.232-6.3,8.4-5.044,0,0-4.96.743-6.713,4.729-.807,1.836.718,6.7.718,6.7Z" transform="translate(-113.409 -179.894)" fill="#c7c7c7"/>
        <ellipse id="Ellipse_83" data-name="Ellipse 83" cx="3.491" cy="3.981" rx="3.491" ry="3.981" transform="translate(20.168 11.212) rotate(-17.3)" fill="#c7c7c7"/>
        <path id="Path_7970" data-name="Path 7970" d="M136.27,220.228a3.172,3.172,0,1,1-4.062-2.484A3.374,3.374,0,0,1,136.27,220.228Z" transform="translate(-109.254 -207.122)" fill="#455a64"/>
        <path id="Path_7971" data-name="Path 7971" d="M143.442,258.753l-1.53,3.862L137.1,257.76l-1.349,1.569s4.73,7.729,4.746,7.378l1.575-3.339,2.3,2.3-.209-5.792Z" transform="translate(-113.35 -236.097)" fill="#ebebeb"/>
        <path id="Path_7972" data-name="Path 7972" d="M144.223,266.863c-.07-.954-.108-1.922-.22-2.874a.034.034,0,0,0-.067,0,53.114,53.114,0,0,0,.089,5.458h0c-.095-.1-2.134-2.025-2.153-1.995-.342.529-1.5,2.955-1.575,3.174-.748-1.227-3.914-6.065-4.8-7.233a.033.033,0,0,0-.056.033c.659,1.3,4.749,7.681,4.807,7.665a38.162,38.162,0,0,0,1.647-3.519,25.445,25.445,0,0,0,2.409,2.451A30.553,30.553,0,0,0,144.223,266.863Z" transform="translate(-113.129 -240.156)" fill="#263238"/>
      </g>
      <g id="freepik--speech-bubbles--inject-5" transform="translate(84.761 76.147)">
        <path id="Path_7973" data-name="Path 7973" d="M214.564,144.065a8.683,8.683,0,0,1-14.508,5.495l-4.346.637,2.176-3.756a8.683,8.683,0,1,1,16.692-2.376Z" transform="translate(-195.412 -134.397)" fill="#fff"/>
        <path id="Path_7974" data-name="Path 7974" d="M213.792,143.774a8.755,8.755,0,0,1-1.753,4.4,7.951,7.951,0,0,1-1.7,1.669,8.543,8.543,0,0,1-2.095,1.166,8.655,8.655,0,0,1-2.34.556,8.292,8.292,0,0,1-1.2.022,7.556,7.556,0,0,1-1.2-.125,8.761,8.761,0,0,1-4.3-2.106l.1.031-4.34.668-.314.047.159-.278,2.167-3.764v.15a8.777,8.777,0,0,1,.537-7.74,8.721,8.721,0,0,1,13.69-1.87,8.736,8.736,0,0,1,2.6,7.169Zm0,0a8.6,8.6,0,0,0-13.435-7.979,8.939,8.939,0,0,0-2.6,2.832,8.563,8.563,0,0,0-.49,7.459l.031.078-.042.07-2.187,3.75-.156-.231,4.348-.609h.061l.042.042a8.585,8.585,0,0,0,4.173,2.142,7.593,7.593,0,0,0,1.177.142,8.461,8.461,0,0,0,1.188,0,8.624,8.624,0,0,0,2.32-.509,8.03,8.03,0,0,0,2.095-1.13,7.732,7.732,0,0,0,1.708-1.669,8.716,8.716,0,0,0,1.764-4.387Z" transform="translate(-194.64 -134.106)" fill="#263238"/>
        <circle id="Ellipse_84" data-name="Ellipse 84" cx="1.052" cy="1.052" r="1.052" transform="translate(13.254 7.977)" fill="#263238"/>
        <circle id="Ellipse_85" data-name="Ellipse 85" cx="1.052" cy="1.052" r="1.052" transform="translate(9.484 7.977)" fill="#263238"/>
        <circle id="Ellipse_86" data-name="Ellipse 86" cx="1.052" cy="1.052" r="1.052" transform="translate(5.717 7.977)" fill="#263238"/>
        <path id="Path_7975" data-name="Path 7975" d="M525.084,144.028a8.683,8.683,0,0,1-14.508,5.495l-4.346.637L508.4,146.4a8.686,8.686,0,1,1,16.692-2.376Z" transform="translate(-419.544 -134.36)" fill="#fff"/>
        <path id="Path_7976" data-name="Path 7976" d="M524.326,143.766a8.78,8.78,0,0,1-1.753,4.4,10.125,10.125,0,0,1-.787.9,9.733,9.733,0,0,1-.918.776,8.443,8.443,0,0,1-2.095,1.166,8.626,8.626,0,0,1-2.337.556,8.326,8.326,0,0,1-1.207.022,7.591,7.591,0,0,1-1.2-.125,8.763,8.763,0,0,1-4.3-2.12l.1.031-4.34.668-.314.047.159-.278,2.162-3.764v.15a8.786,8.786,0,0,1,.534-7.74,8.723,8.723,0,0,1,13.693-1.87A8.727,8.727,0,0,1,524.326,143.766Zm0,0a8.6,8.6,0,0,0-13.435-7.979,8.938,8.938,0,0,0-2.6,2.832,8.554,8.554,0,0,0-1.113,3.675,8.669,8.669,0,0,0,.609,3.784l.033.078-.042.07-2.187,3.75-.156-.231,4.348-.609h.061l.042.042a8.585,8.585,0,0,0,4.159,2.142,7.6,7.6,0,0,0,1.177.142,8.468,8.468,0,0,0,1.188,0,8.624,8.624,0,0,0,2.32-.509,8.067,8.067,0,0,0,2.095-1.13,7.789,7.789,0,0,0,1.705-1.669A8.694,8.694,0,0,0,524.326,143.766Z" transform="translate(-418.786 -134.098)" fill="#263238"/>
        <circle id="Ellipse_87" data-name="Ellipse 87" cx="1.052" cy="1.052" r="1.052" transform="translate(99.628 7.977)" fill="#263238"/>
        <circle id="Ellipse_88" data-name="Ellipse 88" cx="1.052" cy="1.052" r="1.052" transform="translate(95.861 7.977)" fill="#263238"/>
        <path id="Path_7977" data-name="Path 7977" d="M527.773,163.829a1.052,1.052,0,1,1-1.052-1.049,1.052,1.052,0,0,1,1.052,1.049Z" transform="translate(-433.575 -154.801)" fill="#263238"/>
      </g>
      <g id="freepik--Devices--inject-5" transform="translate(67.565 116.328)">
        <rect id="Rectangle_1268" data-name="Rectangle 1268" width="1.861" height="1.216" transform="translate(20.109 31.059)" fill="#455a64"/>
        <rect id="Rectangle_1269" data-name="Rectangle 1269" width="1.861" height="1.216" transform="translate(22.524 30.978)" fill="#455a64"/>
        <rect id="Rectangle_1270" data-name="Rectangle 1270" width="1.861" height="1.216" transform="translate(24.938 30.898)" fill="#455a64"/>
        <rect id="Rectangle_1271" data-name="Rectangle 1271" width="1.861" height="1.216" transform="translate(27.351 30.817)" fill="#455a64"/>
        <rect id="Rectangle_1272" data-name="Rectangle 1272" width="1.861" height="1.216" transform="translate(29.765 30.736)" fill="#455a64"/>
        <rect id="Rectangle_1273" data-name="Rectangle 1273" width="1.861" height="1.216" transform="translate(32.18 30.658)" fill="#455a64"/>
        <rect id="Rectangle_1274" data-name="Rectangle 1274" width="1.861" height="1.216" transform="translate(34.592 30.578)" fill="#455a64"/>
        <rect id="Rectangle_1275" data-name="Rectangle 1275" width="1.861" height="1.216" transform="translate(37.007 30.497)" fill="#455a64"/>
        <rect id="Rectangle_1276" data-name="Rectangle 1276" width="1.861" height="1.216" transform="translate(39.419 30.416)" fill="#455a64"/>
        <path id="Path_7978" data-name="Path 7978" d="M225.554,391.615H203.47v-1.48l22.084-.615Z" transform="translate(-183.817 -358.642)" fill="#37474f"/>
        <path id="Path_7979" data-name="Path 7979" d="M265.746,305.672H229.29l5.8-27.142h36.456Z" transform="translate(-202.454 -278.53)" fill="#455a64"/>
        <path id="Path_7980" data-name="Path 7980" d="M270.589,305.672H234.13l5.8-27.142h36.459Z" transform="translate(-205.948 -278.53)" fill="#37474f"/>
        <path id="Path_7981" data-name="Path 7981" d="M309.606,315.8a2.743,2.743,0,0,1-2.612,2.254A1.875,1.875,0,0,1,305.1,315.8a2.74,2.74,0,0,1,2.61-2.256,1.875,1.875,0,0,1,1.9,2.256Z" transform="translate(-257.145 -303.805)" fill="#263238"/>
        <path id="Path_7982" data-name="Path 7982" d="M281.6,396.452H263.67v-1.394l17.93-.579Z" transform="translate(-227.269 -362.222)" fill="#455a64"/>
        <path id="Path_7983" data-name="Path 7983" d="M305.617,362.1h-9.629l-5.8-15.21h9.629Z" transform="translate(-246.411 -327.872)" fill="#455a64"/>
        <path id="Path_7984" data-name="Path 7984" d="M311.314,362.1h-9.626l-5.8-15.21h9.626Z" transform="translate(-250.526 -327.872)" fill="#263238"/>
        <path id="Path_7985" data-name="Path 7985" d="M151.8,386H133.317c-1.577,0,.7-4.493,6.463-6.215S153.617,384.318,151.8,386Z" transform="translate(-132.83 -351.404)" fill="#37474f"/>
        <path id="Path_7986" data-name="Path 7986" d="M175,390.146a5.466,5.466,0,0,1,.25-1.508,6.3,6.3,0,0,1,.62-1.411,5.063,5.063,0,0,1,.982-1.194,4.366,4.366,0,0,1,1.3-.8c-.2.161-.423.278-.6.453l-.278.242-.262.278a6.48,6.48,0,0,0-.893,1.18,8.875,8.875,0,0,0-.657,1.335A11.234,11.234,0,0,0,175,390.146Z" transform="translate(-163.268 -355.545)" fill="#263238"/>
        <path id="Path_7987" data-name="Path 7987" d="M182.82,387.53a11.381,11.381,0,0,1,3.085,1.522,6.659,6.659,0,0,1,1.288,1.166,2.718,2.718,0,0,1,.684,1.589,3.221,3.221,0,0,0-.851-1.433,8.927,8.927,0,0,0-1.288-1.085c-.459-.331-.94-.629-1.43-.921S183.326,387.8,182.82,387.53Z" transform="translate(-168.912 -357.206)" fill="#263238"/>
        <rect id="Rectangle_1277" data-name="Rectangle 1277" width="1.861" height="1.216" transform="translate(105.479 31.059)" fill="#455a64"/>
        <rect id="Rectangle_1278" data-name="Rectangle 1278" width="1.861" height="1.216" transform="translate(107.894 30.978)" fill="#455a64"/>
        <rect id="Rectangle_1279" data-name="Rectangle 1279" width="1.861" height="1.216" transform="translate(110.309 30.898)" fill="#455a64"/>
        <rect id="Rectangle_1280" data-name="Rectangle 1280" width="1.861" height="1.216" transform="translate(112.721 30.817)" fill="#455a64"/>
        <rect id="Rectangle_1281" data-name="Rectangle 1281" width="1.861" height="1.216" transform="translate(115.136 30.736)" fill="#455a64"/>
        <rect id="Rectangle_1282" data-name="Rectangle 1282" width="1.861" height="1.216" transform="translate(117.55 30.658)" fill="#455a64"/>
        <rect id="Rectangle_1283" data-name="Rectangle 1283" width="1.861" height="1.216" transform="translate(119.963 30.578)" fill="#455a64"/>
        <rect id="Rectangle_1284" data-name="Rectangle 1284" width="1.861" height="1.216" transform="translate(122.377 30.497)" fill="#455a64"/>
        <rect id="Rectangle_1285" data-name="Rectangle 1285" width="1.861" height="1.216" transform="translate(124.792 30.416)" fill="#455a64"/>
        <path id="Path_7988" data-name="Path 7988" d="M532.424,391.615H510.34v-1.48l22.084-.615Z" transform="translate(-405.314 -358.642)" fill="#37474f"/>
        <path id="Path_7989" data-name="Path 7989" d="M572.606,305.672H536.15l5.8-27.142H578.4Z" transform="translate(-423.944 -278.53)" fill="#455a64"/>
        <path id="Path_7990" data-name="Path 7990" d="M577.456,305.672H541l5.8-27.142h36.456Z" transform="translate(-427.445 -278.53)" fill="#37474f"/>
        <path id="Path_7991" data-name="Path 7991" d="M616.466,315.8a2.743,2.743,0,0,1-2.61,2.254,1.875,1.875,0,0,1-1.9-2.254,2.743,2.743,0,0,1,2.61-2.256,1.875,1.875,0,0,1,1.9,2.256Z" transform="translate(-478.635 -303.805)" fill="#263238"/>
        <path id="Path_7992" data-name="Path 7992" d="M588.46,396.452H570.53v-1.394l17.93-.579Z" transform="translate(-448.759 -362.222)" fill="#455a64"/>
        <path id="Path_7993" data-name="Path 7993" d="M612.477,362.1h-9.629l-5.8-15.21h9.629Z" transform="translate(-467.901 -327.872)" fill="#455a64"/>
        <path id="Path_7994" data-name="Path 7994" d="M618.177,362.1h-9.629l-5.8-15.21h9.629Z" transform="translate(-472.015 -327.872)" fill="#263238"/>
        <path id="Path_7995" data-name="Path 7995" d="M458.663,386H440.177c-1.577,0,.7-4.493,6.463-6.215S460.477,384.318,458.663,386Z" transform="translate(-354.319 -351.404)" fill="#37474f"/>
        <path id="Path_7996" data-name="Path 7996" d="M481.81,390.146a5.564,5.564,0,0,1,.25-1.508,6.435,6.435,0,0,1,.62-1.411,5.206,5.206,0,0,1,.982-1.194,4.366,4.366,0,0,1,1.3-.8c-.2.161-.423.278-.6.453l-.278.242-.262.278a6.372,6.372,0,0,0-.9,1.18,8.878,8.878,0,0,0-.657,1.335A11.236,11.236,0,0,0,481.81,390.146Z" transform="translate(-384.722 -355.545)" fill="#263238"/>
        <path id="Path_7997" data-name="Path 7997" d="M489.68,387.53a11.38,11.38,0,0,1,3.085,1.522,6.757,6.757,0,0,1,1.291,1.166,2.735,2.735,0,0,1,.69,1.577,3.228,3.228,0,0,0-.854-1.433,8.929,8.929,0,0,0-1.288-1.085c-.456-.331-.94-.629-1.43-.921S490.189,387.8,489.68,387.53Z" transform="translate(-390.402 -357.206)" fill="#263238"/>
      </g>
    </g>
  </g>
</svg>
