<svg xmlns="http://www.w3.org/2000/svg" width="129.146" height="129.139" viewBox="0 0 129.146 129.139">
  <g id="Group_604" data-name="Group 604" transform="translate(-82 -64)">
    <path id="Path_8661" data-name="Path 8661" d="M64.57,0A64.57,64.57,0,1,1,0,64.57,64.57,64.57,0,0,1,64.57,0Z" transform="translate(82 64)" fill="#fff4ed"/>
    <g id="Contact_us-cuate" data-name="Contact us-cuate" transform="translate(88.623 96.431)">
      <g id="freepik--background-complete--inject-5" transform="translate(0 0)">
        <path id="Path_7833" data-name="Path 7833" d="M670.361,301.659l-2.417.052-1.227.02c-.411.009-.824,0-1.234.011H665.4v-.083l-.011-2.067V299.5h.092l2.439.011c.814,0,1.627.02,2.439.029h.052v.052c0,.35-.015.7-.024,1.043Zm0,0-.026-1.041c-.009-.343-.02-.682-.024-1.021l.05.052c-.812.009-1.625.029-2.439.029l-2.439.011.092-.092v2.062l-.083-.081c.4,0,.8,0,1.207.009l1.2.031Z" transform="translate(-550.61 -254.233)" fill="#ebebeb"/>
        <path id="Path_7834" data-name="Path 7834" d="M655.64,315.794l-2.417.052-1.229.02c-.409,0-.822,0-1.233.011h-.081V313.64h.092l2.439.013c.813,0,1.627.02,2.439.029h.052v.05c0,.35-.015.7-.024,1.043Zm0,0-.026-1.041c-.009-.343-.02-.682-.024-1.021l.05.052c-.813.009-1.627.029-2.439.029l-2.439.011.092-.092v2.062l-.083-.081c.4,0,.8,0,1.207.009l1.21.022Z" transform="translate(-538.611 -265.768)" fill="#ebebeb"/>
        <path id="Path_7835" data-name="Path 7835" d="M685.131,315.794l-2.417.052-1.227.02c-.411,0-.824,0-1.234.011h-.081v-.083l-.011-2.062v-.092h.092l2.439.013c.814,0,1.627.02,2.439.029h.052v.05c0,.35-.017.7-.024,1.043Zm0,0-.026-1.041c0-.343-.02-.682-.024-1.021l.05.052c-.812.009-1.625.029-2.439.029l-2.439.011.092-.092v2.062l-.083-.081c.4,0,.8,0,1.207.009l1.212.022Z" transform="translate(-562.659 -265.768)" fill="#ebebeb"/>
        <path id="Path_7836" data-name="Path 7836" d="M292.781,168.485l-2.417.052-1.227.02h-1.315v-.083l-.011-2.062v-.092h.092l2.439.011c.814,0,1.627.02,2.439.029h.052v.05c0,.35-.017.7-.026,1.041Zm0,0-.026-1.043c0-.343-.02-.682-.024-1.019l.05.05c-.813,0-1.625.029-2.439.029l-2.439.013.092-.092-.009,2.062-.083-.083c.4,0,.8,0,1.207.011l1.212.02Z" transform="translate(-242.597 -145.591)" fill="#ebebeb"/>
        <path id="Path_7837" data-name="Path 7837" d="M277.975,182.652l-2.417.052-1.229.02c-.409,0-.822,0-1.233.009h-.081v-.083L273,180.592V180.5h.092l2.439.011c.813,0,1.627.02,2.439.029h.052v.052c0,.35-.015.7-.024,1.041Zm0,0-.026-1.043c-.009-.343-.02-.682-.024-1.019l.05.05c-.812.009-1.627.029-2.439.029l-2.439.013.092-.092,0,2.062-.083-.083c.4,0,.8,0,1.207.011l1.21.02Z" transform="translate(-230.515 -157.158)" fill="#ebebeb"/>
        <path id="Path_7838" data-name="Path 7838" d="M307.551,182.652l-2.417.052-1.227.02c-.411,0-.822,0-1.234.009h-.081v-.083l-.011-2.058V180.5h.092l2.439.011c.814,0,1.627.02,2.439.029h.052v.052c0,.35-.017.7-.024,1.041Zm0,0-.026-1.043c0-.343-.02-.682-.024-1.019l.05.05c-.812.009-1.625.029-2.439.029l-2.439.013.092-.092-.009,2.062-.083-.083c.4,0,.8,0,1.207.011l1.212.02Z" transform="translate(-254.646 -157.158)" fill="#ebebeb"/>
        <path id="Path_7839" data-name="Path 7839" d="M76.952,242.566l-2.417.052-1.229.02c-.409,0-.822,0-1.233.009H72V240.41h.092l2.439.011c.813,0,1.627.02,2.439.029h.052v.05c0,.35-.015.7-.024,1.041Zm0,0-.026-1.043c0-.343-.02-.682-.024-1.019l.05.05c-.813.009-1.627.029-2.439.029l-2.439.013.092-.092-.009,2.062-.083-.083c.4,0,.8,0,1.207.011l1.21.02Z" transform="translate(-66.548 -206.03)" fill="#ebebeb"/>
        <path id="Path_7840" data-name="Path 7840" d="M515.851,168.516l-2.417.052-1.227.02c-.411.009-.824,0-1.234.009h-.081v-.083l-.011-2.062v-.092h.092l2.439.011c.814,0,1.627.022,2.439.031h.052v.05c0,.35-.015.7-.024,1.041Zm0,0-.026-1.041c-.009-.345-.02-.684-.024-1.021l.05.05c-.812.009-1.625.029-2.439.031l-2.439.011.092-.092-.009,2.062-.083-.083c.4,0,.8,0,1.207.011l1.212.02Z" transform="translate(-424.568 -145.623)" fill="#ebebeb"/>
        <path id="Path_7841" data-name="Path 7841" d="M668.88,59.844l-2.417.052-1.229.02c-.409,0-.822,0-1.233.011h-.081V57.69h.092l2.439.011c.813,0,1.627.022,2.439.031h.052v.05c0,.35-.015.7-.024,1.041Zm0,0-.026-1.041c-.009-.345-.02-.684-.024-1.021l.05.05c-.812,0-1.627.029-2.439.031L664,57.874l.092-.092-.009,2.062L664,59.761c.4,0,.8,0,1.207.011l1.21.02Z" transform="translate(-549.411 -56.975)" fill="#ebebeb"/>
        <path id="Path_7842" data-name="Path 7842" d="M683.6,73.946,681.184,74l-1.227.02c-.411.009-.824,0-1.234.009h-.081v-.083l-.011-2.062V71.79h.092l2.439.011c.814,0,1.627.022,2.439.031h.052v.05c0,.35-.017.7-.026,1.041Zm0,0-.026-1.041c0-.345-.02-.684-.024-1.021l.05.05c-.812.009-1.625.029-2.439.031l-2.439.011.092-.092v2.062l-.083-.083c.4,0,.8,0,1.207.011l1.212.02Z" transform="translate(-561.411 -68.477)" fill="#ebebeb"/>
        <path id="Path_7843" data-name="Path 7843" d="M47.372,59.854l-2.419.052-1.227.02c-.409,0-.822,0-1.233.011H42.41V57.7H42.5l2.439.013c.813,0,1.625.02,2.439.029h.05v.05c0,.35-.017.7-.024,1.043Zm0,0-.028-1.041c0-.345-.02-.684-.024-1.021l.052.05c-.814.011-1.627.029-2.439.031l-2.439.011.092-.092-.011,2.062-.081-.072h1.2l1.212.02Z" transform="translate(-42.41 -56.983)" fill="#ebebeb"/>
        <g id="freepik--ZZtZDI--inject-5" transform="translate(52.563 14.741)">
          <path id="Path_7844" data-name="Path 7844" d="M339.856,156.74a1.7,1.7,0,0,1-.811.426c-.184.048-.389.076-.584.111h-.667c-.275-.042-.553-.076-.82-.129a7.694,7.694,0,0,1-2.782-1.209,18.055,18.055,0,0,1-5.446-5.642,7,7,0,0,1-.94-2.432c-.041-.227-.072-.455-.107-.684v-.667c.055-.256.1-.516.168-.768a1.439,1.439,0,0,1,.368-.626c.033.029.063.053.092.083l3.186,3.18a.214.214,0,0,1,.063.241,1.581,1.581,0,0,0,.343,1.529,32.536,32.536,0,0,0,2.906,2.907,1.59,1.59,0,0,0,1.542.341c.077-.02.133-.033.2.033q1.627,1.636,3.261,3.265C339.832,156.705,339.84,156.722,339.856,156.74Z" transform="translate(-327.7 -143.038)" fill="#ebebeb"/>
          <path id="Path_7845" data-name="Path 7845" d="M384.231,182.144v.221a4.41,4.41,0,0,1-.311.4c-.328.341-.667.671-1,1l-.1.1-3.276-3.274c.429-.424.857-.857,1.3-1.279a.488.488,0,0,1,.7.037c.247.24.486.485.737.726.569.571,1.142,1.139,1.706,1.713A2.768,2.768,0,0,1,384.231,182.144Z" transform="translate(-369.989 -170.824)" fill="#ebebeb"/>
          <path id="Path_7846" data-name="Path 7846" d="M338.592,137.313c-.405.392-.82.776-1.222,1.155l-3.25-3.248c.072-.064.155-.133.23-.206.3-.3.591-.6.9-.892a4.13,4.13,0,0,1,.389-.3h.223a2.882,2.882,0,0,1,.354.256q1.194,1.183,2.379,2.377A.526.526,0,0,1,338.592,137.313Z" transform="translate(-332.937 -133.82)" fill="#ebebeb"/>
        </g>
        <path id="Path_7847" data-name="Path 7847" d="M62.76,102.7H84.082V89.17H62.76V102.7Z" transform="translate(-59.011 -82.655)" fill="#ebebeb"/>
        <path id="Path_7848" data-name="Path 7848" d="M182.479,144.195H178.49V140.04Z" transform="translate(-153.418 -124.153)" fill="#ebebeb"/>
        <rect id="Rectangle_1236" data-name="Rectangle 1236" width="16.387" height="0.258" transform="translate(6.216 8.853)" fill="#fff"/>
        <rect id="Rectangle_1237" data-name="Rectangle 1237" width="8.47" height="0.258" transform="translate(6.216 10.242)" fill="#fff"/>
        <rect id="Rectangle_1238" data-name="Rectangle 1238" width="13.251" height="0.258" transform="translate(6.216 13.019)" fill="#fff"/>
        <rect id="Rectangle_1239" data-name="Rectangle 1239" width="16.387" height="0.258" transform="translate(6.216 14.406)" fill="#fff"/>
        <rect id="Rectangle_1240" data-name="Rectangle 1240" width="16.387" height="0.258" transform="translate(6.216 15.793)" fill="#fff"/>
        <rect id="Rectangle_1241" data-name="Rectangle 1241" width="5.822" height="0.258" transform="translate(6.216 17.182)" fill="#fff"/>
        <rect id="Rectangle_1242" data-name="Rectangle 1242" width="21.322" height="11.93" transform="translate(97.483 25.444)" fill="#dbdbdb"/>
        <path id="Path_7849" data-name="Path 7849" d="M549.86,238.275h3.989V234.12Z" transform="translate(-456.366 -200.899)" fill="#dbdbdb"/>
        <rect id="Rectangle_1243" data-name="Rectangle 1243" width="14.266" height="0.258" transform="translate(100 31.673)" fill="#fff"/>
        <rect id="Rectangle_1244" data-name="Rectangle 1244" width="11.333" height="0.258" transform="translate(100 33.062)" fill="#fff"/>
        <rect id="Rectangle_1245" data-name="Rectangle 1245" width="12.188" height="0.258" transform="translate(100 28.897)" fill="#fff"/>
        <rect id="Rectangle_1246" data-name="Rectangle 1246" width="15.913" height="0.258" transform="translate(100 27.509)" fill="#fff"/>
        <rect id="Rectangle_1247" data-name="Rectangle 1247" width="12.508" height="0.258" transform="translate(100 34.45)" fill="#fff"/>
        <rect id="Rectangle_1248" data-name="Rectangle 1248" width="39.153" height="1.717" transform="translate(68.879 12.764)" fill="#ebebeb"/>
        <rect id="Rectangle_1249" data-name="Rectangle 1249" width="1.717" height="5.678" transform="translate(71.074 14.483)" fill="#ebebeb"/>
        <rect id="Rectangle_1250" data-name="Rectangle 1250" width="1.717" height="1.756" transform="translate(71.074 14.483)" fill="#dbdbdb"/>
        <rect id="Rectangle_1251" data-name="Rectangle 1251" width="1.717" height="5.678" transform="translate(104.121 14.483)" fill="#ebebeb"/>
        <rect id="Rectangle_1252" data-name="Rectangle 1252" width="1.717" height="1.756" transform="translate(104.121 14.483)" fill="#dbdbdb"/>
        <rect id="Rectangle_1253" data-name="Rectangle 1253" width="10.942" height="2.756" transform="translate(78.944 1.822) rotate(90)" fill="#c7c7c7"/>
        <rect id="Rectangle_1254" data-name="Rectangle 1254" width="1.203" height="2.756" transform="translate(78.944 1.236) rotate(90)" fill="#dbdbdb"/>
        <rect id="Rectangle_1255" data-name="Rectangle 1255" width="0.446" height="2.756" transform="translate(78.943 3.981) rotate(90)" fill="#dbdbdb"/>
        <rect id="Rectangle_1256" data-name="Rectangle 1256" width="1.203" height="3.099" transform="translate(79.287 10.128) rotate(90)" fill="#dbdbdb"/>
        <rect id="Rectangle_1257" data-name="Rectangle 1257" width="12.764" height="1.925" transform="translate(80.87 0) rotate(90)" fill="#dbdbdb"/>
        <rect id="Rectangle_1258" data-name="Rectangle 1258" width="4.91" height="1.155" transform="translate(80.477 1.199) rotate(90)" fill="#ebebeb"/>
        <rect id="Rectangle_1259" data-name="Rectangle 1259" width="12.764" height="1.925" transform="matrix(0.711, 0.703, -0.703, 0.711, 85.487, 2.427)" fill="#c7c7c7"/>
        <rect id="Rectangle_1260" data-name="Rectangle 1260" width="4.91" height="1.155" transform="matrix(0.711, 0.703, -0.703, 0.711, 88.677, 6.114)" fill="#dbdbdb"/>
        <rect id="Rectangle_1261" data-name="Rectangle 1261" width="9.697" height="3.27" transform="translate(84.138 3.071) rotate(90)" fill="#a6a6a6"/>
        <rect id="Rectangle_1262" data-name="Rectangle 1262" width="0.903" height="3.27" transform="translate(84.138 10.835) rotate(90)" fill="#c7c7c7"/>
        <rect id="Rectangle_1263" data-name="Rectangle 1263" width="0.35" height="3.27" transform="translate(84.138 9.894) rotate(90)" fill="#c7c7c7"/>
        <rect id="Rectangle_1264" data-name="Rectangle 1264" width="9.113" height="2.259" transform="translate(76.188 3.655) rotate(90)" fill="#a6a6a6"/>
        <rect id="Rectangle_1265" data-name="Rectangle 1265" width="0.849" height="2.259" transform="translate(76.188 10.951) rotate(90)" fill="#c7c7c7"/>
        <rect id="Rectangle_1266" data-name="Rectangle 1266" width="0.849" height="2.259" transform="translate(76.188 5.533) rotate(90)" fill="#c7c7c7"/>
        <rect id="Rectangle_1267" data-name="Rectangle 1267" width="0.33" height="2.259" transform="translate(76.188 6.964) rotate(90)" fill="#c7c7c7"/>
        <path id="Path_7850" data-name="Path 7850" d="M569.174,79.493l-.245.65-.151.4-.247.652-.962,2.548h-5.2l-.965-2.548-.247-.652-.149-.4-.247-.65,1.92-2.8-.995-1.844h6.57l-1,1.844Z" transform="translate(-465.258 -70.974)" fill="#dbdbdb"/>
        <path id="Path_7851" data-name="Path 7851" d="M569.174,100.05l-.245.65h-7.922l-.247-.65Z" transform="translate(-465.258 -91.531)" fill="#a6a6a6"/>
        <path id="Path_7852" data-name="Path 7852" d="M570.532,105.73l-.247.652h-7.128l-.247-.652Z" transform="translate(-467.012 -96.164)" fill="#a6a6a6"/>
      </g>
      <g id="freepik--Table--inject-5" transform="translate(2.471 62.335)">
        <path id="Path_7853" data-name="Path 7853" d="M55.82,392.23l14.7-.044,14.7-.017,29.4-.029,29.4.029,14.7.017,14.7.044-14.7.046-14.7.017-29.4.029-29.4-.029-14.7-.017Z" transform="translate(-55.82 -392.14)" fill="#263238"/>
      </g>
      <g id="freepik--character-2--inject-5" transform="translate(59.682 20.709)">
        <path id="Path_7854" data-name="Path 7854" d="M366.34,276.552h22.6l-4.5-26.212h-16.9Z" transform="translate(-366.34 -234.839)" fill="#dbdbdb"/>
        <path id="Path_7855" data-name="Path 7855" d="M366.34,276.552h1.982l1.111-26.212h-1.9Z" transform="translate(-366.34 -234.839)" fill="#a6a6a6"/>
        <path id="Path_7856" data-name="Path 7856" d="M470.924,255.452c2.557,5.712,8.737,15.191,11.5,12.842,4.136-3.512,6.937-11.279,8.042-14.421.621-1.76-8.342-4.7-8.892-3.106-.781,2.27-2.006,7.014-2.716,7.687-.368.352-3.305-3.77-5.527-5.724C470.126,249.912,470.108,253.628,470.924,255.452Z" transform="translate(-451.288 -234.813)" fill="#ad6359"/>
        <path id="Path_7857" data-name="Path 7857" d="M541.6,217.942a16.073,16.073,0,0,1-4.89,5.277c-1.021.448-6.412-4.422-6.3-5.568s3.329-7.149,5.111-8.07S542.429,216.081,541.6,217.942Z" transform="translate(-500.182 -201.526)" fill="#ad6359"/>
        <path id="Path_7858" data-name="Path 7858" d="M526.057,204.665a16.279,16.279,0,0,0-.516-4.713c-.542-1.815-1.549-4.448-.586-4.776,1.982-.672,4.5,5.9,4.5,5.9s.645,3.077-1.258,3.917A2.069,2.069,0,0,1,526.057,204.665Z" transform="translate(-495.405 -189.8)" fill="#ad6359"/>
        <path id="Path_7859" data-name="Path 7859" d="M544.789,201.5c.129,1.034,1.273.289,1.273.289s-1.387,1.474-.842,2.482c.531.975,1.879.026,1.977-.041-.074.079-1.312,1.461-.658,2.423.68,1,1.87-.184,1.947-.262-.046.094-.625,1.367.039,1.986,1.139,1.059,2.708-2.154,3.917-2.513,0,0,.844,1.977.879,2.027,0,0,1.557-3.029.982-4.632a1.089,1.089,0,0,0-1.151-.728,1.708,1.708,0,0,0,.12-1.7c-.254-.4-1.105-.345-1.105-.345a1.361,1.361,0,0,0-.022-1.417,1.309,1.309,0,0,0-1.183-.394,1.625,1.625,0,0,0-.462-1.345C549.353,196.5,544.511,199.283,544.789,201.5Z" transform="translate(-511.902 -191.474)" fill="#ad6359"/>
        <path id="Path_7860" data-name="Path 7860" d="M556.164,205.2c.017-.009,0-.033-.009-.028a9.654,9.654,0,0,0-4.818,3.163c-.039.05.024.133.077.087A20.111,20.111,0,0,1,556.164,205.2Z" transform="translate(-517.243 -197.996)" fill="#263238"/>
        <path id="Path_7861" data-name="Path 7861" d="M562.461,214.834c.02-.009,0-.042-.017-.037a9.076,9.076,0,0,0-5.043,3.779c-.039.064-.009.162.042.092A16.48,16.48,0,0,1,562.461,214.834Z" transform="translate(-522.185 -205.845)" fill="#263238"/>
        <path id="Path_7862" data-name="Path 7862" d="M564.445,230.124a12.471,12.471,0,0,1,4.623-4c.022-.013,0-.044-.02-.039a8.1,8.1,0,0,0-2.948,1.686,5.566,5.566,0,0,0-1.713,2.31C564.369,230.124,564.421,230.164,564.445,230.124Z" transform="translate(-527.895 -215.054)" fill="#263238"/>
        <path id="Path_7863" data-name="Path 7863" d="M546.527,222.16c-.046.059.092.061.048.122-.184.254-1.17,1.885-.719,2.4.369.407,1.159.2,1.435,0l.691-.5-.475.717a3.526,3.526,0,0,0-.479,1.026,1.243,1.243,0,0,0,.094,1.017.711.711,0,0,0,.838.322,2.142,2.142,0,0,0,.9-.6l.7-.737-.42.921a3.339,3.339,0,0,0-.252.8,1.356,1.356,0,0,0,.061.777.643.643,0,0,0,.553.385,1.42,1.42,0,0,0,.737-.3,11.264,11.264,0,0,0,1.306-1.17c.212-.206.424-.415.647-.614a2.115,2.115,0,0,1,.737-.479,2.252,2.252,0,0,0-.689.54c-.2.212-.4.433-.6.656a9.715,9.715,0,0,1-1.271,1.266,1.679,1.679,0,0,1-.873.385.921.921,0,0,1-.846-.536,1.658,1.658,0,0,1-.1-.964,3.563,3.563,0,0,1,.267-.894l.28.184a2.485,2.485,0,0,1-1.057.719,1.032,1.032,0,0,1-.7-.026,1.174,1.174,0,0,1-.523-.451,1.579,1.579,0,0,1-.118-1.29,3.75,3.75,0,0,1,.543-1.118l.216.21a1.589,1.589,0,0,1-1.866.009C544.884,224.072,546.256,222.44,546.527,222.16Z" transform="translate(-512.404 -211.851)" fill="#263238"/>
        <path id="Path_7864" data-name="Path 7864" d="M545.406,216.558a2.139,2.139,0,0,1-.623.146.483.483,0,0,1-.446-.2.984.984,0,0,1-.1-.553c.011-.21.033-.429.066-.656a1.633,1.633,0,0,0-.291.625.965.965,0,0,0,.083.737.7.7,0,0,0,.326.254.715.715,0,0,0,.392.015A1.127,1.127,0,0,0,545.406,216.558Z" transform="translate(-511.245 -206.247)" fill="#263238"/>
        <path id="Path_7865" data-name="Path 7865" d="M480.691,253.73l9.33,6.5s-5.573,11.546-9.017,11.515-8.418-8.68-10.133-12.418-.693-6.905,2.778-3.5,4.715,4.809,4.827,4.763C478.687,260.5,480.691,253.73,480.691,253.73Z" transform="translate(-450.947 -237.605)" fill="#9bd19d"/>
        <path id="Path_7866" data-name="Path 7866" d="M489.97,260.236s-3.869,8.007-7.147,10.668a3.1,3.1,0,0,1-1.87.846c-3.444-.029-8.418-8.68-10.143-12.416-1.067-2.314-1.076-4.409-.107-4.86.6-.278,1.566.064,2.887,1.365,3.5,3.429,4.713,4.807,4.827,4.761.217-.088,2.224-6.859,2.224-6.859Z" transform="translate(-450.896 -237.613)" fill="#ff914d"/>
        <path id="Path_7867" data-name="Path 7867" d="M484.267,273.53c-.114.133-.23.262-.346.387a8.793,8.793,0,0,1-3.456,1.266,7.258,7.258,0,0,1-1.021.041l-.212-.133a7.1,7.1,0,0,0,1.22-.031,6.186,6.186,0,0,0,1.42-.328l.348-.114.337-.142c.112-.048.228-.088.337-.144l.326-.166A9.052,9.052,0,0,0,484.267,273.53Zm-7.079-10.172a9.963,9.963,0,0,0-2.869,1.973,15.132,15.132,0,0,0-1.494,1.712c.022.041.046.083.072.123a14.925,14.925,0,0,1,1.516-1.737,9.965,9.965,0,0,1,2.36-1.719l.326-.166a1.838,1.838,0,0,1,.184-.081Zm8.059.588a14.821,14.821,0,0,0-2.764-1.026c-.1-.024-.2-.048-.3-.068-.065-.015-.131-.03-.2-.041a7.923,7.923,0,0,0-2.45-.125c-.12.017-.238.035-.357.057-.013.042-.028.087-.041.127.136-.024.275-.044.413-.061a7.809,7.809,0,0,1,2.277.094l.2.037c.142.029.284.061.426.1a14.709,14.709,0,0,1,2.742,1.006,37,37,0,0,1,3.821,2.165c.018-.031.035-.063.05-.092A36.844,36.844,0,0,0,485.247,263.945Zm.967-2.384a9.092,9.092,0,0,0-4.238,1.249l-.158.092a10.291,10.291,0,0,0-.941.637,22.5,22.5,0,0,0-4.039,4.3c-.6.779-1.19,1.564-1.813,2.323-.044.055-.09.109-.136.164l.07.1c.053-.063.107-.125.158-.184.626-.761,1.218-1.546,1.82-2.323a22.417,22.417,0,0,1,4.02-4.265,10.227,10.227,0,0,1,1.061-.709c.05-.031.1-.061.153-.088a9.458,9.458,0,0,1,1.338-.619l.345-.125c.114-.041.234-.068.352-.1l.352-.1.369-.072a6.194,6.194,0,0,1,1.45-.151h.022Zm-11.451-.643a9.765,9.765,0,0,1-2.006.643l-.359.07c-.12.022-.241.029-.368.046l-.368.042-.369.015a5.778,5.778,0,0,1-1.01-.018l.033.122a9.275,9.275,0,0,0,4.538-.818A.5.5,0,0,0,474.763,260.918Zm-2.657-2.288a21.267,21.267,0,0,1-2.027,1.218V260a20.641,20.641,0,0,0,2.156-1.3C472.191,258.674,472.149,258.65,472.107,258.63Z" transform="translate(-450.967 -241.602)" fill="#fff"/>
        <path id="Path_7868" data-name="Path 7868" d="M534.611,271.027c-.247-.2-.5-.4-.746-.6q-.763-.6-1.526-1.2c-1.013-.79-2.049-1.553-3.092-2.3-.591-.427-1.174-.877-1.783-1.277a.028.028,0,1,0-.033.044c.484.427,1,.818,1.507,1.225s1,.816,1.513,1.214q1.522,1.183,3.081,2.32c.289.214.575.439.875.639.153.1.3.217.453.317s.321.184.472.3a.017.017,0,0,0,.02-.026C535.1,271.464,534.863,271.234,534.611,271.027Z" transform="translate(-497.742 -247.32)" fill="#263238"/>
        <path id="Path_7869" data-name="Path 7869" d="M510.007,289.757a23.6,23.6,0,0,0-.877,2.948c-.122.494-.217.993-.311,1.491a11.379,11.379,0,0,0-.2,1.5c0,.018.028.018.031,0,.155-.481.269-.982.38-1.474s.236-.988.346-1.474c.223-.991.485-1.973.678-2.97a.026.026,0,1,0-.048-.018Z" transform="translate(-482.406 -266.981)" fill="#263238"/>
        <path id="Path_7870" data-name="Path 7870" d="M482.823,274.151a3.1,3.1,0,0,1-1.87.846c-3.444-.029-8.418-8.68-10.143-12.416-1.067-2.314-1.076-4.409-.107-4.86Z" transform="translate(-450.896 -240.86)" opacity="0.1"/>
        <path id="Path_7871" data-name="Path 7871" d="M411.417,276.551h-22.4c-.247-.453,3.423-20.071,10.977-25.6a4.511,4.511,0,0,1,5.476.755C409.628,257.7,411.417,276.551,411.417,276.551Z" transform="translate(-384.83 -234.839)" fill="#ff914d"/>
        <path id="Path_7872" data-name="Path 7872" d="M416.879,275.413a16.39,16.39,0,0,1-1.642-.684c-.75-.359-1.474-.757-2.194-1.177l-.1-.063c-.737-.437-1.474-.9-2.2-1.365l-.1-.066-.49-.317a48.278,48.278,0,0,0-5.061-3.009,11.071,11.071,0,0,0-2.764-.951,6.054,6.054,0,0,0-1.459-.081,2.9,2.9,0,0,0-.368.042c-.083.017-.166.028-.251.044.013-.029.024-.057.039-.087.066-.013.134-.024.2-.039.122-.015.245-.033.368-.042a6.126,6.126,0,0,1,1.474.079,11.1,11.1,0,0,1,2.793.953,47.793,47.793,0,0,1,5.078,3.005l.486.311.1.066c.737.474,1.474.943,2.239,1.387l.105.063c.7.407,1.413.794,2.146,1.142a16.437,16.437,0,0,0,1.572.654Zm-1.993-9.354-.076.072a22.453,22.453,0,0,0-3.482,4.759q-.317.54-.637,1.078c-.017.031-.033.061-.052.09-.271.457-.544.912-.827,1.36-.249.394-.508.783-.785,1.159-.026.035-.05.07-.076.1a12.1,12.1,0,0,1-.9,1.082,7.257,7.257,0,0,1-1.105.958l-.149.105c-.05.035-.1.063-.157.094l-.315.184a5.632,5.632,0,0,1-.671.286,9.146,9.146,0,0,1-2.882.466,13.384,13.384,0,0,1-2.9-.33c-.921-.2-1.815-.457-2.716-.719a.288.288,0,0,1-.024.087c.9.263,1.8.529,2.719.726a13.544,13.544,0,0,0,2.935.339,9.282,9.282,0,0,0,2.915-.468,5.453,5.453,0,0,0,.685-.289l.322-.184a1.727,1.727,0,0,0,.158-.1l.153-.107a7.311,7.311,0,0,0,1.122-.969,12.822,12.822,0,0,0,.962-1.159c.028-.035.052-.068.076-.1.262-.357.509-.724.737-1.1.286-.448.553-.9.829-1.358l.053-.09.639-1.08a22.389,22.389,0,0,1,3.469-4.726l.024-.022C414.913,266.157,414.9,266.107,414.885,266.059Zm1.063,4.376c-.142.184-.286.357-.431.534a15.438,15.438,0,0,1-2.036,2.111c-.147.116-.295.232-.448.341l-.1.068a5.617,5.617,0,0,1-.669.405l-.16.087c-.053.029-.112.05-.168.076l-.335.144a5.426,5.426,0,0,1-.7.2,8.312,8.312,0,0,1-1.737.184h-.142a9.76,9.76,0,0,1-1.037-.064,13.334,13.334,0,0,1-2.85-.684c-.921-.319-1.83-.711-2.732-1.105a23.734,23.734,0,0,0-2.764-1.048,8.234,8.234,0,0,0-.848-.2l-.028.079c.287.053.573.122.851.2a23.616,23.616,0,0,1,2.747,1.05c.9.389,1.806.783,2.736,1.105a13.61,13.61,0,0,0,2.874.693c.324.037.648.061.973.066h.142a8.434,8.434,0,0,0,1.842-.173,6.077,6.077,0,0,0,.715-.2l.343-.147c.057-.026.114-.046.169-.076l.164-.088a5.562,5.562,0,0,0,.722-.44l.1-.068c.14-.1.278-.208.415-.317a15.437,15.437,0,0,0,2.056-2.122q.184-.227.369-.459C415.971,270.536,415.96,270.485,415.949,270.435Zm-2.314-8.153c-.129.031-.258.061-.387.087l-.359.07c-.12.022-.241.029-.368.046l-.368.042-.368.015a6.2,6.2,0,0,1-1.456-.077,7.722,7.722,0,0,1-2.167-.717l-.184-.09c-.129-.066-.256-.136-.381-.208a14.544,14.544,0,0,1-2.362-1.728l-.081.081a14.9,14.9,0,0,0,2.382,1.75c.088.052.184.1.269.149l.184.092a8.019,8.019,0,0,0,2.321.794,8.73,8.73,0,0,0,3.364-.184A.773.773,0,0,0,413.634,262.282Zm-1.312-2.662a16.967,16.967,0,0,1-3.116,1.649,10.337,10.337,0,0,1-1.214.389l-.173.044a9.955,9.955,0,0,1-1.456.227l-.369.024c-.122.009-.243,0-.368,0h-.368l-.368-.029a6.179,6.179,0,0,1-1.312-.219c-.026.035-.052.07-.076.107a9.065,9.065,0,0,0,4.481-.017l.184-.046a10.04,10.04,0,0,0,1.083-.354,17.132,17.132,0,0,0,3.132-1.658Zm5.511,22.575c-.184,0-.383.017-.575.022h-.015l-.112.009a7.681,7.681,0,0,0-2.707.805,12.436,12.436,0,0,0-1.726,1.091h.116a12.121,12.121,0,0,1,1.643-1.024,7.618,7.618,0,0,1,2.73-.8h.112c.184,0,.357-.02.534-.018A.337.337,0,0,0,417.833,282.2Zm.1.848q-.3-.381-.621-.75c-.02-.026-.042-.05-.065-.074l-.076-.088a11.192,11.192,0,0,0-2.2-1.968,6.019,6.019,0,0,0-1.33-.65c-.116-.039-.238-.072-.356-.105a2.609,2.609,0,0,0-.368-.076c-.243-.046-.492-.05-.737-.074a7.633,7.633,0,0,0-2.909.462,13.42,13.42,0,0,0-2.625,1.345c-1.474.949-2.817,2.065-4.252,3.057h.061c1.428-.975,2.764-2.071,4.223-3a13.247,13.247,0,0,1,2.616-1.332,7.554,7.554,0,0,1,2.88-.455c.241.026.488.029.728.076.122.017.238.052.357.076a2.839,2.839,0,0,1,.35.1,5.9,5.9,0,0,1,1.31.645,10.993,10.993,0,0,1,2.18,1.957c.011.013.022.024.031.037l.064.072c.258.3.51.606.754.921a.862.862,0,0,0-.017-.179Z" transform="translate(-391.457 -242.41)" fill="#fff"/>
        <path id="Path_7873" data-name="Path 7873" d="M393.646,259.849c-4.56,5.275-10.706,14.592-8.2,16.652,4.129,3.386,16.188,5.343,18.955,5.671,1.194.144,3.585-7.661,2.788-8.67S393.646,271.779,393.56,271c-.05-.444,1.887-4.306,3.132-9.043C398.123,256.492,394.93,258.362,393.646,259.849Z" transform="translate(-381.455 -241.328)" fill="#ad6359"/>
        <path id="Path_7874" data-name="Path 7874" d="M483.245,337.323s3.659-.028,6.052.066a14.62,14.62,0,0,1,4.58.835c1.441.728,7,4.7,6.069,6.067-.846,1.238-5.19-2.778-5.19-2.778s4.742,3.666,3.451,4.975-5.6-3.884-5.6-3.884,4.79,3.869,3.245,5.011c-1.168.857-5.332-3.624-5.332-3.624s4.092,3.359,2.929,4.293c-1.29,1.032-5.389-2.863-5.389-2.863a8.444,8.444,0,0,1-7.37.857C480.3,346.139,483.245,337.323,483.245,337.323Z" transform="translate(-459.596 -305.793)" fill="#ad6359"/>
        <path id="Path_7875" data-name="Path 7875" d="M548.619,352.618c.573.411,1.155.822,1.69,1.29s1.052.938,1.542,1.446a11.884,11.884,0,0,1,1.713,2.156,25.894,25.894,0,0,0-3.386-3.46c-.534-.461-1.045-.945-1.577-1.4C548.588,352.626,548.606,352.609,548.619,352.618Z" transform="translate(-515.017 -318.272)" fill="#263238"/>
        <path id="Path_7876" data-name="Path 7876" d="M539.437,362.929c.708.553,1.432,1.08,2.115,1.667s1.608,1.435,2.248,2.065c.048.048,0,.14-.052.094-.663-.6-1.649-1.43-2.32-2.027s-1.317-1.218-2.006-1.787C539.412,362.94,539.426,362.92,539.437,362.929Z" transform="translate(-507.53 -326.683)" fill="#263238"/>
        <path id="Path_7877" data-name="Path 7877" d="M529.857,370.342a20.155,20.155,0,0,1,3.04,2.8c.048.05,0,.057-.059.009-.993-.949-1.767-1.7-3.009-2.764C529.815,370.364,529.839,370.326,529.857,370.342Z" transform="translate(-499.704 -332.729)" fill="#263238"/>
        <path id="Path_7878" data-name="Path 7878" d="M491.773,336.681c1.669-.011,6.572-.024,8.237.105a7.731,7.731,0,0,1,3.924,1.247,19.735,19.735,0,0,1,4.79,4.422c.258.368.632.964.291,1.376-.418.5-1.957.011-3.58-1.457-.059-.053-.022-.087.039-.037,2.279,1.842,3.186,1.632,3.423,1.317.155-.2,0-.553-.133-.829a5.254,5.254,0,0,0-.807-1.074,22.612,22.612,0,0,0-3.456-3.016,8.843,8.843,0,0,0-4.606-1.73c-1.706-.14-6.426-.1-8.131-.26A.033.033,0,0,1,491.773,336.681Z" transform="translate(-468.638 -305.267)" fill="#263238"/>
        <path id="Path_7879" data-name="Path 7879" d="M563.25,371.711a3.7,3.7,0,0,0-.682-1.247,8.492,8.492,0,0,0-1.081-1.314c-.017-.017-.048,0-.031.026a13.225,13.225,0,0,1,.956,1.264,7.354,7.354,0,0,1,.424.752,1.314,1.314,0,0,1,.2.82c-.118.542-.807.529-1.214.383a4.6,4.6,0,0,1-.759-.368,7.476,7.476,0,0,1-.932-.7c-.024-.022-.09-.013-.064.011.608.579,1.76,1.782,2.7,1.341A.851.851,0,0,0,563.25,371.711Z" transform="translate(-524.367 -331.754)" fill="#263238"/>
        <path id="Path_7880" data-name="Path 7880" d="M403.365,271.227l-4.383,9.949s-15.318-3.458-16.206-6.366,3.911-10.686,8.243-15.543c4.26-4.772,4.89-1.535,3.83,2.156s-2.8,7.945-2.6,8.263S403.365,271.227,403.365,271.227Z" transform="translate(-379.66 -240.171)" fill="#ff914d"/>
        <path id="Path_7881" data-name="Path 7881" d="M393.29,268.085c-.011.028-.02.057-.031.085a10.924,10.924,0,0,0-2.683-.91,6.053,6.053,0,0,0-1.459-.081,2.893,2.893,0,0,0-.368.042,2.445,2.445,0,0,0-.357.07c-.24.052-.466.144-.7.216a7.522,7.522,0,0,0-2.439,1.514l.116-.2a7.5,7.5,0,0,1,2.3-1.387c.236-.074.466-.168.709-.219.12-.033.243-.048.368-.074a2.825,2.825,0,0,1,.368-.042,6.127,6.127,0,0,1,1.474.079A10.991,10.991,0,0,1,393.29,268.085Zm8.107,4.877-.105-.063-.42-.249-.254-.029c.184.116.385.234.579.346l.1.063c.553.322,1.105.632,1.673.921l.044-.1Q402.2,273.427,401.4,272.962Zm-2.99-.61c-.111.184-.223.368-.337.544-.249.394-.509.783-.785,1.159-.026.035-.05.07-.076.1a12.093,12.093,0,0,1-.9,1.082,7.259,7.259,0,0,1-1.105.958l-.149.1c-.05.035-.1.063-.157.094l-.315.184a5.632,5.632,0,0,1-.671.286,9.144,9.144,0,0,1-2.882.466,13.385,13.385,0,0,1-2.9-.33c-.96-.2-1.9-.483-2.847-.757-.838-.243-1.682-.488-2.544-.649v.087c.853.16,1.688.407,2.522.648.943.276,1.888.553,2.852.765a13.544,13.544,0,0,0,2.935.339,9.279,9.279,0,0,0,2.915-.468,5.446,5.446,0,0,0,.685-.289l.322-.184a1.732,1.732,0,0,0,.158-.1l.153-.107a7.306,7.306,0,0,0,1.122-.969,12.836,12.836,0,0,0,.962-1.159c.028-.035.052-.068.076-.1.262-.357.509-.724.737-1.1.125-.2.247-.394.368-.591Zm3.117.368c-.076.059-.153.118-.232.173l-.1.068a5.608,5.608,0,0,1-.669.405l-.16.087c-.053.029-.112.05-.168.076l-.335.144a5.416,5.416,0,0,1-.7.2,8.308,8.308,0,0,1-1.737.184h-.142a9.778,9.778,0,0,1-1.037-.064,13.336,13.336,0,0,1-2.85-.684c-.921-.319-1.83-.711-2.732-1.105a23.748,23.748,0,0,0-2.764-1.048,6.3,6.3,0,0,0-2.931-.227,3.489,3.489,0,0,0-.9.311c-.018.037-.037.076-.053.112a3.549,3.549,0,0,1,.964-.346,6.245,6.245,0,0,1,2.893.23,23.606,23.606,0,0,1,2.747,1.05c.9.389,1.806.783,2.736,1.105a13.608,13.608,0,0,0,2.878.7c.324.037.649.061.973.066h.142a8.435,8.435,0,0,0,1.842-.173,6.079,6.079,0,0,0,.715-.2l.343-.147c.057-.026.114-.046.17-.076l.164-.088a5.554,5.554,0,0,0,.722-.44l.1-.068c.1-.07.184-.144.287-.217ZM393.5,259.19c-.079-.07-.157-.138-.234-.21l-.1.064.258.23a15.544,15.544,0,0,0,1.916,1.465V260.6a15.412,15.412,0,0,1-1.837-1.408Zm1.12,2.211-.368.024c-.122.009-.243,0-.369,0h-.368l-.368-.029a6.339,6.339,0,0,1-1.437-.254c-.2-.061-.407-.131-.606-.212l-.044.05-.042.048a6.338,6.338,0,0,0,.658.234,8.79,8.79,0,0,0,3.58.2.868.868,0,0,1,.02-.136,5.494,5.494,0,0,1-.65.083Zm5.815,17.33a7.633,7.633,0,0,0-2.909.468,13.424,13.424,0,0,0-2.625,1.345c-.461.3-.91.612-1.354.934l.072.02h0c.431-.311.868-.612,1.315-.9a13.251,13.251,0,0,1,2.616-1.332,7.554,7.554,0,0,1,2.88-.455c.127.013.254.02.381.031l.035-.077c-.131-.011-.271-.018-.407-.031Z" transform="translate(-379.718 -241.887)" fill="#fff"/>
        <path id="Path_7882" data-name="Path 7882" d="M459.428,343.8c.149-.284.293-.567.437-.853q.433-.868.862-1.739c.567-1.153,1.105-2.321,1.623-3.5.3-.667.619-1.327.886-2.006a.028.028,0,0,0-.052-.024c-.319.562-.6,1.15-.89,1.726s-.6,1.148-.879,1.73q-.848,1.73-1.643,3.488c-.149.328-.311.652-.446.988-.07.171-.151.337-.219.51s-.12.35-.184.521a.015.015,0,1,0,.028.013C459.1,344.368,459.276,344.091,459.428,343.8Z" transform="translate(-441.865 -304.44)" fill="#263238"/>
        <path id="Path_7883" data-name="Path 7883" d="M399.761,359.918l-.308.7-.009.022h-.029c-1.45-.269-2.891-.591-4.322-.951s-2.852-.766-4.258-1.22a38.044,38.044,0,0,1-4.144-1.581,15.29,15.29,0,0,1-1.957-1.058,6.887,6.887,0,0,1-.883-.684,2.211,2.211,0,0,1-.632-.9,2.342,2.342,0,0,0,.695.835,6.666,6.666,0,0,0,.923.6,18.221,18.221,0,0,0,1.979.949c1.354.562,2.745,1.041,4.144,1.491s2.81.868,4.225,1.269,2.836.8,4.258,1.181l-.037.018Z" transform="translate(-380.11 -319.597)" fill="#263238"/>
        <path id="Path_7884" data-name="Path 7884" d="M444.819,297.934l.153-.4.017.028c-1.537-.1-3.071-.225-4.606-.385s-3.06-.335-4.586-.564c-.381-.059-.763-.122-1.144-.2-.184-.039-.381-.076-.579-.131-.05-.015-.1-.029-.151-.05a.5.5,0,0,1-.088-.039.377.377,0,0,1-.061-.041.223.223,0,0,1-.05-.059.47.47,0,0,1-.02-.044.077.077,0,0,1,0-.022.671.671,0,0,1,.011-.21c.009-.05.018-.1.031-.149.2-.765.442-1.487.693-2.211.5-1.457,1.047-2.9,1.621-4.326-.444,1.474-.9,2.948-1.352,4.422-.217.737-.457,1.474-.625,2.211-.011.046-.017.088-.026.133s0,.1-.009.077h0a.086.086,0,0,0-.011-.028c0-.018-.033-.037-.026-.033s-.009,0,0,0l.046.018.122.039c.184.048.369.083.553.12.369.068.754.127,1.131.184q1.139.171,2.281.322l2.286.308c1.524.2,3.047.42,4.571.643h.028l-.011.024Z" transform="translate(-421.289 -266.491)" fill="#263238"/>
        <path id="Path_7885" data-name="Path 7885" d="M443.15,294.26a3.814,3.814,0,0,1-.407.737,2.885,2.885,0,0,1-.553.628c.14-.245.289-.477.448-.707A5.486,5.486,0,0,1,443.15,294.26Z" transform="translate(-428.215 -270.667)" fill="#263238"/>
        <path id="Path_7886" data-name="Path 7886" d="M451.188,237.614c-1.3.368-3.644-1.535-4.606-3.121-.066-.109.2-4.589.155-5.483,0-.184,5.664,1.105,5.664,1.105a14.223,14.223,0,0,0-.385,3.455C452.021,233.7,452.443,237.257,451.188,237.614Z" transform="translate(-431.789 -217.425)" fill="#ad6359"/>
        <path id="Path_7887" data-name="Path 7887" d="M447,231.824a6.581,6.581,0,0,0,5.343,1.12,15.412,15.412,0,0,1,.392-2.819s-5.675-1.29-5.665-1.105C447.1,229.438,447.057,230.647,447,231.824Z" transform="translate(-432.139 -217.433)" fill="#263238"/>
        <path id="Path_7888" data-name="Path 7888" d="M477.986,203.393a2.133,2.133,0,1,0,1.842-2.624A2.275,2.275,0,0,0,477.986,203.393Z" transform="translate(-457.403 -194.392)" fill="#455a64"/>
        <path id="Path_7889" data-name="Path 7889" d="M474.337,202.935a2.37,2.37,0,1,0,2.043-2.92A2.529,2.529,0,0,0,474.337,202.935Z" transform="translate(-454.424 -193.776)" fill="#c7c7c7"/>
        <path id="Path_7890" data-name="Path 7890" d="M442.389,178.43c-.619,1.986.4,7.738,1.8,9.028,2.04,1.87,5.4,2.067,6.988-.387,1.544-2.38.088-9.851-1.485-11.025A4.956,4.956,0,0,0,442.389,178.43Z" transform="translate(-428.226 -173.576)" fill="#ad6359"/>
        <path id="Path_7891" data-name="Path 7891" d="M468.125,212.138c0-.013-.026.024-.022.041.085.383.12.838-.2,1.034-.011,0,0,.026,0,.02C468.32,213.091,468.269,212.488,468.125,212.138Z" transform="translate(-449.183 -203.674)" fill="#263238"/>
        <path id="Path_7892" data-name="Path 7892" d="M465.125,210.311c-.63.072-.44,1.328.144,1.262S465.654,210.252,465.125,210.311Z" transform="translate(-446.605 -202.184)" fill="#263238"/>
        <path id="Path_7893" data-name="Path 7893" d="M481.283,210.492c0-.015.033.015.035.031.046.391.166.829.536.906.011,0,.015.022,0,.022C481.414,211.456,481.265,210.87,481.283,210.492Z" transform="translate(-460.105 -202.33)" fill="#263238"/>
        <path id="Path_7894" data-name="Path 7894" d="M481.549,207.95c.619-.142.857,1.105.284,1.238S481.026,208.074,481.549,207.95Z" transform="translate(-460.085 -200.25)" fill="#263238"/>
        <path id="Path_7895" data-name="Path 7895" d="M461.949,203.293a4.606,4.606,0,0,0,.461-.245.844.844,0,0,0,.422-.339.269.269,0,0,0-.092-.315.663.663,0,0,0-.672.033.978.978,0,0,0-.5.5.286.286,0,0,0,.378.363Z" transform="translate(-444.011 -195.665)" fill="#263238"/>
        <path id="Path_7896" data-name="Path 7896" d="M480.074,200.776a4.912,4.912,0,0,1-.52-.053.838.838,0,0,1-.518-.155.269.269,0,0,1-.035-.328.672.672,0,0,1,.637-.223.976.976,0,0,1,.647.282.286.286,0,0,1-.212.477Z" transform="translate(-458.212 -193.778)" fill="#263238"/>
        <path id="Path_7897" data-name="Path 7897" d="M470.165,231.927a.658.658,0,0,0,.368.184,1.037,1.037,0,0,0,.4-.16.013.013,0,0,1,.02.017.525.525,0,0,1-.462.286.416.416,0,0,1-.357-.3C470.121,231.938,470.148,231.916,470.165,231.927Z" transform="translate(-451.009 -219.816)" fill="#263238"/>
        <path id="Path_7898" data-name="Path 7898" d="M471.519,205.5a1.341,1.341,0,0,0,.973.455,1.7,1.7,0,0,0,.481-.05.446.446,0,0,0,.088-.026.843.843,0,0,0,.083-.026.1.1,0,0,0,.066-.1h0a.132.132,0,0,0-.009-.039h0v-.033c-.039-.3-.136-.752-.136-.752.118.039.715.2.682.05a19.918,19.918,0,0,0-1.12-3.93.037.037,0,0,0-.07.02c.214,1.244.645,2.441.881,3.685a2.326,2.326,0,0,0-.654-.094c-.041.018.2.868.21,1a.032.032,0,0,1,0,.015,1.86,1.86,0,0,1-1.435-.217C471.517,205.449,471.491,205.475,471.519,205.5Z" transform="translate(-452.131 -194.617)" fill="#263238"/>
        <path id="Path_7899" data-name="Path 7899" d="M472.461,225.521a1.579,1.579,0,0,1-.553.582.726.726,0,0,1-.426.092c-.322-.035-.368-.319-.354-.571a1.737,1.737,0,0,1,.083-.394,2.06,2.06,0,0,0,1.249.291Z" transform="translate(-451.821 -214.356)" fill="#263238"/>
        <path id="Path_7900" data-name="Path 7900" d="M471.9,227.871a.726.726,0,0,1-.426.092c-.322-.035-.368-.319-.354-.571A.722.722,0,0,1,471.9,227.871Z" transform="translate(-451.813 -216.118)" fill="#ff99ba"/>
        <path id="Path_7901" data-name="Path 7901" d="M443.324,187.08c-.227.571-.693,1.912-.958,2.006a9.387,9.387,0,0,1,.2-4.6,3.83,3.83,0,0,1,.792-1.152A16.753,16.753,0,0,1,443.324,187.08Z" transform="translate(-428.218 -180.184)" fill="#263238" opacity="0.2"/>
        <path id="Path_7902" data-name="Path 7902" d="M461.193,189.114a1.843,1.843,0,0,1-1.55.921,1.887,1.887,0,0,1-1.627-.851.015.015,0,0,0-.026.015,1.865,1.865,0,0,0,1.658.986,1.9,1.9,0,0,0,1.59-1.041.027.027,0,1,0-.046-.029Z" transform="translate(-441.104 -184.884)" fill="#263238"/>
        <path id="Path_7903" data-name="Path 7903" d="M481.271,167.7a2.358,2.358,0,0,0-1.214-1.072,3.264,3.264,0,0,0-2.152.111.015.015,0,0,0,0,.029,3.261,3.261,0,0,1,1.852-.122,2.323,2.323,0,0,1,1.257.921,2.264,2.264,0,0,1-.426,2.931,2.3,2.3,0,0,1-1.752.5c-.024,0-.035.033-.009.037a2.309,2.309,0,0,0,2.436-3.338Z" transform="translate(-457.338 -166.43)" fill="#263238"/>
        <path id="Path_7904" data-name="Path 7904" d="M438.477,172.21s-1.332-1.712-.687-2.948c.368-.7,1.955-.9,1.955-.9a3.065,3.065,0,0,1,1.623-1.339,6.1,6.1,0,0,1,2.948-.217,2.672,2.672,0,0,1,2.415-.472,2.469,2.469,0,0,1,.523,4.262c-1.058.765-2.8.017-2.8.017a2.353,2.353,0,0,1-2.937.074s-.8,1.01-1.758.567a1.4,1.4,0,0,1-1.279.953Z" transform="translate(-424.482 -166.209)" fill="#263238"/>
        <path id="Path_7905" data-name="Path 7905" d="M438.783,211.606s-1.325-1.842-2.161-1.365.184,3.154,1.172,3.5a1.006,1.006,0,0,0,1.341-.553Z" transform="translate(-423.421 -202.064)" fill="#ad6359"/>
        <path id="Path_7906" data-name="Path 7906" d="M439.612,214.73c-.017,0-.018.02,0,.026a2.548,2.548,0,0,1,1.338,1.573.554.554,0,0,0-.833-.14c-.018.013,0,.041.018.037a.621.621,0,0,1,.68.212,2.948,2.948,0,0,1,.333.553c.033.061.144.026.12-.044v-.017C441.268,216.034,440.563,214.806,439.612,214.73Z" transform="translate(-426.101 -205.79)" fill="#263238"/>
        <path id="Path_7907" data-name="Path 7907" d="M442.086,176.293a10.683,10.683,0,0,1-.159-4.606,4.709,4.709,0,0,1,5.73-3.042,6.707,6.707,0,0,0-4.564,2.963c-.685,1.179-.028,4.584-.028,4.584Z" transform="translate(-427.828 -168.041)" fill="#c7c7c7"/>
        <path id="Path_7908" data-name="Path 7908" d="M438.936,206.263a2.4,2.4,0,1,1-2.847-2.211A2.561,2.561,0,0,1,438.936,206.263Z" transform="translate(-421.704 -197.049)" fill="#c7c7c7"/>
        <path id="Path_7909" data-name="Path 7909" d="M437.279,207.518a2.156,2.156,0,1,1-2.559-1.992A2.3,2.3,0,0,1,437.279,207.518Z" transform="translate(-420.743 -198.256)" fill="#455a64"/>
      </g>
      <g id="freepik--character-1--inject-5" transform="translate(2.363 23.23)">
        <path id="Path_7910" data-name="Path 7910" d="M59.3,276.552H81.9L77.393,250.34h-16.9Z" transform="translate(-58.551 -237.36)" fill="#dbdbdb"/>
        <path id="Path_7911" data-name="Path 7911" d="M59.3,276.552h1.981l1.113-26.212h-1.9Z" transform="translate(-58.551 -237.36)" fill="#a6a6a6"/>
        <path id="Path_7912" data-name="Path 7912" d="M113.182,182.191a11.735,11.735,0,0,0-2.7,5.527s-2.012,3.462-1.45,5.343a3.423,3.423,0,0,0,2.178,2.316l-.2-1.039a4.331,4.331,0,0,0,2.928,1.874,11.351,11.351,0,0,0,6.786-.94,5.953,5.953,0,0,0,2.277-2l-.58,1.511a4.476,4.476,0,0,0,3.486-2.4c1.3-2.327-2.432-5.671-2.749-6.391s-.719-5.969-6.24-5.065A5.26,5.26,0,0,0,113.182,182.191Z" transform="translate(-99.039 -180.643)" fill="#263238"/>
        <path id="Path_7913" data-name="Path 7913" d="M107.271,222.625a4.861,4.861,0,0,1-1.459-1.529,3.191,3.191,0,0,1-.348-2.067A7.154,7.154,0,0,1,106.5,216.7c.435-.731.958-1.474,1.395-2.242.024-.042-.041-.077-.07-.044a20.079,20.079,0,0,0-1.371,1.807,9.212,9.212,0,0,0-1.083,1.855,3.451,3.451,0,0,0-.254,1.933,3.355,3.355,0,0,0,.689,1.452,7.136,7.136,0,0,0,1.437,1.212C107.271,222.7,107.3,222.649,107.271,222.625Z" transform="translate(-95.891 -208.041)" fill="#263238"/>
        <path id="Path_7914" data-name="Path 7914" d="M180.334,197c-.663-1.933-2.4-3.16-3.458-4.846a16.608,16.608,0,0,0-1.76-2.714c-.02-.022-.057.013-.039.035a12.766,12.766,0,0,1,1.408,2.4,14.142,14.142,0,0,0,1.643,2.274c1.094,1.312,2.4,2.865,2.154,4.7A2.423,2.423,0,0,1,178.8,200.9c-.033.011-.013.066.02.052a2.721,2.721,0,0,0,1.516-1.524A3.46,3.46,0,0,0,180.334,197Z" transform="translate(-152.993 -187.674)" fill="#263238"/>
        <path id="Path_7915" data-name="Path 7915" d="M186.489,210.266a3.55,3.55,0,0,0-.483-2.1,5.075,5.075,0,0,0-1.579-1.474,5.57,5.57,0,0,1-1.857-1.623c-.018-.031-.063,0-.046.031.7,1.2,2.027,1.761,2.917,2.773a3.669,3.669,0,0,1,.321,4.158,5.844,5.844,0,0,1-1.842,2.008c-.013,0,0,.028.015.018A5.169,5.169,0,0,0,186.489,210.266Z" transform="translate(-159.069 -200.423)" fill="#263238"/>
        <path id="Path_7916" data-name="Path 7916" d="M149.816,232.665c5.592,3.069,12.285,6.922,16.387,6.016,1.818-.4,9.984-11.106,10.33-12.344.3-1.063-7.1-5.343-7.922-4.5-1.393,1.406-5.159,9.321-5.712,9.454s-5.247-.82-10.133-1.7C148.063,228.739,145.934,230.535,149.816,232.665Z" transform="translate(-130.745 -214.016)" fill="#eb9481"/>
        <path id="Path_7917" data-name="Path 7917" d="M267,193.546a44.207,44.207,0,0,0,3.716-6c.477-1.258,1.594-4.975.669-5.443s-1.334.591-1.334.591.223-1.645-.752-2.027-1.564,1.29-1.564,1.29.105-1.706-.9-2.027-1.31,1.474-1.31,1.474.169-1.555-.763-1.474c-1.12.109-1.105,3.012-1.739,4.361-.144.306-3.355,6-3.355,6Z" transform="translate(-222.004 -179.892)" fill="#eb9481"/>
        <path id="Path_7918" data-name="Path 7918" d="M285.028,186.955a7.6,7.6,0,0,1-1.474,4.851c-.022.033.024.074.052.041,1.253-1.643,1.883-2.749,1.533-4.9C285.115,186.844,285.028,186.853,285.028,186.955Z" transform="translate(-241.483 -185.588)" fill="#263238"/>
        <path id="Path_7919" data-name="Path 7919" d="M296.219,189.909a11.237,11.237,0,0,1-1.612,5.186c-.015.028.031.055.048.028,1.174-1.828,1.778-2.948,1.675-5.186C296.335,189.835,296.229,189.807,296.219,189.909Z" transform="translate(-250.502 -188.011)" fill="#263238"/>
        <path id="Path_7920" data-name="Path 7920" d="M306.933,195.221a10.11,10.11,0,0,1-1.962,5.034.039.039,0,1,0,.061.05A7.17,7.17,0,0,0,307,195.238C307,195.105,306.955,195.087,306.933,195.221Z" transform="translate(-258.951 -192.322)" fill="#263238"/>
        <path id="Path_7921" data-name="Path 7921" d="M250.813,200.909a26.006,26.006,0,0,1,.035-3.858c.192-1.188,2.53-5.356,3.451-4.9,1.2.588.322,3.259-.278,4.512,0,0,2.775,1.352,2.561,3.407S250.813,200.909,250.813,200.909Z" transform="translate(-214.73 -189.862)" fill="#eb9481"/>
        <path id="Path_7922" data-name="Path 7922" d="M268.491,193.717c.708,1.325-.184,2.918-.678,4.177a.123.123,0,0,0,.105.173c1.126.645,2.526,1.883,2.646,3.246a.031.031,0,1,0,.063,0c.07-1.474-1.207-2.808-2.484-3.436.523-1.29,1.351-2.92.368-4.168C268.5,193.7,268.487,193.71,268.491,193.717Z" transform="translate(-228.638 -191.162)" fill="#263238"/>
        <path id="Path_7923" data-name="Path 7923" d="M156.012,262.341l-6.73,5.641a50.078,50.078,0,0,1-7.143-4.593c-3.035-2.456.326-3.65,5.536-2.775S156.012,262.341,156.012,262.341Z" transform="translate(-125.189 -245.509)" fill="#ff914d"/>
        <path id="Path_7924" data-name="Path 7924" d="M153.139,267.546a4.1,4.1,0,0,0-.658-.706,4.566,4.566,0,0,0,1.155,1.529A4,4,0,0,0,153.139,267.546Zm-5.9-.081.081.063a2.225,2.225,0,0,0,.157-.184,1.894,1.894,0,0,0-.241.129Zm11.266.037a4.189,4.189,0,0,0-.962-.03,4.191,4.191,0,0,0,.932.234,4.085,4.085,0,0,0,.962.031,4.172,4.172,0,0,0-.936-.236Zm-2.253-2.181a2.684,2.684,0,0,0,.013.368,2.932,2.932,0,0,0,.114-.339Z" transform="translate(-130.289 -249.58)" fill="#fff"/>
        <path id="Path_7925" data-name="Path 7925" d="M177.8,274.479c1.369-1.315,2.832-2.537,4.315-3.727.42-.335.848-.663,1.29-.978.013-.009.029,0,.017.017-.7.643-1.421,1.257-2.141,1.874s-1.45,1.234-2.189,1.833c-.418.339-.835.678-1.258,1.008C177.8,274.518,177.779,274.5,177.8,274.479Z" transform="translate(-155.21 -253.211)" fill="#263238"/>
        <path id="Path_7926" data-name="Path 7926" d="M152.13,269.837l-2.861,2.4a49.982,49.982,0,0,1-7.143-4.591c-1.078-.871-1.349-1.583-1.019-2.1Z" transform="translate(-125.177 -249.76)" fill="#263238"/>
        <path id="Path_7927" data-name="Path 7927" d="M99.038,282.718H77.59s4.66-18,8.973-23.062c.1-.116.2-.227.295-.33.02-.024.039-.041.059-.061a4.585,4.585,0,0,1,1.152-.892c.076-.041.151-.079.23-.112a4.382,4.382,0,0,1,4.682.953c.4.343,4.949,6.264,5.343,8.514a6.857,6.857,0,0,1-1,4.131Z" transform="translate(-73.471 -243.548)" fill="#ff914d"/>
        <path id="Path_7928" data-name="Path 7928" d="M143.458,329.368a18.465,18.465,0,0,0-2.708.47c-.442.118-.873.254-1.306.4-.216.074-.431.14-.649.2a2.93,2.93,0,0,1-.7.136.017.017,0,1,0,0,.033,4.853,4.853,0,0,0,.674-.018,4.725,4.725,0,0,0,.639-.125c.45-.116.892-.251,1.339-.368.9-.24,1.8-.479,2.721-.654a.039.039,0,0,0-.013-.077Z" transform="translate(-122.816 -301.827)" fill="#263238"/>
        <path id="Path_7929" data-name="Path 7929" d="M159.468,333.248a20.272,20.272,0,0,0-2.268-.09c-.368.009-.754.039-1.131.077-.184.02-.368.042-.538.066s-.391.079-.588.1c-.02,0-.02.035,0,.033.184-.017.378,0,.566-.009l.566-.02c.368-.011.754-.02,1.131-.037.755-.031,1.509-.055,2.264-.063C159.51,333.311,159.506,333.252,159.468,333.248Z" transform="translate(-136.56 -304.918)" fill="#263238"/>
        <path id="Path_7930" data-name="Path 7930" d="M95.016,268.426a4.1,4.1,0,0,0-.317-.368l-.079.166c.074.114.153.227.234.335a4.073,4.073,0,0,0,.658.7A4.464,4.464,0,0,0,95.016,268.426Zm2.489-4.72a4.009,4.009,0,0,0-.018.868,3.989,3.989,0,0,0,.23-.938,1.306,1.306,0,0,1,.018-.146C97.658,263.558,97.58,263.63,97.5,263.706Zm6.509,6a4.151,4.151,0,0,0-.236.936,4.313,4.313,0,0,0-.031.964,3.91,3.91,0,0,0,.232-.936A3.991,3.991,0,0,0,104.014,269.7Zm-4.1,10.377a4.111,4.111,0,0,0-.232.932,4.206,4.206,0,0,0-.029.964A4.606,4.606,0,0,0,99.915,280.077Zm-6.968-7.834a4.284,4.284,0,0,0-.232.938,4.172,4.172,0,0,0-.029.962,4.163,4.163,0,0,0,.23-.936A4.1,4.1,0,0,0,92.946,272.243Zm5.767-1.315a4.187,4.187,0,0,0-.962-.029,4.193,4.193,0,0,0,.932.234,4.087,4.087,0,0,0,.962.031,4.175,4.175,0,0,0-.93-.243Zm7.716,8.844a4.2,4.2,0,0,0-.964-.029,4.606,4.606,0,0,0,1.9.262,4.209,4.209,0,0,0-.93-.236Zm-14.4-.849a4.354,4.354,0,0,0-.945-.033h0a4.239,4.239,0,0,0,.921.227,4.184,4.184,0,0,0,.962.029A4.164,4.164,0,0,0,92.025,278.922Zm8.092,7.607a4.192,4.192,0,0,0-.962-.029,4.58,4.58,0,0,0,1.9.26,4.262,4.262,0,0,0-.943-.23Zm-8.7-.932a4.2,4.2,0,0,0-.964-.029,4.205,4.205,0,0,0,.932.23,3.913,3.913,0,0,0,.964.03,4.207,4.207,0,0,0-.94-.23Zm8.914-19.25a4.265,4.265,0,0,0-.706.661,4.333,4.333,0,0,0,.829-.5,4.037,4.037,0,0,0,.7-.663A4.373,4.373,0,0,0,100.327,266.348Zm2.3,9.863a4,4,0,0,0-.7.658,4.1,4.1,0,0,0,.824-.5,3.937,3.937,0,0,0,.7-.658,4.184,4.184,0,0,0-.824.5Zm-8.05,6.028a3.891,3.891,0,0,0-.7.66,4.373,4.373,0,0,0,.824-.5,4.328,4.328,0,0,0,.706-.658,3.818,3.818,0,0,0-.827.5Zm13.369-8.672a4.1,4.1,0,0,0-.658-.706,4.566,4.566,0,0,0,1.155,1.529,4,4,0,0,0-.5-.82Zm-2.743,11.16a4.322,4.322,0,0,0-.658-.706,3.774,3.774,0,0,0,.5.827,4.019,4.019,0,0,0,.658.7A4.363,4.363,0,0,0,105.2,284.726Zm-8.077-8.777a4.169,4.169,0,0,0-.658-.706,3.869,3.869,0,0,0,.5.827,3.946,3.946,0,0,0,.658.7A4.258,4.258,0,0,0,97.121,275.948Z" transform="translate(-83.962 -248.088)" fill="#fff"/>
        <path id="Path_7931" data-name="Path 7931" d="M67.887,262.5c-4.125,3.326-14.69,16.5-12.307,19.55s18.216,1.658,22.813.217c1.367-.427-2.362-9.1-3.84-9.5-1.231-.333-8.055,1.684-8.188,1.29-.149-.446,1.686-2.913,4.018-8.258C73.073,259.63,69.709,261.03,67.887,262.5Z" transform="translate(-55.234 -246.251)" fill="#eb9481"/>
        <path id="Path_7932" data-name="Path 7932" d="M200.54,317.991c3.152.368,3.906.941,6.73-.164,1.853-.724,3.112.147,1.756,1.712-2.211,2.559-6.382,2.948-7.865,2.66Z" transform="translate(-173.768 -292.203)" fill="#eb9481"/>
        <path id="Path_7933" data-name="Path 7933" d="M152.55,320.147a32.391,32.391,0,0,1,7.309-.956c2.351.039,7.454.693,10.918,6.793.822,1.446.967,4.092-1.234,2.211-1.562-1.332-2.15-2.649-3.2-3.259,0,0-.216,3.385-1.7,4.153a30.766,30.766,0,0,1-4.015,1.726,6.231,6.231,0,0,1-.391-.722,5.49,5.49,0,0,1-3.685-.227Z" transform="translate(-134.62 -293.524)" fill="#eb9481"/>
        <path id="Path_7934" data-name="Path 7934" d="M190.293,321.35a18.126,18.126,0,0,1,3.869,4.606c1.172,2.222,2.83,6.817,1.181,7.666-1.209.623-2-1.078-2-1.078s.286,2.045-.921,2.368c-1.105.295-1.638-1.058-1.638-1.058s-.041,1.269-1.161,1.349c-1.349.092-1.043-2.579-2.491-3.668C186.809,331.29,190.293,321.35,190.293,321.35Z" transform="translate(-162.815 -295.287)" fill="#eb9481"/>
        <path id="Path_7935" data-name="Path 7935" d="M211.447,350.979a9.987,9.987,0,0,1,1.767,5.7c0,.052-.042.077-.05.029A24.648,24.648,0,0,0,211.427,351a.013.013,0,0,1,.02-.017Z" transform="translate(-182.647 -319.453)" fill="#263238"/>
        <path id="Path_7936" data-name="Path 7936" d="M199.462,357.7a11.227,11.227,0,0,1,1.424,5.794c0,.052-.046.074-.052.026a26.4,26.4,0,0,0-1.395-5.811.013.013,0,0,1,.022-.009Z" transform="translate(-172.871 -324.939)" fill="#263238"/>
        <path id="Path_7937" data-name="Path 7937" d="M227.308,350.288a8.4,8.4,0,0,1,2.121,2,14.2,14.2,0,0,0,1.069,1.14c.346.322.857.807,1.376.577a.853.853,0,0,0,.392-.763,2.257,2.257,0,0,0-.138-.951c0-.015.022-.026.028-.009a3.062,3.062,0,0,1,.221.838,1.363,1.363,0,0,1-.112.8c-.287.508-.951.413-1.367.146a4.572,4.572,0,0,1-.684-.58c-.2-.2-.4-.411-.59-.625-.389-.442-.752-.9-1.135-1.349a13.163,13.163,0,0,0-1.2-1.194C227.268,350.3,227.29,350.277,227.308,350.288Z" transform="translate(-195.58 -318.892)" fill="#263238"/>
        <path id="Path_7938" data-name="Path 7938" d="M223.293,354.311a31.763,31.763,0,0,0-1.2-4.009.015.015,0,1,1,.026-.015,16.747,16.747,0,0,1,1.45,3.9,5.555,5.555,0,0,1,.074,2.25,1.185,1.185,0,0,1-1.273,1.039,1.391,1.391,0,0,1-.846-.368,2.829,2.829,0,0,1-.6-.958c0-.017.017-.031.026-.015a1.982,1.982,0,0,0,1.328,1.131.978.978,0,0,0,.737-.184,1.253,1.253,0,0,0,.381-.792A5.811,5.811,0,0,0,223.293,354.311Z" transform="translate(-190.393 -318.887)" fill="#263238"/>
        <path id="Path_7939" data-name="Path 7939" d="M207.045,383.383a1.994,1.994,0,0,0,.746.881,1.105,1.105,0,0,0,1.028.035,1.4,1.4,0,0,0,.617-.846,8.955,8.955,0,0,0,.12-1.36c0-.022.028-.024.029,0a4.954,4.954,0,0,1-.052,1.483,1.474,1.474,0,0,1-.665.93,1.094,1.094,0,0,1-1.142-.057,2.318,2.318,0,0,1-.737-1.054C206.992,383.383,207.04,383.376,207.045,383.383Z" transform="translate(-179.03 -344.825)" fill="#263238"/>
        <path id="Path_7940" data-name="Path 7940" d="M187.873,375.723a2.569,2.569,0,0,1,.345.485c.109.184.212.359.31.544a6.078,6.078,0,0,1,.462,1.168,3.133,3.133,0,0,0,.488,1.181,1,1,0,0,0,1.126.321.973.973,0,0,0,.492-.433,1.933,1.933,0,0,0,.249-.691.015.015,0,1,1,.028,0,3.262,3.262,0,0,1-.114.654,1.167,1.167,0,0,1-.345.494,1.12,1.12,0,0,1-1.161.122,1.625,1.625,0,0,1-.789-1.013c-.16-.459-.267-.932-.45-1.386-.094-.24-.184-.479-.3-.709s-.273-.47-.368-.717A.016.016,0,0,1,187.873,375.723Z" transform="translate(-163.411 -339.637)" fill="#263238"/>
        <path id="Path_7941" data-name="Path 7941" d="M180.132,378.849a9.345,9.345,0,0,0,1.76.087c.018,0,.029.053.011.057a4.1,4.1,0,0,1-.884.068,3,3,0,0,1-.881-.171C180.113,378.876,180.113,378.845,180.132,378.849Z" transform="translate(-157.109 -342.192)" fill="#263238"/>
        <path id="Path_7942" data-name="Path 7942" d="M81.966,331.784a22.814,22.814,0,0,1,3.046-1.209,22.063,22.063,0,0,1,3.154-.737c.61-.1,1.222-.173,1.842-.249a.014.014,0,1,1,0,.028,28.5,28.5,0,0,0-3.182.7q-1.562.426-3.106.908c-.582.184-1.157.391-1.734.591C81.966,331.836,81.948,331.8,81.966,331.784Z" transform="translate(-77.035 -302.009)" fill="#263238"/>
        <path id="Path_7943" data-name="Path 7943" d="M77.13,270.271l8.731.949a49.831,49.831,0,0,0,3.386-7.788c1.159-3.735-2.132-3.009-5.977.612S77.13,270.271,77.13,270.271Z" transform="translate(-73.096 -246.021)" fill="#9bd19d"/>
        <path id="Path_7944" data-name="Path 7944" d="M77.13,270.271l8.731.949a49.831,49.831,0,0,0,3.386-7.788c1.159-3.735-2.132-3.009-5.977.612S77.13,270.271,77.13,270.271Z" transform="translate(-73.096 -246.021)" fill="#ff914d"/>
        <path id="Path_7945" data-name="Path 7945" d="M94.787,263.511a.142.142,0,0,1,0,.028,4.2,4.2,0,0,0-.029.964,3.989,3.989,0,0,0,.23-.938c0-.055.015-.109.02-.164Zm-4.573,8.659a3.6,3.6,0,0,0-.184.621l.184.018a3.373,3.373,0,0,0,0-.639ZM87.185,270.2h0l-.085.088a1.749,1.749,0,0,0,.289-.017C87.319,270.248,87.253,270.224,87.185,270.2Zm7.836.614c.052.02.105.041.158.057a.6.6,0,0,1,.033-.07C95.15,270.807,95.085,270.81,95.021,270.818Zm-2.738-2.465a4.319,4.319,0,0,0-.658-.706,3.829,3.829,0,0,0,.5.829,4.073,4.073,0,0,0,.658.7,4.463,4.463,0,0,0-.5-.824Z" transform="translate(-81.229 -248.014)" fill="#fff"/>
        <path id="Path_7946" data-name="Path 7946" d="M122.524,296.5h.368c.039-.112.79-1.842.975-2.211.38-.757.8-1.494,1.216-2.233.013-.024.05,0,.037.017-.291.645-.571,1.29-.868,1.938.074-.087.147-.173.219-.262.146-.184.278-.368.416-.564a.018.018,0,0,1,.029.02,3.36,3.36,0,0,1-.5.737,2.726,2.726,0,0,1-.271.275c-.024.053-.048.109-.074.16-.184.368-1.093,2.226-1.126,2.224l-.42-.052C122.5,296.556,122.5,296.5,122.524,296.5Z" transform="translate(-110.112 -271.382)" fill="#263238"/>
        <path id="Path_7947" data-name="Path 7947" d="M85.979,303.46c1.894.127,3.783.387,5.66.682q.8.127,1.588.289c.015,0,.015.026,0,.024-.943-.083-1.885-.2-2.826-.321s-1.89-.241-2.832-.391c-.531-.081-1.063-.162-1.592-.252C85.955,303.493,85.955,303.458,85.979,303.46Z" transform="translate(-80.3 -280.693)" fill="#263238"/>
        <path id="Path_7948" data-name="Path 7948" d="M140.53,233.332c.033.383,1.459,3.047,3.167,3.211.553.052.978-2.972.978-2.972l.081-.216,1.148-3.025-3.335-2.883-.485-.387s-.26.848-.571,1.907c-.015.05-.031.1-.046.151s-.037.116-.053.171c-.048.158-.1.319-.142.481-.035.123-.07.243-.1.368s-.066.258-.1.387a20.942,20.942,0,0,0-.536,2.806Z" transform="translate(-124.815 -218.37)" fill="#eb9481"/>
        <path id="Path_7949" data-name="Path 7949" d="M145.87,228.967a6.5,6.5,0,0,0,3.243,4.389l1.148-3.025-3.335-2.883-.485-.387S146.181,227.908,145.87,228.967Z" transform="translate(-129.171 -218.37)" fill="#263238"/>
        <path id="Path_7950" data-name="Path 7950" d="M174.88,206.92a2.131,2.131,0,1,0,1.529-2.815A2.282,2.282,0,0,0,174.88,206.92Z" transform="translate(-152.781 -199.606)" fill="#455a64"/>
        <path id="Path_7951" data-name="Path 7951" d="M171.316,206.755a2.371,2.371,0,1,0,1.7-3.132A2.534,2.534,0,0,0,171.316,206.755Z" transform="translate(-149.868 -199.209)" fill="#c7c7c7"/>
        <path id="Path_7952" data-name="Path 7952" d="M145.561,186.142c1.548,5.463-1.549,7-2.729,7.34-1.07.3-4.752,1.194-6.856-4.081s-.053-7.722,2.356-8.542S144.013,180.677,145.561,186.142Z" transform="translate(-120.386 -180.442)" fill="#eb9481"/>
        <path id="Path_7953" data-name="Path 7953" d="M177.685,204.8a3.46,3.46,0,0,1-.391.017.63.63,0,0,1-.4-.057.2.2,0,0,1-.063-.24.5.5,0,0,1,.45-.236.737.737,0,0,1,.512.134.217.217,0,0,1-.105.381Z" transform="translate(-154.413 -199.783)" fill="#263238"/>
        <path id="Path_7954" data-name="Path 7954" d="M160.813,210.976a3.639,3.639,0,0,0,.368-.136.643.643,0,0,0,.35-.21.2.2,0,0,0-.037-.245.5.5,0,0,0-.507-.042.737.737,0,0,0-.418.324.216.216,0,0,0,.243.31Z" transform="translate(-141.142 -204.691)" fill="#263238"/>
        <path id="Path_7955" data-name="Path 7955" d="M167.412,219.216c0-.015-.024.026-.018.041.118.368.184.811-.111,1.03-.009,0,0,.024.009.02C167.683,220.132,167.58,219.542,167.412,219.216Z" transform="translate(-146.636 -211.968)" fill="#263238"/>
        <path id="Path_7956" data-name="Path 7956" d="M164.076,217.6c-.612.125-.317,1.338.251,1.222S164.588,217.5,164.076,217.6Z" transform="translate(-143.746 -210.648)" fill="#263238"/>
        <path id="Path_7957" data-name="Path 7957" d="M161.185,218.236c-.088.1-.164.241-.287.286s-.287-.05-.413-.149c-.013-.009-.022,0-.018.02.053.232.2.45.459.424s.348-.269.348-.518C161.275,218.252,161.222,218.2,161.185,218.236Z" transform="translate(-141.077 -211.161)" fill="#263238"/>
        <path id="Path_7958" data-name="Path 7958" d="M179.69,215.6c0-.015.035.011.037.026.077.38.228.8.6.846a.011.011,0,0,1,0,.022C179.9,216.533,179.7,215.971,179.69,215.6Z" transform="translate(-156.76 -209.018)" fill="#263238"/>
        <path id="Path_7959" data-name="Path 7959" d="M179.9,212.975c.593-.184.921,1.013.368,1.188S179.406,213.132,179.9,212.975Z" transform="translate(-156.73 -206.864)" fill="#263238"/>
        <path id="Path_7960" data-name="Path 7960" d="M182.284,212.061c.112.037.238.127.354.1s.2-.184.245-.333c0-.015.018,0,.022,0,.07.228.061.488-.149.593s-.392-.061-.51-.275C182.223,212.12,182.238,212.041,182.284,212.061Z" transform="translate(-158.836 -205.941)" fill="#263238"/>
        <path id="Path_7961" data-name="Path 7961" d="M172.467,235.583c.107.072.221.184.368.16a1.037,1.037,0,0,0,.391-.175.013.013,0,1,1,.02.017.523.523,0,0,1-.442.3.411.411,0,0,1-.368-.278C172.422,235.587,172.45,235.574,172.467,235.583Z" transform="translate(-150.839 -225.307)" fill="#263238"/>
        <path id="Path_7962" data-name="Path 7962" d="M173.941,209.53s.219.54.287.8a1.373,1.373,0,0,1-1.492-.074.028.028,0,1,1,.031-.046,1.949,1.949,0,0,0,1.229.035c0-.077-.409-.912-.368-.921a2.375,2.375,0,0,1,.634-.018c-.427-1.137-1.032-2.2-1.439-3.337a.037.037,0,0,1,.064-.035,19.672,19.672,0,0,1,1.7,3.528C174.652,209.608,174.064,209.549,173.941,209.53Z" transform="translate(-151.077 -201.126)" fill="#263238"/>
        <path id="Path_7963" data-name="Path 7963" d="M174.011,229.545a1.551,1.551,0,0,1-.461.626.7.7,0,0,1-.4.14c-.315,0-.4-.26-.409-.5a1.692,1.692,0,0,1,.031-.387A1.982,1.982,0,0,0,174.011,229.545Z" transform="translate(-151.094 -220.295)" fill="#263238"/>
        <path id="Path_7964" data-name="Path 7964" d="M173.555,231.825a.7.7,0,0,1-.4.14c-.315,0-.4-.26-.409-.5A.714.714,0,0,1,173.555,231.825Z" transform="translate(-151.098 -221.948)" fill="#ff99ba"/>
        <path id="Path_7965" data-name="Path 7965" d="M134.763,189.284c1.058.068,1.179-2.351,1.179-2.351s4.422-1.03,4.58-4.693a6.169,6.169,0,0,0,3.316,3.18s-.4-3.98-3.609-4.562c0,0-4.013-1.19-6.03,2.06S134.053,189.237,134.763,189.284Z" transform="translate(-118.909 -180.507)" fill="#263238"/>
        <path id="Path_7966" data-name="Path 7966" d="M156.16,187.83a3.963,3.963,0,0,1-.1,1.675,4.1,4.1,0,0,1-.755,1.52,3.344,3.344,0,0,1-.282.321l-.147.157c-.052.048-.107.092-.162.138-.111.088-.217.184-.332.267a4,4,0,0,1-.368.225c-.061.035-.12.074-.184.107l-.184.088-.385.175c-.265.092-.534.17-.8.243.249-.127.507-.228.752-.356l.359-.2.184-.1c.057-.037.111-.079.166-.12.111-.081.221-.16.333-.238s.2-.184.3-.267l.153-.135.136-.151a3.444,3.444,0,0,0,.263-.306,4.79,4.79,0,0,0,.768-1.422,5.044,5.044,0,0,0,.2-.792A4.915,4.915,0,0,0,156.16,187.83Z" transform="translate(-134.547 -186.367)" fill="#263238"/>
        <path id="Path_7967" data-name="Path 7967" d="M134.719,222.54s-1.551-1.509-2.257-.921.693,2.935,1.686,3.1a.96.96,0,0,0,1.166-.748Z" transform="translate(-118.077 -213.82)" fill="#eb9481"/>
        <path id="Path_7968" data-name="Path 7968" d="M135.523,225.788a.013.013,0,1,0,0,.026,2.431,2.431,0,0,1,1.52,1.255.537.537,0,0,0-.807,0c-.015.017,0,.039.024.031a.593.593,0,0,1,.678.081,2.822,2.822,0,0,1,.405.457c.041.053.14,0,.105-.061l-.009-.015C137.3,226.744,136.428,225.7,135.523,225.788Z" transform="translate(-120.72 -217.327)" fill="#263238"/>
        <path id="Path_7969" data-name="Path 7969" d="M136.563,187.846a10.373,10.373,0,0,1-.658-4.431,4.555,4.555,0,0,1,5.564-3.34s-3.285.492-4.446,3.132c-.534,1.216.475,4.435.475,4.435Z" transform="translate(-120.983 -179.894)" fill="#c7c7c7"/>
        <ellipse id="Ellipse_83" data-name="Ellipse 83" cx="2.312" cy="2.637" rx="2.312" ry="2.637" transform="translate(13.356 7.425) rotate(-17.3)" fill="#c7c7c7"/>
        <path id="Path_7970" data-name="Path 7970" d="M134.178,219.346a2.1,2.1,0,1,1-2.69-1.645A2.234,2.234,0,0,1,134.178,219.346Z" transform="translate(-116.287 -210.667)" fill="#455a64"/>
        <path id="Path_7971" data-name="Path 7971" d="M140.844,258.418l-1.013,2.557-3.187-3.215-.894,1.039s3.132,5.118,3.143,4.886l1.043-2.211L141.462,263l-.138-3.836Z" transform="translate(-120.915 -243.413)" fill="#ebebeb"/>
        <path id="Path_7972" data-name="Path 7972" d="M141.258,265.688c-.046-.632-.072-1.273-.146-1.9a.022.022,0,0,0-.044,0,35.175,35.175,0,0,0,.059,3.615h0c-.063-.066-1.413-1.341-1.426-1.321-.227.35-.991,1.957-1.043,2.1-.5-.813-2.592-4.016-3.176-4.79a.022.022,0,0,0-.037.022c.437.859,3.145,5.087,3.184,5.076a25.274,25.274,0,0,0,1.091-2.331,16.852,16.852,0,0,0,1.6,1.623A20.231,20.231,0,0,0,141.258,265.688Z" transform="translate(-120.666 -248.001)" fill="#263238"/>
      </g>
      <g id="freepik--speech-bubbles--inject-5" transform="translate(28.047 14.793)">
        <path id="Path_7973" data-name="Path 7973" d="M208.2,140.839a5.75,5.75,0,0,1-9.608,3.639l-2.878.422,1.441-2.487a5.75,5.75,0,1,1,11.055-1.573Z" transform="translate(-195.513 -134.436)" fill="#fff"/>
        <path id="Path_7974" data-name="Path 7974" d="M207.323,140.509a5.8,5.8,0,0,1-1.161,2.917,5.265,5.265,0,0,1-1.128,1.105,5.658,5.658,0,0,1-1.387.772,5.731,5.731,0,0,1-1.549.368,5.488,5.488,0,0,1-.8.015,5,5,0,0,1-.8-.083,5.8,5.8,0,0,1-2.85-1.395l.068.02-2.874.442-.208.031.105-.184,1.435-2.493v.1a5.813,5.813,0,0,1,.356-5.126,5.775,5.775,0,0,1,9.067-1.238A5.785,5.785,0,0,1,207.323,140.509Zm0,0a5.7,5.7,0,0,0-8.9-5.284,5.92,5.92,0,0,0-1.721,1.876,5.671,5.671,0,0,0-.324,4.94l.02.052-.028.046-1.448,2.484-.1-.153,2.88-.4h.041l.028.028a5.686,5.686,0,0,0,2.764,1.419,5.03,5.03,0,0,0,.779.094,5.6,5.6,0,0,0,.787,0,5.711,5.711,0,0,0,1.537-.337,5.317,5.317,0,0,0,1.387-.748,5.121,5.121,0,0,0,1.131-1.105A5.772,5.772,0,0,0,207.323,140.509Z" transform="translate(-194.64 -134.106)" fill="#263238"/>
        <circle id="Ellipse_84" data-name="Ellipse 84" cx="0.696" cy="0.696" r="0.696" transform="translate(8.777 5.283)" fill="#263238"/>
        <circle id="Ellipse_85" data-name="Ellipse 85" cx="0.696" cy="0.696" r="0.696" transform="translate(6.281 5.283)" fill="#263238"/>
        <circle id="Ellipse_86" data-name="Ellipse 86" cx="0.696" cy="0.696" r="0.696" transform="translate(3.786 5.283)" fill="#263238"/>
        <path id="Path_7975" data-name="Path 7975" d="M518.716,140.8a5.75,5.75,0,0,1-9.608,3.639l-2.878.422,1.439-2.487a5.752,5.752,0,1,1,11.055-1.573Z" transform="translate(-448.822 -134.394)" fill="#fff"/>
        <path id="Path_7976" data-name="Path 7976" d="M517.859,140.5a5.815,5.815,0,0,1-1.161,2.917,6.709,6.709,0,0,1-.521.6,6.449,6.449,0,0,1-.608.514,5.592,5.592,0,0,1-1.387.772,5.713,5.713,0,0,1-1.548.368,5.515,5.515,0,0,1-.8.015,5.027,5.027,0,0,1-.8-.083,5.8,5.8,0,0,1-2.845-1.4l.068.02-2.874.442-.208.031.105-.184,1.432-2.493v.1a5.818,5.818,0,0,1,.354-5.126,5.777,5.777,0,0,1,9.068-1.238A5.78,5.78,0,0,1,517.859,140.5Zm0,0a5.7,5.7,0,0,0-8.9-5.284,5.919,5.919,0,0,0-1.721,1.876,5.665,5.665,0,0,0-.737,2.434,5.741,5.741,0,0,0,.4,2.506l.022.052-.028.046-1.448,2.484-.1-.153,2.88-.4h.041l.028.028a5.685,5.685,0,0,0,2.754,1.419,5.029,5.029,0,0,0,.779.094,5.608,5.608,0,0,0,.787,0,5.711,5.711,0,0,0,1.537-.337,5.342,5.342,0,0,0,1.387-.748,5.157,5.157,0,0,0,1.129-1.105A5.758,5.758,0,0,0,517.859,140.5Z" transform="translate(-447.965 -134.098)" fill="#263238"/>
        <circle id="Ellipse_87" data-name="Ellipse 87" cx="0.696" cy="0.696" r="0.696" transform="translate(65.979 5.283)" fill="#263238"/>
        <circle id="Ellipse_88" data-name="Ellipse 88" cx="0.696" cy="0.696" r="0.696" transform="translate(63.485 5.283)" fill="#263238"/>
        <path id="Path_7977" data-name="Path 7977" d="M527.063,163.475a.7.7,0,1,1-.7-.695A.7.7,0,0,1,527.063,163.475Z" transform="translate(-464.68 -157.496)" fill="#263238"/>
      </g>
      <g id="freepik--Devices--inject-5" transform="translate(16.659 41.403)">
        <rect id="Rectangle_1268" data-name="Rectangle 1268" width="1.233" height="0.805" transform="translate(13.317 20.569)" fill="#455a64"/>
        <rect id="Rectangle_1269" data-name="Rectangle 1269" width="1.233" height="0.805" transform="translate(14.916 20.515)" fill="#455a64"/>
        <rect id="Rectangle_1270" data-name="Rectangle 1270" width="1.233" height="0.805" transform="translate(16.516 20.462)" fill="#455a64"/>
        <rect id="Rectangle_1271" data-name="Rectangle 1271" width="1.233" height="0.805" transform="translate(18.113 20.409)" fill="#455a64"/>
        <rect id="Rectangle_1272" data-name="Rectangle 1272" width="1.233" height="0.805" transform="translate(19.712 20.355)" fill="#455a64"/>
        <rect id="Rectangle_1273" data-name="Rectangle 1273" width="1.233" height="0.805" transform="translate(21.311 20.304)" fill="#455a64"/>
        <rect id="Rectangle_1274" data-name="Rectangle 1274" width="1.233" height="0.805" transform="translate(22.909 20.25)" fill="#455a64"/>
        <rect id="Rectangle_1275" data-name="Rectangle 1275" width="1.233" height="0.805" transform="translate(24.508 20.197)" fill="#455a64"/>
        <rect id="Rectangle_1276" data-name="Rectangle 1276" width="1.233" height="0.805" transform="translate(26.105 20.143)" fill="#455a64"/>
        <path id="Path_7978" data-name="Path 7978" d="M218.1,390.907H203.47v-.98l14.625-.407Z" transform="translate(-190.455 -369.071)" fill="#37474f"/>
        <path id="Path_7979" data-name="Path 7979" d="M253.433,296.5H229.29l3.84-17.975h24.143Z" transform="translate(-211.518 -278.53)" fill="#455a64"/>
        <path id="Path_7980" data-name="Path 7980" d="M258.275,296.5H234.13l3.84-17.975h24.145Z" transform="translate(-215.466 -278.53)" fill="#37474f"/>
        <path id="Path_7981" data-name="Path 7981" d="M308.071,315.041a1.817,1.817,0,0,1-1.73,1.492,1.242,1.242,0,0,1-1.255-1.492,1.815,1.815,0,0,1,1.728-1.494,1.242,1.242,0,0,1,1.257,1.494Z" transform="translate(-273.328 -307.095)" fill="#263238"/>
        <path id="Path_7982" data-name="Path 7982" d="M275.544,395.786H263.67v-.923l11.874-.383Z" transform="translate(-239.564 -373.117)" fill="#455a64"/>
        <path id="Path_7983" data-name="Path 7983" d="M300.406,356.963H294.03l-3.84-10.073h6.377Z" transform="translate(-261.197 -334.295)" fill="#455a64"/>
        <path id="Path_7984" data-name="Path 7984" d="M306.1,356.963H299.73l-3.84-10.073h6.375Z" transform="translate(-265.847 -334.295)" fill="#263238"/>
        <path id="Path_7985" data-name="Path 7985" d="M145.39,383.8H133.152c-1.045,0,.466-2.976,4.28-4.116S146.6,382.688,145.39,383.8Z" transform="translate(-132.83 -360.89)" fill="#37474f"/>
        <path id="Path_7986" data-name="Path 7986" d="M175,388.486a3.62,3.62,0,0,1,.166-1,4.174,4.174,0,0,1,.411-.934,3.354,3.354,0,0,1,.65-.79,2.891,2.891,0,0,1,.862-.532c-.131.107-.28.184-.4.3l-.184.16-.173.184a4.291,4.291,0,0,0-.591.781,5.88,5.88,0,0,0-.435.884A7.441,7.441,0,0,0,175,388.486Z" transform="translate(-167.23 -365.571)" fill="#263238"/>
        <path id="Path_7987" data-name="Path 7987" d="M182.82,387.53a7.537,7.537,0,0,1,2.043,1.008,4.41,4.41,0,0,1,.853.772,1.8,1.8,0,0,1,.453,1.052,2.133,2.133,0,0,0-.564-.949,5.911,5.911,0,0,0-.853-.719c-.3-.219-.623-.416-.947-.61S183.155,387.709,182.82,387.53Z" transform="translate(-173.61 -367.448)" fill="#263238"/>
        <rect id="Rectangle_1277" data-name="Rectangle 1277" width="1.233" height="0.805" transform="translate(69.854 20.569)" fill="#455a64"/>
        <rect id="Rectangle_1278" data-name="Rectangle 1278" width="1.233" height="0.805" transform="translate(71.453 20.515)" fill="#455a64"/>
        <rect id="Rectangle_1279" data-name="Rectangle 1279" width="1.233" height="0.805" transform="translate(73.052 20.462)" fill="#455a64"/>
        <rect id="Rectangle_1280" data-name="Rectangle 1280" width="1.233" height="0.805" transform="translate(74.65 20.409)" fill="#455a64"/>
        <rect id="Rectangle_1281" data-name="Rectangle 1281" width="1.233" height="0.805" transform="translate(76.249 20.355)" fill="#455a64"/>
        <rect id="Rectangle_1282" data-name="Rectangle 1282" width="1.233" height="0.805" transform="translate(77.848 20.304)" fill="#455a64"/>
        <rect id="Rectangle_1283" data-name="Rectangle 1283" width="1.233" height="0.805" transform="translate(79.446 20.25)" fill="#455a64"/>
        <rect id="Rectangle_1284" data-name="Rectangle 1284" width="1.233" height="0.805" transform="translate(81.045 20.197)" fill="#455a64"/>
        <rect id="Rectangle_1285" data-name="Rectangle 1285" width="1.233" height="0.805" transform="translate(82.644 20.143)" fill="#455a64"/>
        <path id="Path_7988" data-name="Path 7988" d="M524.965,390.907H510.34v-.98l14.625-.407Z" transform="translate(-440.786 -369.071)" fill="#37474f"/>
        <path id="Path_7989" data-name="Path 7989" d="M560.293,296.5H536.15l3.84-17.975h24.143Z" transform="translate(-461.841 -278.53)" fill="#455a64"/>
        <path id="Path_7990" data-name="Path 7990" d="M565.143,296.5H541l3.84-17.975h24.143Z" transform="translate(-465.798 -278.53)" fill="#37474f"/>
        <path id="Path_7991" data-name="Path 7991" d="M614.931,315.041a1.817,1.817,0,0,1-1.728,1.492,1.242,1.242,0,0,1-1.257-1.492,1.817,1.817,0,0,1,1.728-1.494,1.242,1.242,0,0,1,1.256,1.494Z" transform="translate(-523.651 -307.095)" fill="#263238"/>
        <path id="Path_7992" data-name="Path 7992" d="M582.4,395.786H570.53v-.923l11.874-.383Z" transform="translate(-489.887 -373.117)" fill="#455a64"/>
        <path id="Path_7993" data-name="Path 7993" d="M607.266,356.963H600.89l-3.84-10.073h6.377Z" transform="translate(-511.521 -334.295)" fill="#455a64"/>
        <path id="Path_7994" data-name="Path 7994" d="M612.966,356.963H606.59l-3.84-10.073h6.377Z" transform="translate(-516.171 -334.295)" fill="#263238"/>
        <path id="Path_7995" data-name="Path 7995" d="M452.255,383.8H440.012c-1.045,0,.466-2.976,4.28-4.116S453.456,382.688,452.255,383.8Z" transform="translate(-383.153 -360.89)" fill="#37474f"/>
        <path id="Path_7996" data-name="Path 7996" d="M481.81,388.486a3.686,3.686,0,0,1,.166-1,4.265,4.265,0,0,1,.411-.934,3.449,3.449,0,0,1,.65-.79,2.891,2.891,0,0,1,.862-.532c-.131.107-.28.184-.4.3l-.184.16-.173.184a4.222,4.222,0,0,0-.593.781,5.884,5.884,0,0,0-.435.884A7.436,7.436,0,0,0,481.81,388.486Z" transform="translate(-417.513 -365.571)" fill="#263238"/>
        <path id="Path_7997" data-name="Path 7997" d="M489.68,387.53a7.537,7.537,0,0,1,2.043,1.008,4.475,4.475,0,0,1,.855.772,1.811,1.811,0,0,1,.457,1.045,2.138,2.138,0,0,0-.566-.949,5.913,5.913,0,0,0-.853-.719c-.3-.219-.623-.416-.947-.61S490.017,387.709,489.68,387.53Z" transform="translate(-423.933 -367.448)" fill="#263238"/>
      </g>
    </g>
  </g>
</svg>
