<svg xmlns="http://www.w3.org/2000/svg" width="24.723" height="28.109" viewBox="0 0 24.723 28.109">
  <path id="Icon_map-electronics-store" data-name="Icon map-electronics-store" d="M15.089,29.123A12.362,12.362,0,0,1,8.695,6.181a1.693,1.693,0,1,1,1.755,2.9,8.973,8.973,0,1,0,9.074-.122A1.693,1.693,0,1,1,21.2,6.013a12.363,12.363,0,0,1-6.11,23.11ZM14.96,16.592c-.935,0-2.067-.758-2.067-1.693V2.706c0-.935,1.132-1.693,2.067-1.693s2.067.758,2.067,1.693V14.9c0,.935-1.132,1.693-2.067,1.693Z" transform="translate(-2.728 -1.013)" fill="#ff914d"/>
</svg>
