<svg xmlns="http://www.w3.org/2000/svg" width="95.408" height="95.408" viewBox="0 0 95.408 95.408">
  <path id="Icon_awesome-whatsapp" data-name="Icon awesome-whatsapp" d="M81.118,16.114A47.293,47.293,0,0,0,6.708,73.167L0,97.658l25.066-6.581a47.134,47.134,0,0,0,22.6,5.75h.021c26.045,0,47.725-21.211,47.725-47.278a47.464,47.464,0,0,0-14.29-33.435ZM47.683,88.862a39.226,39.226,0,0,1-20.019-5.473l-1.427-.852-14.865,3.9,3.961-14.5L14.4,70.441A39.372,39.372,0,1,1,87.422,49.549c0,21.68-18.081,39.313-39.739,39.313ZM69.235,59.431c-1.171-.6-6.985-3.45-8.071-3.833-1.086-.4-1.874-.6-2.662.6s-3.045,3.833-3.748,4.643c-.681.788-1.384.894-2.556.3-6.943-3.471-11.5-6.2-16.079-14.056-1.214-2.087,1.214-1.938,3.471-6.453a2.189,2.189,0,0,0-.106-2.066c-.3-.6-2.662-6.41-3.642-8.774-.958-2.3-1.938-1.981-2.662-2.023-.681-.043-1.469-.043-2.257-.043A4.376,4.376,0,0,0,27.77,29.19a13.275,13.275,0,0,0-4.131,9.86c0,5.814,4.238,11.436,4.813,12.224.6.788,8.327,12.714,20.189,17.846,7.5,3.237,10.435,3.514,14.183,2.96,2.279-.341,6.985-2.854,7.965-5.622s.98-5.132.681-5.622C71.194,60.3,70.406,60.006,69.235,59.431Z" transform="translate(0 -2.25)"/>
</svg>
