<svg xmlns="http://www.w3.org/2000/svg" width="23.538" height="19.312" viewBox="0 0 23.538 19.312">
  <path id="Icon_awesome-list-ul" data-name="Icon awesome-list-ul" d="M2.113,3.375A2.113,2.113,0,1,0,4.226,5.488,2.113,2.113,0,0,0,2.113,3.375Zm0,7.043a2.113,2.113,0,1,0,2.113,2.113A2.113,2.113,0,0,0,2.113,10.418Zm0,7.043a2.113,2.113,0,1,0,2.113,2.113A2.113,2.113,0,0,0,2.113,17.461Zm19.721.7H7.747a.7.7,0,0,0-.7.7v1.409a.7.7,0,0,0,.7.7H21.834a.7.7,0,0,0,.7-.7V18.87A.7.7,0,0,0,21.834,18.165Zm0-14.086H7.747a.7.7,0,0,0-.7.7V6.192a.7.7,0,0,0,.7.7H21.834a.7.7,0,0,0,.7-.7V4.784A.7.7,0,0,0,21.834,4.079Zm0,7.043H7.747a.7.7,0,0,0-.7.7v1.409a.7.7,0,0,0,.7.7H21.834a.7.7,0,0,0,.7-.7V11.827A.7.7,0,0,0,21.834,11.122Z" transform="translate(0.5 -2.875)" fill="none" stroke="#000" stroke-width="1"/>
</svg>
