<svg xmlns="http://www.w3.org/2000/svg" width="20.325" height="24.02" viewBox="0 0 20.325 24.02">
  <path id="Icon_ionic-md-notifications-outline" data-name="Icon ionic-md-notifications-outline" d="M15.845,7.56a8.347,8.347,0,0,1,1.381.259,5.884,5.884,0,0,1,4.485,5.765v7.368l.538.541.45.452H8.876l.45-.452.538-.541V13.584a5.884,5.884,0,0,1,4.485-5.765A10.222,10.222,0,0,1,15.73,7.56m.058-4.185a1.765,1.765,0,0,0-1.793,1.8v.841a7.784,7.784,0,0,0-5.978,7.566v6.606l-2.391,2.4v1.2H25.95v-1.2l-2.391-2.4V13.584a7.784,7.784,0,0,0-5.978-7.566V5.177a1.765,1.765,0,0,0-1.793-1.8Zm2.391,21.618H13.4a2.391,2.391,0,1,0,4.782,0Z" transform="translate(-5.625 -3.375)"/>
</svg>
