<svg xmlns="http://www.w3.org/2000/svg" xmlns:xlink="http://www.w3.org/1999/xlink" width="239" height="151" viewBox="0 0 239 151">
  <defs>
    <clipPath id="clip-path">
      <rect id="Rectangle_2291" data-name="Rectangle 2291" width="239" height="151" transform="translate(61 104)" fill="#fff"/>
    </clipPath>
  </defs>
  <g id="Mask_Group_23" data-name="Mask Group 23" transform="translate(-61 -104)" clip-path="url(#clip-path)">
    <g id="Enter_OTP-bro" data-name="Enter OTP-bro" transform="translate(99.642 98.704)">
      <g id="freepik--background-simple--inject-21">
        <path id="Path_8575" data-name="Path 8575" d="M154.01,89.679c-4.367,13.236-13.776,27.747-27.627,32.47-20.924,7.141-22.8,24.3-60.767,24.183a76.685,76.685,0,0,1-16.489-1.771A63.863,63.863,0,0,1,41.32,142.3c-22.5-8.115-34.813-27.414-36.577-48.036C2.428,67.134,20.885,53.452,32.9,45.382S58.647,7.364,95.982,7.186A74.038,74.038,0,0,1,112.927,9c12.676,2.913,25.721,9.928,33.557,20.619.586.8,1.149,1.618,1.693,2.467C158.759,48.535,159.966,71.63,154.01,89.679Z" fill="#fff4ed"/>
        <path id="Path_8576" data-name="Path 8576" d="M154.01,89.679c-4.367,13.236-13.776,27.747-27.627,32.47-20.924,7.141-22.8,24.3-60.767,24.183a76.685,76.685,0,0,1-16.489-1.771A63.863,63.863,0,0,1,41.32,142.3c-22.5-8.115-34.813-27.414-36.577-48.036C2.428,67.134,20.885,53.452,32.9,45.382S58.647,7.364,95.982,7.186A74.038,74.038,0,0,1,112.927,9c12.676,2.913,25.721,9.928,33.557,20.619.586.8,1.149,1.618,1.693,2.467C158.759,48.535,159.966,71.63,154.01,89.679Z" fill="#fff4ed" opacity="0.7"/>
      </g>
      <g id="freepik--Window--inject-21">
        <path id="Path_8577" data-name="Path 8577" d="M49.091,12.391H6.859A.162.162,0,0,1,6.71,12.3a.165.165,0,0,1,.026-.175L9.1,9.387a.165.165,0,0,1,.23-.016.159.159,0,0,1,.016.227l-2.13,2.476H48.93V9.484a.162.162,0,0,1,.324,0v2.742a.162.162,0,0,1-.162.165Z" fill="#263238"/>
        <path id="Path_8578" data-name="Path 8578" d="M49.091,16.35H6.859a.162.162,0,0,1-.149-.094.159.159,0,0,1,.026-.172L9.1,13.343a.162.162,0,1,1,.246.21l-2.13,2.473H48.93v-2.59a.162.162,0,0,1,.324,0v2.748a.162.162,0,0,1-.162.165Z" fill="#263238"/>
        <path id="Path_8579" data-name="Path 8579" d="M49.091,20.312H6.859a.161.161,0,0,1-.123-.269L9.1,17.3a.165.165,0,0,1,.23-.016.159.159,0,0,1,.016.227l-2.13,2.476H48.93V17.4a.162.162,0,0,1,.324,0V20.14a.162.162,0,0,1-.162.172Z" fill="#263238"/>
        <path id="Path_8580" data-name="Path 8580" d="M49.091,24.277H6.859a.162.162,0,0,1-.149-.094.165.165,0,0,1,.026-.175L9.1,21.27a.162.162,0,0,1,.246.21l-2.13,2.473H48.93v-2.59a.162.162,0,0,1,.324,0v2.742a.162.162,0,0,1-.162.172Z" fill="#263238"/>
        <path id="Path_8581" data-name="Path 8581" d="M49.091,28.233H6.859a.165.165,0,0,1-.149-.1.159.159,0,0,1,.026-.172L9.1,25.222a.165.165,0,0,1,.23,0,.159.159,0,0,1,.016.227l-2.13,2.476H48.93v-2.59a.162.162,0,0,1,.324,0v2.742A.162.162,0,0,1,49.091,28.233Z" fill="#263238"/>
        <path id="Path_8582" data-name="Path 8582" d="M49.091,32.191H6.859A.162.162,0,0,1,6.71,32.1a.165.165,0,0,1,.026-.175L9.1,29.181a.163.163,0,0,1,.246.214l-2.13,2.473H48.93v-2.59a.162.162,0,1,1,.324,0v2.768A.162.162,0,0,1,49.091,32.191Z" fill="#263238"/>
        <path id="Path_8583" data-name="Path 8583" d="M49.091,36.15H6.859a.162.162,0,0,1-.149-.094.159.159,0,0,1,.026-.172L9.1,33.143a.168.168,0,0,1,.23-.019.165.165,0,0,1,.016.23l-2.13,2.473H48.93v-2.59a.162.162,0,0,1,.324,0v2.742a.162.162,0,0,1-.162.172Z" fill="#263238"/>
        <path id="Path_8584" data-name="Path 8584" d="M49.091,40.112H6.859a.161.161,0,0,1-.123-.269L9.1,37.1a.165.165,0,0,1,.23-.016.159.159,0,0,1,.016.227l-2.13,2.476H48.93V37.2a.162.162,0,0,1,.324,0v2.742a.162.162,0,0,1-.162.172Z" fill="#263238"/>
        <path id="Path_8585" data-name="Path 8585" d="M49.091,44.071H6.859a.162.162,0,0,1-.149-.094.159.159,0,0,1,.026-.172L9.1,41.064a.162.162,0,0,1,.246.21l-2.13,2.473H48.93v-2.59a.162.162,0,1,1,.324,0V43.9a.162.162,0,0,1-.162.172Z" fill="#263238"/>
        <path id="Path_8586" data-name="Path 8586" d="M49.091,48.033H6.859a.165.165,0,0,1-.149-.1.159.159,0,0,1,.026-.172L9.1,45.023a.165.165,0,0,1,.23-.016.159.159,0,0,1,.016.227l-2.13,2.476H48.93V45.12a.162.162,0,0,1,.324,0v2.742a.162.162,0,0,1-.162.172Z" fill="#263238"/>
        <path id="Path_8587" data-name="Path 8587" d="M49.091,51.992H6.859A.162.162,0,0,1,6.71,51.9a.165.165,0,0,1,.026-.175L9.1,48.981a.163.163,0,1,1,.246.214l-2.13,2.473H48.93v-2.59a.162.162,0,0,1,.324,0V51.82a.162.162,0,0,1-.162.172Z" fill="#263238"/>
        <path id="Path_8588" data-name="Path 8588" d="M49.091,55.95H6.859a.162.162,0,0,1-.149-.094.159.159,0,0,1,.026-.172L9.1,52.943a.165.165,0,0,1,.23-.016.159.159,0,0,1,.016.227l-2.13,2.473H48.93v-2.59a.162.162,0,1,1,.324,0v2.742a.162.162,0,0,1-.162.172Z" fill="#263238"/>
        <path id="Path_8589" data-name="Path 8589" d="M49.091,59.912H6.859a.161.161,0,0,1-.123-.269L9.1,56.9a.165.165,0,0,1,.23,0,.159.159,0,0,1,.016.227L7.212,59.6H48.93v-2.59a.162.162,0,0,1,.324,0v2.742a.162.162,0,0,1-.162.155Z" fill="#263238"/>
        <path id="Path_8590" data-name="Path 8590" d="M49.091,63.871H6.859a.162.162,0,0,1-.149-.094.159.159,0,0,1,.026-.172L9.1,60.854a.162.162,0,1,1,.246.21l-2.13,2.473H48.93v-2.59a.162.162,0,0,1,.324,0V63.69a.162.162,0,0,1-.162.181Z" fill="#263238"/>
        <path id="Path_8591" data-name="Path 8591" d="M49.091,67.833H6.859a.161.161,0,0,1-.123-.269L9.1,64.823a.165.165,0,0,1,.23,0,.159.159,0,0,1,.016.227l-2.13,2.476H48.93v-2.59a.162.162,0,0,1,.324,0v2.742a.162.162,0,0,1-.162.155Z" fill="#263238"/>
        <path id="Path_8592" data-name="Path 8592" d="M49.091,71.792H6.859A.162.162,0,0,1,6.71,71.7a.165.165,0,0,1,.026-.175L9.1,68.782A.163.163,0,0,1,9.342,69l-2.13,2.473H48.93v-2.59a.162.162,0,1,1,.324,0V71.62a.162.162,0,0,1-.162.172Z" fill="#263238"/>
        <path id="Path_8593" data-name="Path 8593" d="M49.091,75.744H6.859a.159.159,0,0,1-.123-.265L9.1,72.737a.165.165,0,0,1,.23,0,.159.159,0,0,1,.016.227l-2.13,2.457H48.93v-2.59a.162.162,0,0,1,.324,0V75.57a.162.162,0,0,1-.162.175Z" fill="#263238"/>
        <path id="Path_8594" data-name="Path 8594" d="M51.1,9.688H6.8a.162.162,0,0,1-.162-.162V5.457A.162.162,0,0,1,6.8,5.3H51.1a.162.162,0,0,1,.162.162V9.526A.162.162,0,0,1,51.1,9.688ZM6.956,9.364H50.943V5.619H6.956Z" fill="#263238"/>
        <path id="Path_8595" data-name="Path 8595" d="M50.1,50.111a.162.162,0,0,1-.162-.162V9.711a.162.162,0,1,1,.324,0V49.946a.162.162,0,0,1-.162.165Z" fill="#263238"/>
        <path id="Path_8596" data-name="Path 8596" d="M50.881,53.086H49.438a.162.162,0,0,1-.162-.162V50.088a.162.162,0,0,1,.162-.162h1.444a.162.162,0,0,1,.162.162v2.836A.162.162,0,0,1,50.881,53.086Zm-1.295-.324h1.12V50.25h-1.12Z" fill="#263238"/>
      </g>
      <g id="freepik--Plant--inject-21">
        <path id="Path_8597" data-name="Path 8597" d="M22.723,90.272h0a.025.025,0,1,0-.039-.026,40.526,40.526,0,0,0-2.14,6.707,62.926,62.926,0,0,0-1.2,6.953l-.165,1.758c-.026.295-.058.586-.081.88l-.045.88c-.026.589-.062,1.175-.081,1.764l.016,1.764.019.884c.016.295.036.589.055.88.045.589.081,1.175.136,1.761.11,1.169.288,2.334.469,3.493A.026.026,0,0,0,19.7,118a.032.032,0,0,0,.032-.029h0c0-.589-.029-1.175-.042-1.758s-.068-1.169-.058-1.754,0-1.169-.019-1.751l-.016-.877V109.2l.049-1.748.016-.874c0-.291.032-.583.049-.874l.107-1.748a62.717,62.717,0,0,1,.991-6.934,40.608,40.608,0,0,1,1.916-6.752Z" fill="#263238"/>
        <path id="Path_8598" data-name="Path 8598" d="M22.982,99.423a.036.036,0,0,0-.019-.039.029.029,0,0,0-.039.019,40.52,40.52,0,0,0-1.981,9.008c-.155,1.531-.324,3.065-.35,4.6a38.6,38.6,0,0,0,.165,4.616.031.031,0,0,0,.062,0c.178-1.531.285-3.062.392-4.59s.123-3.059.223-4.587a40.536,40.536,0,0,1,.537-4.548,41.694,41.694,0,0,1,1.01-4.483Z" fill="#263238"/>
        <path id="Path_8599" data-name="Path 8599" d="M28.048,102.64a.032.032,0,0,0-.045,0,15.444,15.444,0,0,0-3.4,2.946,13.4,13.4,0,0,0-1.327,1.845l-.272.515-.214.534a5.629,5.629,0,0,0-.188.541c-.055.181-.113.366-.165.547a21.924,21.924,0,0,0-.7,4.473,25.552,25.552,0,0,0,.168,4.506.032.032,0,0,0,.026.029.036.036,0,0,0,.036-.029l.385-4.46a39.757,39.757,0,0,1,.566-4.4c.039-.178.091-.356.136-.531a4.724,4.724,0,0,1,.155-.528l.194-.515.233-.486a12.8,12.8,0,0,1,1.217-1.845,15.214,15.214,0,0,1,3.182-3.1h0a.036.036,0,0,0,.013-.042Z" fill="#263238"/>
        <path id="Path_8600" data-name="Path 8600" d="M25.591,108.369a4.956,4.956,0,0,0-1.541,1.855,10.779,10.779,0,0,0-.864,2.266,6.047,6.047,0,0,0-.152.589l-.139.592a10.034,10.034,0,0,0-.149,1.2c0,.4-.019.809,0,1.211a10.034,10.034,0,0,0,.159,1.2.036.036,0,0,0,.026.026.029.029,0,0,0,.036-.026,10.841,10.841,0,0,0,.214-1.185c.062-.392.123-.783.172-1.172s.107-.777.139-1.169a8.284,8.284,0,0,1,.168-1.165,10.439,10.439,0,0,1,.647-2.25,4.956,4.956,0,0,1,1.295-1.942h0a.026.026,0,0,0,0-.039h-.01Z" fill="#263238"/>
        <path id="Path_8601" data-name="Path 8601" d="M18.48,112.836c-.168-1.978-.5-3.939-.8-5.9s-.647-3.913-1.01-5.865-.757-3.884-1.178-5.826a.032.032,0,0,0-.062,0c.34,1.942.647,3.91.935,5.869s.576,3.92.825,5.882.431,3.936.677,5.894l.725,5.9a.029.029,0,0,0,.029.029.036.036,0,0,0,.032-.029c.023-.5.023-.994.036-1.492s-.023-.994-.029-1.489C18.638,114.817,18.554,113.83,18.48,112.836Z" fill="#263238"/>
        <path id="Path_8602" data-name="Path 8602" d="M17.292,112.811c-.107-.787-.249-1.567-.4-2.344l-.275-1.156c-.094-.385-.178-.77-.291-1.152a32.563,32.563,0,0,0-1.515-4.5l-.243-.544-.265-.534c-.165-.359-.369-.7-.563-1.046a8.679,8.679,0,0,0-1.427-1.9.03.03,0,1,0-.042.042h0a8.594,8.594,0,0,1,1.295,1.942c.175.35.356.7.5,1.062l.233.537.207.55a32.37,32.37,0,0,1,1.317,4.506c.181.761.3,1.538.45,2.3l.185,1.162c.068.385.149.767.2,1.156.123.774.265,1.547.4,2.321s.262,1.554.424,2.327a.032.032,0,0,0,.032.026.029.029,0,0,0,.029-.029q0-1.188-.055-2.373C17.479,114.384,17.373,113.6,17.292,112.811Z" fill="#263238"/>
        <path id="Path_8603" data-name="Path 8603" d="M15.654,112.911c-.369-1.039-.793-2.055-1.256-3.052a27.192,27.192,0,0,0-1.576-2.894.036.036,0,0,0-.042,0,.032.032,0,0,0,0,.042,27.414,27.414,0,0,1,1.347,2.984c.4,1.01.764,2.039,1.065,3.082s.534,2.107.809,3.156.528,2.1.851,3.162a.031.031,0,0,0,.062-.006,15.861,15.861,0,0,0-.308-3.3,20.83,20.83,0,0,0-.952-3.179Z" fill="#263238"/>
        <path id="Path_8604" data-name="Path 8604" d="M15.586,116.371a7.092,7.092,0,0,0-.874-1.829,7.536,7.536,0,0,0-1.269-1.573,5.912,5.912,0,0,0-.819-.612,3.347,3.347,0,0,0-.916-.414.032.032,0,0,0-.036.019.029.029,0,0,0,0,.039h0a4.5,4.5,0,0,1,1.518,1.178,7.121,7.121,0,0,1,1.058,1.6c.3.57.456,1.2.719,1.784.113.3.23.6.363.9a7.725,7.725,0,0,0,.4.913h0a.032.032,0,0,0,.026.016.036.036,0,0,0,.036-.029,7.554,7.554,0,0,0-.039-1.013A5.482,5.482,0,0,0,15.586,116.371Z" fill="#263238"/>
        <path id="Path_8605" data-name="Path 8605" d="M15.706,98.079a5.629,5.629,0,0,1-3.991-4.24c-.751-3.5,1.664-2-.5-7.49S9.552,79.612,10.3,78.03s1.165-1.081,1.829,1,3.085,5.325,3.994,11.4S15.706,98.079,15.706,98.079Z" fill="#ff914d"/>
        <path id="Path_8606" data-name="Path 8606" d="M22.115,92.175s-2.166-.751-2.246-4.826,1.58-3.237,1.829-8.319.583-8.652,1.5-8.74,3.328,2.5,4.159,8.154-1.081,9.387-2.745,11.064S22.115,92.175,22.115,92.175Z" fill="#ff914d"/>
        <path id="Path_8607" data-name="Path 8607" d="M14.544,102.99a13.839,13.839,0,0,0-1.5-4.409c-1-1.415-3.162-2.664-4.577-5.409S5.474,89.1,5.555,93.007a7.914,7.914,0,0,0,3.994,7.238C11.714,101.578,14.544,102.99,14.544,102.99Z" fill="#ff914d"/>
        <path id="Path_8608" data-name="Path 8608" d="M13.628,108.146a30,30,0,0,0-4.907-6.655c-2.91-2.829-5.244-4.244-4.412-2.829S6.14,100,7.545,102.491s1,4.325,2.994,5.739S13.628,108.146,13.628,108.146Z" fill="#ff914d"/>
        <path id="Path_8609" data-name="Path 8609" d="M13.378,113.057c-.084-.249-.168-2.081-2.994-3.561s-5.5-.916-5.16-.168,2.081,2,3.826,2.745A17.351,17.351,0,0,0,13.378,113.057Z" fill="#ff914d"/>
        <path id="Path_8610" data-name="Path 8610" d="M21.946,103.155s-1.23-1.58-.583-4.907,2.162-2.5,3.829-4.244,1.33-2,2.994-3.826,3.159-2.829,3.826-2.081-.324,3.078-1.33,4.409-2.59,2-3.328,3.661-.418,4.328-2.331,5.574A8.7,8.7,0,0,1,21.946,103.155Z" fill="#ff914d"/>
        <path id="Path_8611" data-name="Path 8611" d="M26.106,104.071s3-3.4,5.16-5.907,2.994-4.409,3.078-2.745.748,2.994-1,5.156S26.106,104.071,26.106,104.071Z" fill="#ff914d"/>
        <path id="Path_8612" data-name="Path 8612" d="M24.526,109.561s-.084-1.33,4.658-4.409,6.739-3.661,6.241-2.412-2.59,2.5-4.826,4.742S24.526,109.561,24.526,109.561Z" fill="#ff914d"/>
        <path id="Path_8613" data-name="Path 8613" d="M15.906,97.888a.165.165,0,0,1-.162-.133c0-.058-1.123-6.011-2.266-10.2s-1.907-6.8-1.913-6.82a.159.159,0,0,1,.11-.2.162.162,0,0,1,.2.11c0,.026.761,2.628,1.913,6.823S16.055,97.636,16.071,97.7a.162.162,0,0,1-.129.188Z" fill="#263238"/>
        <path id="Path_8614" data-name="Path 8614" d="M21.921,92.4h-.049a.162.162,0,0,1-.1-.2,105.682,105.682,0,0,0,2.68-10.358,20.417,20.417,0,0,0-.3-7.943c-.042-.2-.081-.392-.113-.566a.165.165,0,1,1,.324-.062c.036.175.071.363.113.563a20.83,20.83,0,0,1,.3,8.063,102.16,102.16,0,0,1-2.693,10.4A.162.162,0,0,1,21.921,92.4Z" fill="#263238"/>
        <path id="Path_8615" data-name="Path 8615" d="M14.281,103.025a.162.162,0,0,1-.142-.081A31.5,31.5,0,0,0,11.09,98.6c-.466-.554-.9-1.033-1.321-1.5a12.918,12.918,0,0,1-2.781-3.956.159.159,0,0,1,.091-.21.162.162,0,0,1,.21.091,12.656,12.656,0,0,0,2.722,3.858c.421.466.855.945,1.327,1.5a31.88,31.88,0,0,1,3.082,4.4.162.162,0,0,1-.061.22.172.172,0,0,1-.078.019Z" fill="#263238"/>
        <path id="Path_8616" data-name="Path 8616" d="M21.946,103.317h-.026a.159.159,0,0,1-.133-.185c.026-.165.689-4.056,2.266-6.15.615-.809,1.46-1.784,2.353-2.813a38.808,38.808,0,0,0,3.629-4.577.162.162,0,1,1,.275.165,38.793,38.793,0,0,1-3.661,4.622c-.89,1.026-1.729,2-2.337,2.8-1.538,2.023-2.208,5.962-2.217,6a.159.159,0,0,1-.149.139Z" fill="#263238"/>
        <path id="Path_8617" data-name="Path 8617" d="M13.181,113.128a.181.181,0,0,1-.087-.026c-.026-.019-2.813-1.832-4.781-2.813a.165.165,0,0,1-.071-.217A.162.162,0,0,1,8.458,110c1.981.994,4.784,2.813,4.813,2.832a.162.162,0,0,1,.045.223.155.155,0,0,1-.136.074Z" fill="#263238"/>
        <path id="Path_8618" data-name="Path 8618" d="M29.213,129.733c-.188-5.046-5.8-8.416-5.8-8.416h-8.6s-5.61,3.366-5.8,8.416,6.357,23.558,6.357,23.558h7.477S29.4,134.783,29.213,129.733Z" fill="#263238"/>
        <path id="Path_8619" data-name="Path 8619" d="M22.856,153.453H15.379a.162.162,0,0,1-.152-.107c-.269-.757-6.552-18.6-6.367-23.63.188-5.076,5.826-8.513,5.875-8.546a.155.155,0,0,1,.084-.023h8.6a.155.155,0,0,1,.084.023c.055.032,5.684,3.47,5.872,8.546h0c.188,5.024-6.1,22.862-6.364,23.63A.162.162,0,0,1,22.856,153.453ZM15.5,153.13h7.244c.537-1.525,6.474-18.629,6.312-23.39-.175-4.687-5.179-7.953-5.681-8.257H14.864c-.486.3-5.5,3.561-5.681,8.257-.175,4.762,5.775,21.866,6.312,23.39Z" fill="#263238"/>
        <path id="Path_8620" data-name="Path 8620" d="M24.523,116.355H13.553l1.266,4.965h8.439Z" fill="#263238"/>
        <path id="Path_8621" data-name="Path 8621" d="M23.257,121.482H14.819a.165.165,0,0,1-.159-.123L13.394,116.4a.175.175,0,0,1,.029-.139.159.159,0,0,1,.129-.065h10.97a.165.165,0,0,1,.155.2l-1.266,4.962A.159.159,0,0,1,23.257,121.482Zm-8.312-.324h8.186l1.181-4.629H13.76Z" fill="#263238"/>
      </g>
      <g id="freepik--Device--inject-21">
        <path id="Path_8622" data-name="Path 8622" d="M156.185,153.453H5.771a.162.162,0,0,1,0-.324H156.185a.162.162,0,1,1,0,.324Z" fill="#263238"/>
        <path id="Path_8623" data-name="Path 8623" d="M98.461,18.923V130.151a5.529,5.529,0,0,1-5.529,5.529H44.87a5.529,5.529,0,0,1-5.529-5.529V18.92a5.525,5.525,0,0,1,5.525-5.525H65.5l.019.062c.518,1.852,1.7,3.052,3.01,3.052h.744c1.314,0,2.5-1.2,3.01-3.056l.023-.062H92.932A5.529,5.529,0,0,1,98.461,18.923Z" fill="#fff"/>
        <path id="Path_8624" data-name="Path 8624" d="M92.932,135.841H44.87a5.7,5.7,0,0,1-5.7-5.691V18.92a5.694,5.694,0,0,1,5.687-5.687H65.606l.052.181c.5,1.784,1.618,2.936,2.855,2.936h.757c1.24,0,2.36-1.152,2.855-2.936l.058-.181H92.932a5.7,5.7,0,0,1,5.691,5.691V130.151a5.7,5.7,0,0,1-5.691,5.691ZM44.867,13.556a5.37,5.37,0,0,0-5.377,5.364V130.151a5.373,5.373,0,0,0,5.367,5.367H92.932a5.373,5.373,0,0,0,5.367-5.367V18.923a5.373,5.373,0,0,0-5.367-5.367H72.43c-.544,1.894-1.777,3.117-3.153,3.117h-.751c-1.376,0-2.609-1.224-3.153-3.117Z" fill="#263238"/>
        <rect id="Rectangle_2292" data-name="Rectangle 2292" width="20.279" height="6.319" rx="1.567" transform="translate(59.265 86.054)" fill="#ff914d"/>
        <path id="Path_8625" data-name="Path 8625" d="M77.975,92.534H60.819a1.732,1.732,0,0,1-1.729-1.729V87.621a1.729,1.729,0,0,1,1.729-1.729H77.975a1.732,1.732,0,0,1,1.732,1.729v3.185A1.732,1.732,0,0,1,77.975,92.534ZM60.819,86.216a1.4,1.4,0,0,0-1.4,1.4v3.185a1.408,1.408,0,0,0,1.4,1.4H77.975a1.408,1.408,0,0,0,1.408-1.4V87.621a1.4,1.4,0,0,0-1.408-1.4Z" fill="#ff914d"/>
        <path id="Path_8626" data-name="Path 8626" d="M39.342,101.077v29.074a5.529,5.529,0,0,0,5.529,5.529H92.932a5.529,5.529,0,0,0,5.529-5.529V101.077Z" fill="#dbdbdb"/>
        <path id="Path_8627" data-name="Path 8627" d="M92.932,135.841H44.87a5.7,5.7,0,0,1-5.7-5.691V101.077a.162.162,0,0,1,.162-.162H98.461a.162.162,0,0,1,.162.162v29.074a5.7,5.7,0,0,1-5.691,5.691Zm-53.442-34.6v28.912a5.373,5.373,0,0,0,5.367,5.367H92.932a5.373,5.373,0,0,0,5.367-5.367V101.238Z" fill="#263238"/>
        <rect id="Rectangle_2293" data-name="Rectangle 2293" width="16.207" height="5.445" rx="0.735" transform="translate(41.873 104.585)" fill="#fff"/>
        <rect id="Rectangle_2294" data-name="Rectangle 2294" width="16.207" height="5.445" rx="0.735" transform="translate(60.013 104.585)" fill="#fff"/>
        <rect id="Rectangle_2295" data-name="Rectangle 2295" width="16.207" height="5.445" rx="0.735" transform="translate(78.149 104.585)" fill="#fff"/>
        <rect id="Rectangle_2296" data-name="Rectangle 2296" width="16.207" height="5.445" rx="0.735" transform="translate(41.873 111.545)" fill="#fff"/>
        <rect id="Rectangle_2297" data-name="Rectangle 2297" width="16.207" height="5.445" rx="0.735" transform="translate(60.013 111.545)" fill="#fff"/>
        <rect id="Rectangle_2298" data-name="Rectangle 2298" width="16.207" height="5.445" rx="0.735" transform="translate(78.149 111.545)" fill="#fff"/>
        <rect id="Rectangle_2299" data-name="Rectangle 2299" width="16.207" height="5.445" rx="0.735" transform="translate(41.873 118.501)" fill="#fff"/>
        <rect id="Rectangle_2300" data-name="Rectangle 2300" width="16.207" height="5.445" rx="0.735" transform="translate(60.013 118.501)" fill="#fff"/>
        <rect id="Rectangle_2301" data-name="Rectangle 2301" width="16.207" height="5.445" rx="0.735" transform="translate(78.149 118.501)" fill="#fff"/>
        <rect id="Rectangle_2302" data-name="Rectangle 2302" width="16.207" height="5.445" rx="0.735" transform="translate(60.013 125.46)" fill="#fff"/>
        <path id="Path_8628" data-name="Path 8628" d="M92.4,130.9H82.289l-2.182-2.535,2.182-2.91H92.4Z" fill="#fff"/>
        <path id="Path_8629" data-name="Path 8629" d="M69.549,38.584l-.146-.11-.146.11s-7.445,4.237-10.811,5.846c0,0,1.618,9.063,2.774,13.148s5.7,6.283,8.183,7.743c2.486-1.46,7.014-3.651,8.183-7.743S80.363,44.43,80.363,44.43C77,42.821,69.549,38.584,69.549,38.584Z" fill="#ff914d"/>
        <path id="Path_8630" data-name="Path 8630" d="M68.639,56.1,63.7,51.865a1.133,1.133,0,1,1,1.473-1.722l3.237,2.777,5.548-6.309a1.133,1.133,0,1,1,1.7,1.5Z" fill="#fff"/>
        <rect id="Rectangle_2303" data-name="Rectangle 2303" width="6.72" height="6.72" transform="translate(43.394 70.381)" fill="#fff"/>
        <path id="Path_8631" data-name="Path 8631" d="M50.279,77.262H43.233V70.219h7.047Zm-6.723-.324h6.4v-6.4h-6.4Z" fill="#263238"/>
        <rect id="Rectangle_2304" data-name="Rectangle 2304" width="6.72" height="6.72" transform="translate(52.455 70.381)" fill="#fff"/>
        <path id="Path_8632" data-name="Path 8632" d="M59.336,77.262H52.293V70.219h7.044Zm-6.72-.324h6.4v-6.4h-6.4Z" fill="#263238"/>
        <rect id="Rectangle_2305" data-name="Rectangle 2305" width="6.72" height="6.72" transform="translate(61.515 70.381)" fill="#fff"/>
        <path id="Path_8633" data-name="Path 8633" d="M68.4,77.262H61.353V70.219H68.4Zm-6.72-.324h6.4v-6.4h-6.4Z" fill="#263238"/>
        <rect id="Rectangle_2306" data-name="Rectangle 2306" width="6.72" height="6.72" transform="translate(70.572 70.381)" fill="#fff"/>
        <path id="Path_8634" data-name="Path 8634" d="M77.457,77.262H70.41V70.219h7.047Zm-6.723-.324h6.4v-6.4h-6.4Z" fill="#263238"/>
        <rect id="Rectangle_2307" data-name="Rectangle 2307" width="6.72" height="6.72" transform="translate(79.632 70.381)" fill="#fff"/>
        <path id="Path_8635" data-name="Path 8635" d="M86.514,77.262H79.47V70.219h7.044Zm-6.72-.324h6.4v-6.4h-6.4Z" fill="#263238"/>
        <rect id="Rectangle_2308" data-name="Rectangle 2308" width="6.72" height="6.72" transform="translate(88.692 70.381)" fill="#fff"/>
        <path id="Path_8636" data-name="Path 8636" d="M95.574,77.262H88.53V70.219h7.044Zm-6.72-.324h6.4v-6.4h-6.4Z" fill="#263238"/>
        <path id="Path_8637" data-name="Path 8637" d="M98.461,24.1V18.917a5.529,5.529,0,0,0-5.529-5.522H72.307l-.019.062c-.515,1.852-1.7,3.052-3.017,3.052h-.744c-1.314,0-2.5-1.2-3.01-3.056l-.019-.062H44.867a5.525,5.525,0,0,0-5.525,5.525V24.1Z" fill="#dbdbdb"/>
        <path id="Path_8638" data-name="Path 8638" d="M98.458,24.258H39.342a.162.162,0,0,1-.162-.162V18.917a5.694,5.694,0,0,1,5.687-5.687H65.5a.159.159,0,0,1,.155.12l.019.062c.5,1.784,1.618,2.936,2.855,2.936h.744c1.24,0,2.36-1.152,2.855-2.936l.023-.068a.159.159,0,0,1,.152-.113H92.932A5.694,5.694,0,0,1,98.62,18.92V24.1A.162.162,0,0,1,98.458,24.258Zm-58.967-.324H98.3V18.923a5.37,5.37,0,0,0-5.364-5.367H72.43c-.544,1.894-1.777,3.117-3.153,3.117h-.751c-1.376,0-2.609-1.224-3.153-3.117H44.867a5.37,5.37,0,0,0-5.377,5.364Z" fill="#263238"/>
        <path id="Path_8639" data-name="Path 8639" d="M102.219,45.489V34.38h-1.007V20.156a8.766,8.766,0,0,0-8.766-8.769H45.356a8.769,8.769,0,0,0-8.779,8.769V133.174a8.766,8.766,0,0,0,8.769,8.766h47.1a8.762,8.762,0,0,0,8.766-8.766V54.957h1.007V48.392h-1.007V45.479Zm-3.758,81.422a8.769,8.769,0,0,1-8.769,8.769H48.111a8.769,8.769,0,0,1-8.769-8.769V22.16a8.769,8.769,0,0,1,8.769-8.766H65.5l.019.062c.518,1.852,1.7,3.052,3.01,3.052h.744c1.314,0,2.5-1.2,3.01-3.056l.023-.062H89.686a8.769,8.769,0,0,1,8.769,8.766Z" fill="#ff914d"/>
        <path id="Path_8640" data-name="Path 8640" d="M92.447,142.1H45.356a8.94,8.94,0,0,1-8.931-8.927V20.156a8.944,8.944,0,0,1,8.931-8.931H92.447a8.94,8.94,0,0,1,8.927,8.931V34.218h.845a.162.162,0,0,1,.162.162V45.489a.162.162,0,0,1-.162.162h-.845v2.59h.845a.162.162,0,0,1,.162.162v6.565a.162.162,0,0,1-.162.162h-.845v78.046a8.937,8.937,0,0,1-8.927,8.927ZM45.356,11.549a8.617,8.617,0,0,0-8.607,8.607V133.174a8.613,8.613,0,0,0,8.607,8.6H92.447a8.613,8.613,0,0,0,8.6-8.6V54.957a.162.162,0,0,1,.162-.162h.845V48.554h-.845a.165.165,0,0,1-.162-.162V45.479a.162.162,0,0,1,.162-.162h.845V34.541h-.845a.165.165,0,0,1-.162-.162V20.156a8.614,8.614,0,0,0-8.6-8.607ZM89.7,135.848H48.111a8.944,8.944,0,0,1-8.944-8.937V22.16A8.94,8.94,0,0,1,48.1,13.233H65.483a.155.155,0,0,1,.155.12l.019.061c.5,1.784,1.618,2.936,2.855,2.936h.757c1.24,0,2.36-1.152,2.855-2.936l.023-.068a.159.159,0,0,1,.152-.113H89.686a8.94,8.94,0,0,1,8.931,8.927V126.911a8.944,8.944,0,0,1-8.924,8.931ZM48.111,13.556a8.613,8.613,0,0,0-8.62,8.6V126.911a8.617,8.617,0,0,0,8.607,8.607H89.692a8.617,8.617,0,0,0,8.607-8.607V22.16a8.613,8.613,0,0,0-8.607-8.6H72.43c-.544,1.894-1.777,3.117-3.153,3.117h-.751c-1.376,0-2.609-1.224-3.153-3.117Z" fill="#263238"/>
        <path id="Path_8641" data-name="Path 8641" d="M91.745,12.595H46.058A8.458,8.458,0,0,0,37.6,21.04V132.277a8.455,8.455,0,0,0,8.455,8.455H91.745a8.455,8.455,0,0,0,8.455-8.455V21.04a8.458,8.458,0,0,0-8.455-8.445Zm6.717,114.617A8.458,8.458,0,0,1,90,135.667H47.8a8.458,8.458,0,0,1-8.458-8.455V21.846A8.452,8.452,0,0,1,47.8,13.394H65.5l.019.062c.518,1.852,1.7,3.052,3.01,3.052h.744c1.314,0,2.5-1.2,3.01-3.056l.023-.062H90a8.455,8.455,0,0,1,8.465,8.458Z" fill="#263238"/>
        <path id="Path_8642" data-name="Path 8642" d="M91.745,140.894H46.058a8.626,8.626,0,0,1-8.617-8.617V21.04a8.626,8.626,0,0,1,8.617-8.617H91.745a8.626,8.626,0,0,1,8.617,8.617V132.277a8.626,8.626,0,0,1-8.617,8.617ZM46.058,12.76a8.3,8.3,0,0,0-8.293,8.28V132.277a8.3,8.3,0,0,0,8.293,8.293H91.745a8.3,8.3,0,0,0,8.293-8.293V21.04a8.3,8.3,0,0,0-8.293-8.293ZM90,135.841H47.8a8.63,8.63,0,0,1-8.633-8.63V21.846a8.626,8.626,0,0,1,8.617-8.613h17.7a.155.155,0,0,1,.155.12l.019.061c.5,1.784,1.618,2.936,2.855,2.936h.757c1.24,0,2.36-1.152,2.855-2.936l.023-.068a.159.159,0,0,1,.152-.113H90a8.63,8.63,0,0,1,8.626,8.617V127.212a8.63,8.63,0,0,1-8.62,8.63ZM47.8,13.556a8.3,8.3,0,0,0-8.306,8.29V127.212a8.306,8.306,0,0,0,8.3,8.293H90a8.306,8.306,0,0,0,8.3-8.293V21.849A8.3,8.3,0,0,0,90,13.556H72.43c-.544,1.894-1.777,3.117-3.153,3.117h-.751c-1.376,0-2.609-1.224-3.153-3.117Z" fill="#263238"/>
        <path id="Path_8643" data-name="Path 8643" d="M69.542,13.812a.822.822,0,1,0-.24.583.822.822,0,0,0,.24-.583Z" fill="#fff"/>
        <path id="Path_8644" data-name="Path 8644" d="M44.6,16.968c0,.832-.935,1.133-.942,1.767v.039h.91v.282H43.356V18.82c0-.893.935-1.065.935-1.845,0-.282-.1-.434-.324-.434s-.324.162-.324.408v.243h-.288v-.223c0-.424.191-.7.618-.7S44.6,16.544,44.6,16.968Z" fill="#263238"/>
        <path id="Path_8645" data-name="Path 8645" d="M46.11,16.962v.071a.554.554,0,0,1-.324.57.55.55,0,0,1,.324.573v.214c0,.421-.2.7-.625.7s-.618-.275-.618-.7V18.2h.288v.21c0,.246.1.4.324.4s.324-.146.324-.427v-.214c0-.272-.117-.4-.35-.408h-.165v-.278h.181a.324.324,0,0,0,.324-.379v-.126c0-.285-.1-.431-.324-.431s-.324.155-.324.4v.139h-.288v-.126c0-.421.2-.693.618-.693A.606.606,0,0,1,46.11,16.962Z" fill="#263238"/>
        <path id="Path_8646" data-name="Path 8646" d="M46.706,17.172v.382h-.3v-.382Zm0,1.505v.382h-.3v-.382Z" fill="#263238"/>
        <path id="Path_8647" data-name="Path 8647" d="M47.33,17.421a.44.44,0,0,1,.408-.23c.356,0,.515.262.515.647v.541c0,.421-.2.7-.625.7s-.618-.275-.618-.7v-.188H47.3V18.4c0,.246.1.4.324.4s.324-.152.324-.4v-.528c0-.249-.1-.4-.324-.4a.3.3,0,0,0-.324.295v.065h-.285l.074-1.538h1.088v.278h-.812Z" fill="#263238"/>
        <path id="Path_8648" data-name="Path 8648" d="M49.787,16.958v.052H49.5v-.071c0-.249-.1-.395-.324-.395s-.324.152-.324.447v.618a.45.45,0,0,1,.447-.295c.356,0,.515.256.515.647v.421a.649.649,0,1,1-1.295,0v-1.4c0-.437.2-.709.647-.709S49.787,16.538,49.787,16.958Zm-.952,1.036v.414c0,.246.1.4.324.4s.324-.152.324-.4v-.414c0-.249-.107-.4-.324-.4S48.836,17.745,48.836,17.994Z" fill="#263238"/>
        <rect id="Rectangle_2309" data-name="Rectangle 2309" width="0.78" height="1.949" transform="translate(79.166 17.081)" fill="#263238"/>
        <rect id="Rectangle_2310" data-name="Rectangle 2310" width="0.78" height="2.34" transform="translate(80.205 16.69)" fill="#263238"/>
        <rect id="Rectangle_2311" data-name="Rectangle 2311" width="0.78" height="2.619" transform="translate(81.244 16.411)" fill="#263238"/>
        <rect id="Rectangle_2312" data-name="Rectangle 2312" width="0.78" height="3.101" transform="translate(82.286 15.929)" fill="#263238"/>
        <path id="Path_8649" data-name="Path 8649" d="M92.716,18.978H88.045V16.117h4.677ZM88.3,18.716h4.159v-2.34H88.3Z" fill="#263238"/>
        <rect id="Rectangle_2313" data-name="Rectangle 2313" width="2.47" height="1.774" transform="translate(88.686 16.661)" fill="#263238"/>
        <rect id="Rectangle_2314" data-name="Rectangle 2314" width="0.589" height="0.673" transform="translate(92.554 17.211)" fill="#263238"/>
        <path id="Path_8650" data-name="Path 8650" d="M86.323,18.353a.178.178,0,0,1-.091-.023,1.387,1.387,0,0,0-1.618-.019.175.175,0,0,1-.246,0,.178.178,0,0,1,.016-.246,1.7,1.7,0,0,1,2.017-.019.175.175,0,0,1,.062.24.172.172,0,0,1-.139.068Z" fill="#263238"/>
        <path id="Path_8651" data-name="Path 8651" d="M86.672,17.768a.146.146,0,0,1-.087-.026,1.979,1.979,0,0,0-2.314-.019.175.175,0,0,1-.246,0,.181.181,0,0,1,.016-.249,2.315,2.315,0,0,1,2.722,0,.175.175,0,0,1-.091.324Z" fill="#263238"/>
        <path id="Path_8652" data-name="Path 8652" d="M86.993,17.088a.172.172,0,0,1-.087-.026,2.492,2.492,0,0,0-2.952-.019.175.175,0,0,1-.249,0,.178.178,0,0,1,.016-.246,2.9,2.9,0,0,1,3.363-.019.178.178,0,0,1,.062.24A.181.181,0,0,1,86.993,17.088Z" fill="#263238"/>
        <path id="Path_8653" data-name="Path 8653" d="M85.8,18.648a.437.437,0,1,1-.127-.311A.44.44,0,0,1,85.8,18.648Z" fill="#263238"/>
        <path id="Path_8654" data-name="Path 8654" d="M87.808,128.312l1.576-1.576a.486.486,0,0,0-.686-.686l-1.576,1.576-1.576-1.576a.486.486,0,1,0-.689.686l1.57,1.576-1.58,1.576a.486.486,0,1,0,.689.686L87.112,129l1.576,1.576a.476.476,0,0,0,.343.142.469.469,0,0,0,.343-.142.482.482,0,0,0,0-.686Z" fill="#263238"/>
        <path id="Path_8655" data-name="Path 8655" d="M49.13,109.175v-3.188l-.113.045-.188.055-.188.052a.675.675,0,0,0-.117.039v-.5l.168-.068.217-.1a1.742,1.742,0,0,0,.214-.123.89.89,0,0,0,.162-.142H49.8v3.933Z" fill="#263238"/>
        <path id="Path_8656" data-name="Path 8656" d="M67.264,109.175V108.7l.971-1.5c.071-.11.139-.214.2-.324a1.466,1.466,0,0,0,.155-.324,1,1,0,0,0,.061-.359.605.605,0,0,0-.078-.324.272.272,0,0,0-.243-.117.324.324,0,0,0-.243.087.463.463,0,0,0-.12.227,1.528,1.528,0,0,0-.032.324v.168h-.647v-.175a1.619,1.619,0,0,1,.107-.615.864.864,0,0,1,.324-.418,1.1,1.1,0,0,1,.579-.152.971.971,0,0,1,.757.272,1.072,1.072,0,0,1,.252.757,1.35,1.35,0,0,1-.068.44,1.909,1.909,0,0,1-.181.375q-.11.181-.243.369l-.806,1.224h1.194v.537Z" fill="#263238"/>
        <path id="Path_8657" data-name="Path 8657" d="M86.206,109.234a1.152,1.152,0,0,1-.6-.136.8.8,0,0,1-.324-.395,1.576,1.576,0,0,1-.1-.592v-.136h.647v.113a1.654,1.654,0,0,0,.036.324.375.375,0,0,0,.107.2.34.34,0,0,0,.223.068.3.3,0,0,0,.223-.074.392.392,0,0,0,.1-.214,2.007,2.007,0,0,0,.026-.324,1.02,1.02,0,0,0-.094-.473.4.4,0,0,0-.366-.185H85.98v-.56H86.1a.447.447,0,0,0,.369-.142.774.774,0,0,0,.1-.447.864.864,0,0,0-.074-.388.3.3,0,0,0-.288-.139.282.282,0,0,0-.282.155,1.056,1.056,0,0,0-.074.4v.146h-.647v-.188a1.269,1.269,0,0,1,.117-.57.816.816,0,0,1,.35-.359,1.13,1.13,0,0,1,.554-.123,1.188,1.188,0,0,1,.563.12.809.809,0,0,1,.346.353,1.23,1.23,0,0,1,.12.563,1.029,1.029,0,0,1-.181.586.647.647,0,0,1-.375.291.647.647,0,0,1,.272.168.813.813,0,0,1,.181.324,1.4,1.4,0,0,1,.068.466,1.825,1.825,0,0,1-.1.621.838.838,0,0,1-.324.421,1.059,1.059,0,0,1-.589.123Z" fill="#263238"/>
        <path id="Path_8658" data-name="Path 8658" d="M49.457,116.148v-.971H48.282V114.6l1.023-2.4h.783v2.434H50.5v.534h-.4v.971Zm-.612-1.5h.612V112.94Z" fill="#263238"/>
        <path id="Path_8659" data-name="Path 8659" d="M68.3,116.206a1.078,1.078,0,0,1-.609-.146.732.732,0,0,1-.3-.411,2.033,2.033,0,0,1-.084-.628h.647a1.942,1.942,0,0,0,.026.353.424.424,0,0,0,.107.236.282.282,0,0,0,.233.081.265.265,0,0,0,.243-.11.709.709,0,0,0,.087-.3c0-.133.019-.285.019-.46a2.415,2.415,0,0,0-.026-.4.537.537,0,0,0-.1-.265.3.3,0,0,0-.243-.094.324.324,0,0,0-.233.094.592.592,0,0,0-.136.252h-.579l.039-2.191h1.767v.6h-1.2l-.039.948a.473.473,0,0,1,.21-.142,1,1,0,0,1,.324-.062.757.757,0,0,1,.5.129.845.845,0,0,1,.285.424,2.094,2.094,0,0,1,.094.647,3.5,3.5,0,0,1-.042.573,1.269,1.269,0,0,1-.152.453.774.774,0,0,1-.324.3A1.1,1.1,0,0,1,68.3,116.206Z" fill="#263238"/>
        <path id="Path_8660" data-name="Path 8660" d="M86.229,116.206a.888.888,0,0,1-.916-.634,2,2,0,0,1-.1-.647v-1.379a2.534,2.534,0,0,1,.087-.693.929.929,0,0,1,.324-.489.971.971,0,0,1,.625-.178,1.194,1.194,0,0,1,.563.113.706.706,0,0,1,.324.324,1.266,1.266,0,0,1,.1.537s0,.019,0,.032a.11.11,0,0,1,0,.032h-.647a.971.971,0,0,0-.062-.395.269.269,0,0,0-.272-.129.275.275,0,0,0-.2.078.482.482,0,0,0-.113.252,2.337,2.337,0,0,0-.039.476v.469a.492.492,0,0,1,.207-.178.916.916,0,0,1,.829.078.806.806,0,0,1,.265.4,2.046,2.046,0,0,1,.078.589,2.265,2.265,0,0,1-.1.686.89.89,0,0,1-.948.654Zm0-.521a.262.262,0,0,0,.214-.087.525.525,0,0,0,.1-.243,1.98,1.98,0,0,0,.029-.363,2.771,2.771,0,0,0-.016-.382.56.56,0,0,0-.091-.269.285.285,0,0,0-.243-.1.385.385,0,0,0-.152.029.476.476,0,0,0-.123.081.537.537,0,0,0-.081.1v.618a1.486,1.486,0,0,0,.032.3.482.482,0,0,0,.113.227.282.282,0,0,0,.217.081Z" fill="#263238"/>
        <path id="Path_8661" data-name="Path 8661" d="M48.729,123.12l.8-3.418H48.46v-.515h1.712v.411l-.793,3.522Z" fill="#263238"/>
        <path id="Path_8662" data-name="Path 8662" d="M68.27,123.172a1.078,1.078,0,0,1-.6-.149.816.816,0,0,1-.324-.421,1.835,1.835,0,0,1-.1-.625,1.538,1.538,0,0,1,.029-.324,1.046,1.046,0,0,1,.094-.262.787.787,0,0,1,.149-.2.738.738,0,0,1,.2-.149.991.991,0,0,1-.295-.324,1.136,1.136,0,0,1-.123-.537,1.372,1.372,0,0,1,.1-.554.748.748,0,0,1,.324-.359,1.072,1.072,0,0,1,.544-.126,1.055,1.055,0,0,1,.544.126.764.764,0,0,1,.324.359,1.272,1.272,0,0,1,.1.554,1.143,1.143,0,0,1-.12.541.926.926,0,0,1-.288.324.754.754,0,0,1,.2.149.777.777,0,0,1,.146.2,1.045,1.045,0,0,1,.094.262,1.528,1.528,0,0,1,.032.324,1.69,1.69,0,0,1-.1.625.832.832,0,0,1-.324.421A1.081,1.081,0,0,1,68.27,123.172Zm0-.508a.288.288,0,0,0,.24-.1.489.489,0,0,0,.107-.246,1.871,1.871,0,0,0,.023-.3,1.467,1.467,0,0,0-.023-.324.57.57,0,0,0-.11-.249.291.291,0,0,0-.236-.1.278.278,0,0,0-.23.1.56.56,0,0,0-.113.246,1.687,1.687,0,0,0-.029.324,1.62,1.62,0,0,0,.026.308.492.492,0,0,0,.11.246.3.3,0,0,0,.236.113Zm0-1.881a.246.246,0,0,0,.191-.084.45.45,0,0,0,.1-.22,1.59,1.59,0,0,0,.029-.324.8.8,0,0,0-.071-.366.259.259,0,0,0-.249-.139.262.262,0,0,0-.249.139.7.7,0,0,0-.081.359,1.4,1.4,0,0,0,.032.324.45.45,0,0,0,.1.223.259.259,0,0,0,.194.087Z" fill="#263238"/>
        <path id="Path_8663" data-name="Path 8663" d="M68.27,130.005a1.026,1.026,0,0,1-.57-.142.9.9,0,0,1-.34-.4,1.421,1.421,0,0,1-.113-.592v-1.745a1.515,1.515,0,0,1,.11-.6.842.842,0,0,1,.324-.4,1.227,1.227,0,0,1,1.159,0,.864.864,0,0,1,.324.4,1.573,1.573,0,0,1,.11.6v1.745a1.421,1.421,0,0,1-.117.592.9.9,0,0,1-.34.4A1.026,1.026,0,0,1,68.27,130.005Zm0-.576a.275.275,0,0,0,.223-.091.515.515,0,0,0,.1-.227,1.368,1.368,0,0,0,.026-.256v-1.725a1.921,1.921,0,0,0-.023-.269.511.511,0,0,0-.094-.227.275.275,0,0,0-.23-.091.269.269,0,0,0-.227.091.515.515,0,0,0-.1.227,1.911,1.911,0,0,0-.019.269v1.725a1.142,1.142,0,0,0,.026.256.518.518,0,0,0,.1.227A.265.265,0,0,0,68.27,129.429Z" fill="#263238"/>
        <path id="Path_8664" data-name="Path 8664" d="M86.161,123.172a1.188,1.188,0,0,1-.56-.117.709.709,0,0,1-.324-.34,1.3,1.3,0,0,1-.1-.544v-.052h.647a.932.932,0,0,0,.065.392.282.282,0,0,0,.278.133.265.265,0,0,0,.2-.078.524.524,0,0,0,.107-.259,2.588,2.588,0,0,0,.036-.469v-.473a.453.453,0,0,1-.2.175.825.825,0,0,1-.324.068.761.761,0,0,1-.5-.146.848.848,0,0,1-.265-.418,1.971,1.971,0,0,1-.081-.592,2.059,2.059,0,0,1,.1-.68.939.939,0,0,1,.324-.463,1,1,0,0,1,.6-.168.971.971,0,0,1,.592.165.919.919,0,0,1,.324.447,1.942,1.942,0,0,1,.1.647v1.392a2.451,2.451,0,0,1-.091.7.939.939,0,0,1-.324.492A.948.948,0,0,1,86.161,123.172Zm0-2.072a.324.324,0,0,0,.217-.068.6.6,0,0,0,.129-.146v-.612a1.483,1.483,0,0,0-.029-.308.479.479,0,0,0-.1-.223.275.275,0,0,0-.217-.087.259.259,0,0,0-.21.087.5.5,0,0,0-.107.243,2.016,2.016,0,0,0-.029.366,3.358,3.358,0,0,0,.019.379.518.518,0,0,0,.087.269.278.278,0,0,0,.246.1Z" fill="#263238"/>
        <path id="Path_8665" data-name="Path 8665" d="M63.836,91.1V87.167h1.651v.5h-.932V88.8h.735v.5h-.735V90.6H65.5v.5Z" fill="#fff"/>
        <path id="Path_8666" data-name="Path 8666" d="M65.914,91.1V87.167h.5l.955,2.243V87.167h.605V91.1H67.5l-.971-2.35V91.1Z" fill="#fff"/>
        <path id="Path_8667" data-name="Path 8667" d="M68.947,91.1V87.7h-.625v-.528h1.962V87.7h-.618V91.1Z" fill="#fff"/>
        <path id="Path_8668" data-name="Path 8668" d="M70.649,91.1V87.167H72.3v.5h-.932V88.8H72.1v.5h-.732V90.6h.942v.5Z" fill="#fff"/>
        <path id="Path_8669" data-name="Path 8669" d="M72.728,91.1V87.167h.942a2.049,2.049,0,0,1,.673.094.777.777,0,0,1,.418.324,1.178,1.178,0,0,1,.142.621,1.9,1.9,0,0,1-.045.427.812.812,0,0,1-.146.324.673.673,0,0,1-.291.207l.55,1.942h-.719l-.476-1.8h-.324v1.8Zm.719-2.266h.223a.8.8,0,0,0,.324-.062.369.369,0,0,0,.175-.194.939.939,0,0,0,.055-.343.728.728,0,0,0-.11-.443.479.479,0,0,0-.414-.149h-.262Z" fill="#fff"/>
        <path id="Path_8670" data-name="Path 8670" d="M54.135,34.4l-.686-3.408H54l.45,2.412.421-2.412h.563L54.746,34.4Z" fill="#263238"/>
        <path id="Path_8671" data-name="Path 8671" d="M55.782,34.4V30.994h1.431v.437h-.806V32.4h.647v.434h-.647v1.152h.816v.427Z" fill="#263238"/>
        <path id="Path_8672" data-name="Path 8672" d="M57.582,34.4V30.994H58.4a1.787,1.787,0,0,1,.583.084.67.67,0,0,1,.363.278,1.023,1.023,0,0,1,.123.537,1.618,1.618,0,0,1-.039.372.712.712,0,0,1-.126.278.592.592,0,0,1-.252.181l.476,1.677h-.615l-.414-1.56h-.285V34.4Zm.625-1.942H58.4a.647.647,0,0,0,.288-.052.3.3,0,0,0,.152-.168.79.79,0,0,0,.045-.3.647.647,0,0,0-.094-.385.421.421,0,0,0-.359-.126h-.227Z" fill="#263238"/>
        <path id="Path_8673" data-name="Path 8673" d="M59.951,34.4V30.994h.615V34.4Z" fill="#263238"/>
        <path id="Path_8674" data-name="Path 8674" d="M61.094,34.4V30.994h1.4v.431h-.78v.994h.647v.434h-.647V34.4Z" fill="#263238"/>
        <path id="Path_8675" data-name="Path 8675" d="M62.835,34.4V30.994h.609V34.4Z" fill="#263238"/>
        <path id="Path_8676" data-name="Path 8676" d="M64.894,34.451A1.029,1.029,0,0,1,64.3,34.3a.754.754,0,0,1-.295-.4,1.8,1.8,0,0,1-.084-.586V32.1a1.887,1.887,0,0,1,.084-.605A.706.706,0,0,1,64.3,31.1a1.058,1.058,0,0,1,.589-.139,1.081,1.081,0,0,1,.554.12.647.647,0,0,1,.282.343,1.408,1.408,0,0,1,.084.515v.288h-.6v-.295a2.15,2.15,0,0,0,0-.262.324.324,0,0,0-.081-.188.3.3,0,0,0-.223-.068.324.324,0,0,0-.233.074.369.369,0,0,0-.1.2,1.786,1.786,0,0,0-.019.278v1.483a1.327,1.327,0,0,0,.029.3.292.292,0,0,0,.32.243.282.282,0,0,0,.22-.074.324.324,0,0,0,.081-.194,1.775,1.775,0,0,0,.019-.275v-.324h.6V33.4a1.722,1.722,0,0,1-.078.537.722.722,0,0,1-.282.366,1.016,1.016,0,0,1-.576.149Z" fill="#263238"/>
        <path id="Path_8677" data-name="Path 8677" d="M66.076,34.4l.68-3.408h.667L68.1,34.4h-.576l-.133-.787h-.6l-.136.787Zm.787-1.181h.466L67.1,31.79Z" fill="#263238"/>
        <path id="Path_8678" data-name="Path 8678" d="M68.623,34.4V31.453h-.544v-.46h1.7v.46h-.534V34.4Z" fill="#263238"/>
        <path id="Path_8679" data-name="Path 8679" d="M70.109,34.4V30.994h.615V34.4Z" fill="#263238"/>
        <path id="Path_8680" data-name="Path 8680" d="M72.184,34.451a1.062,1.062,0,0,1-.576-.136.754.754,0,0,1-.308-.388,1.729,1.729,0,0,1-.087-.586V32.046a1.7,1.7,0,0,1,.094-.592.735.735,0,0,1,.295-.379,1.094,1.094,0,0,1,.576-.129,1.11,1.11,0,0,1,.583.129.751.751,0,0,1,.308.375,1.7,1.7,0,0,1,.087.6V33.34a1.722,1.722,0,0,1-.094.592.777.777,0,0,1-.308.385,1.078,1.078,0,0,1-.57.133Zm0-.46a.288.288,0,0,0,.327-.252,1.266,1.266,0,0,0,.026-.256v-1.57a1.253,1.253,0,0,0-.026-.259.324.324,0,0,0-.1-.178.346.346,0,0,0-.23-.078.34.34,0,0,0-.223.065.324.324,0,0,0-.1.178,1.064,1.064,0,0,0-.026.259v1.57a1.275,1.275,0,0,0,.023.256.31.31,0,0,0,.327.262Z" fill="#263238"/>
        <path id="Path_8681" data-name="Path 8681" d="M73.621,34.4V30.994h.434l.829,1.942V30.994h.511V34.4h-.411l-.832-2.033v2.036Z" fill="#263238"/>
        <path id="Path_8682" data-name="Path 8682" d="M77.852,34.451a1.026,1.026,0,0,1-.586-.149.754.754,0,0,1-.295-.4,1.8,1.8,0,0,1-.087-.586V32.1a1.88,1.88,0,0,1,.087-.605.706.706,0,0,1,.295-.395,1.052,1.052,0,0,1,.586-.139,1.065,1.065,0,0,1,.554.12.647.647,0,0,1,.285.343,1.408,1.408,0,0,1,.084.515v.288h-.6v-.295a2.15,2.15,0,0,0-.016-.262.324.324,0,0,0-.081-.188.3.3,0,0,0-.223-.068.324.324,0,0,0-.233.074.346.346,0,0,0-.1.2,1.786,1.786,0,0,0-.019.278v1.483a1.328,1.328,0,0,0,.029.3.292.292,0,0,0,.32.243.282.282,0,0,0,.22-.074.356.356,0,0,0,.081-.194,1.774,1.774,0,0,0,.019-.275v-.324h.6V33.4a1.619,1.619,0,0,1-.081.537.7.7,0,0,1-.278.366,1.02,1.02,0,0,1-.563.149Z" fill="#263238"/>
        <path id="Path_8683" data-name="Path 8683" d="M80.134,34.451a1.068,1.068,0,0,1-.576-.136.754.754,0,0,1-.308-.388,1.732,1.732,0,0,1-.091-.6V32.046a1.7,1.7,0,0,1,.091-.592.735.735,0,0,1,.307-.375,1.363,1.363,0,0,1,1.159,0,.735.735,0,0,1,.308.375,1.618,1.618,0,0,1,.094.592V33.34a1.648,1.648,0,0,1-.094.592.758.758,0,0,1-.308.385A1.078,1.078,0,0,1,80.134,34.451Zm0-.46a.324.324,0,0,0,.23-.068.366.366,0,0,0,.1-.185,1.276,1.276,0,0,0,.023-.256v-1.57a1.265,1.265,0,0,0-.023-.259.359.359,0,0,0-.1-.178.427.427,0,0,0-.453,0,.324.324,0,0,0-.1.178,1.253,1.253,0,0,0-.026.259v1.57a1.567,1.567,0,0,0,.023.256.288.288,0,0,0,.327.249Z" fill="#263238"/>
        <path id="Path_8684" data-name="Path 8684" d="M81.571,34.4V30.994h.8a1.534,1.534,0,0,1,.647.113.686.686,0,0,1,.324.35,1.586,1.586,0,0,1,.1.6V33.3a1.689,1.689,0,0,1-.1.615.68.68,0,0,1-.324.366,1.356,1.356,0,0,1-.628.12Zm.621-.434h.191a.482.482,0,0,0,.308-.074.324.324,0,0,0,.113-.22,2.767,2.767,0,0,0,.019-.356V32.023a1.531,1.531,0,0,0-.029-.324.278.278,0,0,0-.12-.185.6.6,0,0,0-.3-.058h-.181Z" fill="#263238"/>
        <path id="Path_8685" data-name="Path 8685" d="M83.921,34.4V30.994h1.431v.437h-.809V32.4h.647v.434h-.647v1.152h.819v.427Z" fill="#263238"/>
      </g>
      <g id="freepik--Arrow--inject-21">
        <path id="Path_8686" data-name="Path 8686" d="M130.057,22.312a.162.162,0,0,1-.162-.162V20.532a.162.162,0,0,1,.324,0V22.15A.162.162,0,0,1,130.057,22.312Zm0-3.237a.162.162,0,0,1-.162-.162V17.295a.162.162,0,0,1,.324,0v1.618A.162.162,0,0,1,130.057,19.075Zm0-3.237a.162.162,0,0,1-.162-.162V14.058a.162.162,0,0,1,.324,0v1.618A.162.162,0,0,1,130.057,15.838Zm0-3.237a.162.162,0,0,1-.162-.162V10.821a.162.162,0,0,1,.324,0V12.44A.162.162,0,0,1,130.057,12.6Zm0-3.237A.162.162,0,0,1,129.9,9.2V7.584a.162.162,0,0,1,.324,0V9.2A.162.162,0,0,1,130.057,9.364Z" fill="#263238"/>
        <path id="Path_8687" data-name="Path 8687" d="M122.033,72.329h-1.466a.162.162,0,0,1-.162-.162.165.165,0,0,1,.162-.162h1.618a.162.162,0,1,1,0,.324Zm-3.085,0h-1.618a.162.162,0,0,1-.162-.162.165.165,0,0,1,.162-.162h1.618a.162.162,0,1,1-.01.324Zm-3.237,0h-1.618a.162.162,0,0,1-.162-.162.165.165,0,0,1,.162-.162h1.618a.162.162,0,1,1-.01.324Zm-3.237,0h-1.618a.162.162,0,0,1-.162-.162.165.165,0,0,1,.162-.162h1.618a.162.162,0,1,1-.01.324Zm-3.237,0h-1.618a.162.162,0,0,1-.162-.162.165.165,0,0,1,.162-.162h1.618a.162.162,0,1,1-.01.324Zm-3.237,0h-.861a.162.162,0,0,1-.162-.162.165.165,0,0,1,.162-.162H106a.162.162,0,1,1-.01.324Zm17.8-.191a.163.163,0,0,1-.036-.324,7.713,7.713,0,0,0,1.5-.5.159.159,0,0,1,.214.081.162.162,0,0,1-.081.214,8.134,8.134,0,0,1-1.563.521Zm2.933-1.317a.162.162,0,0,1-.1-.291,8.152,8.152,0,0,0,1.188-1.049.162.162,0,0,1,.236.217,8.26,8.26,0,0,1-1.233,1.094.168.168,0,0,1-.117.029Zm2.182-2.36a.155.155,0,0,1-.084-.023.165.165,0,0,1-.055-.223,7.912,7.912,0,0,0,.683-1.427.159.159,0,0,1,.207-.1.162.162,0,0,1,.1.207,8.229,8.229,0,0,1-.709,1.486.162.162,0,0,1-.162.078ZM130,65.435h-.026a.165.165,0,0,1-.136-.185,8.058,8.058,0,0,0,.078-1.117v-.473a.162.162,0,1,1,.324,0v.473a8.179,8.179,0,0,1-.081,1.162.162.162,0,0,1-.181.139Zm.078-3.237a.165.165,0,0,1-.162-.162V60.417a.162.162,0,1,1,.324,0v1.618a.162.162,0,0,1-.184.168Zm0-3.237a.165.165,0,0,1-.162-.162V57.18a.162.162,0,1,1,.324,0V58.8a.162.162,0,0,1-.184.168Zm0-3.237a.165.165,0,0,1-.162-.162V53.944a.162.162,0,1,1,.324,0v1.618a.162.162,0,0,1-.184.168Zm0-3.237a.165.165,0,0,1-.162-.162V50.707a.162.162,0,1,1,.324,0v1.618a.162.162,0,0,1-.184.168Z" fill="#263238"/>
        <path id="Path_8688" data-name="Path 8688" d="M105.722,70.151l-3.5,2.017,3.5,2.02Z" fill="#263238"/>
      </g>
      <g id="freepik--Envelope--inject-21">
        <rect id="Rectangle_2315" data-name="Rectangle 2315" width="29.327" height="20.995" transform="matrix(0.979, 0.202, -0.202, 0.979, 119.247, 24.745)" fill="#263238"/>
        <rect id="Rectangle_2316" data-name="Rectangle 2316" width="29.327" height="20.995" transform="matrix(0.979, 0.202, -0.202, 0.979, 117.76, 22.831)" fill="#fff"/>
        <path id="Path_8689" data-name="Path 8689" d="M142.38,49.493l-29.042-5.975.032-.159,4.266-20.716,29.042,5.972-.032.159Zm-28.66-6.228,28.407,5.846,4.182-20.244-28.424-5.846Z" fill="#263238"/>
        <path id="Path_8690" data-name="Path 8690" d="M130.008,36.228a.168.168,0,0,1-.12-.052L117.643,22.937a.162.162,0,1,1,.236-.217l12.168,13.152,16.372-7.28a.162.162,0,0,1,.214.081.159.159,0,0,1-.081.214l-16.479,7.328A.146.146,0,0,1,130.008,36.228Z" fill="#263238"/>
      </g>
      <g id="freepik--Character--inject-21">
        <path id="Path_8691" data-name="Path 8691" d="M125.538,138.593a71.057,71.057,0,0,0-12.618-12.676c-7-5.179-13.012-7.315-14.663-6.82a8.213,8.213,0,0,0-3.1,2.088L75.586,140.839s-6.458,5.1-7.17,5.545a34.965,34.965,0,0,1-6.089,3.166c-2.043.641-5.386.541-5.4,1.162s.434,1.1,1.431,1.521a18.55,18.55,0,0,0,5.8,1.262,19.593,19.593,0,0,1,4.5.6c.7.175,2.693,1.091,3.182.324s1.165-5.179,1.334-5.642,6.374-4.946,10.717-7.073,9.662-5.626,11.193-7.293,3.784-4.244,3.784-4.244,6.963,6.587,9.361,9.695a34.145,34.145,0,0,0,13.236,10.2c6.985,3.243,9.555.6,10.035-2.036S125.538,138.593,125.538,138.593Z" fill="#fff"/>
        <path id="Path_8692" data-name="Path 8692" d="M71.106,154.884a6.752,6.752,0,0,1-1.942-.456c-.223-.074-.414-.139-.547-.175a19.744,19.744,0,0,0-4.461-.6,18.506,18.506,0,0,1-5.859-1.275c-1.065-.447-1.554-.971-1.531-1.677,0-.463.806-.579,2.457-.774a17.8,17.8,0,0,0,3.059-.537,31.465,31.465,0,0,0,6.05-3.146c.7-.437,7.092-5.487,7.157-5.535l19.558-19.651a8.376,8.376,0,0,1,3.166-2.13c1.674-.511,7.727,1.618,14.8,6.843a72.187,72.187,0,0,1,12.647,12.7c.343.363,6.454,6.908,5.982,9.572a4.237,4.237,0,0,1-2.182,3.127c-1.868.971-4.58.647-8.07-.971a34.758,34.758,0,0,1-13.3-10.248,128.987,128.987,0,0,0-9.222-9.562c-.473.541-2.356,2.683-3.677,4.121-1.589,1.735-6.946,5.228-11.239,7.332-4.373,2.14-10.384,6.509-10.637,6.989-.049.133-.165.732-.3,1.424A21.17,21.17,0,0,1,71.97,154.5a.971.971,0,0,1-.864.385Zm27.747-35.7a1.92,1.92,0,0,0-.55.068,8.161,8.161,0,0,0-3.023,2.039L75.7,140.952c-.278.22-6.474,5.124-7.2,5.568a31.515,31.515,0,0,1-6.124,3.185,18.149,18.149,0,0,1-3.117.547c-.812.1-2.166.259-2.172.463-.016.547.408.971,1.334,1.369a18.207,18.207,0,0,0,5.742,1.249,19.885,19.885,0,0,1,4.532.605c.149.039.346.1.573.181.79.269,2.11.719,2.434.217a21.651,21.651,0,0,0,1.007-4.13,12.287,12.287,0,0,1,.324-1.479c.22-.6,6.6-5.108,10.8-7.163s9.6-5.58,11.145-7.257,3.758-4.208,3.781-4.244a.159.159,0,0,1,.113-.055.149.149,0,0,1,.12.042c.071.068,7,6.636,9.387,9.711a34.4,34.4,0,0,0,13.181,10.151c3.341,1.554,6.034,1.89,7.769.971a3.985,3.985,0,0,0,2.013-2.9c.447-2.525-5.827-9.232-5.9-9.3h0a71.3,71.3,0,0,0-12.585-12.624C106.5,121.346,100.992,119.187,98.853,119.187Z" fill="#263238"/>
        <path id="Path_8693" data-name="Path 8693" d="M112.921,125.917c-7.008-5.179-13.012-7.315-14.663-6.82a8.213,8.213,0,0,0-3.1,2.088L75.816,140.606a6.388,6.388,0,0,0,3.561,3.684,49.852,49.852,0,0,1,4.516-2.59c4.344-2.13,9.662-5.629,11.193-7.3s3.784-4.244,3.784-4.244,6.963,6.587,9.361,9.695,8.9,11.805,16.347,13.763c13.708,3.609,13.242-3.379,13.708-6.014s-12.741-9.021-12.741-9.021A71.331,71.331,0,0,0,112.921,125.917Z" fill="#263238"/>
        <path id="Path_8694" data-name="Path 8694" d="M131.148,154.8a26.543,26.543,0,0,1-6.62-1.013c-7.264-1.91-13.521-10.035-16.185-13.508l-.24-.324a128.986,128.986,0,0,0-9.222-9.562c-.473.541-2.356,2.683-3.677,4.121-1.589,1.735-6.946,5.228-11.239,7.332a49.725,49.725,0,0,0-4.5,2.57.159.159,0,0,1-.152,0,6.509,6.509,0,0,1-3.638-3.774.162.162,0,0,1,.039-.168l19.344-19.422a8.376,8.376,0,0,1,3.166-2.13c1.674-.511,7.727,1.618,14.8,6.843h0a71.926,71.926,0,0,1,12.624,12.676c1.518.735,13.271,6.526,12.8,9.18-.042.23-.074.492-.11.774-.2,1.541-.5,3.862-2.531,5.237A8.192,8.192,0,0,1,131.148,154.8ZM98.863,130.008a.172.172,0,0,1,.11.042c.071.068,7,6.636,9.387,9.711l.243.324c2.651,3.444,8.859,11.511,16.016,13.394,5.179,1.366,8.9,1.337,11.006-.087,1.913-1.295,2.188-3.441,2.389-5.008.039-.291.071-.557.113-.79.366-2.062-9.008-7.089-12.653-8.85a.211.211,0,0,1-.058-.049,71.3,71.3,0,0,0-12.585-12.624h0c-6.992-5.179-12.925-7.273-14.521-6.8a8.065,8.065,0,0,0-3.023,2.039L76,140.648a6.244,6.244,0,0,0,3.353,3.457,49.634,49.634,0,0,1,4.457-2.541c4.189-2.052,9.6-5.58,11.145-7.257s3.758-4.208,3.781-4.244a.159.159,0,0,1,.113-.055Z" fill="#263238"/>
        <path id="Path_8695" data-name="Path 8695" d="M56.925,150.712c-.019.622.434,1.1,1.431,1.521a18.55,18.55,0,0,0,5.8,1.262,19.593,19.593,0,0,1,4.5.6c.7.175,2.693,1.091,3.182.324.421-.647.971-4.011,1.237-5.231a13.846,13.846,0,0,1-4.558-.861,4.535,4.535,0,0,0-.1-1.942,35.087,35.087,0,0,1-6.089,3.166C60.285,150.194,56.941,150.09,56.925,150.712Z" fill="#fff"/>
        <path id="Path_8696" data-name="Path 8696" d="M71.106,154.884a6.752,6.752,0,0,1-1.942-.456c-.223-.074-.414-.139-.547-.175a19.744,19.744,0,0,0-4.461-.6,18.506,18.506,0,0,1-5.859-1.275c-1.065-.447-1.554-.971-1.531-1.677h0c0-.463.806-.579,2.457-.774a17.8,17.8,0,0,0,3.059-.537,31.465,31.465,0,0,0,6.05-3.146.168.168,0,0,1,.152,0,.162.162,0,0,1,.094.12,5.768,5.768,0,0,1,.123,1.874,13.439,13.439,0,0,0,4.367.8.162.162,0,0,1,.129.055.155.155,0,0,1,.032.139c-.055.265-.123.628-.2,1.042a21.171,21.171,0,0,1-1.052,4.244.971.971,0,0,1-.867.359Zm-14.019-4.169c-.016.547.408.971,1.334,1.369a18.231,18.231,0,0,0,5.742,1.249,19.885,19.885,0,0,1,4.532.605c.149.039.346.1.573.181.79.269,2.11.719,2.434.217a21.669,21.669,0,0,0,1.007-4.127c.062-.324.117-.615.165-.851a14.2,14.2,0,0,1-4.415-.874.162.162,0,0,1-.1-.2,4.231,4.231,0,0,0-.058-1.638,30.681,30.681,0,0,1-5.924,3.059,18.148,18.148,0,0,1-3.117.547c-.812.1-2.166.259-2.172.463Z" fill="#263238"/>
        <path id="Path_8697" data-name="Path 8697" d="M149.614,109.826a47.137,47.137,0,0,1-8.937-10.591c-2.913-4.965-2.117-6.552-4.3-10.459s-5.36-5.826-9.666-4.965a9.366,9.366,0,0,0-5.826,3.561c-.126.172-.252.324-.388.5-.628.735-2.615,3.46-4.1,9.844-1.79,7.678-1.722,11.449.991,13.236s4.635.994,5.428,1.855,1.058,1.92.4,1.92a1.327,1.327,0,0,1-.994-.4s1.521,2.318,2.978,1.654,3.111-3.043,2.052-6.221-3.9-6.419-4.37-7.014-1.389-7.481-1.389-7.481.068-2.318,2.648-1.521,6.089,2.25,7.215,4.567,5.3,7.545,8.934,9.131,5.1,3.046,6.422,6.953a20.307,20.307,0,0,1,1.324,5.16,6.155,6.155,0,0,0,3.237-4.1C151.793,112.607,151.466,111.48,149.614,109.826Zm-31.971.129c-1.256-1.389-.463-3.9-.463-3.9-.4,3.561,3.706,5.561,3.706,5.561A5.9,5.9,0,0,1,117.643,109.956Z" fill="#263238"/>
        <path id="Path_8698" data-name="Path 8698" d="M148.025,119.715a.155.155,0,0,1-.162-.159,20.886,20.886,0,0,0-1.317-5.111c-1.295-3.816-2.638-5.244-6.331-6.856s-7.911-6.921-9.015-9.212-4.467-3.667-7.121-4.483a2.025,2.025,0,0,0-1.806.094,1.8,1.8,0,0,0-.631,1.279c.356,2.619,1.039,6.969,1.356,7.377l.233.291a23.886,23.886,0,0,1,4.163,6.772c1.088,3.266-.6,5.72-2.14,6.422s-3.117-1.618-3.182-1.716a.162.162,0,0,1,.259-.191,1.175,1.175,0,0,0,.871.34c.126,0,.168-.052.188-.1.113-.259-.142-.942-.706-1.55-.295-.324-.79-.385-1.476-.473a8.416,8.416,0,0,1-3.92-1.356c-2.677-1.764-2.955-5.273-1.062-13.411,1.5-6.454,3.561-9.219,4.137-9.911.12-.139.24-.295.379-.486a9.57,9.57,0,0,1,5.937-3.625c4.185-.835,7.5.861,9.837,5.046a18.871,18.871,0,0,1,1.784,4.49,22.636,22.636,0,0,0,2.509,5.966,47.8,47.8,0,0,0,8.915,10.549c1.894,1.693,2.243,2.881,1.706,5.778a6.187,6.187,0,0,1-3.334,4.208.169.169,0,0,1-.068.026Zm.162-.162ZM123.149,93.412a3.5,3.5,0,0,1,1.029.175c2.709.835,6.179,2.318,7.312,4.651,1.084,2.237,5.179,7.445,8.853,9.063,3.8,1.654,5.2,3.169,6.509,7.047a25.9,25.9,0,0,1,1.314,4.953,5.956,5.956,0,0,0,2.942-3.884c.518-2.79.2-3.865-1.618-5.477a47.077,47.077,0,0,1-8.966-10.63,22.876,22.876,0,0,1-2.551-6.04,18.449,18.449,0,0,0-1.754-4.422c-2.266-4.046-5.457-5.691-9.491-4.881a9.208,9.208,0,0,0-5.736,3.493c-.142.2-.269.363-.395.508-.579.68-2.59,3.389-4.069,9.776-1.855,7.976-1.618,11.394.926,13.064a8.128,8.128,0,0,0,3.784,1.295,2.622,2.622,0,0,1,1.674.573c.625.68.945,1.476.761,1.9a.489.489,0,0,1-.482.291,1.693,1.693,0,0,1-.379-.042c.537.6,1.444,1.376,2.295.991,1.434-.647,2.991-2.952,1.968-6.024a23.564,23.564,0,0,0-4.1-6.671c-.107-.129-.188-.23-.24-.3-.476-.612-1.327-6.846-1.421-7.555a2.088,2.088,0,0,1,.761-1.56,1.793,1.793,0,0,1,1.078-.295Zm-2.266,18.363h-.023a5.945,5.945,0,0,1-3.341-1.706h0c-1.295-1.44-.531-3.956-.5-4.062a.162.162,0,0,1,.188-.11.168.168,0,0,1,.129.178c-.382,3.415,3.561,5.377,3.616,5.4a.16.16,0,0,1-.068.3Zm-3.124-1.926a5.153,5.153,0,0,0,2.11,1.334,6.561,6.561,0,0,1-2.771-3.671,3.285,3.285,0,0,0,.647,2.337Z" fill="#263238"/>
        <path id="Path_8699" data-name="Path 8699" d="M125.829,139.188s-8.788-1.557-10.967-.777-7.856,10.112-8.869,11.2a4.278,4.278,0,0,1-3.033,1.557c-.932,0-4.279-.622-6.225-.233s-4.357,1.635-4.121,2.8,1.321,1.712,4.9,2.266a15.8,15.8,0,0,0,8.4-1.324c1.01-.547,2.178-1.321,2.489-1.476a22.611,22.611,0,0,0,4.668-1.79,26.972,26.972,0,0,0,3.266-2.645s6.613,3.033,9.1,4.357A21.717,21.717,0,0,0,134,155.3c2.178,0,6.924-.625,8.092-1.169s3.344-2.645,3.344-5.053.259-5.778-.534-5.924-1.489.168-2.266.091-5.059-2.489-6.15-2.959S125.829,139.188,125.829,139.188Z" fill="#263238"/>
        <path id="Path_8700" data-name="Path 8700" d="M99.3,156.3a11.705,11.705,0,0,1-1.809-.133c-3.6-.547-4.778-1.1-5.033-2.382s2.344-2.609,4.247-2.991a18.637,18.637,0,0,1,4.93.11c.592.068,1.062.12,1.327.12a4.143,4.143,0,0,0,2.913-1.505,30.308,30.308,0,0,0,1.826-2.59c2.191-3.237,5.5-8.092,7.105-8.665,2.178-.78,10.572.686,11.041.767.5.032,9.607.647,10.7,1.1.392.172,1.178.579,2.091,1.055a28.2,28.2,0,0,0,4.007,1.89,4.208,4.208,0,0,0,1-.058,3.885,3.885,0,0,1,1.275-.029c.722.129.741,1.822.686,4.59,0,.511-.019,1.02-.019,1.492,0,2.512-2.266,4.661-3.441,5.2A32.93,32.93,0,0,1,134,155.454a21.875,21.875,0,0,1-8.633-2.2c-2.292-1.217-8.16-3.923-9-4.308a26.407,26.407,0,0,1-3.211,2.59,17.26,17.26,0,0,1-4.049,1.6c-.3.091-.566.165-.631.2-.12.058-.382.22-.715.427-.492.3-1.162.719-1.771,1.046A15.756,15.756,0,0,1,99.3,156.3Zm-.991-5.312a8.034,8.034,0,0,0-1.541.123c-2.01.4-4.192,1.618-3.994,2.609.22,1.11,1.334,1.618,4.765,2.13a16.05,16.05,0,0,0,8.3-1.295c.6-.324,1.269-.735,1.754-1.036.353-.22.609-.379.741-.443a6.152,6.152,0,0,1,.686-.22,16.423,16.423,0,0,0,3.965-1.56,27.206,27.206,0,0,0,3.237-2.625.165.165,0,0,1,.178-.032c.068.032,6.645,3.052,9.112,4.363a21.684,21.684,0,0,0,8.481,2.159c2.195,0,6.878-.618,8.021-1.152a6.183,6.183,0,0,0,3.253-4.91c0-.473,0-.971.019-1.5.032-1.664.081-4.176-.421-4.266a3.584,3.584,0,0,0-1.175.032,4.386,4.386,0,0,1-1.078.058,23.773,23.773,0,0,1-4.127-1.926c-.9-.469-1.683-.877-2.068-1.042-.842-.359-7.3-.861-10.6-1.075H125.8c-.087,0-8.772-1.538-10.886-.783-1.5.534-4.91,5.548-6.946,8.542-.871,1.295-1.56,2.292-1.858,2.615a4.471,4.471,0,0,1-3.153,1.618c-.282,0-.761-.055-1.363-.12a30.774,30.774,0,0,0-3.282-.265Z" fill="#263238"/>
        <path id="Path_8701" data-name="Path 8701" d="M112.218,141.357a.175.175,0,0,1-.11-.039.165.165,0,0,1,0-.23,33.158,33.158,0,0,1,2.667-2.79c.994-.8,7.558-.068,8.306.019a.162.162,0,0,1,.142.178.165.165,0,0,1-.181.142c-2.871-.324-7.393-.628-8.066-.087a30.622,30.622,0,0,0-2.625,2.751.155.155,0,0,1-.133.055Z" fill="#fff"/>
        <path id="Path_8702" data-name="Path 8702" d="M110.839,142.94a.162.162,0,0,1-.123-.265s.324-.392.816-.945a.163.163,0,1,1,.246.214c-.482.55-.816.942-.816.942A.168.168,0,0,1,110.839,142.94Z" fill="#fff"/>
        <path id="Path_8703" data-name="Path 8703" d="M105.757,149.87a4.131,4.131,0,0,1-2.8,1.321c-.935,0-4.279-.621-6.225-.233s-4.357,1.635-4.121,2.8,1.321,1.712,4.9,2.266a15.8,15.8,0,0,0,8.4-1.324c1.01-.547,2.117-1.295,2.463-1.463a4.985,4.985,0,0,1-2.622-3.366Z" fill="#fff"/>
        <path id="Path_8704" data-name="Path 8704" d="M99.3,156.3a11.705,11.705,0,0,1-1.809-.133c-3.6-.547-4.778-1.1-5.033-2.382s2.344-2.609,4.247-2.991a18.637,18.637,0,0,1,4.93.11c.592.068,1.062.12,1.327.12a3.988,3.988,0,0,0,2.683-1.275.168.168,0,0,1,.159-.039.162.162,0,0,1,.113.113,4.849,4.849,0,0,0,2.531,3.253.162.162,0,0,1,0,.291c-.129.068-.379.22-.693.414-.489.3-1.159.719-1.767,1.046A15.964,15.964,0,0,1,99.3,156.3Zm-.991-5.312a8.034,8.034,0,0,0-1.541.123c-2.01.4-4.192,1.618-3.994,2.609.22,1.11,1.334,1.618,4.765,2.13a16.05,16.05,0,0,0,8.3-1.295c.6-.324,1.266-.735,1.754-1.036.172-.107.324-.2.447-.275a5.16,5.16,0,0,1-2.366-3.069,4.176,4.176,0,0,1-2.713,1.185c-.282,0-.761-.055-1.363-.12A30.765,30.765,0,0,0,98.309,150.984Z" fill="#263238"/>
        <path id="Path_8705" data-name="Path 8705" d="M103.194,152.816a1.463,1.463,0,0,1,.434-1.712,3.04,3.04,0,0,1-.667.078c-.935,0-4.279-.621-6.225-.233s-4.357,1.635-4.121,2.8,1.321,1.712,4.9,2.266a15.8,15.8,0,0,0,8.4-1.324c.155-.081.324-.172.473-.262C105.4,154.282,103.737,153.7,103.194,152.816Z" fill="#fff"/>
        <path id="Path_8706" data-name="Path 8706" d="M99.3,156.3a11.705,11.705,0,0,1-1.809-.133c-3.6-.547-4.778-1.1-5.033-2.382s2.344-2.609,4.247-2.991a18.637,18.637,0,0,1,4.93.11c.592.068,1.062.12,1.327.12a2.868,2.868,0,0,0,.631-.074.162.162,0,0,1,.175.078.155.155,0,0,1-.019.188c-.366.408-.735,1-.414,1.518h0a4.967,4.967,0,0,0,3.078,1.528.162.162,0,0,1,.136.129.165.165,0,0,1-.078.172c-.162.094-.324.181-.476.265A16.028,16.028,0,0,1,99.3,156.3Zm-.991-5.312a8.034,8.034,0,0,0-1.541.123c-2.01.4-4.192,1.618-3.994,2.609.22,1.11,1.334,1.618,4.765,2.13a16.05,16.05,0,0,0,8.3-1.295l.081-.042a4.875,4.875,0,0,1-2.865-1.6,1.368,1.368,0,0,1,.185-1.57,2.719,2.719,0,0,1-.278,0c-.282,0-.761-.055-1.363-.12a30.764,30.764,0,0,0-3.289-.24Z" fill="#263238"/>
        <path id="Path_8707" data-name="Path 8707" d="M127.176,107.046s-6.092.065-6.752,2.382-.068,13.7-.133,17.479-.065,6.221.4,7.15,3.175,2.648,3.376,2.713-.068,2.117-.068,2.117,4.7.6,7.348.664a12.345,12.345,0,0,1,7.477,2.978c2.447,1.92,4.04,3.175,4.04,3.175l1.521-1.654a82.057,82.057,0,0,0,1.259,8.209,3.472,3.472,0,0,0,3.561,2.713c.647,0,2.845-.065,2.845-.065A58.419,58.419,0,0,1,149,148.352c-.929-2.648-1.521-4.9-1.521-4.9a4.607,4.607,0,0,0,.463-2.314c0-1.586-.324-2.515-.262-4.1s2.913-8.539,1.719-16.282-.793-9.931-3.706-11.452-9.267-2.45-11.054-2.59S127.176,107.046,127.176,107.046Z" fill="#ff914d"/>
        <path id="Path_8708" data-name="Path 8708" d="M149.223,155.127a3.636,3.636,0,0,1-3.732-2.836,77.89,77.89,0,0,1-1.224-7.875l-1.279,1.392a.162.162,0,0,1-.22.019s-1.589-1.259-4.036-3.179a12.243,12.243,0,0,0-7.383-2.942c-2.628-.065-7.319-.647-7.364-.664a.171.171,0,0,1-.107-.062.149.149,0,0,1-.032-.12,10.064,10.064,0,0,0,.12-1.968c-.44-.23-2.939-1.822-3.415-2.771s-.479-3.493-.414-7.225c.019-1.191-.023-3.111-.074-5.334-.11-4.71-.246-10.572.214-12.181.683-2.389,6.571-2.5,6.9-2.5s5.733-.46,7.5-.324c1.576.117,8.092,1.023,11.116,2.59,2.4,1.253,2.625,2.962,3.237,7.529.152,1.162.324,2.479.566,4.04.9,5.862-.511,11.329-1.269,14.243a13.573,13.573,0,0,0-.45,2.059,12.17,12.17,0,0,0,.123,2.166,15.714,15.714,0,0,1,.139,1.942,5.115,5.115,0,0,1-.45,2.337c.1.385.673,2.457,1.5,4.823a57.47,57.47,0,0,0,3.033,6.529.162.162,0,0,1,0,.159.159.159,0,0,1-.133.081C152.045,155.049,149.87,155.127,149.223,155.127Zm-4.839-11.245a.146.146,0,0,1,.052,0,.162.162,0,0,1,.11.136A80.9,80.9,0,0,0,145.8,152.2a3.27,3.27,0,0,0,3.418,2.59c.515,0,1.981-.039,2.59-.058a55.971,55.971,0,0,1-2.933-6.344c-.916-2.622-1.518-4.888-1.525-4.91a.159.159,0,0,1,.019-.126,4.592,4.592,0,0,0,.437-2.23,15.178,15.178,0,0,0-.139-1.894,12.863,12.863,0,0,1-.123-2.217,13.272,13.272,0,0,1,.46-2.127c.751-2.913,2.153-8.329,1.262-14.126-.24-1.56-.414-2.881-.57-4.046-.6-4.571-.8-6.108-3.052-7.286-2.968-1.55-9.426-2.447-11.006-2.564-1.754-.129-7.4.324-7.445.324h0c-.058,0-5.975.091-6.6,2.266-.447,1.557-.324,7.393-.2,12.083.052,2.227.094,4.15.074,5.347-.062,3.561-.071,6.17.379,7.073s3.033,2.535,3.285,2.635c.117.039.324.1.062,2.13.848.1,4.836.583,7.17.647a12.454,12.454,0,0,1,7.574,3.014c2.062,1.618,3.512,2.758,3.92,3.085l1.421-1.547A.168.168,0,0,1,144.384,143.882Zm-20.393-6.969Zm3.175-29.867Z" fill="#263238"/>
        <path id="Path_8709" data-name="Path 8709" d="M122.871,102.744a4.351,4.351,0,0,1-.356-1.169,34.2,34.2,0,0,1-2.975-5.856c-.5-1.725-.117-5.008.146-6.733a28.5,28.5,0,0,0-3.3,8.74c-1.79,7.678-1.722,11.449.991,13.236s4.635.994,5.428,1.855,1.058,1.92.4,1.92a1.327,1.327,0,0,1-.994-.4s1.521,2.318,2.978,1.654,3.111-3.043,2.052-6.221S123.327,103.339,122.871,102.744Zm-5.228,7.212c-1.256-1.389-.463-3.9-.463-3.9-.4,3.561,3.706,5.561,3.706,5.561A5.9,5.9,0,0,1,117.643,109.956Z" fill="#263238"/>
        <path id="Path_8710" data-name="Path 8710" d="M124.638,116.261c-1.33,0-2.505-1.761-2.564-1.848a.162.162,0,0,1,.259-.191,1.175,1.175,0,0,0,.871.34c.126,0,.168-.052.188-.1.113-.259-.142-.942-.706-1.55-.295-.324-.79-.385-1.476-.473a8.416,8.416,0,0,1-3.92-1.356c-2.677-1.764-2.955-5.273-1.062-13.411a28.83,28.83,0,0,1,3.318-8.772.162.162,0,0,1,.3.11c-.265,1.764-.647,4.978-.149,6.662a33.954,33.954,0,0,0,2.959,5.826.169.169,0,0,1,.019.049,3.735,3.735,0,0,0,.324,1.1h0l.233.291a23.886,23.886,0,0,1,4.163,6.772c1.088,3.266-.6,5.72-2.14,6.422A1.479,1.479,0,0,1,124.638,116.261Zm-1.813-1.418c.537.6,1.444,1.376,2.295.991,1.434-.647,2.991-2.952,1.968-6.024a23.564,23.564,0,0,0-4.1-6.671c-.107-.129-.188-.23-.24-.3h0a3.435,3.435,0,0,1-.382-1.2,34.749,34.749,0,0,1-2.978-5.872,17.776,17.776,0,0,1,.026-6,31.4,31.4,0,0,0-2.868,7.982c-1.855,7.976-1.618,11.394.926,13.064a8.128,8.128,0,0,0,3.784,1.295,2.622,2.622,0,0,1,1.674.573c.625.68.945,1.476.761,1.9a.489.489,0,0,1-.482.291,1.693,1.693,0,0,1-.379-.029Zm-1.942-3.069h-.023a5.945,5.945,0,0,1-3.341-1.706h0c-1.295-1.44-.531-3.956-.5-4.062a.162.162,0,0,1,.188-.11.168.168,0,0,1,.129.178c-.382,3.415,3.561,5.377,3.616,5.4a.16.16,0,0,1-.068.3Zm-3.124-1.926a5.179,5.179,0,0,0,2.107,1.33,6.549,6.549,0,0,1-2.768-3.667,3.285,3.285,0,0,0,.647,2.337Z" fill="#263238"/>
        <path id="Path_8711" data-name="Path 8711" d="M137.479,138.075h-.023l-1.89-.272a.162.162,0,0,1,.045-.32l1.89.272a.162.162,0,0,1-.023.324Z" fill="#263238"/>
        <path id="Path_8712" data-name="Path 8712" d="M134.22,137.6h-.026c-6.451-.942-9.882-1.512-10.19-1.69-.579-.324.181-5.454.686-8.478a.164.164,0,1,1,.324.052c-.625,3.732-1.1,7.8-.832,8.157.12.062,1.372.369,10.064,1.638a.162.162,0,1,1-.023.324Z" fill="#263238"/>
        <path id="Path_8713" data-name="Path 8713" d="M124,139.043h-.023a.159.159,0,0,1-.117-.194l.647-2.706a.165.165,0,0,1,.2-.12.159.159,0,0,1,.117.194l-.647,2.706A.162.162,0,0,1,124,139.043Z" fill="#263238"/>
        <path id="Path_8714" data-name="Path 8714" d="M146.908,143.72a8.282,8.282,0,0,1-2.049-.4c-1.942-.56-5.94-1.926-5.982-1.942a.163.163,0,0,1,.107-.308c.039.016,4.014,1.379,5.962,1.942,1.771.5,2.13.382,2.143.375a.149.149,0,0,1,.214.042.175.175,0,0,1-.045.233A.647.647,0,0,1,146.908,143.72Z" fill="#263238"/>
        <path id="Path_8715" data-name="Path 8715" d="M135.22,114.872a.146.146,0,0,1-.081-.023l-2.984-1.693a.162.162,0,0,1,.159-.282l2.751,1.563.074-2.237a.155.155,0,0,1,.165-.155.162.162,0,0,1,.159.168l-.081,2.5a.172.172,0,0,1-.084.136A.162.162,0,0,1,135.22,114.872Z" fill="#263238"/>
        <path id="Path_8716" data-name="Path 8716" d="M127.594,113.293a.162.162,0,0,1-.1-.288l.566-.447a.162.162,0,1,1,.2.256l-.563.443A.165.165,0,0,1,127.594,113.293Z" fill="#263238"/>
        <path id="Path_8717" data-name="Path 8717" d="M124.405,118.262a.162.162,0,0,1-.162-.159l-.039-1.531a.162.162,0,0,1,.155-.168h0a.165.165,0,0,1,.162.159l.039,1.534a.162.162,0,0,1-.159.165Z" fill="#263238"/>
        <path id="Path_8718" data-name="Path 8718" d="M123,91.89s-3.454,3.014-3.454,3.829a46.356,46.356,0,0,0,1.57,5.843,11.653,11.653,0,0,0,2.512,4.143,9.747,9.747,0,0,0,3.392,2.324,2.589,2.589,0,0,0,1-.324s.252,5.15,1.13,6.972,1.321,1.758,1.508,1.317,2.512-8.037,2.512-8.037l1.13-5.4-2.386-6.15s-3.328-2.952-5.59-3.706A14.445,14.445,0,0,0,123,91.89Z" fill="#fff"/>
        <path id="Path_8719" data-name="Path 8719" d="M130.361,116.426c-.24,0-.647-.185-1.36-1.667-.783-1.618-1.068-5.733-1.133-6.8a2.288,2.288,0,0,1-.855.223c-.55,0-2.551-1.353-3.509-2.373a11.766,11.766,0,0,1-2.551-4.208l-.172-.56a37.429,37.429,0,0,1-1.4-5.328c0-.848,2.913-3.441,3.509-3.952a.155.155,0,0,1,.117-.039,14.643,14.643,0,0,1,3.37.822c2.256.751,5.5,3.619,5.645,3.739a.155.155,0,0,1,.045.065l2.386,6.15a.146.146,0,0,1,0,.091l-1.13,5.4c-.1.324-2.331,7.626-2.522,8.07-.123.288-.3.353-.434.356Zm-2.344-8.872a.155.155,0,0,1,.078.019.168.168,0,0,1,.084.136c0,.052.259,5.137,1.114,6.908.689,1.424,1.01,1.492,1.071,1.486s.117-.1.142-.159c.146-.343,1.7-5.4,2.505-8.024l1.12-5.341-2.356-6.072c-.324-.291-3.412-2.949-5.5-3.648a16.414,16.414,0,0,0-3.221-.8c-1.317,1.156-3.347,3.13-3.347,3.664a39.431,39.431,0,0,0,1.389,5.231l.175.563a11.329,11.329,0,0,0,2.473,4.082,9.731,9.731,0,0,0,3.276,2.266,2.441,2.441,0,0,0,.926-.295.162.162,0,0,1,.074-.013Z" fill="#263238"/>
        <path id="Path_8720" data-name="Path 8720" d="M125.69,104.21a1.942,1.942,0,0,1-.612-.11c-.084-.026-.3-.1-.3-1.347a.165.165,0,0,1,.162-.162.162.162,0,0,1,.162.162,3.762,3.762,0,0,0,.107,1.052c.324.1.858.194,1.026-.233a.162.162,0,0,1,.21-.087.159.159,0,0,1,.091.207.838.838,0,0,1-.845.518Zm-.473-.392Z" fill="#263238"/>
        <path id="Path_8721" data-name="Path 8721" d="M126.007,105.385c-.223,0-.375-.019-.4-.019a.163.163,0,0,1,.042-.324c.019,0,1.777.22,2.347-.971a.161.161,0,1,1,.291.139A2.419,2.419,0,0,1,126.007,105.385Z" fill="#263238"/>
        <path id="Path_8722" data-name="Path 8722" d="M128.018,107.716a20.662,20.662,0,0,0,3.2-3.14s-1.256,2.952-1.635,3.706a11.331,11.331,0,0,0-.563,1.317Z" fill="#263238"/>
        <path id="Path_8723" data-name="Path 8723" d="M129.024,109.761a.165.165,0,0,1-.146-.084l-1-1.884a.165.165,0,0,1,.042-.2,21.139,21.139,0,0,0,3.175-3.111.162.162,0,0,1,.21-.042.159.159,0,0,1,.068.2c-.052.123-1.262,2.968-1.638,3.716a11.753,11.753,0,0,0-.557,1.295.162.162,0,0,1-.139.11Zm-.8-2,.77,1.45c.1-.243.246-.592.447-1,.23-.46.8-1.761,1.2-2.69a24.086,24.086,0,0,1-2.415,2.24Z" fill="#263238"/>
        <path id="Path_8724" data-name="Path 8724" d="M127.778,100.148a3.622,3.622,0,0,1-.935-.126.168.168,0,0,1,.091-.324c.016,0,1.589.453,2.2-.5a.165.165,0,0,1,.223-.049.159.159,0,0,1,.049.223A1.845,1.845,0,0,1,127.778,100.148Z" fill="#263238"/>
        <path id="Path_8725" data-name="Path 8725" d="M126.134,98.519a.162.162,0,0,1-.081-.3c.081-.045,1.965-1.1,3.334-.647a.159.159,0,0,1,.1.2.165.165,0,0,1-.2.1c-1.237-.414-3.056.6-3.072.615a.185.185,0,0,1-.081.026Z" fill="#263238"/>
        <path id="Path_8726" data-name="Path 8726" d="M122.482,101.009a1.677,1.677,0,0,1-.9-.259.165.165,0,0,1-.036-.227.162.162,0,0,1,.223-.036,1.4,1.4,0,0,0,1.69-.181.161.161,0,1,1,.2.249A1.848,1.848,0,0,1,122.482,101.009Z" fill="#263238"/>
        <path id="Path_8727" data-name="Path 8727" d="M121.11,99.274a.159.159,0,0,1-.146-.091.165.165,0,0,1,.071-.217,2.513,2.513,0,0,1,2.486-.052.162.162,0,0,1-.178.269h0a2.211,2.211,0,0,0-2.162.074.191.191,0,0,1-.071.016Z" fill="#263238"/>
        <path id="Path_8728" data-name="Path 8728" d="M141.075,115.054a12.354,12.354,0,0,0-.463,4.237,64.1,64.1,0,0,1-.129,7.545c0,.272-1.457.926-1.392,1.389a12.33,12.33,0,0,0,.324,1.324l-2.12-.861-2.845,3.774a30.909,30.909,0,0,0,6.089,4.3c3.839,2.117,6.474,1.457,6.474,1.457s1.521-9.332,1.722-13.5,1.123-9.662-.324-13.566c-1.136-3.052-6.15-3.444-7.28,1.787" fill="#ff914d"/>
        <path id="Path_8729" data-name="Path 8729" d="M145.928,138.483a11.4,11.4,0,0,1-5.461-1.576,31.469,31.469,0,0,1-6.134-4.328.162.162,0,0,1,0-.214l2.845-3.774a.162.162,0,0,1,.191-.052l1.806.735a9.2,9.2,0,0,1-.24-1.026c-.052-.366.437-.712.91-1.046a2.481,2.481,0,0,0,.482-.392c0-.019,0-.223.026-.534a52.892,52.892,0,0,0,.1-6.963,12.3,12.3,0,0,1,.469-4.305.162.162,0,0,1,.2-.1.165.165,0,0,1,.11.2,12.487,12.487,0,0,0-.46,4.166,51.164,51.164,0,0,1-.1,7.031c-.019.3-.029.5-.029.541,0,.185-.2.324-.615.628-.282.2-.8.566-.777.738a11.519,11.519,0,0,0,.324,1.295.159.159,0,0,1-.214.194l-2-.812-2.683,3.561a31.918,31.918,0,0,0,5.949,4.179,10,10,0,0,0,6.267,1.463c.172-1.068,1.518-9.507,1.7-13.375.042-.9.12-1.858.2-2.868.285-3.561.605-7.61-.521-10.637a3.324,3.324,0,0,0-3.35-2.13c-1.78.129-3.137,1.583-3.632,3.884a.165.165,0,0,1-.324-.068c.528-2.45,1.994-4,3.923-4.14a3.642,3.642,0,0,1,3.677,2.331c1.156,3.095.829,7.176.541,10.776-.081,1.007-.155,1.958-.2,2.858-.2,4.13-1.709,13.427-1.725,13.521a.152.152,0,0,1-.12.129A4.9,4.9,0,0,1,145.928,138.483Z" fill="#263238"/>
        <path id="Path_8730" data-name="Path 8730" d="M144.6,125.677a.162.162,0,0,1-.149-.1.159.159,0,0,1,.087-.21l.647-.269a.162.162,0,0,1,.21.087.159.159,0,0,1-.087.21l-.647.269a.139.139,0,0,1-.062.013Z" fill="#263238"/>
        <path id="Path_8731" data-name="Path 8731" d="M141.273,127.063a.165.165,0,1,1-.062-.324l2.518-1.049a.162.162,0,1,1,.126.3l-2.522,1.049A.133.133,0,0,1,141.273,127.063Z" fill="#263238"/>
        <path id="Path_8732" data-name="Path 8732" d="M139.884,129.843a.162.162,0,0,1-.159-.123.159.159,0,0,1,.12-.194c1.942-.489,5.266-1.256,5.623-.939a.217.217,0,0,1,.068.191c-.074.531-1.466.735-2.062.8a.162.162,0,0,1-.178-.142.159.159,0,0,1,.142-.178,4.652,4.652,0,0,0,1.709-.44,34.946,34.946,0,0,0-5.224,1.023Z" fill="#263238"/>
        <path id="Path_8733" data-name="Path 8733" d="M145.309,132.294a.165.165,0,0,1-.149-.1c-.683-1.618-4.661-2.081-4.7-2.085a.163.163,0,0,1,.036-.324c.172.019,4.208.5,4.965,2.282a.168.168,0,0,1-.087.214A.211.211,0,0,1,145.309,132.294Z" fill="#263238"/>
        <path id="Path_8734" data-name="Path 8734" d="M145.377,134.333h-.039a2.913,2.913,0,0,1-.816-.363.165.165,0,0,1-.058-.223.159.159,0,0,1,.227-.062,2.538,2.538,0,0,0,.712.324.163.163,0,0,1-.029.324Z" fill="#263238"/>
        <path id="Path_8735" data-name="Path 8735" d="M143.937,133.575a.146.146,0,0,1-.087-.026c-1.6-1.065-3.784-2.865-3.8-2.884a.159.159,0,0,1-.023-.227.162.162,0,0,1,.227-.023c.023.019,2.195,1.809,3.778,2.865a.162.162,0,0,1,.045.223.155.155,0,0,1-.136.071Z" fill="#263238"/>
        <path id="Path_8736" data-name="Path 8736" d="M114.52,118.342s-1.492,3.188-.929,3.713,3.956,3.79,4.279,3.952,1.249,2.988,1.735,4.075.767,3.632,1.693,3.994,2.913-1.531,2.946-2.5a3.291,3.291,0,0,0-.887-2.59c-.887-1.256-2.913-5.286-2.913-5.286l-5.532-6.008Z" fill="#fff"/>
        <path id="Path_8737" data-name="Path 8737" d="M121.56,134.288a.906.906,0,0,1-.324-.058c-.7-.275-1.036-1.512-1.356-2.706a10.36,10.36,0,0,0-.427-1.372c-.168-.382-.388-.971-.621-1.58a13.731,13.731,0,0,0-1.046-2.421c-.185-.136-1.47-1.295-3.561-3.26-.353-.324-.631-.6-.761-.719-.6-.56.531-3.127.893-3.884v-.019l.4-.647a.168.168,0,0,1,.123-.074.165.165,0,0,1,.136.052l5.525,6.011a.143.143,0,0,1,.026.036c.019.042,2.023,4.04,2.894,5.266a3.322,3.322,0,0,1,.916,2.683,3.913,3.913,0,0,1-1.754,2.3A2.179,2.179,0,0,1,121.56,134.288Zm-6.9-15.861c-.693,1.479-1.256,3.237-.971,3.515l.764.722c1.049,1,3.237,3.082,3.476,3.208s.55.884,1.2,2.59c.23.612.447,1.188.612,1.56a10.231,10.231,0,0,1,.447,1.421c.272,1.013.609,2.266,1.162,2.489a1.387,1.387,0,0,0,1.114-.324,3.72,3.72,0,0,0,1.618-2.042,3.119,3.119,0,0,0-.858-2.48c-.858-1.224-2.735-4.943-2.913-5.289l-5.37-5.826Z" fill="#263238"/>
        <path id="Path_8738" data-name="Path 8738" d="M111.937,114.387l6.254,10.17,4.8.644-4.681-9.241Z" fill="#263238"/>
        <path id="Path_8739" data-name="Path 8739" d="M123,125.363h-.023l-4.8-.647a.168.168,0,0,1-.117-.074l-6.254-10.17a.159.159,0,0,1,.175-.24l6.377,1.573a.152.152,0,0,1,.1.084l4.681,9.238a.165.165,0,0,1,0,.168.168.168,0,0,1-.142.068Zm-4.7-.971,4.418.6-4.506-8.9-5.92-1.46Z" fill="#263238"/>
        <path id="Path_8740" data-name="Path 8740" d="M137.3,128.688s-7.147-5.037-9-6.286a26.034,26.034,0,0,1-2.648-1.987,4.693,4.693,0,0,0-.647-1.787,1.85,1.85,0,0,0-1.787-.6,5.9,5.9,0,0,1-2.12,0c-.531-.2-1.521-1.852-1.654-1.123a1.6,1.6,0,0,0,.6,1.787,6.789,6.789,0,0,0,1.855.858c.265.129-.421.243-.421.243a7.338,7.338,0,0,1-3.324.363,12.472,12.472,0,0,1-3.221-.867c-.463-.133-.4.528.133.926s.858.6.858.6-1.654-.265-1.453.265.926.994,1.389,1.324a16.9,16.9,0,0,0,1.324,1.123c.4.2.463,1.126,1.126,1.525s.466.353,2.156.508a30.075,30.075,0,0,0,5.322-.045l8.672,6.95Z" fill="#fff"/>
        <path id="Path_8741" data-name="Path 8741" d="M134.456,132.624a.165.165,0,0,1-.1-.036l-8.62-6.908a30.717,30.717,0,0,1-5.286.036l-.324-.029c-1.237-.11-1.262-.113-1.754-.414l-.142-.084a2.153,2.153,0,0,1-.774-1.007,1.191,1.191,0,0,0-.324-.511,3.5,3.5,0,0,1-.754-.615,6.563,6.563,0,0,0-.592-.524l-.159-.11a3.4,3.4,0,0,1-1.295-1.295.324.324,0,0,1,.045-.34c.152-.188.56-.22.932-.207l-.324-.24c-.4-.3-.605-.767-.466-1.046a.366.366,0,0,1,.473-.165,1.254,1.254,0,0,1,.233.084,11.154,11.154,0,0,0,2.962.777,7.364,7.364,0,0,0,3.237-.35h.036l.136-.026-.087-.029a5.136,5.136,0,0,1-1.557-.757,1.758,1.758,0,0,1-.647-1.942.35.35,0,0,1,.227-.308c.249-.068.5.194.939.667a2.952,2.952,0,0,0,.706.647,3.736,3.736,0,0,0,1.544.036l.5-.045a2,2,0,0,1,1.92.647,4.427,4.427,0,0,1,.693,1.813,27.076,27.076,0,0,0,2.59,1.942c1.835,1.246,8.934,6.241,9.005,6.289a.178.178,0,0,1,.068.11.159.159,0,0,1-.032.12l-2.845,3.774a.149.149,0,0,1-.11.062Zm-8.672-7.273a.152.152,0,0,1,.1.036l8.542,6.846,2.645-3.509c-1-.7-7.173-5.043-8.863-6.189a26.242,26.242,0,0,1-2.667-2,.175.175,0,0,1-.049-.094,4.473,4.473,0,0,0-.625-1.706,1.658,1.658,0,0,0-1.651-.541l-.5.045a3.987,3.987,0,0,1-1.686-.055,2.887,2.887,0,0,1-.829-.725,3.289,3.289,0,0,0-.6-.566.324.324,0,0,0,0,.042,1.444,1.444,0,0,0,.537,1.635,4.781,4.781,0,0,0,1.46.7,3.218,3.218,0,0,1,.366.139.223.223,0,0,1,.149.236c0,.068-.032.214-.6.3a7.523,7.523,0,0,1-3.37.369,11.682,11.682,0,0,1-3.046-.8c-.1-.039-.168-.068-.2-.078s-.087-.016-.094,0c-.039.081.036.395.369.647.515.385.842.586.845.586a.159.159,0,0,1,.068.194.155.155,0,0,1-.175.1,2.458,2.458,0,0,0-1.295.026,3.175,3.175,0,0,0,1.181,1.159l.159.113a6.148,6.148,0,0,1,.628.554,3.36,3.36,0,0,0,.673.56,1.3,1.3,0,0,1,.489.647,1.923,1.923,0,0,0,.647.867l.146.087c.427.262.427.262,1.618.369l.324.029a30.346,30.346,0,0,0,5.289-.045Z" fill="#263238"/>
        <path id="Path_8742" data-name="Path 8742" d="M121.418,121.767h-3.577a11.526,11.526,0,0,1-1.987-.809.162.162,0,1,1,.139-.291,12.363,12.363,0,0,0,1.852.777H121.4a.165.165,0,0,1,.162.162A.162.162,0,0,1,121.418,121.767Z" fill="#263238"/>
        <path id="Path_8743" data-name="Path 8743" d="M120.136,123.282a10.723,10.723,0,0,1-1.249-.049,12.855,12.855,0,0,1-2.266-.56,4.146,4.146,0,0,0-1.058-.256.162.162,0,0,1-.136-.185.165.165,0,0,1,.184-.136,4.344,4.344,0,0,1,1.191.308,13.72,13.72,0,0,0,2.149.508c.447.074,2.049.036,2.065.036a.162.162,0,0,1,0,.324C120.977,123.272,120.586,123.282,120.136,123.282Z" fill="#263238"/>
        <path id="Path_8744" data-name="Path 8744" d="M119.767,124.69a2.546,2.546,0,0,1-.414-.023c-.359-.081-2.042-.9-2.233-1a.162.162,0,0,1-.074-.217.165.165,0,0,1,.217-.074,22.955,22.955,0,0,0,2.162.971,17.1,17.1,0,0,0,2.2-.081.162.162,0,0,1,.175.149.165.165,0,0,1-.149.175C121.489,124.622,120.414,124.69,119.767,124.69Z" fill="#263238"/>
        <path id="Path_8745" data-name="Path 8745" d="M138.891,102.744a68.369,68.369,0,0,1-6.552-8.209s-.728,10.391.858,14.825,7.416,2.59,9.465,1.457,2.781-1.984,4.04-1.787A39.452,39.452,0,0,1,138.891,102.744Z" fill="#263238"/>
        <path id="Path_8746" data-name="Path 8746" d="M137.544,112.322A5.753,5.753,0,0,1,135.5,112a4.072,4.072,0,0,1-2.454-2.59c-1.58-4.415-.9-14.466-.867-14.89a.162.162,0,0,1,.295-.078,68.821,68.821,0,0,0,6.535,8.183,39.606,39.606,0,0,0,7.769,6.26.162.162,0,0,1-.107.3c-.832-.133-1.434.246-2.431.871-.424.269-.906.57-1.505.9a11.773,11.773,0,0,1-5.189,1.369ZM132.472,95c-.117,2.081-.489,10.475.877,14.291a3.781,3.781,0,0,0,2.266,2.386c2.221.842,5.386-.149,6.972-1.016.592-.324,1.068-.625,1.486-.887a5,5,0,0,1,2.036-.935,40.523,40.523,0,0,1-7.332-6,68.4,68.4,0,0,1-6.306-7.824Z" fill="#263238"/>
        <path id="Path_8747" data-name="Path 8747" d="M123.975,91.363c-2.311-2.745-.971.528-.971.528s4.425,4.224,8.918,4.532C131.912,96.412,126.292,94.107,123.975,91.363Z" fill="#263238"/>
        <path id="Path_8748" data-name="Path 8748" d="M131.912,96.574h0c-4.5-.295-8.976-4.532-9.021-4.564a.136.136,0,0,1-.036-.058c-.291-.712-.566-1.618-.233-1.806.223-.133.56,0,1.5,1.117,2.266,2.68,7.811,4.978,7.866,5a.165.165,0,0,1,.1.188A.162.162,0,0,1,131.912,96.574ZM123.13,91.8c.324.324,3.858,3.519,7.665,4.3-1.751-.812-5.215-2.59-6.937-4.629-.725-.861-1-1.01-1.075-1.033a3.774,3.774,0,0,0,.346,1.363Z" fill="#263238"/>
      </g>
    </g>
  </g>
</svg>
