<svg xmlns="http://www.w3.org/2000/svg" width="16.853" height="16.884" viewBox="0 0 16.853 16.884">
  <path id="Icon_feather-phone-call" data-name="Icon feather-phone-call" d="M12.954,4.526a3.782,3.782,0,0,1,2.988,2.988M12.954,1.5a6.808,6.808,0,0,1,6.013,6.006m-.756,6.036v2.269a1.513,1.513,0,0,1-1.649,1.513A14.969,14.969,0,0,1,10.035,15,14.75,14.75,0,0,1,5.5,10.463,14.969,14.969,0,0,1,3.174,3.905,1.513,1.513,0,0,1,4.679,2.256H6.948a1.513,1.513,0,0,1,1.513,1.3,9.712,9.712,0,0,0,.529,2.125,1.513,1.513,0,0,1-.34,1.6L7.69,8.24a12.1,12.1,0,0,0,4.538,4.538l.961-.961a1.513,1.513,0,0,1,1.6-.34,9.712,9.712,0,0,0,2.125.529A1.513,1.513,0,0,1,18.211,13.542Z" transform="translate(-2.667 -0.948)" fill="none" stroke="#ff914d" stroke-linecap="round" stroke-linejoin="round" stroke-width="1"/>
</svg>
