<svg xmlns="http://www.w3.org/2000/svg" width="263" height="195.967" viewBox="0 0 263 195.967">
  <g id="Uploading-rafiki" transform="translate(0 -55)">
    <g id="freepik--background-complete--inject-2" transform="translate(0 55)">
      <rect id="Rectangle_2466" data-name="Rectangle 2466" width="263" height="0.132" transform="translate(0 172.212)" fill="#ebebeb"/>
      <rect id="Rectangle_2467" data-name="Rectangle 2467" width="17.421" height="0.132" transform="translate(219.226 180.676)" fill="#ebebeb"/>
      <rect id="Rectangle_2468" data-name="Rectangle 2468" width="4.571" height="0.132" transform="translate(169.651 182.106)" fill="#ebebeb"/>
      <rect id="Rectangle_2469" data-name="Rectangle 2469" width="10.094" height="0.132" transform="translate(208.606 175.794)" fill="#ebebeb"/>
      <rect id="Rectangle_2470" data-name="Rectangle 2470" width="22.718" height="0.132" transform="translate(27.594 176.678)" fill="#ebebeb"/>
      <rect id="Rectangle_2471" data-name="Rectangle 2471" width="3.33" height="0.132" transform="translate(54.999 176.678)" fill="#ebebeb"/>
      <rect id="Rectangle_2472" data-name="Rectangle 2472" width="49.276" height="0.132" transform="translate(69.153 178.898)" fill="#ebebeb"/>
      <path id="Path_9115" data-name="Path 9115" d="M142.774,203.753H41.208a3,3,0,0,1-3-3V57.977a3,3,0,0,1,3-2.977H142.774a3,3,0,0,1,3,3V200.749A3,3,0,0,1,142.774,203.753ZM41.208,55.105a2.872,2.872,0,0,0-2.867,2.872V200.749a2.872,2.872,0,0,0,2.867,2.872H142.774a2.877,2.877,0,0,0,2.872-2.872V57.977a2.877,2.877,0,0,0-2.872-2.872Z" transform="translate(-18.112 -55)" fill="#ebebeb"/>
      <path id="Path_9116" data-name="Path 9116" d="M359.074,203.753H257.5a3.009,3.009,0,0,1-3-3V57.977a3.009,3.009,0,0,1,3-2.977H359.074a3,3,0,0,1,2.993,2.977V200.749A3,3,0,0,1,359.074,203.753ZM257.5,55.105a2.877,2.877,0,0,0-2.872,2.872V200.749a2.877,2.877,0,0,0,2.872,2.872H359.074a2.877,2.877,0,0,0,2.872-2.872V57.977a2.877,2.877,0,0,0-2.872-2.872Z" transform="translate(-120.633 -55)" fill="#ebebeb"/>
      <rect id="Rectangle_2473" data-name="Rectangle 2473" width="68.611" height="3.524" transform="translate(166.637 43.979)" fill="#e0e0e0"/>
      <rect id="Rectangle_2474" data-name="Rectangle 2474" width="3.024" height="12.992" transform="translate(169.793 30.987)" fill="#ebebeb"/>
      <rect id="Rectangle_2475" data-name="Rectangle 2475" width="3.024" height="12.992" transform="translate(184.41 30.987)" fill="#ebebeb"/>
      <rect id="Rectangle_2476" data-name="Rectangle 2476" width="3.024" height="12.992" transform="matrix(0.985, -0.17, 0.17, 0.985, 201.05, 31.166)" fill="#ebebeb"/>
      <rect id="Rectangle_2477" data-name="Rectangle 2477" width="3.024" height="11.283" transform="translate(173.538 32.701)" fill="#ebebeb"/>
      <rect id="Rectangle_2478" data-name="Rectangle 2478" width="3.024" height="11.283" transform="translate(180.486 32.701)" fill="#ebebeb"/>
      <rect id="Rectangle_2479" data-name="Rectangle 2479" width="3.024" height="11.283" transform="translate(198.023 32.701)" fill="#ebebeb"/>
      <rect id="Rectangle_2480" data-name="Rectangle 2480" width="3.024" height="11.283" transform="translate(188.451 32.96) rotate(-12.53)" fill="#ebebeb"/>
      <rect id="Rectangle_2481" data-name="Rectangle 2481" width="1.51" height="13.639" transform="translate(177.667 30.34)" fill="#ebebeb"/>
      <rect id="Rectangle_2482" data-name="Rectangle 2482" width="1.51" height="13.639" transform="translate(195.646 30.34)" fill="#ebebeb"/>
      <rect id="Rectangle_2483" data-name="Rectangle 2483" width="14.728" height="10.168" transform="translate(213.935 33.696)" fill="#ebebeb"/>
      <rect id="Rectangle_2484" data-name="Rectangle 2484" width="68.611" height="3.524" transform="translate(235.248 73.819) rotate(180)" fill="#e0e0e0"/>
      <rect id="Rectangle_2485" data-name="Rectangle 2485" width="3.024" height="12.992" transform="translate(232.087 70.3) rotate(180)" fill="#ebebeb"/>
      <rect id="Rectangle_2486" data-name="Rectangle 2486" width="3.024" height="12.992" transform="translate(217.475 70.3) rotate(180)" fill="#ebebeb"/>
      <rect id="Rectangle_2487" data-name="Rectangle 2487" width="3.024" height="12.992" transform="matrix(-0.985, -0.17, 0.17, -0.985, 198.634, 70.296)" fill="#ebebeb"/>
      <rect id="Rectangle_2488" data-name="Rectangle 2488" width="3.024" height="11.283" transform="translate(228.342 70.295) rotate(180)" fill="#ebebeb"/>
      <rect id="Rectangle_2489" data-name="Rectangle 2489" width="3.024" height="11.283" transform="translate(221.399 70.295) rotate(180)" fill="#ebebeb"/>
      <rect id="Rectangle_2490" data-name="Rectangle 2490" width="3.024" height="11.283" transform="translate(203.862 70.295) rotate(180)" fill="#ebebeb"/>
      <rect id="Rectangle_2491" data-name="Rectangle 2491" width="3.024" height="11.283" transform="translate(210.994 70.289) rotate(-167.47)" fill="#ebebeb"/>
      <rect id="Rectangle_2492" data-name="Rectangle 2492" width="1.51" height="13.639" transform="translate(224.218 70.295) rotate(180)" fill="#ebebeb"/>
      <rect id="Rectangle_2493" data-name="Rectangle 2493" width="1.51" height="13.639" transform="translate(206.239 70.295) rotate(180)" fill="#ebebeb"/>
      <rect id="Rectangle_2494" data-name="Rectangle 2494" width="14.728" height="10.168" transform="translate(187.945 70.184) rotate(180)" fill="#ebebeb"/>
      <path id="Path_9117" data-name="Path 9117" d="M53,266v61.542h3.156v-55.23h55.756v55.23h3.682V266Z" transform="translate(-25.122 -155.014)" fill="#e0e0e0"/>
      <path id="Path_9118" data-name="Path 9118" d="M119,266v61.542h3.156v-55.23h55.756v55.23h3.682V266Z" transform="translate(-56.406 -155.014)" fill="#f5f5f5"/>
      <path id="Path_9119" data-name="Path 9119" d="M141.655,208.039c-.7-1.157-1.862-.147-1.862-.147a4.77,4.77,0,0,0-1.878-3.74,2.725,2.725,0,0,0,2.7-2.267c.331-2.267-.826-1.21-1.915-1.226s-2.225,3.156-.789,4.944,1.052,4.839-2.262,7.769a6.5,6.5,0,0,0-1.731,2.7c.252-2.693.394-6.491-.4-9.021-1.347-4.308,1.22-5.465,1.962-7.616s-1.962-3.977-1.962-3.977,2.546-1.157,1.3-2.483-3.8-1.147-3.8.589a2.738,2.738,0,0,0,1.736,2.393s1.988,2.067,1.988,3.156-1.988,3.393-1.988,3.393.91-1.983-.91-2.067-2.4,2.314-1.657,3.393,1.988.163,1.988.163a20.746,20.746,0,0,0,.568,3.724,30.123,30.123,0,0,1-.058,5.576,6.312,6.312,0,0,0-1.615-2.393c-3.309-2.93-3.682-5.981-2.262-7.769s.3-4.96-.789-4.944-2.246-1.052-1.915,1.226a2.712,2.712,0,0,0,2.7,2.267,4.756,4.756,0,0,0-1.873,3.74s-1.162-1.01-1.867.147c-1.252,2.072,1.657,3.356,2.146,2.335,0,0,6.175,4.371,4.687,10.662l.347.526c-.047.526-.074.815-.074.815l.484-.205.526.81a18.933,18.933,0,0,0,.142,2.735l1.473-2.183c-1.489-6.312,4.687-10.662,4.687-10.662C140,211.4,142.912,210.112,141.655,208.039Z" transform="translate(-59.136 -119.987)" fill="#e0e0e0"/>
      <path id="Path_9120" data-name="Path 9120" d="M141.541,252.728l-1.994-11.409.563-3.319h-6.275l.563,3.319-1.988,11.409Z" transform="translate(-62.762 -141.742)" fill="#ebebeb"/>
    </g>
    <g id="freepik--Shadow--inject-2" transform="translate(29.514 239.058)">
      <ellipse id="freepik--path--inject-2" cx="101.986" cy="5.954" rx="101.986" ry="5.954" fill="#f5f5f5"/>
    </g>
    <g id="freepik--Files--inject-2" transform="translate(34.216 55.947)">
      <rect id="Rectangle_2495" data-name="Rectangle 2495" width="18.415" height="24.049" transform="translate(107.768 17.807) rotate(28.37)" fill="#ff914d"/>
      <rect id="Rectangle_2496" data-name="Rectangle 2496" width="18.415" height="24.049" transform="translate(107.768 17.807) rotate(28.37)" fill="#fff" opacity="0.6"/>
      <rect id="Rectangle_2497" data-name="Rectangle 2497" width="12.919" height="1.299" transform="translate(108.57 22.112) rotate(28.37)" fill="#ff914d"/>
      <rect id="Rectangle_2498" data-name="Rectangle 2498" width="12.919" height="1.299" transform="translate(107.489 24.115) rotate(28.37)" fill="#ff914d"/>
      <rect id="Rectangle_2499" data-name="Rectangle 2499" width="12.919" height="1.299" transform="translate(106.407 26.117) rotate(28.37)" fill="#ff914d"/>
      <rect id="Rectangle_2500" data-name="Rectangle 2500" width="12.919" height="1.299" transform="translate(105.322 28.117) rotate(28.37)" fill="#ff914d"/>
      <rect id="Rectangle_2501" data-name="Rectangle 2501" width="12.919" height="1.299" transform="translate(104.244 30.116) rotate(28.37)" fill="#ff914d"/>
      <rect id="Rectangle_2502" data-name="Rectangle 2502" width="12.919" height="1.299" transform="translate(103.164 32.122) rotate(28.37)" fill="#ff914d"/>
      <rect id="Rectangle_2503" data-name="Rectangle 2503" width="12.919" height="1.299" transform="translate(102.086 34.12) rotate(28.37)" fill="#ff914d"/>
      <rect id="Rectangle_2504" data-name="Rectangle 2504" width="8.363" height="1.299" transform="translate(100.999 36.123) rotate(28.37)" fill="#ff914d"/>
      <path id="Path_9121" data-name="Path 9121" d="M209.459,86.646a11.651,11.651,0,1,1,12.777-10.4A11.651,11.651,0,0,1,209.459,86.646Z" transform="translate(-128.539 -59.93)" fill="#ff914d"/>
      <circle id="Ellipse_140" data-name="Ellipse 140" cx="10.63" cy="10.63" r="10.63" transform="translate(70.695 5.329) rotate(-4.4)" fill="#fff" opacity="0.3"/>
      <path id="Path_9122" data-name="Path 9122" d="M220.277,75.53a16.324,16.324,0,0,1-2.935-3.85l-1.1,10.751c.026-.242-.931-.489-1.578-.526-1.541-.163-2.84.563-2.946,1.578s1.052,2.025,2.63,2.183,2.825-.568,2.935-1.61c0-.158-.11-.326-.095-.468l.847-8.285a6.974,6.974,0,0,0,2.283,1.731,3.55,3.55,0,0,1,1.578,2.141A4.166,4.166,0,0,0,220.277,75.53Z" transform="translate(-134.565 -63.853)" fill="#fff"/>
      <ellipse id="Ellipse_141" data-name="Ellipse 141" cx="8.384" cy="6.948" rx="8.384" ry="6.948" transform="matrix(0.888, -0.46, 0.46, 0.888, 70.24, 10.37)" fill="#fff" opacity="0.5"/>
      <rect id="Rectangle_2505" data-name="Rectangle 2505" width="25.117" height="18.805" transform="translate(34.267 2.036) rotate(-4.65)" fill="#ff914d"/>
      <rect id="Rectangle_2506" data-name="Rectangle 2506" width="22.618" height="16.306" transform="translate(35.645 3.149) rotate(-4.65)" fill="#ff914d"/>
      <rect id="Rectangle_2507" data-name="Rectangle 2507" width="22.618" height="16.306" transform="translate(35.645 3.149) rotate(-4.65)" fill="#fff" opacity="0.5"/>
      <path id="Path_9123" data-name="Path 9123" d="M157.107,78.516l.179,2.209L134.742,82.56l-.642-7.9,4.318-4.45,7.453,6.17,3.44-2.961Z" transform="translate(-97.779 -63.156)" fill="#ff914d"/>
      <path id="Path_9124" data-name="Path 9124" d="M157.107,78.516l.179,2.209L134.742,82.56l-.642-7.9,4.318-4.45,7.453,6.17,3.44-2.961Z" transform="translate(-97.779 -63.156)" fill="#fff" opacity="0.3"/>
      <path id="Path_9125" data-name="Path 9125" d="M165.915,66.492a1.82,1.82,0,1,1-1.962-1.667A1.82,1.82,0,0,1,165.915,66.492Z" transform="translate(-111.137 -60.601)" fill="#ff914d"/>
      <path id="Path_9126" data-name="Path 9126" d="M165.915,66.492a1.82,1.82,0,1,1-1.962-1.667A1.82,1.82,0,0,1,165.915,66.492Z" transform="translate(-111.137 -60.601)" fill="#fff" opacity="0.3"/>
      <path id="Path_9127" data-name="Path 9127" d="M76.274,95.612l-.968-.594a1.289,1.289,0,0,0-1.157-.1l-4.3,1.815a1.126,1.126,0,0,0-.689.873l-.158,1.052a1.094,1.094,0,0,1-.684.868l-2.567,1.052a1.131,1.131,0,0,0-.573,1.578l6.838,14.013a1.294,1.294,0,0,0,1.636.626L93.99,108.3a1.126,1.126,0,0,0,.579-1.578L87.731,92.719a1.294,1.294,0,0,0-1.636-.631l-8.663,3.624A1.289,1.289,0,0,1,76.274,95.612Z" transform="translate(-65.049 -73.484)" fill="#ff914d"/>
      <path id="Path_9128" data-name="Path 9128" d="M92.3,93.051l-18.626,7.806a1.688,1.688,0,0,0-.947,2.036L76.8,115.8a1.368,1.368,0,0,0,1.867.842l18.631-7.8a1.7,1.7,0,0,0,.947-2.036L94.165,93.9a1.362,1.362,0,0,0-1.867-.852Z" transform="translate(-68.654 -73.926)" fill="#ff914d"/>
      <path id="Path_9129" data-name="Path 9129" d="M92.3,93.051l-18.626,7.806a1.688,1.688,0,0,0-.947,2.036L76.8,115.8a1.368,1.368,0,0,0,1.867.842l18.631-7.8a1.7,1.7,0,0,0,.947-2.036L94.165,93.9a1.362,1.362,0,0,0-1.867-.852Z" transform="translate(-68.654 -73.926)" fill="#fff" opacity="0.5"/>
    </g>
    <g id="freepik--Cloud--inject-2" transform="translate(52.079 76.565)">
      <path id="Path_9130" data-name="Path 9130" d="M172.371,125.456a15.849,15.849,0,0,0,.347-3.3,15.685,15.685,0,0,0-15.685-15.685,15.968,15.968,0,0,0-2.9.268c-.4-.074-.8,0-1.22-.047A18.368,18.368,0,0,0,136.087,96H130.3a18.41,18.41,0,0,0-18.5,18.368v.342a15.485,15.485,0,0,0,2.84,30.734H171.45a10,10,0,0,0,.91-19.988Z" transform="translate(-99.009 -95.999)" fill="#ff914d"/>
      <path id="Path_9131" data-name="Path 9131" d="M172.371,125.456a15.849,15.849,0,0,0,.347-3.3,15.685,15.685,0,0,0-15.685-15.685,15.968,15.968,0,0,0-2.9.268c-.4-.074-.8,0-1.22-.047A18.368,18.368,0,0,0,136.087,96H130.3a18.41,18.41,0,0,0-18.5,18.368v.342a15.485,15.485,0,0,0,2.84,30.734H171.45a10,10,0,0,0,.91-19.988Z" transform="translate(-99.009 -95.999)" fill="#fff" opacity="0.5"/>
      <path id="Path_9132" data-name="Path 9132" d="M177.585,125.456a15.849,15.849,0,0,0,.347-3.3,15.685,15.685,0,0,0-15.685-15.685,15.968,15.968,0,0,0-2.9.268c-.4-.074-.8,0-1.22-.047A18.368,18.368,0,0,0,141.3,96h0a18.41,18.41,0,0,0-18.5,18.368v.342a15.485,15.485,0,0,0,2.84,30.734h51.022a10,10,0,0,0,.91-19.988Z" transform="translate(-104.223 -95.999)" fill="#fff" opacity="0.4"/>
      <path id="Path_9133" data-name="Path 9133" d="M223.27,210.56H205.56a26.332,26.332,0,0,1-26.3-26.3V179H174v5.26a31.6,31.6,0,0,0,31.56,31.56h17.71Z" transform="translate(-134.555 -135.341)" fill="#ff914d"/>
      <path id="Path_9134" data-name="Path 9134" d="M174.77,172.34l-4.56,4.555h9.116Z" transform="translate(-132.758 -132.185)" fill="#ff914d"/>
    </g>
    <g id="freepik--Stuff--inject-2" transform="translate(38.398 196.444)">
      <path id="Path_9135" data-name="Path 9135" d="M101.436,355.673l-3.156-9.642a13.76,13.76,0,0,1,11.425-3.067l2.63,9.026Z" transform="translate(-84.983 -332.831)" fill="#ff914d"/>
      <path id="Path_9136" data-name="Path 9136" d="M101.436,355.673l-3.156-9.642a13.76,13.76,0,0,1,11.425-3.067l2.63,9.026Z" transform="translate(-84.983 -332.831)" fill="#fff" opacity="0.7"/>
      <g id="Group_644" data-name="Group 644" transform="translate(14.802 12.062)" opacity="0.2">
        <path id="Path_9137" data-name="Path 9137" d="M101.14,350.252a8.528,8.528,0,0,1,1.247-1.141,11.2,11.2,0,0,1,1.462-.957c.279-.147.573-.305.884-.442a8.293,8.293,0,0,1,.952-.368,9.438,9.438,0,0,1,.984-.274l.489-.11.489-.058c.158,0,.316-.047.468-.058h.452a4.733,4.733,0,0,1,.831.026c.252.026.484.047.689.084l.526.121.447.116H110.6l-.526-.026h-.684a7.312,7.312,0,0,0-.794.063,7.726,7.726,0,0,0-.878.132l-.463.084-.463.121a8.643,8.643,0,0,0-.936.279c-.321.084-.621.226-.926.337s-.589.253-.868.384-.526.263-.8.405-.489.263-.7.389c-.431.253-.789.468-1.052.636Z" transform="translate(-101.14 -346.836)"/>
        <path id="Path_9138" data-name="Path 9138" d="M101.67,352.214s.121-.105.352-.268.558-.4.973-.642a15.823,15.823,0,0,1,1.457-.779,17.446,17.446,0,0,1,1.757-.715c.31-.089.621-.195.926-.279a8.441,8.441,0,0,1,.915-.205c.3-.047.589-.116.868-.137s.526-.058.784-.063a9.058,9.058,0,0,1,1.168.042l.442.053s-.163.026-.442.053a1.758,1.758,0,0,0-.494.053l-.642.1c-.237.037-.484.105-.752.153s-.526.137-.826.2-.579.168-.878.242-.594.195-.894.289c-1.2.4-2.372.884-3.251,1.257-.437.195-.81.342-1.052.463Z" transform="translate(-101.391 -347.92)"/>
        <path id="Path_9139" data-name="Path 9139" d="M103.08,355.452a3.684,3.684,0,0,1,.326-.289c.21-.174.526-.421.9-.689a13.679,13.679,0,0,1,1.383-.836,14.658,14.658,0,0,1,1.688-.773,12.578,12.578,0,0,1,1.788-.526,7.43,7.43,0,0,1,.852-.126c.274,0,.526-.058.768-.053l.647.026a3.584,3.584,0,0,1,.494.063l.426.074s-.158,0-.431.026a2.749,2.749,0,0,0-.484.032l-.631.084c-.226.026-.468.089-.731.132s-.526.137-.8.195-.558.174-.847.252-.573.2-.863.3-.573.216-.852.337-.558.226-.815.352c-.526.237-1.015.479-1.431.684s-.768.384-1,.526Z" transform="translate(-102.06 -349.359)"/>
        <path id="Path_9140" data-name="Path 9140" d="M103.92,358.145a8.586,8.586,0,0,1,1.183-.978,11.852,11.852,0,0,1,1.357-.81c.263-.126.526-.253.815-.368a8.613,8.613,0,0,1,.873-.31,9.023,9.023,0,0,1,.9-.231,6.773,6.773,0,0,1,.889-.142,5.786,5.786,0,0,1,.842-.047,4.894,4.894,0,0,1,.747.032l.631.084.473.116c.258.068.405.116.405.116h-1.515a5.949,5.949,0,0,0-.721.042,7.642,7.642,0,0,0-.8.11c-.274.037-.526.116-.842.179s-.568.153-.852.237a16.48,16.48,0,0,0-1.652.6c-.526.221-.994.447-1.4.647s-.742.379-.973.526Z" transform="translate(-102.458 -350.826)"/>
        <path id="Path_9141" data-name="Path 9141" d="M105.08,360.968a3.6,3.6,0,0,1,.31-.289c.205-.174.494-.421.868-.689a12.863,12.863,0,0,1,1.331-.836c.247-.142.526-.279.789-.4s.563-.237.847-.363a7.715,7.715,0,0,1,.873-.289,7.491,7.491,0,0,1,.873-.205,8.113,8.113,0,0,1,.826-.11c.268,0,.526-.042.752-.032l.631.042a2.629,2.629,0,0,1,.479.084l.41.095h-.894l-.61.058c-.221.026-.463.084-.71.116s-.526.126-.784.179-.526.168-.826.242a7.137,7.137,0,0,0-.836.295c-.279.105-.558.21-.826.331s-.526.226-.789.352c-.526.237-.973.479-1.378.684s-.742.379-.968.526Z" transform="translate(-103.008 -352.008)"/>
      </g>
      <path id="Path_9142" data-name="Path 9142" d="M101.424,362.9l6.48-4.913a.7.7,0,0,1,.563-.131l7.4,1.4a.71.71,0,0,1,.205,1.326l-6.107,3.309a.767.767,0,0,1-.321.084l-7.785.2a.71.71,0,0,1-.437-1.278Z" transform="translate(-86.338 -339.992)" fill="#ff914d"/>
      <path id="Path_9143" data-name="Path 9143" d="M123.89,349.729s9.962-24.107,11.719-25.6S148.5,329.11,148.5,329.11l-9.91,25.443Z" transform="translate(-97.122 -323.905)" fill="#ff914d"/>
      <path id="Path_9144" data-name="Path 9144" d="M127.515,349.984s9.542-23.028,10.962-24.022,9.552,3.245,9.552,3.245-8.474-5.176-11.072-4.3S125.5,349.458,125.5,349.458Z" transform="translate(-97.885 -324.333)" opacity="0.2"/>
      <rect id="Rectangle_2508" data-name="Rectangle 2508" width="42.311" height="24.985" transform="translate(7.396 23.457)" fill="#263238"/>
      <rect id="Rectangle_2509" data-name="Rectangle 2509" width="42.311" height="24.985" transform="translate(7.396 23.457)" fill="#fff" opacity="0.2"/>
      <rect id="Rectangle_2510" data-name="Rectangle 2510" width="26.268" height="24.985" transform="translate(23.439 23.457)" fill="#fff" opacity="0.4"/>
      <path id="Path_9145" data-name="Path 9145" d="M117.56,361.772l9.962-8.022,22.223,1.515-5.917,6.507Z" transform="translate(-94.121 -338.051)" fill="#263238"/>
      <path id="Path_9146" data-name="Path 9146" d="M96.439,361.179,88.911,352.5,73,354.21l7.4,6.706Z" transform="translate(-73 -337.459)" fill="#263238"/>
      <path id="Path_9147" data-name="Path 9147" d="M96.439,361.179,88.911,352.5,73,354.21l7.4,6.706Z" transform="translate(-73 -337.459)" fill="#fff" opacity="0.1"/>
      <path id="Path_9148" data-name="Path 9148" d="M117.56,361.772l9.962-8.022,22.223,1.515-5.917,6.507Z" transform="translate(-94.121 -338.051)" fill="#fff" opacity="0.4"/>
      <path id="Path_9149" data-name="Path 9149" d="M146.212,390.36a6.722,6.722,0,1,0,6.722,6.722A6.722,6.722,0,0,0,146.212,390.36Zm0,9.4a2.677,2.677,0,1,1,1.9-.782A2.683,2.683,0,0,1,146.212,399.76Z" transform="translate(-104.516 -355.404)" fill="#ff914d"/>
      <path id="Path_9150" data-name="Path 9150" d="M152.272,394.163a6.511,6.511,0,0,0-.41-.721,5.991,5.991,0,0,0-.673-.878,6.648,6.648,0,0,0-4.455-2.178,4.32,4.32,0,0,0-.526-.026,6.728,6.728,0,0,0-6.517,8.353,5.513,5.513,0,0,0,.242.757,6.054,6.054,0,0,0,.526,1.052,6.707,6.707,0,0,0,5.176,3.235c.195,0,.389.026.584.026a6.728,6.728,0,0,0,6.06-9.636Zm-6.06,5.6a2.038,2.038,0,0,1-.252,0,2.667,2.667,0,0,1-2.225-1.646,2.909,2.909,0,0,1-.147-.473,2.847,2.847,0,0,1-.037-.305,1.789,1.789,0,0,1,0-.237,2.677,2.677,0,0,1,2.677-2.683,1.14,1.14,0,0,1,.189,0,2.662,2.662,0,0,1,1.51.589,2.551,2.551,0,0,1,.295.289,2.052,2.052,0,0,1,.21.268,2.63,2.63,0,0,1,.479,1.525,2.677,2.677,0,0,1-2.7,2.672Z" transform="translate(-104.517 -355.404)" fill="#fff" opacity="0.7"/>
      <path id="Path_9151" data-name="Path 9151" d="M146.827,406.716l-.331,4.029a6.706,6.706,0,0,1-5.176-3.235l3.282-2.441a2.667,2.667,0,0,0,2.225,1.646Z" transform="translate(-105.384 -362.377)" fill="#fff" opacity="0.2"/>
      <path id="Path_9152" data-name="Path 9152" d="M157.417,392.588l-3.277,2.435a2.662,2.662,0,0,0-1.51-.589l.331-4.024A6.649,6.649,0,0,1,157.417,392.588Z" transform="translate(-110.745 -355.428)" fill="#fff" opacity="0.2"/>
      <path id="Path_9153" data-name="Path 9153" d="M143.772,403.9l-3.65,1.846a5.511,5.511,0,0,1-.242-.757l3.856-1.394A2.846,2.846,0,0,0,143.772,403.9Z" transform="translate(-104.701 -361.676)" fill="#fff" opacity="0.2"/>
      <path id="Path_9154" data-name="Path 9154" d="M160.126,396.941l-3.856,1.394a2.05,2.05,0,0,0-.21-.268l3.656-1.846A6.515,6.515,0,0,1,160.126,396.941Z" transform="translate(-112.37 -358.182)" fill="#fff" opacity="0.2"/>
      <path id="Path_9155" data-name="Path 9155" d="M157.264,393.91c-3.682,0-5.7,2.593-4.434,5.786s5.286,5.786,8.995,5.786,5.7-2.588,4.439-5.786S160.978,393.91,157.264,393.91Zm3.193,8.1a4.082,4.082,0,0,1-3.587-2.309c-.526-1.273.289-2.309,1.767-2.309a4.092,4.092,0,0,1,3.587,2.309c.51,1.273-.289,2.309-1.767,2.309Z" transform="translate(-110.661 -357.087)" fill="#ff914d"/>
      <path id="Path_9156" data-name="Path 9156" d="M164.617,397.2c-.205-.21-.421-.421-.652-.621a9.369,9.369,0,0,0-.973-.752,10.452,10.452,0,0,0-5.192-1.878h-.526c-3.682,0-5.7,2.588-4.434,5.786a6.837,6.837,0,0,0,.752,1.4,6.321,6.321,0,0,0,.526.652,8.493,8.493,0,0,0,.878.92,10.731,10.731,0,0,0,6.27,2.788h.594c3.714,0,5.7-2.593,4.445-5.786a7.963,7.963,0,0,0-1.688-2.514Zm-4.161,4.823H160.2a4.292,4.292,0,0,1-2.783-1.415,3.19,3.19,0,0,1-.305-.41,2.547,2.547,0,0,1-.142-.263,1.787,1.787,0,0,1-.095-.205c-.526-1.278.289-2.309,1.767-2.309a1.144,1.144,0,0,1,.189,0,4.046,4.046,0,0,1,1.71.526,3.866,3.866,0,0,1,.394.252,2.532,2.532,0,0,1,.3.231,3.3,3.3,0,0,1,1,1.31C162.739,400.988,161.94,402.024,160.457,402.024Z" transform="translate(-110.665 -357.106)" fill="#fff" opacity="0.1"/>
      <path id="Path_9157" data-name="Path 9157" d="M162.468,407.99l1.052,3.472a10.73,10.73,0,0,1-6.27-2.788l2.451-2.1A4.292,4.292,0,0,0,162.468,407.99Z" transform="translate(-112.935 -363.088)" fill="#fff" opacity="0.2"/>
      <path id="Path_9158" data-name="Path 9158" d="M167.783,395.818l-2.451,2.1a4.045,4.045,0,0,0-1.71-.526l-1.052-3.466A10.452,10.452,0,0,1,167.783,395.818Z" transform="translate(-115.456 -357.097)" fill="#fff" opacity="0.2"/>
      <path id="Path_9159" data-name="Path 9159" d="M158.1,405.563l-3.024,1.578a6.309,6.309,0,0,1-.526-.652l3.393-1.189A2.539,2.539,0,0,0,158.1,405.563Z" transform="translate(-111.655 -362.486)" fill="#fff" opacity="0.2"/>
      <path id="Path_9160" data-name="Path 9160" d="M172.252,399.585l-3.382,1.2a2.527,2.527,0,0,0-.3-.231l3.03-1.578A7.1,7.1,0,0,1,172.252,399.585Z" transform="translate(-118.3 -359.49)" fill="#fff" opacity="0.2"/>
    </g>
    <g id="freepik--Chair--inject-2" transform="translate(179.071 195.631)">
      <path id="Path_9161" data-name="Path 9161" d="M372.4,330l.189,8.19.863,37.046H376.3l.857-37.046.189-8.19Z" transform="translate(-355.589 -325.981)" fill="#ff914d"/>
      <path id="Path_9162" data-name="Path 9162" d="M372.4,330l.189,8.19.863,37.046H376.3l.857-37.046.189-8.19Z" transform="translate(-355.589 -325.981)" fill="#fff" opacity="0.4"/>
      <path id="Path_9163" data-name="Path 9163" d="M372.4,330l.189,8.416h4.566l.189-8.416Z" transform="translate(-355.589 -325.981)" opacity="0.2"/>
      <path id="Path_9164" data-name="Path 9164" d="M343.02,375.626l2.63-44.526h4.3l-3.682,44.526Z" transform="translate(-341.663 -326.503)" fill="#ff914d"/>
      <path id="Path_9165" data-name="Path 9165" d="M346.281,375.578H343.03l2.388-40.528.237-4.05h4.3l-.331,4.05Z" transform="translate(-341.668 -326.455)" fill="#fff" opacity="0.5"/>
      <path id="Path_9166" data-name="Path 9166" d="M352.1,331l-.331,4.208h-4.2l.237-4.208Z" transform="translate(-343.82 -326.455)" opacity="0.2"/>
      <path id="Path_9167" data-name="Path 9167" d="M401.7,375.626,398.02,331.1h4.3l2.63,44.526Z" transform="translate(-367.733 -326.503)" fill="#ff914d"/>
      <path id="Path_9168" data-name="Path 9168" d="M401.691,375.578l-3.34-40.528L398.02,331h4.3l.237,4.05,2.388,40.528Z" transform="translate(-367.733 -326.455)" fill="#fff" opacity="0.5"/>
      <path id="Path_9169" data-name="Path 9169" d="M398.02,331l.331,4.208h4.2L402.317,331Z" transform="translate(-367.733 -326.455)" opacity="0.2"/>
      <path id="Path_9170" data-name="Path 9170" d="M0,.011H35.2V3.519a2.63,2.63,0,0,1-2.63,2.63H2.63A2.63,2.63,0,0,1,0,3.519V.011Z" transform="translate(36.883 6.149) rotate(180)" fill="#ff914d"/>
      <rect id="Rectangle_2511" data-name="Rectangle 2511" width="38.572" height="3.072" rx="1.536" transform="translate(38.572 6.133) rotate(180)" fill="#ff914d"/>
      <rect id="Rectangle_2512" data-name="Rectangle 2512" width="38.572" height="3.072" rx="1.536" transform="translate(38.572 6.133) rotate(180)" fill="#fff" opacity="0.6"/>
    </g>
    <g id="freepik--Character--inject-2" transform="translate(137.308 108.233)">
      <g id="freepik--group--inject-2">
        <path id="Path_9171" data-name="Path 9171" d="M328.4,218.835s-.147.4-.416,1.052-.679,1.646-1.178,2.73c-1.21,2.63-2.967,5.975-4.8,7.78a4.945,4.945,0,0,1-1.631,1.136c-1.957.752-6.864.889-11.246.847s-8.127-.263-8.127-.263V228.8l14.407-3.84s7.6-13.708,12.1-15.738Z" transform="translate(-279.982 -181.334)" fill="#263238"/>
        <path id="Path_9172" data-name="Path 9172" d="M346.622,226.879c-.273.684-.679,1.646-1.178,2.73-1.21,2.63-2.967,5.975-4.8,7.78-1.867-6.88,5.039-13.429,5.039-13.429Z" transform="translate(-298.62 -188.32)" opacity="0.2"/>
        <path id="Path_9173" data-name="Path 9173" d="M344.461,399.286l-4.192-.573-.579-9.962,4.182.579Z" transform="translate(-298.321 -266.431)" fill="#ebb376"/>
        <path id="Path_9174" data-name="Path 9174" d="M343.872,389.333l-4.182-.573.331,5.691,4.182.368Z" transform="translate(-298.321 -266.436)" opacity="0.2"/>
        <path id="Path_9175" data-name="Path 9175" d="M335.638,290.421l1.02-6.407,23.47-1.4s2.5,13.329.579,16.879c-3.424,6.338-21.887,3.156-27.294,3.761,3.251,13.229,2.935,39,2.935,39l-7.716.589s-5.933-27.81-7.138-41.028C320.679,292.914,328.075,293.135,335.638,290.421Z" transform="translate(-289.667 -216.121)" fill="#ff914d"/>
        <path id="Path_9176" data-name="Path 9176" d="M342.438,393.275l-9.273.6-.794-3.971,10.189-.468Z" transform="translate(-294.851 -266.758)" fill="#ff914d"/>
        <path id="Path_9177" data-name="Path 9177" d="M324.2,393.045l-4.219.31-2.641-9.621,4.213-.305Z" transform="translate(-287.727 -263.909)" fill="#ebb376"/>
        <path id="Path_9178" data-name="Path 9178" d="M319.312,401.151h-.074c0-.063-.216-1.247-.726-1.525a.473.473,0,0,0-.421,0,.368.368,0,0,0-.258.384,1.578,1.578,0,0,0,.621.857,1.689,1.689,0,0,0-1.178.032.374.374,0,0,0-.147.331.526.526,0,0,0,.268.494,1.131,1.131,0,0,0,.821,0,5.259,5.259,0,0,0,1.052-.442h.037v-.032a.084.084,0,0,0,.005-.1Zm-1.268-1.178c0-.058,0-.132.142-.184h.047a.263.263,0,0,1,.226.026c.305.163.526.8.615,1.189l-.095-.026c-.416-.247-.9-.721-.936-1Zm-.552,1.546a.373.373,0,0,1-.163-.321.19.19,0,0,1,.068-.163c.242-.179,1.01-.026,1.578.142-.7.347-1.236.473-1.483.342Z" transform="translate(-287.626 -271.563)" fill="#ff914d"/>
        <path id="Path_9179" data-name="Path 9179" d="M321.553,383.43l-4.213.31,1.51,5.5,4.166-.51Z" transform="translate(-287.727 -263.909)" opacity="0.2"/>
        <path id="Path_9180" data-name="Path 9180" d="M301.754,343.3l7.427-2.2s-4.434-25.027-8.942-33.706c.337-.11.784-.253,1.336-.416.994-.3,2.314-.673,3.866-1.1,10.794-2.993,32.67-8.605,32.67-8.605l-9.994-9.326s-39.808,6.07-40.634,16.558C287.1,309.538,301.754,343.3,301.754,343.3Z" transform="translate(-273.572 -218.647)" fill="#ff914d"/>
        <path id="Path_9181" data-name="Path 9181" d="M321.056,385.941l-8.942,2.53-1.6-3.719,9.868-2.583Z" transform="translate(-284.49 -263.312)" fill="#ff914d"/>
        <path id="Path_9182" data-name="Path 9182" d="M313.182,310.493c.994-.3,2.314-.673,3.866-1.1-.31-2.546-.316-5.465.91-6.954,2.435-2.967,8.7-4.708,12.266-5.339,2.982-.526,13-1.578,13-1.578a78.812,78.812,0,0,0-26.3,2.63C310.362,300.073,311.64,306.5,313.182,310.493Z" transform="translate(-285.168 -222.148)" opacity="0.2"/>
        <path id="Path_9183" data-name="Path 9183" d="M372.785,253.113c1.578-1.2.063-12.408.868-23.428,1.226-16.779,0-22.171-1.236-22.692a47.552,47.552,0,0,0-6.906-.684,88.429,88.429,0,0,0-10.157.221,44.571,44.571,0,0,0-6.838,1.389s-5.534,17.621-2,43Z" transform="translate(-300.998 -179.927)" fill="#263238"/>
        <path id="Path_9184" data-name="Path 9184" d="M374.063,223.023h0c-.068,2.467-.216,5.328-.458,8.632-.8,11.02.7,22.224-.868,23.428l-26.274-2.193a118.466,118.466,0,0,1-.026-33.217c2.136-3.335,6.28-7.138,8.185-8.805a3.956,3.956,0,0,0,2.42,1.257c2.046.4,4.382-.526,6.312-1.7,1.525,1.52,4.418,4.6,5.686,7.19a8.275,8.275,0,0,1,.352.826c.8,2.251,3.261-.526,4.513-4.145a78.384,78.384,0,0,1,.158,8.732Z" transform="translate(-300.971 -181.903)" fill="#fff" opacity="0.8"/>
        <path id="Path_9185" data-name="Path 9185" d="M373.087,184.71c-.573,3.282-1.084,9.279,1.247,11.414a10.52,10.52,0,0,1-7.364,3.345c-4.208.184-2.788-3.156-2.788-3.156,3.629-.947,3.472-3.65,2.783-6.175Z" transform="translate(-309.821 -169.716)" fill="#ebb376"/>
        <path id="Path_9186" data-name="Path 9186" d="M373.3,188.94l-3.624,3.23a10.407,10.407,0,0,1,.352,1.794c1.389-.226,3.266-1.8,3.387-3.261A4.85,4.85,0,0,0,373.3,188.94Z" transform="translate(-312.536 -171.721)" opacity="0.2"/>
        <path id="Path_9187" data-name="Path 9187" d="M362.074,167.377c1.815,1.231.989,3.314-3.114,6.58-1.662-2.141-1.941-6.349-.615-7.4S360.5,166.309,362.074,167.377Z" transform="translate(-306.767 -160.878)" fill="#263238"/>
        <path id="Path_9188" data-name="Path 9188" d="M369.587,169.242c-.195,4.434-.089,7.033-2.283,9.347-3.3,3.477-8.805,1.541-9.936-2.861-1.01-3.956-.526-10.52,3.782-12.377a6.044,6.044,0,0,1,8.437,5.891Z" transform="translate(-306.489 -159.356)" fill="#ebb376"/>
        <path id="Path_9189" data-name="Path 9189" d="M367.727,176.922c0,.363-.179.658-.416.663s-.426-.284-.431-.647.174-.652.41-.658S367.7,176.569,367.727,176.922Z" transform="translate(-311.209 -165.72)" fill="#263238"/>
        <path id="Path_9190" data-name="Path 9190" d="M359.932,177.067c0,.358-.179.652-.416.658s-.431-.279-.437-.647.179-.658.416-.658S359.927,176.725,359.932,177.067Z" transform="translate(-307.512 -165.787)" fill="#263238"/>
        <path id="Path_9191" data-name="Path 9191" d="M361.747,177.93a12.83,12.83,0,0,1-1.667,3.109,2.1,2.1,0,0,0,1.725.295Z" transform="translate(-307.986 -166.502)" fill="#d58745"/>
        <path id="Path_9192" data-name="Path 9192" d="M369,173.942a.189.189,0,0,0,.132-.032.21.21,0,0,0,.042-.295,2.1,2.1,0,0,0-1.741-.847.2.2,0,0,0-.189.216h0a.216.216,0,0,0,.226.189h0a1.673,1.673,0,0,1,1.368.684.231.231,0,0,0,.163.084Z" transform="translate(-311.379 -164.056)" fill="#263238"/>
        <path id="Path_9193" data-name="Path 9193" d="M356.922,173.708a.216.216,0,0,0,.195-.121,1.667,1.667,0,0,1,1.173-.978.216.216,0,0,0,.179-.242.21.21,0,0,0-.237-.179,2.1,2.1,0,0,0-1.5,1.22.21.21,0,0,0,.1.279h0A.169.169,0,0,0,356.922,173.708Z" transform="translate(-306.39 -163.78)" fill="#263238"/>
        <path id="Path_9194" data-name="Path 9194" d="M376.362,166.946c-2.057.747-1.762,2.972,1.415,7.138,2.146-1.688,3.445-5.691,2.409-7.033S378.181,166.3,376.362,166.946Z" transform="translate(-315.083 -160.962)" fill="#263238"/>
        <path id="Path_9195" data-name="Path 9195" d="M381.375,179.392a4.208,4.208,0,0,1-1.962,2.556c-1.289.726-2.283-.342-2.225-1.736.058-1.262.794-3.156,2.23-3.314A1.879,1.879,0,0,1,381.375,179.392Z" transform="translate(-316.094 -166.007)" fill="#ebb376"/>
        <path id="Path_9196" data-name="Path 9196" d="M367.054,185.79a3.093,3.093,0,0,1-2.914,1.383" transform="translate(-309.91 -170.228)" fill="none" stroke="#263238" stroke-linecap="round" stroke-linejoin="round" stroke-width="0.526"/>
        <path id="Path_9197" data-name="Path 9197" d="M361.744,161.483s.663,4.439,4.939,4.734,5.192-2.362,5.192-2.362a8.177,8.177,0,0,1-1.052.084,4.384,4.384,0,0,0,0-4.208c-1.252-2.057-5.512-4.255-8.674-3.156a7.506,7.506,0,0,0-5.986.579c-2.961,1.72-2.435,5.47-2.435,5.47s-.132-2.278,1.252-2.914c0,0-1.71,4.687.852,5.939C355.826,165.633,356.079,161.02,361.744,161.483Z" transform="translate(-304.958 -156.204)" fill="#263238"/>
        <path id="Path_9198" data-name="Path 9198" d="M333.117,243.613s-15.254-.347-16.117-.431-4.476-2.1-5.26-2.214-2.83,3.156-3.088,3.913,5.786,2.809,6.37,2.719a10.882,10.882,0,0,0,1.962-.731l15.57,2Z" transform="translate(-283.606 -196.381)" fill="#ebb376"/>
        <path id="Path_9199" data-name="Path 9199" d="M271,252v1.394c0,.416.715.71,1.131.71h32.5c.421,0,1.084-.295,1.084-.71V252Z" transform="translate(-265.762 -201.611)" fill="#263238"/>
        <path id="Path_9200" data-name="Path 9200" d="M271,252v1.394c0,.416.715.71,1.131.71h32.5c.421,0,1.084-.295,1.084-.71V252Z" transform="translate(-265.762 -201.611)" fill="#fff" opacity="0.6"/>
        <path id="Path_9201" data-name="Path 9201" d="M271,252v1.394c0,.416.715.71,1.131.71h21.434c.421,0,1.1-.295,1.1-.71V252Z" transform="translate(-265.762 -201.611)" opacity="0.2"/>
        <path id="Path_9202" data-name="Path 9202" d="M261.067,218.791l3.871,17.616a1.373,1.373,0,0,0,1.257,1.052H287.32a.915.915,0,0,0,.794-1.178l-3.866-17.421a1.21,1.21,0,0,0-1.257-.863H261.867C261.3,218,260.941,218.217,261.067,218.791Z" transform="translate(-261.042 -185.492)" fill="#263238"/>
        <path id="Path_9203" data-name="Path 9203" d="M261.067,218.791l3.871,17.616a1.373,1.373,0,0,0,1.257,1.052H287.32a.915.915,0,0,0,.794-1.178l-3.866-17.421a1.21,1.21,0,0,0-1.257-.863H261.867C261.3,218,260.941,218.217,261.067,218.791Z" transform="translate(-261.042 -185.492)" fill="#fff" opacity="0.6"/>
        <path id="Path_9204" data-name="Path 9204" d="M261.067,218.791l3.871,17.616a1.373,1.373,0,0,0,1.257,1.052H286.61a.921.921,0,0,0,.8-1.178l-3.866-17.421a1.21,1.21,0,0,0-1.257-.863H261.867C261.3,218,260.941,218.217,261.067,218.791Z" transform="translate(-261.042 -185.492)" fill="#fff" opacity="0.4"/>
        <path id="Path_9205" data-name="Path 9205" d="M282.647,236.734a2.73,2.73,0,0,1-2.251-2.356c-.258-1.3.337-2.378,1.341-2.378a1.531,1.531,0,0,1,.526.105,3.019,3.019,0,0,0,1.678,2.151.771.771,0,0,1,.026.105C284.23,235.682,283.636,236.734,282.647,236.734Z" transform="translate(-270.187 -192.131)" opacity="0.2"/>
        <path id="Path_9206" data-name="Path 9206" d="M391.026,226.512h0c-2.267,3.682-5.439,7.6-8.6,7.417-3.309-.195.026-6.948,3.582-12.829a8.269,8.269,0,0,1,.352.826c.8,2.251,3.261-.526,4.513-4.145A78.368,78.368,0,0,1,391.026,226.512Z" transform="translate(-317.934 -185.391)" opacity="0.2"/>
        <path id="Path_9207" data-name="Path 9207" d="M373.765,207.66c7.8,2.809-5.891,23.933-10.147,26.111s-15.438-.331-15.438-.331l.694-6.528s8.853.6,10.615.153,5.949-9.468,8.358-13.7A13.592,13.592,0,0,1,373.765,207.66Z" transform="translate(-302.345 -180.594)" fill="#263238"/>
        <path id="Path_9208" data-name="Path 9208" d="M342.438,393.275l-9.273.6-.794-3.971,10.189-.468Z" transform="translate(-294.851 -266.758)" fill="#fff" opacity="0.2"/>
        <path id="Path_9209" data-name="Path 9209" d="M321.056,385.941l-8.942,2.53-1.6-3.719,9.868-2.583Z" transform="translate(-284.49 -263.312)" fill="#fff" opacity="0.2"/>
        <path id="Path_9210" data-name="Path 9210" d="M316.4,400.32l4.566-1.273a.305.305,0,0,1,.379.189h0l1.236,3.556a.752.752,0,0,1-.526.921c-1.6.416-2.388.526-4.4,1.084a39.093,39.093,0,0,1-5.407,1.331c-1.762.2-1.909-1.546-1.183-1.783a11.641,11.641,0,0,0,4.687-3.6A1.194,1.194,0,0,1,316.4,400.32Z" transform="translate(-284.556 -271.305)" fill="#263238"/>
        <path id="Path_9211" data-name="Path 9211" d="M337.889,406.108h0c0-.074-.074-1.268-.526-1.646a.61.61,0,0,0-.473-.11.4.4,0,0,0-.358.316,1.52,1.52,0,0,0,.416.968,1.741,1.741,0,0,0-1.168-.216.389.389,0,0,0-.216.295.526.526,0,0,0,.158.526,1.12,1.12,0,0,0,.8.158,4.9,4.9,0,0,0,1.1-.221.042.042,0,0,0,.037,0v-.032s.1,0,.105-.037.089,0,.089,0Zm-1.162-1.42c0-.058.037-.132.174-.158h.047a.268.268,0,0,1,.216.079c.268.221.342.889.358,1.289l-.084-.047a1.988,1.988,0,0,1-.71-1.162Zm-.863,1.394a.368.368,0,0,1-.079-.342.174.174,0,0,1,.105-.142c.268-.126.989.184,1.5.463a2.111,2.111,0,0,1-1.525.042Z" transform="translate(-296.357 -273.821)" fill="#ff914d"/>
        <path id="Path_9212" data-name="Path 9212" d="M334.236,406.462l4.734-.295a.295.295,0,0,1,.331.263h0l.463,3.735a.736.736,0,0,1-.689.789c-1.652.079-2.446.031-4.529.147a39.267,39.267,0,0,1-5.565.174c-1.767-.174-1.546-1.909-.784-1.994a11.558,11.558,0,0,0,5.328-2.541A1.178,1.178,0,0,1,334.236,406.462Z" transform="translate(-292.604 -274.686)" fill="#263238"/>
      </g>
    </g>
    <g id="freepik--Table--inject-2" transform="translate(121.858 160.51)">
      <path id="Path_9213" data-name="Path 9213" d="M299.636,343.359h3.219l.531-80.609H299.11Z" transform="translate(-263.637 -258.984)" fill="#ff914d"/>
      <path id="Path_9214" data-name="Path 9214" d="M299.1,263l.084,13.008.442,67.47h3.224l.442-67.47L303.376,263Z" transform="translate(-263.632 -259.102)" fill="#fff" opacity="0.4"/>
      <path id="Path_9215" data-name="Path 9215" d="M299.1,263l.084,13.15h4.108l.084-13.15Z" transform="translate(-263.632 -259.102)" opacity="0.2"/>
      <path id="Path_9216" data-name="Path 9216" d="M235.07,343.359h3.219l5.791-80.609H239.8Z" transform="translate(-233.282 -258.984)" fill="#ff914d"/>
      <path id="Path_9217" data-name="Path 9217" d="M235.06,343.478h3.224l5.507-76.6.284-3.877H239.8l-.231,3.877Z" transform="translate(-233.277 -259.102)" fill="#fff" opacity="0.5"/>
      <path id="Path_9218" data-name="Path 9218" d="M243.63,266.682h4.224l.284-3.682h-4.276Z" transform="translate(-237.339 -259.102)" opacity="0.2"/>
      <path id="Path_9219" data-name="Path 9219" d="M359.931,343.359h3.219l-4.734-80.609H354.14Z" transform="translate(-289.721 -258.984)" fill="#ff914d"/>
      <path id="Path_9220" data-name="Path 9220" d="M354.14,263l.284,3.877,5.507,76.6h3.219l-4.5-76.6L358.416,263Z" transform="translate(-289.721 -259.102)" fill="#fff" opacity="0.5"/>
      <path id="Path_9221" data-name="Path 9221" d="M358.416,263H354.14l.284,3.682h4.224Z" transform="translate(-289.721 -259.102)" opacity="0.2"/>
      <path id="Path_9222" data-name="Path 9222" d="M1.136,0H67.812a1.136,1.136,0,0,1,1.136,1.136v2.9H0v-2.9A1.136,1.136,0,0,1,1.136,0Z" transform="translate(72.083 5.786) rotate(180)" fill="#ff914d"/>
      <path id="Path_9223" data-name="Path 9223" d="M1.136,0H67.812a1.136,1.136,0,0,1,1.136,1.136v2.9H0v-2.9A1.136,1.136,0,0,1,1.136,0Z" transform="translate(72.083 5.786) rotate(180)" fill="#fff" opacity="0.6"/>
      <rect id="Rectangle_2513" data-name="Rectangle 2513" width="68.948" height="2.02" transform="translate(72.083 3.766) rotate(180)" opacity="0.2"/>
      <path id="Path_9224" data-name="Path 9224" d="M232.806,257.868h72.946a1.141,1.141,0,0,0,1.136-1.141h0a1.136,1.136,0,0,0-1.136-1.136H232.806a1.136,1.136,0,0,0-1.136,1.136h0a1.141,1.141,0,0,0,1.136,1.141Z" transform="translate(-231.67 -255.59)" fill="#ff914d"/>
      <path id="Path_9225" data-name="Path 9225" d="M232.806,257.868h72.946a1.141,1.141,0,0,0,1.136-1.141h0a1.136,1.136,0,0,0-1.136-1.136H232.806a1.136,1.136,0,0,0-1.136,1.136h0a1.141,1.141,0,0,0,1.136,1.141Z" transform="translate(-231.67 -255.59)" fill="#fff" opacity="0.6"/>
    </g>
  </g>
</svg>
