<svg xmlns="http://www.w3.org/2000/svg" width="19.647" height="16.559" viewBox="0 0 19.647 16.559">
  <path id="Icon_ionic-ios-share-alt" data-name="Icon ionic-ios-share-alt" d="M22.98,13.274,16.131,6.866a.35.35,0,0,0-.272-.117c-.214.01-.485.16-.485.388v3.213a.207.207,0,0,1-.175.2C8.389,11.594,5.52,16.691,4.505,21.982c-.039.209.243.4.374.238A12.379,12.379,0,0,1,15.17,17.007a.24.24,0,0,1,.2.233v3.155a.417.417,0,0,0,.7.257l6.9-6.519a.536.536,0,0,0,.17-.408A.65.65,0,0,0,22.98,13.274Z" transform="translate(-3.999 -6.249)" fill="none" stroke="#fff" stroke-width="1"/>
</svg>
