<svg xmlns="http://www.w3.org/2000/svg" width="21.538" height="21.532" viewBox="0 0 21.538 21.532">
  <path id="Icon_awesome-star" data-name="Icon awesome-star" d="M10.6.713l-2.5,5.3-5.6.853a1.3,1.3,0,0,0-.679,2.187l4.052,4.126L4.907,19.01a1.238,1.238,0,0,0,1.779,1.35L11.7,17.608l5.011,2.752a1.239,1.239,0,0,0,1.779-1.35l-.958-5.828L21.58,9.056A1.3,1.3,0,0,0,20.9,6.869l-5.6-.853L12.8.713A1.205,1.205,0,0,0,10.6.713Z" transform="translate(-0.928 0.501)" fill="none" stroke="#000" stroke-width="1"/>
</svg>
