<svg xmlns="http://www.w3.org/2000/svg" width="230.756" height="231.168" viewBox="0 0 230.756 231.168">
  <g id="Dropshipping_model-bro" data-name="Dropshipping model-bro" transform="translate(-38.315 -42.807)">
    <g id="freepik--Arrows--inject-93" transform="translate(60.266 56.799)">
      <path id="Path_5" data-name="Path 5" d="M178.375,310.924H100.291a6.831,6.831,0,0,1-6.831-6.831V261" transform="translate(-90.68 -159.447)" fill="none" stroke="#263238" stroke-linecap="round" stroke-linejoin="round" stroke-width="1" stroke-dasharray="4 4"/>
      <path id="Path_6" data-name="Path 6" d="M94.031,258.664l-2.78-4.814-2.78,4.814Z" transform="translate(-88.47 -156.281)" fill="#263238"/>
      <path id="Path_7" data-name="Path 7" d="M93.84,117.591V90.562a6.831,6.831,0,0,1,6.831-6.842h71.186" transform="translate(-90.848 -80.945)" fill="none" stroke="#263238" stroke-linecap="round" stroke-linejoin="round" stroke-width="1" stroke-dasharray="4 4"/>
      <path id="Path_8" data-name="Path 8" d="M232.4,84.3l4.809-2.78L232.4,78.74Z" transform="translate(-152.204 -78.74)" fill="#263238"/>
      <path id="Path_9" data-name="Path 9" d="M373.924,163.72v96.549A6.826,6.826,0,0,1,367.1,267.1H326.82" transform="translate(-194.015 -116.37)" fill="none" stroke="#263238" stroke-linecap="round" stroke-linejoin="round" stroke-width="1" stroke-dasharray="4 4"/>
      <path id="Path_10" data-name="Path 10" d="M324.458,344.23l-4.808,2.78,4.808,2.775Z" transform="translate(-190.84 -196.303)" fill="#263238"/>
    </g>
    <g id="freepik--Box--inject-93" transform="translate(212.746 147.364)">
      <rect id="Rectangle_2" data-name="Rectangle 2" width="10.637" height="29.77" transform="translate(47.606 29.77) rotate(180)" fill="#ff914d" stroke="#263238" stroke-linecap="round" stroke-linejoin="round" stroke-width="1"/>
      <path id="Path_11" data-name="Path 11" d="M433.611,251.471h10.637l-5.126-10.191H428.49Z" transform="translate(-391.515 -241.28)" fill="#ff914d" stroke="#263238" stroke-linecap="round" stroke-linejoin="round" stroke-width="1"/>
      <path id="Path_12" data-name="Path 12" d="M372.761,251.471H362.13l6.948-10.191h10.631Z" transform="translate(-362.13 -241.28)" fill="#92e3a9" stroke="#263238" stroke-linecap="round" stroke-linejoin="round" stroke-width="1"/>
      <rect id="Rectangle_3" data-name="Rectangle 3" width="29.77" height="29.77" transform="translate(7.199 0)" fill="#ff914d" stroke="#263238" stroke-linecap="round" stroke-linejoin="round" stroke-width="1"/>
      <path id="Path_13" data-name="Path 13" d="M397.126,251.967H367.35l4.29-10.687h29.776Z" transform="translate(-364.441 -241.28)" fill="#ff914d" stroke="#263238" stroke-linecap="round" stroke-linejoin="round" stroke-width="1"/>
      <rect id="Rectangle_4" data-name="Rectangle 4" width="7.143" height="4.563" transform="translate(26.594 18.677)" fill="#fff" stroke="#263238" stroke-linecap="round" stroke-linejoin="round" stroke-width="1"/>
    </g>
    <g id="freepik--3--inject-93" transform="translate(241.744 99.692)">
      <circle id="Ellipse_1" data-name="Ellipse 1" cx="10.091" cy="10.091" r="10.091" transform="matrix(0.473, -0.881, 0.881, 0.473, 0, 17.781)" fill="#ff914d"/>
      <path id="Path_14" data-name="Path 14" d="M436.318,182.811a3.343,3.343,0,0,1-1.861-.446,2.44,2.44,0,0,1-.964-1.248,5.5,5.5,0,0,1-.284-1.844v-.429h2.329v.407a4.9,4.9,0,0,0,.067.9.925.925,0,0,0,.251.513.741.741,0,0,0,.5.156.624.624,0,0,0,.479-.167.876.876,0,0,0,.217-.5,5.019,5.019,0,0,0,.056-.836,2.825,2.825,0,0,0-.228-1.27,1,1,0,0,0-.953-.457h-.435v-1.6h.384a1.064,1.064,0,0,0,.986-.407,2.429,2.429,0,0,0,.251-1.254,2.3,2.3,0,0,0-.173-1,.663.663,0,0,0-.646-.345.557.557,0,0,0-.607.39,2.847,2.847,0,0,0-.145,1v.557h-2.329v-.685a3.666,3.666,0,0,1,.368-1.716,2.512,2.512,0,0,1,1.059-1.07,3.555,3.555,0,0,1,1.672-.362,3.7,3.7,0,0,1,1.672.351,2.468,2.468,0,0,1,1.07,1.025,3.41,3.41,0,0,1,.379,1.672,3.165,3.165,0,0,1-.407,1.672,1.671,1.671,0,0,1-.975.825,1.883,1.883,0,0,1,.7.446,2.028,2.028,0,0,1,.5.83,4.044,4.044,0,0,1,.184,1.326,5.129,5.129,0,0,1-.3,1.828,2.568,2.568,0,0,1-.981,1.248A3.243,3.243,0,0,1,436.318,182.811Z" transform="translate(-422.603 -162.53)" fill="#263238"/>
    </g>
    <g id="freepik--2--inject-93" transform="translate(38.43 73.336)">
      <circle id="Ellipse_2" data-name="Ellipse 2" cx="10.091" cy="10.091" r="10.091" transform="translate(0 0)" fill="#ff914d"/>
      <path id="Path_15" data-name="Path 15" d="M61.982,128.907v-1.644l2.7-4.151c.206-.306.4-.6.557-.891a4.982,4.982,0,0,0,.446-.875,2.518,2.518,0,0,0,.173-.936,1.114,1.114,0,0,0-.2-.724.652.652,0,0,0-.557-.234.791.791,0,0,0-.557.206,1.114,1.114,0,0,0-.284.557,3.733,3.733,0,0,0-.078.78v.557H61.96v-.6a4.736,4.736,0,0,1,.323-1.789,2.619,2.619,0,0,1,1.014-1.243,3.343,3.343,0,0,1,1.828-.451,3.07,3.07,0,0,1,2.29.786,2.992,2.992,0,0,1,.774,2.2,3.588,3.588,0,0,1-.217,1.265,6.018,6.018,0,0,1-.557,1.114c-.24.368-.49.752-.763,1.148l-2.062,3.081h3.3v1.844Z" transform="translate(-54.894 -112.425)" fill="#263238"/>
    </g>
    <g id="freepik--1--inject-93" transform="translate(120.47 176.276)">
      <circle id="Ellipse_3" data-name="Ellipse 3" cx="10.091" cy="10.091" r="10.091" fill="#ff914d"/>
      <path id="Path_16" data-name="Path 16" d="M211.859,313.823v-8.987a3.49,3.49,0,0,1-.351.167l-.407.178-.418.173c-.139.056-.262.111-.373.167v-1.727l.435-.228c.184-.1.384-.206.6-.329s.418-.245.6-.368a3.223,3.223,0,0,0,.418-.329h1.822v11.283Z" transform="translate(-202.626 -297.319)" fill="#263238"/>
    </g>
    <g id="freepik--Supplier--inject-93" transform="translate(150.346 44.63)">
      <rect id="Rectangle_5" data-name="Rectangle 5" width="65.297" height="36.39" transform="translate(101.268 54.404) rotate(180)" fill="#263238" stroke="#263238" stroke-linecap="round" stroke-linejoin="round" stroke-width="1"/>
      <rect id="Rectangle_6" data-name="Rectangle 6" width="69.13" height="36.39" transform="translate(72.534 54.404) rotate(180)" fill="#fff" stroke="#263238" stroke-linecap="round" stroke-linejoin="round" stroke-width="1"/>
      <rect id="Rectangle_7" data-name="Rectangle 7" width="11.394" height="22.443" transform="translate(63.686 54.409) rotate(180)" fill="#fff" stroke="#263238" stroke-linecap="round" stroke-linejoin="round" stroke-width="1"/>
      <rect id="Rectangle_8" data-name="Rectangle 8" width="9.522" height="22.443" transform="translate(63.686 54.409) rotate(180)" fill="#263238" stroke="#263238" stroke-linecap="round" stroke-linejoin="round" stroke-width="1"/>
      <rect id="Rectangle_9" data-name="Rectangle 9" width="11.394" height="22.443" transform="translate(43.282 54.409) rotate(180)" fill="#fff" stroke="#263238" stroke-linecap="round" stroke-linejoin="round" stroke-width="1"/>
      <rect id="Rectangle_10" data-name="Rectangle 10" width="9.522" height="22.443" transform="translate(43.282 54.409) rotate(180)" fill="#263238" stroke="#263238" stroke-linecap="round" stroke-linejoin="round" stroke-width="1"/>
      <rect id="Rectangle_11" data-name="Rectangle 11" width="11.394" height="22.443" transform="translate(22.878 54.409) rotate(180)" fill="#fff" stroke="#263238" stroke-linecap="round" stroke-linejoin="round" stroke-width="1"/>
      <rect id="Rectangle_12" data-name="Rectangle 12" width="9.522" height="22.443" transform="translate(22.872 54.409) rotate(180)" fill="#263238" stroke="#263238" stroke-linecap="round" stroke-linejoin="round" stroke-width="1"/>
      <rect id="Rectangle_13" data-name="Rectangle 13" width="6.213" height="5.7" transform="translate(98.644 27.882) rotate(180)" fill="#fff" stroke="#263238" stroke-linecap="round" stroke-linejoin="round" stroke-width="1"/>
      <rect id="Rectangle_14" data-name="Rectangle 14" width="6.213" height="5.7" transform="translate(90.242 27.882) rotate(180)" fill="#fff" stroke="#263238" stroke-linecap="round" stroke-linejoin="round" stroke-width="1"/>
      <rect id="Rectangle_15" data-name="Rectangle 15" width="6.213" height="5.7" transform="translate(81.845 27.882) rotate(180)" fill="#fff" stroke="#263238" stroke-linecap="round" stroke-linejoin="round" stroke-width="1"/>
      <rect id="Rectangle_16" data-name="Rectangle 16" width="9.283" height="5.7" transform="translate(62.767 27.882) rotate(180)" fill="#fff" stroke="#263238" stroke-linecap="round" stroke-linejoin="round" stroke-width="1"/>
      <rect id="Rectangle_17" data-name="Rectangle 17" width="9.283" height="5.7" transform="translate(63.302 27.882) rotate(180)" fill="#fff" stroke="#263238" stroke-linecap="round" stroke-linejoin="round" stroke-width="1"/>
      <rect id="Rectangle_18" data-name="Rectangle 18" width="9.283" height="5.7" transform="translate(42.38 27.882) rotate(180)" fill="#fff" stroke="#263238" stroke-linecap="round" stroke-linejoin="round" stroke-width="1"/>
      <rect id="Rectangle_19" data-name="Rectangle 19" width="9.283" height="5.7" transform="translate(42.914 27.882) rotate(180)" fill="#fff" stroke="#263238" stroke-linecap="round" stroke-linejoin="round" stroke-width="1"/>
      <rect id="Rectangle_20" data-name="Rectangle 20" width="9.283" height="5.7" transform="translate(21.992 27.882) rotate(180)" fill="#fff" stroke="#263238" stroke-linecap="round" stroke-linejoin="round" stroke-width="1"/>
      <rect id="Rectangle_21" data-name="Rectangle 21" width="9.283" height="5.7" transform="translate(22.527 27.882) rotate(180)" fill="#fff" stroke="#263238" stroke-linecap="round" stroke-linejoin="round" stroke-width="1"/>
      <rect id="Rectangle_22" data-name="Rectangle 22" width="8.269" height="4.786" transform="translate(110.445 32.606) rotate(180)" fill="#ff914d" stroke="#263238" stroke-linecap="round" stroke-linejoin="round" stroke-width="1"/>
      <rect id="Rectangle_23" data-name="Rectangle 23" width="8.269" height="4.786" transform="translate(107.843 32.606) rotate(180)" fill="#ff914d" stroke="#263238" stroke-linecap="round" stroke-linejoin="round" stroke-width="1"/>
      <rect id="Rectangle_24" data-name="Rectangle 24" width="20.387" height="23.892" transform="translate(112.457 54.409) rotate(180)" fill="#263238" stroke="#263238" stroke-linecap="round" stroke-linejoin="round" stroke-width="1"/>
      <rect id="Rectangle_25" data-name="Rectangle 25" width="20.387" height="23.892" transform="translate(97.329 54.409) rotate(180)" fill="#ff914d" stroke="#263238" stroke-linecap="round" stroke-linejoin="round" stroke-width="1"/>
      <rect id="Rectangle_26" data-name="Rectangle 26" width="5.483" height="8.77" transform="translate(89.874 54.404) rotate(180)" fill="#263238" stroke="#263238" stroke-linecap="round" stroke-linejoin="round" stroke-width="1"/>
      <rect id="Rectangle_27" data-name="Rectangle 27" width="3.393" height="16.22" transform="translate(102.695 49.584) rotate(180)" fill="#ff914d" stroke="#263238" stroke-linecap="round" stroke-linejoin="round" stroke-width="1"/>
      <rect id="Rectangle_28" data-name="Rectangle 28" width="3.393" height="16.22" transform="translate(107.024 49.584) rotate(180)" fill="#ff914d" stroke="#263238" stroke-linecap="round" stroke-linejoin="round" stroke-width="1"/>
      <rect id="Rectangle_29" data-name="Rectangle 29" width="3.393" height="16.22" transform="translate(111.359 49.584) rotate(180)" fill="#ff914d" stroke="#263238" stroke-linecap="round" stroke-linejoin="round" stroke-width="1"/>
      <rect id="Rectangle_30" data-name="Rectangle 30" width="4.881" height="32.528" transform="translate(70.256 54.259) rotate(180)" fill="#fff" stroke="#263238" stroke-linecap="round" stroke-linejoin="round" stroke-width="1"/>
      <rect id="Rectangle_31" data-name="Rectangle 31" width="4.881" height="32.528" transform="translate(69.487 54.259) rotate(180)" fill="#ff914d" stroke="#263238" stroke-width="1"/>
      <rect id="Rectangle_32" data-name="Rectangle 32" width="4.881" height="32.528" transform="translate(50.353 54.259) rotate(180)" fill="#fff" stroke="#263238" stroke-linecap="round" stroke-linejoin="round" stroke-width="1"/>
      <rect id="Rectangle_33" data-name="Rectangle 33" width="4.881" height="32.528" transform="translate(49.59 54.259) rotate(180)" fill="#ff914d" stroke="#263238" stroke-width="1"/>
      <rect id="Rectangle_34" data-name="Rectangle 34" width="4.881" height="32.528" transform="translate(29.977 54.259) rotate(180)" fill="#fff" stroke="#263238" stroke-linecap="round" stroke-linejoin="round" stroke-width="1"/>
      <rect id="Rectangle_35" data-name="Rectangle 35" width="4.881" height="32.528" transform="translate(29.213 54.259) rotate(180)" fill="#ff914d" stroke="#263238" stroke-width="1"/>
      <rect id="Rectangle_36" data-name="Rectangle 36" width="4.881" height="32.528" transform="translate(9.578 54.259) rotate(180)" fill="#fff" stroke="#263238" stroke-linecap="round" stroke-linejoin="round" stroke-width="1"/>
      <rect id="Rectangle_37" data-name="Rectangle 37" width="4.881" height="32.528" transform="translate(8.809 54.259) rotate(180)" fill="#ff914d" stroke="#263238" stroke-width="1"/>
      <path id="Path_17" data-name="Path 17" d="M341.309,56.9H311.762L303.17,75.114h76.279Z" transform="translate(-273.622 -56.9)" fill="#263238" stroke="#263238" stroke-linecap="round" stroke-linejoin="round" stroke-width="1"/>
      <path id="Path_18" data-name="Path 18" d="M288.279,56.9,250.14,75.114h76.279Z" transform="translate(-250.14 -56.9)" fill="#fff" stroke="#263238" stroke-linecap="round" stroke-linejoin="round" stroke-width="1"/>
      <path id="Path_19" data-name="Path 19" d="M288.279,59.006,322,75.114h4.418L288.279,56.9,250.14,75.114h4.418Z" transform="translate(-250.14 -56.9)" fill="#fff" stroke="#263238" stroke-linecap="round" stroke-linejoin="round" stroke-width="1"/>
    </g>
    <g id="freepik--Store--inject-93" transform="translate(38.815 98.928)">
      <rect id="Rectangle_38" data-name="Rectangle 38" width="52.247" height="35.376" transform="translate(0.724 14.693)" fill="#fff" stroke="#263238" stroke-linecap="round" stroke-linejoin="round" stroke-width="1"/>
      <line id="Line_1" data-name="Line 1" x2="18.538" transform="translate(0.836 42.43)" fill="none" stroke="#263238" stroke-linecap="round" stroke-linejoin="round" stroke-width="1"/>
      <line id="Line_2" data-name="Line 2" x2="18.538" transform="translate(0.836 46.308)" fill="none" stroke="#263238" stroke-linecap="round" stroke-linejoin="round" stroke-width="1"/>
      <line id="Line_3" data-name="Line 3" y2="3.572" transform="translate(4.652 38.797)" fill="none" stroke="#263238" stroke-linecap="round" stroke-linejoin="round" stroke-width="1"/>
      <line id="Line_4" data-name="Line 4" y2="3.572" transform="translate(4.652 46.369)" fill="none" stroke="#263238" stroke-linecap="round" stroke-linejoin="round" stroke-width="1"/>
      <line id="Line_5" data-name="Line 5" y2="3.572" transform="translate(12.893 38.797)" fill="none" stroke="#263238" stroke-linecap="round" stroke-linejoin="round" stroke-width="1"/>
      <line id="Line_6" data-name="Line 6" y2="3.572" transform="translate(8.531 42.675)" fill="none" stroke="#263238" stroke-linecap="round" stroke-linejoin="round" stroke-width="1"/>
      <line id="Line_7" data-name="Line 7" y2="3.572" transform="translate(17.434 42.675)" fill="none" stroke="#263238" stroke-linecap="round" stroke-linejoin="round" stroke-width="1"/>
      <line id="Line_8" data-name="Line 8" y2="3.572" transform="translate(1.382 42.675)" fill="none" stroke="#263238" stroke-linecap="round" stroke-linejoin="round" stroke-width="1"/>
      <line id="Line_9" data-name="Line 9" y2="3.572" transform="translate(12.893 46.369)" fill="none" stroke="#263238" stroke-linecap="round" stroke-linejoin="round" stroke-width="1"/>
      <line id="Line_10" data-name="Line 10" x1="18.538" transform="translate(34.155 42.43)" fill="none" stroke="#263238" stroke-linecap="round" stroke-linejoin="round" stroke-width="1"/>
      <line id="Line_11" data-name="Line 11" x1="18.538" transform="translate(34.155 46.308)" fill="none" stroke="#263238" stroke-linecap="round" stroke-linejoin="round" stroke-width="1"/>
      <line id="Line_12" data-name="Line 12" y2="3.572" transform="translate(48.876 38.797)" fill="none" stroke="#263238" stroke-linecap="round" stroke-linejoin="round" stroke-width="1"/>
      <line id="Line_13" data-name="Line 13" y2="3.572" transform="translate(48.876 46.369)" fill="none" stroke="#263238" stroke-linecap="round" stroke-linejoin="round" stroke-width="1"/>
      <line id="Line_14" data-name="Line 14" y2="3.572" transform="translate(40.636 38.797)" fill="none" stroke="#263238" stroke-linecap="round" stroke-linejoin="round" stroke-width="1"/>
      <line id="Line_15" data-name="Line 15" y2="3.572" transform="translate(44.998 42.675)" fill="none" stroke="#263238" stroke-linecap="round" stroke-linejoin="round" stroke-width="1"/>
      <line id="Line_16" data-name="Line 16" y2="3.572" transform="translate(36.094 42.675)" fill="none" stroke="#263238" stroke-linecap="round" stroke-linejoin="round" stroke-width="1"/>
      <line id="Line_17" data-name="Line 17" y2="3.572" transform="translate(52.147 42.675)" fill="none" stroke="#263238" stroke-linecap="round" stroke-linejoin="round" stroke-width="1"/>
      <line id="Line_18" data-name="Line 18" y2="3.572" transform="translate(40.636 46.369)" fill="none" stroke="#263238" stroke-linecap="round" stroke-linejoin="round" stroke-width="1"/>
      <rect id="Rectangle_39" data-name="Rectangle 39" width="17.64" height="22.828" transform="translate(34.785 15.718)" fill="#fff" stroke="#263238" stroke-linecap="round" stroke-linejoin="round" stroke-width="1"/>
      <rect id="Rectangle_40" data-name="Rectangle 40" width="17.64" height="22.828" transform="translate(1.293 15.718)" fill="#fff" stroke="#263238" stroke-linecap="round" stroke-linejoin="round" stroke-width="1"/>
      <path id="Path_20" data-name="Path 20" d="M130.04,191.926l-17.64,6.162V182.56h17.64Z" transform="translate(-77.615 -166.842)" fill="#263238" stroke="#263238" stroke-linecap="round" stroke-linejoin="round" stroke-width="1"/>
      <path id="Path_21" data-name="Path 21" d="M69.93,191.926l-17.64,7.321V182.56H69.93Z" transform="translate(-50.997 -166.842)" fill="#263238" stroke="#263238" stroke-linecap="round" stroke-linejoin="round" stroke-width="1"/>
      <rect id="Rectangle_41" data-name="Rectangle 41" width="14.426" height="35.376" transform="translate(19.641 14.693)" fill="#ff914d" stroke="#263238" stroke-linecap="round" stroke-linejoin="round" stroke-width="1"/>
      <path id="Path_22" data-name="Path 22" d="M86.68,199.858l12.793-5.583V183.12H86.68Z" transform="translate(-66.226 -167.09)" fill="#263238"/>
      <path id="Path_23" data-name="Path 23" d="M103.85,172.936H49.97L53.2,161.62h47.411Z" transform="translate(-49.97 -157.569)" fill="#ff914d" stroke="#263238" stroke-linecap="round" stroke-linejoin="round" stroke-width="1"/>
      <path id="Path_24" data-name="Path 24" d="M50,182v.2a2.987,2.987,0,1,0,5.973,0V182Z" transform="translate(-49.983 -166.594)" fill="#fff" stroke="#263238" stroke-linecap="round" stroke-linejoin="round" stroke-width="1"/>
      <path id="Path_25" data-name="Path 25" d="M60.71,182v.2a2.987,2.987,0,1,0,5.973,0V182Z" transform="translate(-54.726 -166.594)" fill="#ff914d" stroke="#263238" stroke-linecap="round" stroke-linejoin="round" stroke-width="1"/>
      <path id="Path_26" data-name="Path 26" d="M71.45,182v.2a2.987,2.987,0,1,0,5.973,0V182Z" transform="translate(-59.482 -166.594)" fill="#fff" stroke="#263238" stroke-linecap="round" stroke-linejoin="round" stroke-width="1"/>
      <path id="Path_27" data-name="Path 27" d="M82.19,182v.2a2.987,2.987,0,1,0,5.973,0V182Z" transform="translate(-64.237 -166.594)" fill="#ff914d" stroke="#263238" stroke-linecap="round" stroke-linejoin="round" stroke-width="1"/>
      <path id="Path_28" data-name="Path 28" d="M92.928,182v.2a2.987,2.987,0,1,0,5.967,0V182Z" transform="translate(-68.991 -166.594)" fill="#fff" stroke="#263238" stroke-linecap="round" stroke-linejoin="round" stroke-width="1"/>
      <path id="Path_29" data-name="Path 29" d="M103.668,182v.2a2.987,2.987,0,1,0,5.967,0V182Z" transform="translate(-73.747 -166.594)" fill="#ff914d" stroke="#263238" stroke-linecap="round" stroke-linejoin="round" stroke-width="1"/>
      <path id="Path_30" data-name="Path 30" d="M114.408,182v.2a2.987,2.987,0,1,0,5.967,0c0-.067,0-.128,0-.2Z" transform="translate(-78.503 -166.594)" fill="#fff" stroke="#263238" stroke-linecap="round" stroke-linejoin="round" stroke-width="1"/>
      <path id="Path_31" data-name="Path 31" d="M125.148,182v.2a2.987,2.987,0,1,0,5.967,0c0-.067,0-.128,0-.2Z" transform="translate(-83.259 -166.594)" fill="#ff914d" stroke="#263238" stroke-linecap="round" stroke-linejoin="round" stroke-width="1"/>
      <path id="Path_32" data-name="Path 32" d="M135.878,182v.2a2.987,2.987,0,1,0,5.967,0V182Z" transform="translate(-88.01 -166.594)" fill="#fff" stroke="#263238" stroke-linecap="round" stroke-linejoin="round" stroke-width="1"/>
      <path id="Path_33" data-name="Path 33" d="M58.11,161.62l-2.123,11.316H49.97L53.2,161.62Z" transform="translate(-49.97 -157.569)" fill="#fff" stroke="#263238" stroke-linecap="round" stroke-linejoin="round" stroke-width="1"/>
      <path id="Path_34" data-name="Path 34" d="M71.45,173.062,72.6,161.84H78.03l-.6,11.222Z" transform="translate(-59.482 -157.667)" fill="#fff" stroke="#263238" stroke-linecap="round" stroke-linejoin="round" stroke-width="1"/>
      <path id="Path_35" data-name="Path 35" d="M92.87,172.942,93.1,161.57h5.466l.323,11.372Z" transform="translate(-68.967 -157.547)" fill="#fff" stroke="#263238" stroke-linecap="round" stroke-linejoin="round" stroke-width="1"/>
      <path id="Path_36" data-name="Path 36" d="M112.56,161.66l1.031,11.322h5.979l-1.594-11.322Z" transform="translate(-77.686 -157.587)" fill="#fff" stroke="#263238" stroke-linecap="round" stroke-linejoin="round" stroke-width="1"/>
      <path id="Path_37" data-name="Path 37" d="M134.087,172.964l-2.257-11.322,5.031-.022,3.176,11.344Z" transform="translate(-86.219 -157.569)" fill="#fff" stroke="#263238" stroke-linecap="round" stroke-linejoin="round" stroke-width="1"/>
      <path id="Path_38" data-name="Path 38" d="M108.88,212.135a.875.875,0,1,0-.875.875A.875.875,0,0,0,108.88,212.135Z" transform="translate(-75.281 -179.551)" fill="#263238"/>
      <path id="Path_39" data-name="Path 39" d="M108.746,212.653a.223.223,0,1,0-.223.223A.223.223,0,0,0,108.746,212.653Z" transform="translate(-75.799 -180.069)" fill="#263238"/>
      <path id="Path_40" data-name="Path 40" d="M57.378,154.35H101.4a1.922,1.922,0,0,1,1.922,1.922v2.34H55.45v-2.34a1.922,1.922,0,0,1,1.928-1.922Z" transform="translate(-52.397 -154.35)" fill="#ff914d" stroke="#263238" stroke-linecap="round" stroke-linejoin="round" stroke-width="1"/>
    </g>
    <g id="freepik--coin-2--inject-93" transform="translate(90.719 43.458)">
      <circle id="Ellipse_4" data-name="Ellipse 4" cx="14.999" cy="14.999" r="14.999" transform="translate(1.201 1.2)" fill="#fff" stroke="#263238" stroke-linecap="round" stroke-linejoin="round" stroke-width="1"/>
      <circle id="Ellipse_5" data-name="Ellipse 5" cx="12.425" cy="12.425" r="12.425" transform="translate(0 23.012) rotate(-67.82)" fill="#fff" stroke="#263238" stroke-linecap="round" stroke-linejoin="round" stroke-width="1"/>
      <path id="Path_41" data-name="Path 41" d="M169.26,85.518V83.964a3.187,3.187,0,0,1-2.424-1.042,4.77,4.77,0,0,1-.841-2.97l2.4-.362a6.068,6.068,0,0,0,.145,1.315,1.4,1.4,0,0,0,.368.724.847.847,0,0,0,.585.217.557.557,0,0,0,.557-.3,1.521,1.521,0,0,0,.134-.63,2.307,2.307,0,0,0-.368-1.326,5.806,5.806,0,0,0-1.014-1.114l-1.131-.919a9.673,9.673,0,0,1-.858-.869,3.628,3.628,0,0,1-.618-1.036,3.778,3.778,0,0,1-.2-1.438,3.143,3.143,0,0,1,.853-2.335,3.527,3.527,0,0,1,2.3-.958V69.46h.747v1.471a2.881,2.881,0,0,1,1.46.418,2.418,2.418,0,0,1,.825.908,4.08,4.08,0,0,1,.373,1.148,8.515,8.515,0,0,1,.117,1.114l-2.429.3a9.462,9.462,0,0,0-.072-.986,1.36,1.36,0,0,0-.217-.652.557.557,0,0,0-.524-.212.635.635,0,0,0-.557.329,1.354,1.354,0,0,0-.184.663,1.845,1.845,0,0,0,.384,1.215,8.779,8.779,0,0,0,.836.869l1.07.925A10.129,10.129,0,0,1,171.956,78a4.675,4.675,0,0,1,.724,1.231,4.33,4.33,0,0,1,.262,1.555,3.342,3.342,0,0,1-.345,1.521,2.814,2.814,0,0,1-.986,1.114,3.3,3.3,0,0,1-1.538.524v1.571Z" transform="translate(-153.248 -61.29)" fill="#263238"/>
    </g>
    <g id="freepik--coin-1--inject-93" transform="translate(75.394 192.585)">
      <circle id="Ellipse_6" data-name="Ellipse 6" cx="14.999" cy="14.999" r="14.999" transform="translate(0)" fill="#fff" stroke="#263238" stroke-linecap="round" stroke-linejoin="round" stroke-width="1"/>
      <circle id="Ellipse_7" data-name="Ellipse 7" cx="12.425" cy="12.425" r="12.425" transform="translate(2.574 2.574)" fill="#fff" stroke="#263238" stroke-linecap="round" stroke-linejoin="round" stroke-width="1"/>
      <path id="Path_42" data-name="Path 42" d="M139.549,351.03v-1.543a3.2,3.2,0,0,1-2.424-1.042,4.836,4.836,0,0,1-.875-2.975l2.4-.362a6.175,6.175,0,0,0,.139,1.321,1.365,1.365,0,0,0,.373.719.825.825,0,0,0,.557.223.557.557,0,0,0,.557-.3,1.493,1.493,0,0,0,.134-.624,2.307,2.307,0,0,0-.368-1.326A5.657,5.657,0,0,0,139.031,344l-1.114-.953a9.654,9.654,0,0,1-.852-.875,3.6,3.6,0,0,1-.618-1.031,3.817,3.817,0,0,1-.24-1.4,3.159,3.159,0,0,1,.858-2.34,3.521,3.521,0,0,1,2.3-.953V335h.8v1.477a2.83,2.83,0,0,1,1.46.412,2.417,2.417,0,0,1,.819.914,3.9,3.9,0,0,1,.379,1.114,8.52,8.52,0,0,1,.117,1.114l-2.429.3a9.232,9.232,0,0,0-.072-.986,1.487,1.487,0,0,0-.217-.652.557.557,0,0,0-.557-.212.619.619,0,0,0-.557.329,1.342,1.342,0,0,0-.189.657,1.833,1.833,0,0,0,.384,1.215,7.746,7.746,0,0,0,.841.869l1.064.925a10.057,10.057,0,0,1,.981,1.036,4.557,4.557,0,0,1,.713,1.226,4.157,4.157,0,0,1,.267,1.549,3.282,3.282,0,0,1-.345,1.521,2.87,2.87,0,0,1-.986,1.114,3.343,3.343,0,0,1-1.538.524v1.566Z" transform="translate(-124.734 -328.002)" fill="#263238"/>
    </g>
    <g id="freepik--Character--inject-93" transform="translate(145.744 145.414)">
      <path id="Path_43" data-name="Path 43" d="M262.254,449.336s-4.664,3.755-5.538,5.182.089,1.5,1.588,1.41a34.482,34.482,0,0,0,5.271-1.27c1.371-.351,2.6,0,2.786-1.4a18.174,18.174,0,0,0-.134-3.744,2.992,2.992,0,0,0-3.973-.173Z" transform="translate(-248.302 -331.162)" fill="#fff" stroke="#263238" stroke-linecap="round" stroke-linejoin="round" stroke-width="1"/>
      <path id="Path_44" data-name="Path 44" d="M286.035,451.65l-4.552,6.441c-1.008,1.432.975,2.546,2.613,2.446s4.942-2.229,5.544-3.616.267-4.675.267-4.675S287.55,451.845,286.035,451.65Z" transform="translate(-259.295 -332.485)" fill="#fff" stroke="#263238" stroke-linecap="round" stroke-linejoin="round" stroke-width="1"/>
      <path id="Path_45" data-name="Path 45" d="M263.3,338.16s-.3,9.216-.557,13.891.9,29.007,1.17,33.515,1.148,12.018,1.148,12.018,1.309,1.293,3.984.173c0,0,.975-10.9,1.176-14.487s1.638-25.458,1.716-26.422-.206-6.564-.206-6.564,2.167,15.741,2.424,19.975,3.315,28.884,3.315,28.884.7.234,1.672.446a5.868,5.868,0,0,0,2.58-.423s.775-7.723.953-11.573.334-19.758.05-24.516a96.009,96.009,0,0,1-.178-9.857c.095-.691,1.293-17.484.613-19.635s-11.489-1.426-14.938-1.766S263.213,334.466,263.3,338.16Z" transform="translate(-251.1 -279.41)" fill="#263238" stroke="#263238" stroke-linecap="round" stroke-linejoin="round" stroke-width="1"/>
      <path id="Path_46" data-name="Path 46" d="M245.162,299.061s5.282,5.856,6.87,7.132a3.725,3.725,0,0,0,4.9-.557c.752-1.114.7-11.277.7-11.277L255.649,282l-2.786,17.574-6-1.672S244.912,297.161,245.162,299.061Z" transform="translate(-243.324 -257.361)" fill="#ff914d" stroke="#263238" stroke-linecap="round" stroke-linejoin="round" stroke-width="1"/>
      <path id="Path_47" data-name="Path 47" d="M272.507,275.09s-7.912,2.936-8.848,3.271-1.438,5.015-1.282,8.436c.067,1.449.908,15.272.423,25.469-.072,1.477,2.836,2.9,6.385,2.686s9.868.173,11.857-.908,1.61-2.006,1.61-2.006,2.753-22.911,3.31-27.3-.814-6.8-2.541-8.213S272.507,275.09,272.507,275.09Z" transform="translate(-250.944 -254.301)" fill="#ff914d" stroke="#263238" stroke-linecap="round" stroke-linejoin="round" stroke-width="1"/>
      <line id="Line_19" data-name="Line 19" y2="7.539" transform="translate(18.811 28.461)" fill="none" stroke="#263238" stroke-linecap="round" stroke-linejoin="round" stroke-width="1"/>
      <line id="Line_20" data-name="Line 20" y2="10.954" transform="translate(21.831 28.857)" fill="none" stroke="#263238" stroke-linecap="round" stroke-linejoin="round" stroke-width="1"/>
      <path id="Path_48" data-name="Path 48" d="M275.513,281.624s3.56-.49,5.015-1.7,2.858-4.458,3.989-4.814a16.886,16.886,0,0,1,3.209-.518,3.4,3.4,0,0,0-2.307-3.17c-2.485-1.131-8.5-.529-9.784.223s-3.761,2.413-3.611,3.388S273.15,281.969,275.513,281.624Z" transform="translate(-255.226 -252.399)" fill="#fff" stroke="#263238" stroke-linecap="round" stroke-linejoin="round" stroke-width="1"/>
      <path id="Path_49" data-name="Path 49" d="M276.83,269.568a19.124,19.124,0,0,1,.607,5.572c-.29,2.056-.752,3.471.206,3.41s4.251-4.5,4.558-6.3.189-8.358.189-8.358Z" transform="translate(-257.356 -249.342)" fill="#fff" stroke="#263238" stroke-linecap="round" stroke-linejoin="round" stroke-width="1"/>
      <path id="Path_50" data-name="Path 50" d="M280.833,270.44l-3.053,5.745-.78-2.691A24.84,24.84,0,0,0,280.833,270.44Z" transform="translate(-257.432 -252.242)" fill="#263238" stroke="#263238" stroke-linecap="round" stroke-linejoin="round" stroke-width="1"/>
      <path id="Path_51" data-name="Path 51" d="M266.32,248.581s.936,6.385,1.493,8.547,2.006,6.045,3.109,6.129,5.316-2.786,6.2-4.067.791-5.121.93-7.321-.691-4.758-2.1-5.36S267.05,247.027,266.32,248.581Z" transform="translate(-252.702 -241.572)" fill="#fff" stroke="#263238" stroke-linecap="round" stroke-linejoin="round" stroke-width="1"/>
      <path id="Path_52" data-name="Path 52" d="M267.82,258.12l1.477.262-.262,5.042a7.55,7.55,0,0,0,2,0" transform="translate(-253.367 -246.787)" fill="#fff" stroke="#263238" stroke-linecap="round" stroke-linejoin="round" stroke-width="1"/>
      <path id="Path_53" data-name="Path 53" d="M272.19,269.759a3.659,3.659,0,0,0,3.215-.869" transform="translate(-255.302 -251.556)" fill="#fff" stroke="#263238" stroke-linecap="round" stroke-linejoin="round" stroke-width="1"/>
      <path id="Path_54" data-name="Path 54" d="M273.59,257.987a1.828,1.828,0,0,1,2.959.435" transform="translate(-255.922 -246.475)" fill="#fff" stroke="#263238" stroke-linecap="round" stroke-linejoin="round" stroke-width="1"/>
      <path id="Path_55" data-name="Path 55" d="M275.709,260.962c0,.357-.2.652-.435.652s-.435-.3-.435-.652.2-.652.435-.652S275.709,260.6,275.709,260.962Z" transform="translate(-256.475 -247.757)" fill="#263238"/>
      <path id="Path_56" data-name="Path 56" d="M272.772,244.589s-.691.685-4.925.936-5.99-2.034-5.388-3.115c1.159-2.089,3.772-5.16,9.706-4.552s7.2,4.7,6.9,6.5-1.114,4.725-1.114,4.725-.245-.9-.9-.318a9.466,9.466,0,0,0-1.415,2.513l-.591-.145a8.551,8.551,0,0,0-.7-1.672c-.3-.4-2.134-1.493-2.173-2.173A13.563,13.563,0,0,1,272.772,244.589Z" transform="translate(-250.942 -237.78)" fill="#263238" stroke="#263238" stroke-linecap="round" stroke-linejoin="round" stroke-width="1"/>
      <path id="Path_57" data-name="Path 57" d="M285.52,260.52s.145-3.527,1.816-3.081,1.365,1.248.5,2.786a4.731,4.731,0,0,1-1.933,2.034" transform="translate(-261.204 -246.468)" fill="#fff" stroke="#263238" stroke-linecap="round" stroke-linejoin="round" stroke-width="1"/>
      <path id="Path_58" data-name="Path 58" d="M297.1,281.073a24.1,24.1,0,0,0-.925,5.265c.095,1.638,6.881,17.557,7.076,18.5s2.819,1.337,4.129.3,1.911-2.446,1.009-6.09c-.557-2.257-6.084-15.685-6.5-17.992s-2.011-3.856-3.494-3.494" transform="translate(-265.92 -255.376)" fill="#ff914d" stroke="#263238" stroke-linecap="round" stroke-linejoin="round" stroke-width="1"/>
      <path id="Path_59" data-name="Path 59" d="M302.458,317.2,294.1,331.585l3.209,2.051s8.012-10.38,9.143-11.355a4.544,4.544,0,0,0,1.008-6.09" transform="translate(-265.004 -272.501)" fill="#ff914d" stroke="#263238" stroke-linecap="round" stroke-linejoin="round" stroke-width="1"/>
      <path id="Path_60" data-name="Path 60" d="M290.61,343.8l-2.184.513s-1.159,2.056-1.415,2.44-1.538,1.025-.256,1.153,1.8-1.282,1.8-1.282l3.343,2.184,1.928-2.959Z" transform="translate(-261.503 -284.727)" fill="#fff" stroke="#263238" stroke-linecap="round" stroke-linejoin="round" stroke-width="1"/>
      <path id="Path_61" data-name="Path 61" d="M241.88,298.435l4.29,9.89,4.53.139-4.028-10.174Z" transform="translate(-241.88 -264.575)" fill="#263238" stroke="#263238" stroke-linecap="round" stroke-linejoin="round" stroke-width="1"/>
      <path id="Path_62" data-name="Path 62" d="M245.551,305.335s-2.914-.646-3.282.061,1.337,4.034,2.067,4.809,2.491.4,3.421-.067.117-2.608-.44-2.847a27.426,27.426,0,0,0-3.343-.624s2.5.4,2.87-.173S246.66,305.547,245.551,305.335Z" transform="translate(-242.03 -267.575)" fill="#fff" stroke="#263238" stroke-linecap="round" stroke-linejoin="round" stroke-width="1"/>
    </g>
    <g id="freepik--speech-bubble--inject-93" transform="translate(115.506 133.73)">
      <path id="Path_63" data-name="Path 63" d="M222.4,216.81H192.764a5,5,0,0,0-5.154,4.836v23.859a5,5,0,0,0,5.154,4.836h22.728l4.1,8.068,1.571-8.062H222.4a5,5,0,0,0,5.154-4.836V221.646A5,5,0,0,0,222.4,216.81Z" transform="translate(-187.61 -216.81)" fill="#fff" stroke="#263238" stroke-linecap="round" stroke-linejoin="round" stroke-width="1"/>
    </g>
    <g id="freepik--Button--inject-93" transform="translate(121.423 139.118)">
      <rect id="Rectangle_42" data-name="Rectangle 42" width="26.138" height="14.676" rx="5.26" fill="#ff914d" stroke="#263238" stroke-linecap="round" stroke-linejoin="round" stroke-width="1"/>
      <path id="Path_64" data-name="Path 64" d="M206.13,241.456V232.68h2.284a6.469,6.469,0,0,1,1.064.089,2.468,2.468,0,0,1,.9.329,1.672,1.672,0,0,1,.607.7,2.635,2.635,0,0,1,.223,1.187,2.229,2.229,0,0,1-.156.892,1.41,1.41,0,0,1-.446.557,1.587,1.587,0,0,1-.685.29,1.761,1.761,0,0,1,.858.334,1.671,1.671,0,0,1,.524.708,2.9,2.9,0,0,1,.178,1.07,3.505,3.505,0,0,1-.178,1.176,2.006,2.006,0,0,1-.518.808,2.034,2.034,0,0,1-.825.468,3.9,3.9,0,0,1-1.114.15Zm1.939-5.265h.379a1.337,1.337,0,0,0,.669-.134.663.663,0,0,0,.284-.412,2.079,2.079,0,0,0,.084-.63,1.22,1.22,0,0,0-.123-.557.8.8,0,0,0-.368-.351,1.432,1.432,0,0,0-.613-.117h-.334Zm0,3.9h.407a1.059,1.059,0,0,0,.886-.323,1.583,1.583,0,0,0,.245-.953,2.318,2.318,0,0,0-.111-.791.764.764,0,0,0-.357-.429,1.432,1.432,0,0,0-.674-.134h-.4Z" transform="translate(-201.728 -229.225)" fill="#263238"/>
      <path id="Path_65" data-name="Path 65" d="M220.035,241.584a3.17,3.17,0,0,1-1.571-.329,1.772,1.772,0,0,1-.8-.964,4.53,4.53,0,0,1-.228-1.555V232.68h1.917v6.346a3.007,3.007,0,0,0,.045.557.841.841,0,0,0,.189.44.676.676,0,0,0,.9,0,.83.83,0,0,0,.178-.44,3.6,3.6,0,0,0,.039-.557V232.68h1.928v6.057a4.519,4.519,0,0,1-.234,1.555,1.794,1.794,0,0,1-.8.964A3.142,3.142,0,0,1,220.035,241.584Z" transform="translate(-206.735 -229.225)" fill="#263238"/>
      <path id="Path_66" data-name="Path 66" d="M229.672,241.46v-3.583L228,232.69h1.833l.836,2.786.747-2.786h1.755l-1.655,5.187v3.588Z" transform="translate(-211.413 -229.23)" fill="#263238"/>
    </g>
    <g id="freepik--Cursor--inject-93" transform="translate(135.767 150.988)">
      <path id="Path_67" data-name="Path 67" d="M228.229,256.5l-2.608-1.482a1.114,1.114,0,0,0-1.532.468h0a1.114,1.114,0,0,0,.457,1.465l5.115,2.786,1.4,1.02,6.174-2.5-.836-3.644-2.229-4.563a.735.735,0,0,0-.858-.39h0a.735.735,0,0,0-.49.975l.513,1.5-.914-2.229a.964.964,0,0,0-1.17-.451h0a.964.964,0,0,0-.557,1.293l.7,1.516-1.276-2.446a.947.947,0,0,0-1.114-.435h0a.942.942,0,0,0-.557,1.243l1.17,2.229-2.112-4.34a1.192,1.192,0,0,0-1.621-.613h0a1.187,1.187,0,0,0-.591,1.527Z" transform="translate(-223.974 -247.785)" fill="#fff" stroke="#263238" stroke-linecap="round" stroke-linejoin="round" stroke-width="1"/>
    </g>
    <g id="freepik--Text--inject-93" transform="translate(62.824 232.229)">
      <path id="Path_68" data-name="Path 68" d="M93.13,405.148V393.865h2.858a5.639,5.639,0,0,1,2.3.373,2.156,2.156,0,0,1,1.159,1.153,5.265,5.265,0,0,1,.334,2.039v4.1a5.449,5.449,0,0,1-.334,2.073,2.229,2.229,0,0,1-1.148,1.176,5.573,5.573,0,0,1-2.279.373Zm2.5-1.727h.39a1.527,1.527,0,0,0,.819-.167.752.752,0,0,0,.318-.5,4.939,4.939,0,0,0,.061-.836V397a3.494,3.494,0,0,0-.078-.808.669.669,0,0,0-.329-.446,1.723,1.723,0,0,0-.808-.139h-.373Z" transform="translate(-93.091 -393.709)" fill="#263238"/>
      <path id="Path_69" data-name="Path 69" d="M107.78,405.152V393.869h3.109a6.915,6.915,0,0,1,1.978.251,2.4,2.4,0,0,1,1.3.9,3.12,3.12,0,0,1,.462,1.828,5.953,5.953,0,0,1-.111,1.242,2.363,2.363,0,0,1-.407.942,2.284,2.284,0,0,1-.858.657l1.543,5.46h-2.574l-1.243-5.054h-.708v5.054Zm2.5-6.491h.7a1.537,1.537,0,0,0,.819-.184,1,1,0,0,0,.412-.557,2.752,2.752,0,0,0,.117-.858,2.078,2.078,0,0,0-.262-1.114,1.114,1.114,0,0,0-.975-.407h-.808Z" transform="translate(-99.578 -393.713)" fill="#263238"/>
      <path id="Path_70" data-name="Path 70" d="M125.691,405.2a3.85,3.85,0,0,1-2.006-.446,2.513,2.513,0,0,1-1.059-1.282,5.6,5.6,0,0,1-.318-1.989v-4.2a5.517,5.517,0,0,1,.318-1.989,2.485,2.485,0,0,1,1.059-1.259,3.9,3.9,0,0,1,2.006-.44,3.955,3.955,0,0,1,2.028.44,2.44,2.44,0,0,1,1.064,1.259,5.388,5.388,0,0,1,.323,1.989v4.2a5.472,5.472,0,0,1-.323,1.989,2.469,2.469,0,0,1-1.064,1.281,3.9,3.9,0,0,1-2.028.446Zm0-1.766a.758.758,0,0,0,.557-.195.958.958,0,0,0,.234-.5,3.342,3.342,0,0,0,.056-.63v-5.433a3.231,3.231,0,0,0-.056-.63.958.958,0,0,0-.234-.5.758.758,0,0,0-.557-.2.7.7,0,0,0-.557.2.964.964,0,0,0-.24.5,3.727,3.727,0,0,0-.056.63V402.1a3.9,3.9,0,0,0,.084.63.947.947,0,0,0,.223.5A.73.73,0,0,0,125.691,403.43Z" transform="translate(-106.011 -393.591)" fill="#263238"/>
      <path id="Path_71" data-name="Path 71" d="M137.23,405.151V393.868H141a3.255,3.255,0,0,1,1.672.384,2.329,2.329,0,0,1,.975,1.114,4.369,4.369,0,0,1,.323,1.777,3.794,3.794,0,0,1-.435,2,2.229,2.229,0,0,1-1.17.953,4.821,4.821,0,0,1-1.672.262h-1v4.792Zm2.5-6.53h.836a1.215,1.215,0,0,0,.7-.167.808.808,0,0,0,.312-.5,3.967,3.967,0,0,0,.078-.853,4.346,4.346,0,0,0-.061-.758.9.9,0,0,0-.3-.524,1.175,1.175,0,0,0-.741-.2h-.819Z" transform="translate(-112.619 -393.712)" fill="#263238"/>
      <path id="Path_72" data-name="Path 72" d="M154.1,405.2a3.751,3.751,0,0,1-1.766-.373,2.435,2.435,0,0,1-1.075-1.164,5.377,5.377,0,0,1-.4-2.039l2.128-.323a5.2,5.2,0,0,0,.134,1.17,1.259,1.259,0,0,0,.334.641.736.736,0,0,0,.524.2.5.5,0,0,0,.507-.262,1.371,1.371,0,0,0,.117-.557,1.99,1.99,0,0,0-.334-1.176,5.129,5.129,0,0,0-.9-.969l-.975-.853a5.4,5.4,0,0,1-1.081-1.231,3.126,3.126,0,0,1-.44-1.7,2.786,2.786,0,0,1,.852-2.2,3.343,3.343,0,0,1,2.312-.758,2.963,2.963,0,0,1,1.454.306,2.073,2.073,0,0,1,.836.8,3.238,3.238,0,0,1,.39,1.042,5.97,5.97,0,0,1,.117,1.053l-2.145.262a7.386,7.386,0,0,0-.061-.869,1.214,1.214,0,0,0-.2-.557.611.611,0,0,0-.981.089,1.164,1.164,0,0,0-.162.585,1.671,1.671,0,0,0,.3,1.025,5.57,5.57,0,0,0,.786.825l.93.825a6.284,6.284,0,0,1,1.248,1.421,3.555,3.555,0,0,1,.507,1.961,2.863,2.863,0,0,1-.362,1.443,2.613,2.613,0,0,1-1.02,1.025A3.136,3.136,0,0,1,154.1,405.2Z" transform="translate(-118.655 -393.591)" fill="#263238"/>
      <path id="Path_73" data-name="Path 73" d="M163.83,405.153V393.87h2.5v4.569h1.738V393.87h2.507v11.283h-2.507v-4.931h-1.738v4.931Z" transform="translate(-124.398 -393.714)" fill="#263238"/>
      <path id="Path_74" data-name="Path 74" d="M179,405.153V393.87h2.5v11.283Z" transform="translate(-131.115 -393.714)" fill="#263238"/>
      <path id="Path_75" data-name="Path 75" d="M186.53,405.151V393.868h3.789a3.255,3.255,0,0,1,1.672.384,2.329,2.329,0,0,1,.975,1.114,4.368,4.368,0,0,1,.323,1.777,3.794,3.794,0,0,1-.435,2,2.229,2.229,0,0,1-1.17.953,4.821,4.821,0,0,1-1.672.262h-.992v4.792Zm2.491-6.53h.836a1.215,1.215,0,0,0,.7-.167.808.808,0,0,0,.312-.5,3.965,3.965,0,0,0,.078-.853,4.346,4.346,0,0,0-.061-.758.9.9,0,0,0-.3-.524,1.175,1.175,0,0,0-.741-.2h-.819Z" transform="translate(-134.45 -393.712)" fill="#263238"/>
      <path id="Path_76" data-name="Path 76" d="M200.61,405.151V393.868H204.4a3.282,3.282,0,0,1,1.672.384,2.384,2.384,0,0,1,.975,1.114,4.457,4.457,0,0,1,.318,1.777,3.85,3.85,0,0,1-.429,2,2.279,2.279,0,0,1-1.17.953,4.875,4.875,0,0,1-1.672.262h-1v4.792Zm2.491-6.53h.836a1.2,1.2,0,0,0,.7-.167.813.813,0,0,0,.318-.5,4.011,4.011,0,0,0,.072-.853,3.86,3.86,0,0,0-.061-.758.852.852,0,0,0-.3-.524,1.148,1.148,0,0,0-.735-.2H203.1Z" transform="translate(-140.685 -393.712)" fill="#263238"/>
      <path id="Path_77" data-name="Path 77" d="M214.71,405.153V393.87H217.2v11.283Z" transform="translate(-146.928 -393.714)" fill="#263238"/>
      <path id="Path_78" data-name="Path 78" d="M222.21,405.153V393.87h1.755l2.312,5.433V393.87h2.062v11.283h-1.672l-2.346-5.85v5.85Z" transform="translate(-150.249 -393.714)" fill="#263238"/>
      <path id="Path_79" data-name="Path 79" d="M239.051,405.2a3.1,3.1,0,0,1-1.844-.485,2.652,2.652,0,0,1-.964-1.371,6.686,6.686,0,0,1-.284-2.045v-3.789a6.247,6.247,0,0,1,.306-2.073,2.552,2.552,0,0,1,1.053-1.359,3.722,3.722,0,0,1,2.023-.479,3.933,3.933,0,0,1,1.972.418,2.369,2.369,0,0,1,1.025,1.153,4.575,4.575,0,0,1,.306,1.727v.724H240.2V396.7a5.021,5.021,0,0,0-.045-.669.953.953,0,0,0-.223-.49.736.736,0,0,0-.557-.189.724.724,0,0,0-.585.217,1.064,1.064,0,0,0-.228.557,4.278,4.278,0,0,0-.05.669v5.221a3.2,3.2,0,0,0,.078.708,1.114,1.114,0,0,0,.279.529.785.785,0,0,0,.557.2.813.813,0,0,0,.6-.212,1.115,1.115,0,0,0,.3-.557,2.944,2.944,0,0,0,.084-.713V400.65h-1.02v-1.465h3.282v5.85H241l-.139-.93a2.023,2.023,0,0,1-.652.786,1.945,1.945,0,0,1-1.153.306Z" transform="translate(-156.337 -393.591)" fill="#263238"/>
      <path id="Path_80" data-name="Path 80" d="M93.06,431.153l.2-11.283h2.674l1.237,6.564L98.5,419.87h2.58l.2,11.283H99.507l-.206-7.505-1.309,7.505H96.414l-1.393-7.561-.167,7.561Z" transform="translate(-93.06 -405.227)" fill="#263238"/>
      <path id="Path_81" data-name="Path 81" d="M113.841,431.2a3.849,3.849,0,0,1-2.006-.446,2.513,2.513,0,0,1-1.059-1.281,5.6,5.6,0,0,1-.318-1.989v-4.2a5.516,5.516,0,0,1,.318-1.989,2.485,2.485,0,0,1,1.059-1.259,3.9,3.9,0,0,1,2.006-.44,3.956,3.956,0,0,1,2.028.44,2.44,2.44,0,0,1,1.064,1.259,5.388,5.388,0,0,1,.323,1.989v4.2a5.472,5.472,0,0,1-.323,1.989,2.468,2.468,0,0,1-1.064,1.281,3.9,3.9,0,0,1-2.028.446Zm0-1.766a.758.758,0,0,0,.557-.2.919.919,0,0,0,.234-.5,3.344,3.344,0,0,0,.056-.63v-5.433a3.231,3.231,0,0,0-.028-.624.919.919,0,0,0-.234-.5.758.758,0,0,0-.557-.195.713.713,0,0,0-.557.195.964.964,0,0,0-.24.5,3.728,3.728,0,0,0-.056.63v5.433a3.9,3.9,0,0,0,.05.63.947.947,0,0,0,.223.5A.73.73,0,0,0,113.841,429.43Z" transform="translate(-100.764 -405.104)" fill="#263238"/>
      <path id="Path_82" data-name="Path 82" d="M125.38,431.148V419.865h2.858a5.639,5.639,0,0,1,2.3.373,2.156,2.156,0,0,1,1.159,1.153,5.265,5.265,0,0,1,.334,2.039v4.1a5.449,5.449,0,0,1-.334,2.073,2.229,2.229,0,0,1-1.148,1.176,5.573,5.573,0,0,1-2.279.373Zm2.5-1.727h.39a1.527,1.527,0,0,0,.819-.167.752.752,0,0,0,.318-.5,4.937,4.937,0,0,0,.061-.836V423a3.493,3.493,0,0,0-.078-.808.668.668,0,0,0-.329-.446,1.721,1.721,0,0,0-.808-.139h-.373Z" transform="translate(-107.372 -405.223)" fill="#263238"/>
      <path id="Path_83" data-name="Path 83" d="M140,431.153V419.87h5.07v1.7H142.5v2.786h1.961v1.727H142.5v3.371h2.6v1.672Z" transform="translate(-113.846 -405.227)" fill="#263238"/>
      <path id="Path_84" data-name="Path 84" d="M151.21,431.153V419.87H153.7v9.6h2.591v1.672Z" transform="translate(-118.81 -405.227)" fill="#263238"/>
    </g>
  </g>
</svg>
