<svg xmlns="http://www.w3.org/2000/svg" width="261.528" height="228.099" viewBox="0 0 261.528 228.099">
  <g id="Ecommerce_campaign-amico" data-name="Ecommerce campaign-amico" transform="translate(-9.237 -50.555)">
    <g id="freepik--Clouds--inject-49" transform="translate(29.945 50.555)">
      <g id="freepik--clouds--inject-49-2" data-name="freepik--clouds--inject-49" transform="translate(0)">
        <path id="freepik--Cloud--inject-49" d="M392.868,67.45l5.387,3.113a6.19,6.19,0,0,1-.044-.712V68.29c0-2.78,1.951-3.891,4.358-2.518a8.517,8.517,0,0,1,2.6,2.5c.395-3.5,3.135-4.8,6.465-2.874a14.4,14.4,0,0,1,6.521,11.291v2.335a6.114,6.114,0,0,1-.556,2.707l4.481,2.585a5.337,5.337,0,0,1,2.413,4.186c0,1.54-1.078,2.163-2.413,1.4L392.868,73.037a5.353,5.353,0,0,1-2.418-4.192C390.45,67.306,391.534,66.683,392.868,67.45Z" transform="translate(-200.252 -56.752)" fill="#f0f0f0"/>
        <path id="freepik--cloud--inject-49-2" data-name="freepik--cloud--inject-49" d="M79.941,55.036l-5.387,3.119a6.366,6.366,0,0,0,.044-.717V55.87c0-2.78-1.951-3.891-4.358-2.513a8.433,8.433,0,0,0-2.6,2.5c-.395-3.5-3.135-4.8-6.465-2.874A14.449,14.449,0,0,0,54.658,64.27V66.6a6.115,6.115,0,0,0,.556,2.707L50.733,71.9a5.342,5.342,0,0,0-2.413,4.186c0,1.54,1.078,2.168,2.413,1.4L79.941,60.617a5.348,5.348,0,0,0,2.418-4.186C82.359,54.891,81.275,54.263,79.941,55.036Z" transform="translate(-48.32 -51.236)" fill="#f0f0f0"/>
        <path id="freepik--cloud--inject-49-3" data-name="freepik--cloud--inject-49" d="M141.163,52.72,137.2,55.005a4.193,4.193,0,0,0,.033-.523V53.332c0-2.04-1.434-2.869-3.2-1.846a6.21,6.21,0,0,0-1.907,1.835c-.289-2.568-2.307-3.525-4.753-2.113a10.592,10.592,0,0,0-4.792,8.3v1.718a4.548,4.548,0,0,0,.406,1.985l-3.286,1.9a3.925,3.925,0,0,0-1.779,3.08c0,1.112.795,1.59,1.779,1.023l21.464-12.392a3.941,3.941,0,0,0,1.779-3.08C142.942,52.609,142.142,52.153,141.163,52.72Z" transform="translate(-79.228 -50.555)" fill="#f0f0f0"/>
      </g>
    </g>
    <g id="freepik--Shadows--inject-49" transform="translate(9.237 138.052)">
      <path id="freepik--Shadow--inject-49" d="M352.547,398.248l-15.783-9.112a1.3,1.3,0,0,1,0-2.468L395.9,352.524a4.748,4.748,0,0,1,4.275,0l15.783,9.112a1.3,1.3,0,0,1,0,2.468l-26.64,15.388-32.488,18.757A4.709,4.709,0,0,1,352.547,398.248Z" transform="translate(-155.311 -271.924)" fill="#ebebeb"/>
      <path id="freepik--shadow--inject-49-2" data-name="freepik--shadow--inject-49" d="M144.287,406.027l35.379,20.447a2.885,2.885,0,0,0,2.613,0L204.7,413.582l12.447-7.188c.723-.417.723-1.112,0-1.507L181.773,384.44a2.885,2.885,0,0,0-2.613,0l-34.873,20.08A.794.794,0,0,0,144.287,406.027Z" transform="translate(-69.988 -286.184)" fill="#ebebeb"/>
      <path id="freepik--shadow--inject-49-3" data-name="freepik--shadow--inject-49" d="M273.076,277.382,157.355,209.916a7.416,7.416,0,0,0-6.727,0L87.615,246.573c-2.513,1.462-2.513,3.858,0,5.315l114.92,67a6.5,6.5,0,0,0,5.926,0l64.615-37.569C274.927,280.207,274.927,278.461,273.076,277.382Z" transform="translate(-44.225 -208.462)" fill="#ebebeb"/>
      <path id="freepik--shadow--inject-49-4" data-name="freepik--shadow--inject-49" d="M60.8,238.29l-15.644-9.039c-.295-.172-.295-.445,0-.612L80.777,208.07a1.179,1.179,0,0,1,1.056,0l15.649,9.039a.322.322,0,0,1,0,.612L61.853,238.29A1.179,1.179,0,0,1,60.8,238.29Z" transform="translate(-26.108 -207.945)" fill="#ebebeb"/>
      <path id="freepik--shadow--inject-49-5" data-name="freepik--shadow--inject-49" d="M73.533,363.952a6.672,6.672,0,0,1-3.336-.834L12.882,329.708l-.05-.039a3.335,3.335,0,0,1-1.762-2.874,3.424,3.424,0,0,1,1.873-2.9l37.8-22.042a7.149,7.149,0,0,1,6.671,0l57.26,33.389a3.436,3.436,0,0,1,1.868,2.907,3.336,3.336,0,0,1-1.668,2.78,2.433,2.433,0,0,1-.233.156L86.036,357.759l-9.178,5.353a6.721,6.721,0,0,1-3.336.828Z" transform="translate(-11.07 -249.28)" fill="#ebebeb"/>
    </g>
    <g id="freepik--Bag--inject-49" transform="translate(32.152 81.66)">
      <g id="freepik--light-bag--inject-49">
        <path id="Path_233" data-name="Path 233" d="M84.573,106.964a3.989,3.989,0,0,0-4.092.239c-3.336,1.94-6.082,7.533-6.082,12.48v11.674a.528.528,0,0,0,1.056,0V119.684c0-4.609,2.491-9.79,5.559-11.563a2.948,2.948,0,0,1,3.035-.239c1.262.728,1.99,2.579,1.99,5.081V124.57a.556.556,0,1,0,1.056,0V112.962C87.092,110.077,86.174,107.892,84.573,106.964Z" transform="translate(-62.109 -106.506)" fill="#263238"/>
        <path id="Path_234" data-name="Path 234" d="M124.243,176.886,120.98,120.86l-6.571-3.78-3.069,52.351Z" transform="translate(-78.513 -111.202)" fill="#fff4ed"/>
        <path id="Path_235" data-name="Path 235" d="M124.243,176.886,120.98,120.86l-6.571-3.78-3.069,52.351Z" transform="translate(-78.513 -111.096)" fill="#ff914d" opacity="0.4"/>
        <path id="Path_236" data-name="Path 236" d="M55.353,136.031,52.29,188.383l32.827-18.951,3.069-52.351Z" transform="translate(-52.29 -111.202)" fill="#ff914d"/>
        <path id="Path_237" data-name="Path 237" d="M55.353,136.031,52.29,188.383l32.827-18.951,3.069-52.351Z" transform="translate(-45.019 -107.421)" fill="#fff" opacity="0.3"/>
        <path id="Path_238" data-name="Path 238" d="M55.353,136.031,52.29,188.383l32.827-18.951,3.069-52.351Z" transform="translate(-45.839 -107.421)" fill="#ff914d" opacity="0.05"/>
        <path id="Path_239" data-name="Path 239" d="M55.353,151.17l6.577,3.78,3.263,56.026-12.9-7.455Z" transform="translate(-52.29 -126.34)" fill="#ff914d"/>
        <path id="Path_240" data-name="Path 240" d="M55.353,151.17l6.577,3.78,3.263,56.026-12.9-7.455Z" transform="translate(-47.581 -130.015)" fill="#ff914d" opacity="0.55"/>
        <path id="Path_241" data-name="Path 241" d="M65.193,231.239l-5.72-8.483L58.744,196.8l-.584,25.211-5.871,1.773Z" transform="translate(-52.29 -146.604)" fill="#9bd19d" opacity="0.5"/>
        <path id="Path_242" data-name="Path 242" d="M102.457,123.88,69.63,142.848l3.263,56.009,32.827-18.951ZM79.4,144.143c-.65.367-1.173.061-1.173-.689a2.585,2.585,0,0,1,1.173-2.029c.645-.372,1.173-.067,1.173.689a2.58,2.58,0,0,1-1.173,2.029Zm11.635-6.771c-.65.372-1.173.061-1.173-.684a2.574,2.574,0,0,1,1.173-2.029c.645-.378,1.173-.067,1.173.684a2.574,2.574,0,0,1-1.173,2.029Z" transform="translate(-59.99 -114.221)" fill="#ff914d"/>
        <path id="Path_243" data-name="Path 243" d="M102.457,123.88,69.63,142.848l3.263,56.009,32.827-18.951ZM79.4,144.143c-.65.367-1.173.061-1.173-.689a2.585,2.585,0,0,1,1.173-2.029c.645-.372,1.173-.067,1.173.689a2.58,2.58,0,0,1-1.173,2.029Zm11.635-6.771c-.65.372-1.173.061-1.173-.684a2.574,2.574,0,0,1,1.173-2.029c.645-.378,1.173-.067,1.173.684a2.574,2.574,0,0,1-1.173,2.029Z" transform="translate(-66.442 -117.896)" fill="#fff" opacity="0.7"/>
        <path id="Path_244" data-name="Path 244" d="M96.411,113.636a3.991,3.991,0,0,0-4.092.245c-3.336,1.935-6.082,7.533-6.082,12.475V138.03a.556.556,0,1,0,1.056,0V126.355c0-4.6,2.491-9.79,5.559-11.558a2.938,2.938,0,0,1,3.035-.245c1.262.728,1.99,2.585,1.99,5.087v11.6a.528.528,0,1,0,1.056,0v-11.58C98.929,116.771,98.012,114.581,96.411,113.636Z" transform="translate(-67.353 -109.47)" fill="#37474f"/>
      </g>
    </g>
    <g id="freepik--Device--inject-49" transform="translate(53.216 129.233)">
      <g id="freepik--Mobile--inject-49" transform="translate(0 0)">
        <g id="freepik--mobile--inject-49-2" data-name="freepik--mobile--inject-49">
          <path id="Path_245" data-name="Path 245" d="M164.246,193.365,274.268,257.5c3.336,1.962,3.336,4.186,3.336,6.182a7.2,7.2,0,0,1-3.336,6.182L212,306.168a9.651,9.651,0,0,1-8.806,0L93.165,242.036a6.259,6.259,0,0,1-2.985-5.793c0-2,.556-5.153,2.985-6.571l62.263-36.307a8.216,8.216,0,0,1,8.817,0Z" transform="translate(-90.18 -192.082)" fill="#37474f"/>
          <path id="Path_246" data-name="Path 246" d="M161.032,196.124,96.99,233.46l110.6,64.442v9.345a8.9,8.9,0,0,1-4.4-1.067L93.165,242.049a6.259,6.259,0,0,1-2.985-5.793c0-2,.556-5.153,2.985-6.571l62.263-36.307a8.339,8.339,0,0,1,5.593-1.184v3.93Z" transform="translate(-90.18 -192.095)" fill="#263238"/>
          <path id="Path_247" data-name="Path 247" d="M275.854,258.9l-109.789-64a7.705,7.705,0,0,0-7,0l-60.8,35.446c-2.613,1.523-2.613,4.019,0,5.559l108.961,63.514a6.793,6.793,0,0,0,6.176,0L275.86,263C277.783,261.847,277.783,260.024,275.854,258.9Z" transform="translate(-92.9 -192.959)" fill="#455a64"/>
          <path id="Path_248" data-name="Path 248" d="M155.588,306.425a3.758,3.758,0,0,1,1.734,2.907,1.112,1.112,0,0,1-.478,1.023c-.211.117-1,.595-1.217.712a1.256,1.256,0,0,1-1.251-.145l-10.64-6.2a3.747,3.747,0,0,1-1.74-2.907,1.112,1.112,0,0,1,.439-1c.217-.133,1.04-.612,1.256-.734a1.256,1.256,0,0,1,1.251.145Z" transform="translate(-113.188 -239.994)" fill="#455a64"/>
          <path id="Path_249" data-name="Path 249" d="M154.38,307.692l-10.64-6.2c-.962-.556-1.74-.167-1.74.884a3.747,3.747,0,0,0,1.74,2.908l10.64,6.2c.956.556,1.734.167,1.734-.884A3.758,3.758,0,0,0,154.38,307.692Z" transform="translate(-113.192 -240.555)" fill="#37474f"/>
          <path id="Path_250" data-name="Path 250" d="M122.082,286.872a3.775,3.775,0,0,1,1.734,2.913,1.073,1.073,0,0,1-.478,1.017c-.206.117-1,.595-1.212.717a1.268,1.268,0,0,1-1.256-.145L110.23,285.2A3.775,3.775,0,0,1,108.5,282.3a1.112,1.112,0,0,1,.439-1c.211-.139,1.034-.617,1.251-.739a1.267,1.267,0,0,1,1.256.145Z" transform="translate(-98.311 -231.326)" fill="#455a64"/>
          <path id="Path_251" data-name="Path 251" d="M120.875,288.153l-10.64-6.2c-.956-.556-1.734-.161-1.734.889a3.775,3.775,0,0,0,1.734,2.907l10.64,6.2c.962.556,1.74.161,1.74-.884A3.764,3.764,0,0,0,120.875,288.153Z" transform="translate(-98.315 -231.878)" fill="#37474f"/>
          <path id="Path_252" data-name="Path 252" d="M174.654,202.791,275.6,261.635c1.84,1.073,1.846,2.824,0,3.891l-56.5,32.949a7.283,7.283,0,0,1-6.671,0L110.584,239.115c-1.5-.873-1.785-2.185-.845-3.224l.228-.239a4.443,4.443,0,0,1,.617-.428l15.894-9.267,1.034-.606a2.274,2.274,0,0,1,2.074,0,2.34,2.34,0,0,0,2.146-.044l18.523-10.8c.606-.356.645-.917.072-1.251s-.556-.806-.111-1.145l.106-.067,15.566-9.062.328-.195A9.3,9.3,0,0,1,174.654,202.791Z" transform="translate(-98.626 -196.388)"/>
          <path id="Path_253" data-name="Path 253" d="M129.968,229.667a2.257,2.257,0,0,0-2.074,0l-1.034.6-15.894,9.267a4.446,4.446,0,0,0-.617.434l-.228.233c0,.028-.039.061-.061.083a3.44,3.44,0,0,0,.906.745l101.839,59.361a7.283,7.283,0,0,0,6.671,0l56.51-32.944a3.425,3.425,0,0,0,.9-.745,3.279,3.279,0,0,0-.906-.75L175.036,207.107a9.3,9.3,0,0,0-8.456,0l-.328.195-15.143,8.822v2.035a.823.823,0,0,1-.478.667l-18.523,10.8A2.357,2.357,0,0,1,129.968,229.667Z" transform="translate(-99.008 -198.303)" fill="#9bd19d"/>
          <path id="Path_254" data-name="Path 254" d="M129.968,229.667a2.257,2.257,0,0,0-2.074,0l-1.034.6-15.894,9.267a4.446,4.446,0,0,0-.617.434l-.228.233c0,.028-.039.061-.061.083a3.44,3.44,0,0,0,.906.745l101.839,59.361a7.283,7.283,0,0,0,6.671,0l56.51-32.944a3.425,3.425,0,0,0,.9-.745,3.279,3.279,0,0,0-.906-.75L175.036,207.107a9.3,9.3,0,0,0-8.456,0l-.328.195-15.143,8.822v2.035a.823.823,0,0,1-.478.667l-18.523,10.8A2.357,2.357,0,0,1,129.968,229.667Z" transform="translate(-99.008 -198.303)" fill="#ff914d" opacity="0.65"/>
          <path id="Path_255" data-name="Path 255" d="M139.044,262.46a.184.184,0,0,1-.078-.033l-.272-.183-.706.411a.1.1,0,0,1-.111,0l-.1-.067-.044-.039a.188.188,0,0,1,0-.044l-.222-1.112v-.044l.039-.039.1-.056a.127.127,0,0,1,.089,0,.144.144,0,0,1,.083.033l.945.639.156-.089a.117.117,0,0,1,.083,0,.161.161,0,0,1,.083.033l.061.044s.044.033.044.05,0,.033-.044.05l-.156.089.272.183c.028,0,.044.039.044.056s0,.033-.05.05l-.117.067A.167.167,0,0,1,139.044,262.46Zm-.556-.4-.673-.456.161.756Z" transform="translate(-111.198 -222.796)" fill="#455a64"/>
          <path id="Path_256" data-name="Path 256" d="M140.485,261.1a1.668,1.668,0,0,1-.828-.306.775.775,0,0,1-.417-.556c-.011-.195.117-.345.367-.489a1.355,1.355,0,0,1,.317-.145,1.285,1.285,0,0,1,.311-.061.072.072,0,0,1,.05,0,.05.05,0,0,1,0,.028l.056.117H140.3a1.079,1.079,0,0,0-.45.15c-.167.1-.25.211-.245.334s.111.261.317.4a1.256,1.256,0,0,0,.606.233.912.912,0,0,0,.556-.122,1.113,1.113,0,0,0,.156-.111.4.4,0,0,0,.095-.111l-.439-.295-.295.172a.155.155,0,0,1-.083,0l-.083-.033-.061-.044c-.028,0-.044-.039-.044-.056s0-.028.044-.044l.473-.272a.144.144,0,0,1,.095-.028.261.261,0,0,1,.094.039l.628.428a.166.166,0,0,1,.044.039.033.033,0,0,1,0,.039.828.828,0,0,1-.417.417A1.39,1.39,0,0,1,140.485,261.1Z" transform="translate(-111.966 -222.04)" fill="#455a64"/>
          <path id="Path_257" data-name="Path 257" d="M151.214,255.91a.272.272,0,0,1-.033.495.8.8,0,0,1-.784,0,.267.267,0,0,1,0-.495.8.8,0,0,1,.817,0Z" transform="translate(-116.847 -220.377)" fill="#455a64"/>
          <path id="Path_258" data-name="Path 258" d="M149.091,255.013a.728.728,0,0,0-.422.912.222.222,0,0,0,.228.106h0c.133,0,.228-.089.195-.172a.517.517,0,0,1,.295-.645,1.523,1.523,0,0,1,1.045-.133c.122,0,.261-.028.284-.111h0c0-.067-.044-.128-.145-.15a2.168,2.168,0,0,0-1.479.195Z" transform="translate(-116.136 -219.919)" fill="#455a64"/>
          <path id="Path_259" data-name="Path 259" d="M147.778,254.15a1.212,1.212,0,0,0-.717,1.356c0,.072.117.122.233.117h0c.128,0,.222-.083.195-.161a.984.984,0,0,1,.584-1.112,2.78,2.78,0,0,1,1.8-.284c.128,0,.25-.033.272-.111h0c0-.072-.056-.139-.167-.156a3.441,3.441,0,0,0-2.2.35Z" transform="translate(-115.429 -219.467)" fill="#455a64"/>
          <path id="Path_260" data-name="Path 260" d="M126.223,271.2l-.523-.35.75-.439.523.356Z" transform="translate(-105.954 -226.866)" fill="#455a64"/>
          <path id="Path_261" data-name="Path 261" d="M127.83,269.735l-1.04-.706.75-.439,1.045.706Z" transform="translate(-106.438 -226.058)" fill="#455a64"/>
          <path id="Path_262" data-name="Path 262" d="M129.442,268.271l-1.562-1.062.751-.439,1.562,1.062Z" transform="translate(-106.922 -225.25)" fill="#455a64"/>
          <path id="Path_263" data-name="Path 263" d="M131.055,266.807l-2.085-1.418.751-.439,2.085,1.418Z" transform="translate(-107.406 -224.441)" fill="#455a64"/>
          <path id="Path_264" data-name="Path 264" d="M211.9,216.751a.684.684,0,0,0-.428.061l-2.813,1.634c-.183.106-.15.306.078.456l.945.645a1.017,1.017,0,0,0,.467.161.954.954,0,0,0,.217,0,.556.556,0,0,0,.211-.067l2.813-1.634c.183-.106.15-.306-.072-.456l-.951-.645a1.017,1.017,0,0,0-.467-.156Zm-1.768,2.852a.484.484,0,0,1-.2-.083l-.951-.639c-.161-.111-.189-.272-.056-.35l2.813-1.634a.266.266,0,0,1,.111-.039h.072a.556.556,0,0,1,.195.078l.951.645c.167.111.189.272.056.35l-2.813,1.634A.284.284,0,0,1,210.129,219.6Z" transform="translate(-142.74 -203.032)" fill="#455a64"/>
          <path id="Path_265" data-name="Path 265" d="M210.162,219.6l1.112.762-.439.256a.2.2,0,0,1-.145,0l-.834-.556c-.122-.083-.139-.206-.044-.261Z" transform="translate(-143.279 -204.302)" fill="#455a64"/>
          <path id="Path_266" data-name="Path 266" d="M210.86,219.141l.528-.311,1.117.762-.528.306Z" transform="translate(-143.771 -203.96)" fill="#455a64"/>
          <path id="Path_267" data-name="Path 267" d="M212.18,218.376l.528-.306,1.123.762-.534.306Z" transform="translate(-144.357 -203.623)" fill="#455a64"/>
          <path id="Path_268" data-name="Path 268" d="M214.1,217.384l.806.556c.15.1.106.239-.111.367l-.178.106-1.112-.762.417-.245A.239.239,0,0,1,214.1,217.384Z" transform="translate(-144.948 -203.315)" fill="#455a64"/>
          <path id="Path_269" data-name="Path 269" d="M215.509,216.985c.078-.05.3,0,.495.156l.172.117c.195.133.295.278.222.328l-.139.089-.889-.606Z" transform="translate(-145.774 -203.133)" fill="#455a64"/>
          <path id="Path_270" data-name="Path 270" d="M201.63,223.84l2.224-1.94,1,1.74-1.423-.461Z" transform="translate(-139.672 -205.324)" fill="#455a64"/>
          <path id="Path_271" data-name="Path 271" d="M148.194,233.36l8.495-4.953a1.968,1.968,0,0,1,1.779-.033c.473.278.45.745-.061,1.04l-8.489,4.948a1.951,1.951,0,0,1-1.779.033C147.666,234.116,147.688,233.638,148.194,233.36Z" transform="translate(-115.767 -208.111)" fill="#263238"/>
          <path id="Path_272" data-name="Path 272" d="M170.659,223.46a2.263,2.263,0,0,1,2.068,0,.639.639,0,0,1,0,1.206,2.3,2.3,0,0,1-2.068,0,.639.639,0,0,1,0-1.206Z" transform="translate(-125.729 -205.906)" fill="#263238"/>
        </g>
        <g id="freepik--Shine--inject-49" transform="translate(46.886 5.386)" opacity="0.3">
          <path id="Path_273" data-name="Path 273" d="M281.526,241.985l-15.938-9.3-14.1,65.454,15.938,9.3Z" transform="translate(-208.701 -215.501)" fill="#fff"/>
          <path id="Path_274" data-name="Path 274" d="M210.421,280.405l14.093-65.454-20.853-12.164a9.3,9.3,0,0,0-8.456,0l-.328.195-9.367,5.459L174.52,259.475Z" transform="translate(-174.52 -201.77)" fill="#fff"/>
          <path id="Path_275" data-name="Path 275" d="M324.251,266.29l19.2,11.191-7.266,33.75L311.47,325.64Z" transform="translate(-235.336 -230.422)" fill="#fff"/>
          <path id="Path_276" data-name="Path 276" d="M401.557,310.545l-8.717,5.087,2.691-12.492,6.021,3.508C403.4,307.726,403.4,309.478,401.557,310.545Z" transform="translate(-271.471 -246.786)" fill="#fff"/>
        </g>
      </g>
    </g>
    <g id="freepik--credit-card--inject-49" transform="translate(10.86 187.388)">
      <g id="freepik--Card--inject-49">
        <path id="Path_277" data-name="Path 277" d="M77.293,377.926l37.8-22.037a1.807,1.807,0,0,0,1.023-1.579c0-.556,0-2.707,0-2.707s-1.012,1.462-1.028,1.468L86.454,369.748,77.276,375.1a5.453,5.453,0,0,1-5,0l-57.26-33.355s-.973-1.145-1-1.156-.05,2,0,2.663a1.757,1.757,0,0,0,1.017,1.318l57.26,33.355a5.437,5.437,0,0,0,5,0Z" transform="translate(-13.99 -316.185)" fill="#ff914d"/>
        <path id="Path_278" data-name="Path 278" d="M77.293,377.926l37.8-22.037a1.807,1.807,0,0,0,1.023-1.579c0-.556,0-2.707,0-2.707s-1.012,1.462-1.028,1.468L86.454,369.748,77.276,375.1a5.453,5.453,0,0,1-5,0l-57.26-33.355s-.973-1.145-1-1.156-.05,2,0,2.663a1.757,1.757,0,0,0,1.017,1.318l57.26,33.355a5.437,5.437,0,0,0,5,0Z" transform="translate(-11.412 -318.525)" fill="#ff914d" opacity="0.2"/>
        <path id="Path_279" data-name="Path 279" d="M124.58,387.3v-2.824a4.62,4.62,0,0,0,1.812-.556l9.178-5.354,28.636-16.678,1.028-1.468c.011-.017,0,2.124,0,2.707a1.807,1.807,0,0,1-1.023,1.579l-37.8,22.037A4.775,4.775,0,0,1,124.58,387.3Z" transform="translate(-63.1 -324.991)" opacity="0.2"/>
        <path id="Path_280" data-name="Path 280" d="M176.26,368.222h0v2.813l10.891-6.349a1.807,1.807,0,0,0,1.023-1.579V360.4s-1.012,1.462-1.028,1.468Z" transform="translate(-86.05 -324.983)" fill="#e0e0e0"/>
        <path id="Path_281" data-name="Path 281" d="M115.1,333.554a.167.167,0,0,0,.056-.039c1.312-.789,1.29-2.074-.056-2.863L57.841,297.3a5.47,5.47,0,0,0-5,0l-37.8,22.042c-1.362.789-1.373,2.068-.056,2.863l.056.039L72.3,355.6a5.454,5.454,0,0,0,5,0l9.178-5.354Z" transform="translate(-13.995 -296.691)" fill="#ff914d"/>
        <path id="Path_282" data-name="Path 282" d="M17.519,323.2l-1.54-.889c-.684-.417-1.112-.556-1.078-1.112.072-.322.5-.611.8-.778,12.492-7.394,24.933-14.865,37.247-22.609l-37.8,22.042c-1.362.789-1.373,2.068-.056,2.863l.056.039,57.26,33.355Q60.319,348.5,48.128,341.233C38.744,335.59,27.036,328.708,17.519,323.2Z" transform="translate(-14.191 -297.414)" fill="#fff" opacity="0.3"/>
        <path id="Path_283" data-name="Path 283" d="M64.33,303.666l10.891-6.354a.216.216,0,0,1,.072-.033,5.47,5.47,0,0,1,4.909.033l57.26,33.355c1.368.8,1.379,2.1,0,2.9l-10.891,6.349Z" transform="translate(-36.345 -296.701)" fill="#fafafa"/>
        <path id="Path_284" data-name="Path 284" d="M47.095,332.843l-1.112-.65a.144.144,0,0,1-.083-.1.089.089,0,0,1,.056-.095.312.312,0,0,1,.167-.039.445.445,0,0,1,.178.05l.367.217,1.6-.934a.189.189,0,0,0,.117-.195.306.306,0,0,0-.161-.206h0a.139.139,0,0,1-.083-.106.084.084,0,0,1,.056-.095.267.267,0,0,1,.167-.033.367.367,0,0,1,.178.044h0a.589.589,0,0,1,.334.417.384.384,0,0,1-.233.389l-1.573.928.367.217a.15.15,0,0,1,.083.106.1.1,0,0,1-.061.095.267.267,0,0,1-.167.033.345.345,0,0,1-.195-.044Z" transform="translate(-28.16 -311.774)" fill="#fafafa"/>
        <path id="Path_285" data-name="Path 285" d="M52.207,334.862l-.739-.434a.784.784,0,0,0-.356-.095.617.617,0,0,0-.334.067l-.239.139a.056.056,0,0,0-.028.05.061.061,0,0,0,.039.05l1.573.917a.139.139,0,0,1,.083.106.094.094,0,0,1-.061.094.267.267,0,0,1-.167.033.317.317,0,0,1-.178-.05l-1.868-1.073a.15.15,0,0,1-.083-.106c0-.039,0-.067.061-.095l.478-.278a1.19,1.19,0,0,1,.667-.139,1.539,1.539,0,0,1,.712.195l.734.428a.756.756,0,0,0,.356.1.629.629,0,0,0,.339-.067l.317-.189a.189.189,0,0,0,.117-.195c0-.078-.067-.145-.167-.206l-.717-.422a.8.8,0,0,0-.356-.094.617.617,0,0,0-.334.067.312.312,0,0,1-.167.039.418.418,0,0,1-.172-.05.156.156,0,0,1-.089-.106.1.1,0,0,1,.061-.095,1.19,1.19,0,0,1,.667-.139,1.518,1.518,0,0,1,.706.195l.739.428a.612.612,0,0,1,.339.417.4.4,0,0,1-.239.389l-.317.183a1.19,1.19,0,0,1-.667.139A1.557,1.557,0,0,1,52.207,334.862Z" transform="translate(-29.914 -312.954)" fill="#fafafa"/>
        <path id="Path_286" data-name="Path 286" d="M58.352,338.465l-.161.095a1.234,1.234,0,0,1-.667.139,1.541,1.541,0,0,1-.712-.195l-.739-.434a.6.6,0,0,1-.334-.411.389.389,0,0,1,.239-.389.25.25,0,0,1,.167-.033.345.345,0,0,1,.172.044c.056.033.083.067.083.106a.1.1,0,0,1-.056.1.189.189,0,0,0-.117.195.306.306,0,0,0,.167.206l.739.428a.717.717,0,0,0,.35.1.556.556,0,0,0,.334-.072l.161-.089c.089-.056.128-.117.117-.195a.283.283,0,0,0-.167-.211l-.183-.106a.156.156,0,0,1-.083-.1.106.106,0,0,1,.056-.1.266.266,0,0,1,.167-.033.334.334,0,0,1,.183.05l.183.106a.717.717,0,0,0,.356.094.617.617,0,0,0,.334-.067l.156-.094a.189.189,0,0,0,.117-.195c0-.078-.061-.145-.167-.206l-.734-.428a.756.756,0,0,0-.356-.1.556.556,0,0,0-.334.072.372.372,0,0,1-.167.033.445.445,0,0,1-.178-.05.15.15,0,0,1-.083-.106.086.086,0,0,1,.061-.094,1.167,1.167,0,0,1,.667-.139,1.518,1.518,0,0,1,.706.195l.739.434a.584.584,0,0,1,.334.411.4.4,0,0,1-.233.389l-.161.094a1.111,1.111,0,0,1-.334.111,1.863,1.863,0,0,1-.395,0,.328.328,0,0,1-.033.228.5.5,0,0,1-.195.217Z" transform="translate(-32.529 -314.316)" fill="#fafafa"/>
        <path id="Path_287" data-name="Path 287" d="M63.614,341.873a.445.445,0,0,1-.178-.05.144.144,0,0,1-.083-.1.1.1,0,0,1,.061-.1l.884-.517a1.579,1.579,0,0,1-.456-.161l-.734-.434a.6.6,0,0,1-.339-.411.389.389,0,0,1,.239-.389l.8-.467a.334.334,0,0,1,.161-.033.317.317,0,0,1,.178.05.145.145,0,0,1,.083.1.1.1,0,0,1-.056.1l-.8.467a.189.189,0,0,0-.117.195.306.306,0,0,0,.167.206l.739.428a.723.723,0,0,0,.356.1.556.556,0,0,0,.334-.072l.795-.461a.312.312,0,0,1,.167-.039.444.444,0,0,1,.178.05.15.15,0,0,1,.083.106.094.094,0,0,1-.056.094L63.8,341.839A.34.34,0,0,1,63.614,341.873Z" transform="translate(-35.651 -315.572)" fill="#fafafa"/>
        <path id="Path_288" data-name="Path 288" d="M73.309,346.025a.05.05,0,0,0-.028.05.058.058,0,0,0,.039.05l1.017.595a.556.556,0,0,1,.334.411.4.4,0,0,1-.233.389l-.322.183a1.179,1.179,0,0,1-.667.139,1.518,1.518,0,0,1-.706-.195L72,347.221a.556.556,0,0,1-.334-.417.384.384,0,0,1,.233-.389.373.373,0,0,1,.167-.033.445.445,0,0,1,.178.05.15.15,0,0,1,.083.106.086.086,0,0,1-.061.095.206.206,0,0,0-.117.195.3.3,0,0,0,.167.206l.739.434a.8.8,0,0,0,.356.095.617.617,0,0,0,.334-.067l.317-.189a.189.189,0,0,0,.117-.195c0-.078-.061-.145-.167-.206l-1.112-.645a.306.306,0,0,1-.167-.206.2.2,0,0,1,.122-.195l.795-.467a.267.267,0,0,1,.167-.033.317.317,0,0,1,.178.05l1.846,1.073a.139.139,0,0,1,.083.106.084.084,0,0,1-.056.095.272.272,0,0,1-.172.033.417.417,0,0,1-.172-.05l-1.568-.912a.161.161,0,0,0-.089,0,.122.122,0,0,0-.089,0Z" transform="translate(-39.603 -318.302)" fill="#fafafa"/>
        <path id="Path_289" data-name="Path 289" d="M78.9,349.513l.739.428a.556.556,0,0,1,.334.417.384.384,0,0,1-.233.389l-.317.183a1.2,1.2,0,0,1-.673.139,1.5,1.5,0,0,1-.712-.2l-.734-.428a.6.6,0,0,1-.339-.411.389.389,0,0,1,.239-.389l1.279-.756a1.168,1.168,0,0,1,.667-.139,1.518,1.518,0,0,1,.706.195l.739.428a.612.612,0,0,1,.339.417.389.389,0,0,1-.239.389.267.267,0,0,1-.167.033.317.317,0,0,1-.178-.05.145.145,0,0,1-.083-.1.1.1,0,0,1,.05-.061.184.184,0,0,0,.117-.195.306.306,0,0,0-.167-.206l-.739-.428a.739.739,0,0,0-.356-.1.556.556,0,0,0-.334.072l-.406.233a1.434,1.434,0,0,1,.467.139Zm-1.329.345a.183.183,0,0,0-.117.189.3.3,0,0,0,.167.211l.739.428a.739.739,0,0,0,.356.1.555.555,0,0,0,.334-.072l.322-.183a.206.206,0,0,0,.117-.195.306.306,0,0,0-.172-.211l-.739-.428a.779.779,0,0,0-.35-.095.618.618,0,0,0-.334.067Z" transform="translate(-41.957 -319.805)" fill="#fafafa"/>
        <path id="Path_290" data-name="Path 290" d="M86,353.347l-2.185.306h-.306a.05.05,0,0,1-.039,0,.2.2,0,0,1-.094-.095.1.1,0,0,1,.067-.106.794.794,0,0,1,.256-.039c.7-.1,1.379-.2,2.024-.306a.834.834,0,0,0,.195-.05l.156-.061.05-.028c.089-.056.128-.117.117-.195a.267.267,0,0,0-.167-.206l-.367-.217-.183-.111-.739-.428a.15.15,0,0,1-.083-.106.086.086,0,0,1,.061-.095.278.278,0,0,1,.161-.033.334.334,0,0,1,.183.05l.734.428.183.106.372.217a.556.556,0,0,1,.334.411.4.4,0,0,1-.233.389,1.311,1.311,0,0,1-.261.111,1.45,1.45,0,0,1-.233.056Z" transform="translate(-44.804 -321.065)" fill="#fafafa"/>
        <path id="Path_291" data-name="Path 291" d="M90.2,357.053l-.156.095a1.245,1.245,0,0,1-.673.133,1.412,1.412,0,0,1-.706-.195l-.739-.423a.584.584,0,0,1-.334-.411.389.389,0,0,1,.233-.389l.161-.095a.984.984,0,0,1,.334-.117,1.545,1.545,0,0,1,.395,0,.339.339,0,0,1,.033-.233.556.556,0,0,1,.195-.195l.161-.089a1.19,1.19,0,0,1,.667-.139,1.539,1.539,0,0,1,.712.195l.739.428a.617.617,0,0,1,.334.417.4.4,0,0,1-.239.389l-.156.095a1.11,1.11,0,0,1-.334.111,1.589,1.589,0,0,1-.4,0,.373.373,0,0,1,0,.234A.484.484,0,0,1,90.2,357.053Zm.75-.867a.189.189,0,0,0,.117-.195.306.306,0,0,0-.167-.206l-.739-.434a.778.778,0,0,0-.35-.095.606.606,0,0,0-.334.067l-.161.095a.189.189,0,0,0-.117.195.278.278,0,0,0,.167.206l.734.434a.822.822,0,0,0,.356.095.617.617,0,0,0,.334-.067Zm-1.112.65a.189.189,0,0,0,.117-.195.306.306,0,0,0-.167-.206l-.739-.428a.717.717,0,0,0-.35-.1.556.556,0,0,0-.334.072l-.161.089c-.089.056-.128.117-.117.195a.267.267,0,0,0,.167.206l.734.434a.75.75,0,0,0,.356.095.617.617,0,0,0,.334-.067Z" transform="translate(-46.673 -322.581)" fill="#fafafa"/>
        <path id="Path_292" data-name="Path 292" d="M99.275,363.309l-.734-.428a.556.556,0,0,1-.334-.411.372.372,0,0,1,.233-.389.311.311,0,0,1,.167-.039.444.444,0,0,1,.178.05.161.161,0,0,1,.083.106.1.1,0,0,1-.061.095c-.083.056-.128.117-.117.195a.294.294,0,0,0,.167.206l.739.434a.883.883,0,0,0,.356.1.556.556,0,0,0,.334-.072l.406-.233a1.437,1.437,0,0,1-.456-.167l-.739-.434a.556.556,0,0,1-.334-.411.389.389,0,0,1,.233-.389l.322-.183a1.19,1.19,0,0,1,.667-.139,1.518,1.518,0,0,1,.706.195l.739.428a.611.611,0,0,1,.339.417.389.389,0,0,1-.239.389l-1.273.745a1.2,1.2,0,0,1-.673.139,1.5,1.5,0,0,1-.712-.2Zm2.29-.9a.189.189,0,0,0,.117-.195c0-.078-.067-.145-.167-.206l-.739-.434a.8.8,0,0,0-.356-.095.617.617,0,0,0-.334.067l-.317.189a.2.2,0,0,0-.122.195.3.3,0,0,0,.172.206l.734.428a.756.756,0,0,0,.356.1.628.628,0,0,0,.339-.067Z" transform="translate(-51.388 -325.334)" fill="#fafafa"/>
        <path id="Path_293" data-name="Path 293" d="M104.155,366.091l-1.112-.645a.145.145,0,0,1-.083-.1.1.1,0,0,1,.056-.1.378.378,0,0,1,.345,0l.367.211,1.6-.928a.189.189,0,0,0,.117-.195.311.311,0,0,0-.161-.206h0a.156.156,0,0,1-.089-.106.1.1,0,0,1,.061-.094.311.311,0,0,1,.167-.039.444.444,0,0,1,.178.05h0a.556.556,0,0,1,.334.411.384.384,0,0,1-.233.395l-1.607.945.367.217a.145.145,0,0,1,.083.1.1.1,0,0,1-.061.1.267.267,0,0,1-.167.033A.417.417,0,0,1,104.155,366.091Z" transform="translate(-53.499 -326.532)" fill="#fafafa"/>
        <path id="Path_294" data-name="Path 294" d="M108.566,368.678l-.734-.428a.589.589,0,0,1-.334-.417.384.384,0,0,1,.233-.389l1.279-.745a1.167,1.167,0,0,1,.667-.133,1.45,1.45,0,0,1,.706.195l.739.428a.556.556,0,0,1,.334.411.378.378,0,0,1-.233.389l-1.279.745a1.19,1.19,0,0,1-.667.139,1.557,1.557,0,0,1-.712-.195Zm-.417-.617.739.411a.767.767,0,0,0,.217.083l.245-1.64-1.251.728a.189.189,0,0,0-.117.195.306.306,0,0,0,.167.222Zm2.657-.689-.739-.428a.765.765,0,0,0-.217-.078l-.245,1.64,1.245-.728a.206.206,0,0,0,.122-.195.3.3,0,0,0-.167-.222Z" transform="translate(-55.514 -327.718)" fill="#fafafa"/>
        <path id="Path_295" data-name="Path 295" d="M113.435,371.528l-1.112-.645a.161.161,0,0,1-.083-.106.1.1,0,0,1,.061-.095.267.267,0,0,1,.167-.033.367.367,0,0,1,.178.044l.367.217,1.6-.934a.2.2,0,0,0,.122-.189.3.3,0,0,0-.161-.206h0a.139.139,0,0,1-.089-.1.1.1,0,0,1,.061-.1.312.312,0,0,1,.167-.033.316.316,0,0,1,.178.05h0a.556.556,0,0,1,.334.411.378.378,0,0,1-.233.389l-1.6.934.367.211a.161.161,0,0,1,.083.106.094.094,0,0,1-.061.094.267.267,0,0,1-.167.033.367.367,0,0,1-.178-.05Z" transform="translate(-57.62 -328.956)" fill="#fafafa"/>
        <path id="Path_296" data-name="Path 296" d="M122.725,376.921l-1.112-.645a.145.145,0,0,1-.083-.1.1.1,0,0,1,.061-.1.378.378,0,0,1,.345,0l.367.211,1.6-.928a.2.2,0,0,0,.122-.195.311.311,0,0,0-.161-.206h0a.161.161,0,0,1-.083-.106.094.094,0,0,1,.061-.095.311.311,0,0,1,.167-.039.444.444,0,0,1,.178.05h0a.556.556,0,0,1,.334.417.389.389,0,0,1-.233.389l-1.607.967.372.217a.144.144,0,0,1,.083.1.1.1,0,0,1-.061.1.267.267,0,0,1-.167.033A.445.445,0,0,1,122.725,376.921Z" transform="translate(-61.746 -331.341)" fill="#fafafa"/>
        <path id="Path_297" data-name="Path 297" d="M127.886,378.948l-.739-.428a.734.734,0,0,0-.356-.095.617.617,0,0,0-.334.067l-.239.139a.045.045,0,0,0,0,.05.067.067,0,0,0,.039.05l1.573.917c.05.028.078.061.078.1a.1.1,0,0,1-.056.1.267.267,0,0,1-.167.033.366.366,0,0,1-.178-.05l-1.846-1.073a.161.161,0,0,1-.083-.106.089.089,0,0,1,.056-.095l.484-.283a1.217,1.217,0,0,1,.667-.133,1.451,1.451,0,0,1,.706.195l.739.428a.74.74,0,0,0,.356.1.556.556,0,0,0,.334-.072l.322-.183a.189.189,0,0,0,.117-.195.306.306,0,0,0-.172-.211l-.734-.428a.751.751,0,0,0-.356-.095.617.617,0,0,0-.334.067.267.267,0,0,1-.167.033.317.317,0,0,1-.178-.05.145.145,0,0,1-.083-.1.1.1,0,0,1,.056-.1,1.245,1.245,0,0,1,.673-.133,1.467,1.467,0,0,1,.706.195l.739.428a.556.556,0,0,1,.334.417.384.384,0,0,1-.233.389l-.317.183a1.189,1.189,0,0,1-.667.139A1.462,1.462,0,0,1,127.886,378.948Z" transform="translate(-63.544 -332.528)" fill="#fafafa"/>
        <path id="Path_298" data-name="Path 298" d="M132.045,382.358l-1.112-.645a.15.15,0,0,1-.083-.106.1.1,0,0,1,.056-.095.284.284,0,0,1,.172-.033.368.368,0,0,1,.178.044l.367.217,1.6-.934a.183.183,0,0,0,.117-.189.272.272,0,0,0-.161-.206h0a.145.145,0,0,1-.083-.1.1.1,0,0,1,.061-.1.311.311,0,0,1,.167-.033.316.316,0,0,1,.178.05h0a.584.584,0,0,1,.334.411.4.4,0,0,1-.233.389l-1.6.934.372.211a.161.161,0,0,1,.083.106.111.111,0,0,1-.061.1.373.373,0,0,1-.167.033A.445.445,0,0,1,132.045,382.358Z" transform="translate(-65.884 -333.766)" fill="#fafafa"/>
        <path id="Path_299" data-name="Path 299" d="M137.966,384.886l-.156.095a1.3,1.3,0,0,1-.673.139,1.534,1.534,0,0,1-.706-.195l-.739-.434a.6.6,0,0,1-.334-.411.389.389,0,0,1,.239-.389.239.239,0,0,1,.161-.033.367.367,0,0,1,.178.044.161.161,0,0,1,.083.106.089.089,0,0,1-.056.095c-.089.056-.128.117-.117.195a.278.278,0,0,0,.167.211l.734.428a.751.751,0,0,0,.356.094.556.556,0,0,0,.334-.067l.161-.095a.189.189,0,0,0,.117-.195.306.306,0,0,0-.167-.206l-.183-.106a.139.139,0,0,1-.083-.106.084.084,0,0,1,.056-.094.267.267,0,0,1,.167-.033.367.367,0,0,1,.178.044l.189.111a.778.778,0,0,0,.35.095.617.617,0,0,0,.334-.067l.161-.095a.189.189,0,0,0,.117-.195.289.289,0,0,0-.167-.206l-.728-.428a.717.717,0,0,0-.35-.1.617.617,0,0,0-.334.067.317.317,0,0,1-.172.039.472.472,0,0,1-.178-.05.161.161,0,0,1-.083-.106.106.106,0,0,1,.061-.095,1.19,1.19,0,0,1,.667-.139,1.54,1.54,0,0,1,.712.195l.739.434a.6.6,0,0,1,.334.411.4.4,0,0,1-.239.389l-.156.094a1.111,1.111,0,0,1-.334.111,1.9,1.9,0,0,1-.4,0,.322.322,0,0,1-.028.228.484.484,0,0,1-.211.217Z" transform="translate(-67.887 -334.931)" fill="#fafafa"/>
        <path id="Path_300" data-name="Path 300" d="M108.044,381.617l-.645-.378c-.033,0-.05-.039-.05-.061a.045.045,0,0,1,.033-.056.211.211,0,0,1,.2,0l.217.128.934-.556a.111.111,0,0,0,.067-.111.178.178,0,0,0-.095-.122h0a.078.078,0,0,1-.044-.061.044.044,0,0,1,.033-.056.161.161,0,0,1,.095,0,.211.211,0,0,1,.106.028h0a.35.35,0,0,1,.195.245.228.228,0,0,1-.139.228l-.928.556.211.128c.033,0,.05.039.05.061a.05.05,0,0,1-.033.056.189.189,0,0,1-.1,0A.266.266,0,0,1,108.044,381.617Z" transform="translate(-55.447 -333.836)" fill="#fafafa"/>
        <path id="Path_301" data-name="Path 301" d="M111.046,382.79l-.434-.25a.423.423,0,0,0-.195-.039.35.35,0,0,0-.195.044l-.139.078v.028a.039.039,0,0,0,0,.033l.917.556a.105.105,0,0,1,.05.061.064.064,0,0,1-.039.056.16.16,0,0,1-.094,0,.234.234,0,0,1-.106-.033l-1.078-.628c-.028,0-.044-.033-.044-.056a.056.056,0,0,1,.033-.061l.278-.161a.662.662,0,0,1,.389-.078.912.912,0,0,1,.417.111l.428.25a.5.5,0,0,0,.211.061.35.35,0,0,0,.195-.044l.183-.106c.056-.033.078-.067.072-.117a.167.167,0,0,0-.1-.117l-.434-.256a.466.466,0,0,0-.206-.056.405.405,0,0,0-.195.039.172.172,0,0,1-.094,0,.211.211,0,0,1-.106-.028.106.106,0,0,1-.05-.061.067.067,0,0,1,.033-.056.706.706,0,0,1,.389-.083.9.9,0,0,1,.417.117l.428.25a.345.345,0,0,1,.2.245.217.217,0,0,1-.139.222l-.183.111a.673.673,0,0,1-.395.078A.884.884,0,0,1,111.046,382.79Z" transform="translate(-56.487 -334.52)" fill="#fafafa"/>
        <path id="Path_302" data-name="Path 302" d="M115.688,385.5l-.434-.25a.423.423,0,0,0-.206-.061.35.35,0,0,0-.195.044l-.139.078v.028a.039.039,0,0,0,0,.033l.917.556a.078.078,0,0,1,.044.061.066.066,0,0,1-.033.056.162.162,0,0,1-.095,0,.3.3,0,0,1-.106,0l-1.073-.673a.1.1,0,0,1-.05-.056.072.072,0,0,1,.039-.061l.278-.161a.662.662,0,0,1,.389-.078.928.928,0,0,1,.417.111l.428.25a.423.423,0,0,0,.206.061.367.367,0,0,0,.2-.044l.183-.106a.117.117,0,0,0,.072-.117.167.167,0,0,0-.1-.117L116,384.8a.466.466,0,0,0-.206-.056.406.406,0,0,0-.195.039.211.211,0,0,1-.2,0,.105.105,0,0,1-.05-.061.066.066,0,0,1,.033-.056.705.705,0,0,1,.389-.083.912.912,0,0,1,.417.117l.428.25a.345.345,0,0,1,.2.245.234.234,0,0,1-.139.228l-.189.106a.656.656,0,0,1-.389.078A.884.884,0,0,1,115.688,385.5Z" transform="translate(-58.544 -335.719)" fill="#fafafa"/>
        <path id="Path_303" data-name="Path 303" d="M119.262,387.579l-.094.056a.7.7,0,0,1-.389.083.889.889,0,0,1-.411-.117l-.434-.25a.344.344,0,0,1-.195-.239.222.222,0,0,1,.139-.228.161.161,0,0,1,.094,0,.211.211,0,0,1,.106,0,.106.106,0,0,1,.05.061.061.061,0,0,1-.033.056.117.117,0,0,0-.072.117.167.167,0,0,0,.1.117l.428.256a.494.494,0,0,0,.211.056.416.416,0,0,0,.195-.039l.089-.056c.056-.033.078-.067.072-.117a.167.167,0,0,0-.1-.117l-.106-.067a.054.054,0,0,1-.05-.056.056.056,0,0,1,.033-.061.239.239,0,0,1,.2,0l.111.061a.406.406,0,0,0,.206.056.306.306,0,0,0,.195-.039l.095-.056a.111.111,0,0,0,.067-.111.178.178,0,0,0-.094-.122l-.434-.25a.423.423,0,0,0-.206-.056.351.351,0,0,0-.195.039.189.189,0,0,1-.1,0,.194.194,0,0,1-.1-.033.054.054,0,0,1-.05-.056.056.056,0,0,1,.033-.061.762.762,0,0,1,.389-.078.867.867,0,0,1,.417.117l.428.25a.328.328,0,0,1,.195.239.228.228,0,0,1-.133.228l-.095.056a.888.888,0,0,1-.195.067,1.114,1.114,0,0,1-.233,0,.189.189,0,0,1,0,.133.25.25,0,0,1-.133.161Z" transform="translate(-60.062 -336.496)" fill="#fafafa"/>
        <path id="Path_304" data-name="Path 304" d="M112.374,384.612h0a.067.067,0,0,1,.039-.095l1.868-.784a.067.067,0,0,1,.095.039.072.072,0,0,1-.039.094l-1.873.784A.072.072,0,0,1,112.374,384.612Z" transform="translate(-57.676 -335.341)" fill="#fafafa"/>
        <path id="Path_305" data-name="Path 305" d="M69.908,323.618a.523.523,0,0,0,0-.99c-2.074-1.212-5.559-3.191-7.644-4.4a1.851,1.851,0,0,0-1.668,0l-1.34.778,9.328,5.4Zm-7.666-2.424-2.813,1.64,2.552,1.473,2.78-1.634Zm.117,3.336,3.008,1.734,2.78-1.668-2.991-1.74Zm1.29,2.73,1.323-.773-9.3-5.387-1.356.806a.556.556,0,0,0,0,1l7.644,4.392a1.851,1.851,0,0,0,1.69-.028Zm-1.79-6.293-3-1.734-2.813,1.64,3,1.74Z" transform="translate(-31.76 -306.168)" fill="#fff4ed"/>
        <path id="Path_306" data-name="Path 306" d="M69.908,323.618a.523.523,0,0,0,0-.99c-2.074-1.212-5.559-3.191-7.644-4.4a1.851,1.851,0,0,0-1.668,0l-1.34.778,9.328,5.4Zm-7.666-2.424-2.813,1.64,2.552,1.473,2.78-1.634Zm.117,3.336,3.008,1.734,2.78-1.668-2.991-1.74Zm1.29,2.73,1.323-.773-9.3-5.387-1.356.806a.556.556,0,0,0,0,1l7.644,4.392a1.851,1.851,0,0,0,1.69-.028Zm-1.79-6.293-3-1.734-2.813,1.64,3,1.74Z" transform="translate(-31.924 -306.168)" fill="#fff4ed" opacity="0.6"/>
        <path id="Path_307" data-name="Path 307" d="M122.983,356.1,93.068,338.657a2.04,2.04,0,0,0-1.879,0l-.133.078a.556.556,0,1,0,0,1.112l29.914,17.439a2.051,2.051,0,0,0,1.885,0l.128-.078a.556.556,0,0,0,0-1.112Z" transform="translate(-47.966 -315.225)" fill="#fff4ed"/>
        <g id="Group_15" data-name="Group 15" transform="translate(42.314 23.202)" opacity="0.4">
          <path id="Path_308" data-name="Path 308" d="M122.983,356.1,93.068,338.657a2.04,2.04,0,0,0-1.879,0l-.133.078a.556.556,0,1,0,0,1.112l29.914,17.439a2.051,2.051,0,0,0,1.885,0l.128-.078a.556.556,0,0,0,0-1.112Z" transform="translate(-90.5 -338.428)" fill="#fff4ed"/>
        </g>
        <path id="Path_309" data-name="Path 309" d="M84.944,308.253a.317.317,0,0,1,.172-.033.278.278,0,0,1,.145.044l.473.272a.133.133,0,0,1,.072.095c0,.033,0,.067-.072.089a2.847,2.847,0,0,1-.595.211,3.172,3.172,0,0,1-.745.067,3.923,3.923,0,0,1-.845-.122,3.535,3.535,0,0,1-.9-.384,2.035,2.035,0,0,1-.595-.484.851.851,0,0,1-.189-.5.812.812,0,0,1,.172-.495,1.951,1.951,0,0,1,.506-.456c.139-.094.3-.189.478-.295s.345-.195.5-.278a3.841,3.841,0,0,1,.789-.295,3.62,3.62,0,0,1,.845-.1,3.478,3.478,0,0,1,.856.111,3.151,3.151,0,0,1,.828.345,2.262,2.262,0,0,1,.656.523.934.934,0,0,1,.217.495.65.65,0,0,1-.122.434,1.318,1.318,0,0,1-.356.345.245.245,0,0,1-.156.044.345.345,0,0,1-.161-.044l-.473-.272a.156.156,0,0,1-.061-.083.144.144,0,0,1,.05-.1.489.489,0,0,0,.145-.183.356.356,0,0,0,0-.217.556.556,0,0,0-.139-.245,1.323,1.323,0,0,0-.345-.267,1.925,1.925,0,0,0-.461-.189,1.994,1.994,0,0,0-.473-.056,1.835,1.835,0,0,0-.456.061,2.418,2.418,0,0,0-.411.156c-.156.083-.328.178-.506.284s-.334.2-.478.289a1.19,1.19,0,0,0-.272.245.422.422,0,0,0,0,.556.989.989,0,0,0,.328.272,2.221,2.221,0,0,0,.45.195,2.093,2.093,0,0,0,.423.083,1.67,1.67,0,0,0,.378,0A1.213,1.213,0,0,0,84.944,308.253Z" transform="translate(-44.134 -300.643)" fill="#455a64"/>
        <path id="Path_310" data-name="Path 310" d="M93.548,310.043c.489.284.745.556.767.845s-.156.556-.556.767a2.446,2.446,0,0,1-.923.306,2.657,2.657,0,0,1-1.017-.072L91.18,313.2a.134.134,0,0,1-.044.05.306.306,0,0,1-.256,0l-.495-.289q-.117-.067-.117-.133a.2.2,0,0,1,0-.106l.595-1.24-.773-.45-1.34.823a.34.34,0,0,1-.156.033.322.322,0,0,1-.156-.033l-.473-.278a.106.106,0,0,1-.067-.089c0-.039,0-.067.067-.095l3.764-2.2a.278.278,0,0,1,.156-.033.3.3,0,0,1,.161.033Zm-2.707.556.839.489a1.807,1.807,0,0,0,.65.245.945.945,0,0,0,.639-.145c.217-.128.3-.25.239-.372a1.112,1.112,0,0,0-.417-.372l-.845-.489Z" transform="translate(-46.812 -302.227)" fill="#455a64"/>
        <path id="Path_311" data-name="Path 311" d="M98.287,316.663a.106.106,0,0,1,.067.089c0,.039,0,.067-.067.095l-.411.239a.339.339,0,0,1-.156.039.344.344,0,0,1-.161-.039l-2.607-1.49a.106.106,0,0,1-.061-.095.1.1,0,0,1,.061-.089l3.764-2.224a.3.3,0,0,1,.161-.039.283.283,0,0,1,.156.039l2.513,1.462a.106.106,0,0,1,.061.094.1.1,0,0,1-.061.089l-.417.245a.378.378,0,0,1-.311,0l-1.885-1.112-.928.556,1.757,1.023c.044.028.067.056.067.095a.106.106,0,0,1-.067.089l-.411.245a.345.345,0,0,1-.161.039.339.339,0,0,1-.156-.039l-1.757-1.023-.967.556Z" transform="translate(-49.916 -304)" fill="#455a64"/>
        <path id="Path_312" data-name="Path 312" d="M106.977,317.848a2.224,2.224,0,0,1,.634.5.823.823,0,0,1,.206.5.734.734,0,0,1-.178.484,2.119,2.119,0,0,1-.528.467c-.272.178-.556.345-.862.506a4.022,4.022,0,0,1-.8.306,3.269,3.269,0,0,1-.834.106,3.424,3.424,0,0,1-.845-.111,3.585,3.585,0,0,1-.845-.361l-1.468-.856c-.044-.028-.067-.056-.067-.095a.106.106,0,0,1,.067-.089l3.764-2.2a.283.283,0,0,1,.156-.039.289.289,0,0,1,.161.039Zm-.656,1.5a1.228,1.228,0,0,0,.278-.245.478.478,0,0,0,.095-.272.433.433,0,0,0-.111-.278,1.239,1.239,0,0,0-.367-.295l-.778-.456-2.6,1.529.812.473a1.974,1.974,0,0,0,.478.206,2.052,2.052,0,0,0,.478.061,1.8,1.8,0,0,0,.456-.061,2.137,2.137,0,0,0,.423-.161A9.2,9.2,0,0,0,106.321,319.343Z" transform="translate(-52.802 -305.696)" fill="#455a64"/>
        <path id="Path_313" data-name="Path 313" d="M108.841,323.67a.1.1,0,0,1-.061-.089.106.106,0,0,1,.061-.095l3.764-2.224a.3.3,0,0,1,.161-.033.278.278,0,0,1,.156.033l.473.278a.1.1,0,0,1,.061.089.106.106,0,0,1-.061.095l-3.764,2.2a.362.362,0,0,1-.161.033.339.339,0,0,1-.156-.033Z" transform="translate(-56.084 -307.587)" fill="#455a64"/>
        <path id="Path_314" data-name="Path 314" d="M119.231,324.427c.044.028.067.056.067.095a.1.1,0,0,1-.067.089l-.411.245a.34.34,0,0,1-.156.039.345.345,0,0,1-.161-.039l-1.051-.612-3.191,1.862a.345.345,0,0,1-.317,0l-.473-.278a.106.106,0,0,1-.061-.089c0-.039,0-.067.067-.094l3.191-1.862-1.051-.612a.106.106,0,0,1-.061-.089.117.117,0,0,1,.061-.095l.417-.239a.328.328,0,0,1,.311,0Z" transform="translate(-58.14 -308.245)" fill="#455a64"/>
        <path id="Path_315" data-name="Path 315" d="M124.384,331.243a.373.373,0,0,1,.172-.028.3.3,0,0,1,.15.039l.467.278a.117.117,0,0,1,.072.089c0,.039,0,.067-.072.095a2.565,2.565,0,0,1-.595.206,2.875,2.875,0,0,1-.745.072,4,4,0,0,1-.845-.128,3.72,3.72,0,0,1-.9-.378A2.018,2.018,0,0,1,121.5,331a.8.8,0,0,1-.195-.495.834.834,0,0,1,.172-.495,2.062,2.062,0,0,1,.506-.461c.139-.089.3-.189.478-.289l.5-.284a3.824,3.824,0,0,1,.789-.289,3.336,3.336,0,0,1,.845-.106,3.445,3.445,0,0,1,.856.111,3.39,3.39,0,0,1,.834.345,2.307,2.307,0,0,1,.65.556.923.923,0,0,1,.217.489.65.65,0,0,1-.122.434,1.334,1.334,0,0,1-.356.35.284.284,0,0,1-.156.039.362.362,0,0,1-.161-.039l-.467-.278a.139.139,0,0,1-.078-.083.106.106,0,0,1,.05-.106.506.506,0,0,0,.15-.178.367.367,0,0,0,0-.217.556.556,0,0,0-.139-.25,1.529,1.529,0,0,0-.339-.261,1.829,1.829,0,0,0-.467-.189,1.739,1.739,0,0,0-.473-.056,1.568,1.568,0,0,0-.45.061,1.955,1.955,0,0,0-.417.156c-.156.083-.322.172-.5.278s-.339.2-.478.295a1.017,1.017,0,0,0-.278.245.417.417,0,0,0-.1.261.45.45,0,0,0,.095.272,1.051,1.051,0,0,0,.328.272,1.994,1.994,0,0,0,.45.2,2.147,2.147,0,0,0,.428.083,1.628,1.628,0,0,0,.372,0,1.211,1.211,0,0,0,.334-.128Z" transform="translate(-61.648 -310.852)" fill="#455a64"/>
        <path id="Path_316" data-name="Path 316" d="M132.872,333.658c.061.039.094.072.089.111a.217.217,0,0,1-.067.133l-2.257,2.98-.033.028a.283.283,0,0,1-.156.039.272.272,0,0,1-.156-.039l-.423-.245c-.078-.044-.117-.089-.117-.122a.211.211,0,0,1,.033-.094l.4-.523-1.846-1.073-.9.228h-.161a.422.422,0,0,1-.211-.067l-.423-.245a.117.117,0,0,1-.061-.095.106.106,0,0,1,.061-.089h.05l5.109-1.318a1.45,1.45,0,0,1,.233-.039.35.35,0,0,1,.189.056Zm-2.224,1.668,1.023-1.34-2.3.595Z" transform="translate(-63.993 -312.917)" fill="#455a64"/>
        <path id="Path_317" data-name="Path 317" d="M140.28,337.271c.484.284.739.556.767.845s-.156.556-.556.767a2.335,2.335,0,0,1-.917.311,2.7,2.7,0,0,1-1.023-.078l-.634,1.312-.044.044a.261.261,0,0,1-.256,0l-.495-.289c-.078-.044-.117-.089-.122-.133a.211.211,0,0,1,0-.106l.595-1.234-.778-.45-1.356.789a.283.283,0,0,1-.156.039.3.3,0,0,1-.161-.039l-.467-.272c-.044,0-.067-.056-.067-.095a.106.106,0,0,1,.067-.089l3.764-2.2a.328.328,0,0,1,.311,0Zm-2.713.556.845.495a1.789,1.789,0,0,0,.65.239.978.978,0,0,0,.639-.139c.217-.128.3-.25.239-.372a.99.99,0,0,0-.422-.372l-.839-.495Z" transform="translate(-67.554 -314.307)" fill="#455a64"/>
        <path id="Path_318" data-name="Path 318" d="M147.349,341.428a2.225,2.225,0,0,1,.634.5.834.834,0,0,1,.211.5.773.773,0,0,1-.183.484,2.118,2.118,0,0,1-.556.467c-.272.178-.556.345-.862.506a4.022,4.022,0,0,1-.8.306,3.241,3.241,0,0,1-.834.111,3.192,3.192,0,0,1-.845-.117,3.688,3.688,0,0,1-.845-.361l-1.468-.856a.117.117,0,0,1-.061-.095.106.106,0,0,1,.061-.089l3.764-2.2a.3.3,0,0,1,.161-.039.272.272,0,0,1,.156.039Zm-.65,1.5a1.191,1.191,0,0,0,.272-.245.434.434,0,0,0,.1-.267.445.445,0,0,0-.117-.283,1.205,1.205,0,0,0-.361-.295l-.784-.456-2.624,1.529.812.473a1.84,1.84,0,0,0,.956.267,1.617,1.617,0,0,0,.461-.061,1.8,1.8,0,0,0,.417-.161,9.3,9.3,0,0,0,.867-.5Z" transform="translate(-70.721 -316.167)" fill="#455a64"/>
      </g>
    </g>
    <g id="freepik--Cart--inject-49" transform="translate(91.929 73.43)">
      <g id="freepik--cart--inject-49-2" data-name="freepik--cart--inject-49" transform="translate(0 0)">
        <path id="freepik--shadow--inject-49-6" data-name="freepik--shadow--inject-49" d="M203.2,243.758l-35.485,20.569a1.327,1.327,0,0,0,0,2.513l40.677,23.51a4.809,4.809,0,0,0,4.347,0l35.485-20.569a1.327,1.327,0,0,0,0-2.513l-40.677-23.5a4.792,4.792,0,0,0-4.347-.011Z" transform="translate(-162.923 -158.998)" fill="#ff914d" opacity="0.3"/>
        <path id="Path_319" data-name="Path 319" d="M222.132,256.789a8.083,8.083,0,0,1-4.008-.717l-35.485-20.441c-2.14-1.078-4.547-3.891-4.7-6.532l-1.112-25.278,1.974-.111,1.112,25.272c.106,1.807,1.99,4.069,3.613,4.881L219.013,254.3a6.816,6.816,0,0,0,5.954-.345l23.671-13.631c.556-.372.889-.817.867-1.19s-.378-.756-.973-1.056l-37.986-22.053c-2.14-1.073-4.542-3.891-4.692-6.538l-.528-14.02,1.974-.111.556,14.02c.1,1.807,1.979,4.069,3.6,4.881L249.411,236.3a3.056,3.056,0,0,1,.306,5.665l-23.66,13.631a8.061,8.061,0,0,1-3.925,1.2Z" transform="translate(-167.373 -137.735)" fill="#455a64"/>
        <path id="Path_320" data-name="Path 320" d="M245,302.376a.183.183,0,0,0,.067.028c-2.313,3-6.082,3.858-6.927,3.463-.684-.311-1.084-1.112-.556-1.612.239-.222.65-.45,1.04-.773a5.7,5.7,0,0,0,1.612-3.853Z" transform="translate(-194.245 -184.039)" fill="#e0e0e0"/>
        <path id="Path_321" data-name="Path 321" d="M239.579,307.229a8.372,8.372,0,0,0-3.747-6.588,2.607,2.607,0,0,0-2.78-.217h0l-2.563,1.445,5.376,9.267,2.541-1.44h0A2.671,2.671,0,0,0,239.579,307.229Z" transform="translate(-191.202 -184.255)" fill="#37474f"/>
        <path id="Path_322" data-name="Path 322" d="M232.273,303.357a8.339,8.339,0,0,1,3.747,6.582c0,2.418-1.718,3.386-3.8,2.163a8.339,8.339,0,0,1-3.747-6.582C228.487,303.1,230.188,302.134,232.273,303.357Z" transform="translate(-190.305 -185.459)" fill="#455a64"/>
        <path id="Path_323" data-name="Path 323" d="M233,309.407c0-.945.556-1.373,1.29-.962a3.063,3.063,0,0,1,1.267,2.457c0,.945-.584,1.379-1.29.962A3.063,3.063,0,0,1,233,309.407Z" transform="translate(-192.316 -187.884)" fill="#263238"/>
        <path id="Path_324" data-name="Path 324" d="M236.868,297.78s.245,4.447-1.8,6.165c-.384.317-.8.556-1.04.773-.517.484-.111,1.3.556,1.612,1,.461,6.065-.845,8.044-5.226Z" transform="translate(-192.671 -183.217)" fill="#f5f5f5"/>
        <path id="Path_325" data-name="Path 325" d="M235.13,310.747a.845.845,0,0,1,.417.634c0,.239-.15.345-.367.233a.828.828,0,0,1-.411-.628C234.752,310.747,234.9,310.642,235.13,310.747Z" transform="translate(-193.101 -188.958)" fill="#263238"/>
        <path id="Path_326" data-name="Path 326" d="M194.583,273.346l.061.033c-2.307,3-6.071,3.858-6.921,3.458-.678-.311-1.112-1.112-.556-1.612.239-.222.65-.45,1.034-.773a5.7,5.7,0,0,0,1.612-3.853Z" transform="translate(-171.85 -171.147)" fill="#e0e0e0"/>
        <path id="Path_327" data-name="Path 327" d="M189.179,278.186a8.389,8.389,0,0,0-3.747-6.6,2.593,2.593,0,0,0-2.78-.211h0l-2.563,1.44,5.37,9.267,2.546-1.44h0A2.611,2.611,0,0,0,189.179,278.186Z" transform="translate(-168.82 -171.351)" fill="#37474f"/>
        <path id="Path_328" data-name="Path 328" d="M181.873,274.327a8.372,8.372,0,0,1,3.747,6.582c0,2.418-1.718,3.386-3.8,2.168a8.383,8.383,0,0,1-3.747-6.588C178.087,274.071,179.788,273.1,181.873,274.327Z" transform="translate(-167.923 -172.567)" fill="#455a64"/>
        <path id="Path_329" data-name="Path 329" d="M182.56,280.377c0-.945.584-1.373,1.29-.962a3.063,3.063,0,0,1,1.268,2.457c0,.945-.556,1.379-1.29.962A3.063,3.063,0,0,1,182.56,280.377Z" transform="translate(-169.917 -174.992)" fill="#263238"/>
        <path id="Path_330" data-name="Path 330" d="M186.466,268.75s.245,4.447-1.8,6.165c-.389.317-.8.556-1.04.773-.523.484-.111,1.3.556,1.612.99.461,6.065-.845,8.044-5.226Z" transform="translate(-170.287 -170.326)" fill="#f5f5f5"/>
        <path id="Path_331" data-name="Path 331" d="M184.711,281.717a.823.823,0,0,1,.411.634c0,.239-.145.345-.361.233a.812.812,0,0,1-.411-.628C184.344,281.717,184.511,281.612,184.711,281.717Z" transform="translate(-170.712 -176.066)" fill="#263238"/>
        <path id="Path_332" data-name="Path 332" d="M295.453,267.555c-2.313,2.991-6.076,3.853-6.921,3.458-.684-.317-1.084-1.112-.556-1.612.239-.222.65-.45,1.04-.778a5.687,5.687,0,0,0,1.612-3.853l4.486,2.585.289.167Z" transform="translate(-216.622 -168.558)" fill="#e0e0e0"/>
        <path id="Path_333" data-name="Path 333" d="M289.969,272.372a8.378,8.378,0,0,0-3.747-6.582,2.6,2.6,0,0,0-2.78-.217h0l-2.563,1.445,5.37,9.267,2.546-1.445h0A2.647,2.647,0,0,0,289.969,272.372Z" transform="translate(-213.579 -168.777)" fill="#37474f"/>
        <path id="Path_334" data-name="Path 334" d="M282.663,268.507a8.339,8.339,0,0,1,3.747,6.582c0,2.418-1.718,3.386-3.8,2.163a8.339,8.339,0,0,1-3.747-6.582C278.877,268.251,280.606,267.284,282.663,268.507Z" transform="translate(-212.682 -169.983)" fill="#455a64"/>
        <path id="Path_335" data-name="Path 335" d="M283.35,274.557c0-.945.556-1.373,1.29-.962a3.063,3.063,0,0,1,1.268,2.457c0,.945-.584,1.373-1.29.962a3.063,3.063,0,0,1-1.268-2.457Z" transform="translate(-214.676 -172.408)" fill="#263238"/>
        <path id="Path_336" data-name="Path 336" d="M287.256,262.93s.245,4.447-1.8,6.16c-.389.322-.8.556-1.04.778-.523.484-.111,1.3.556,1.612.99.461,6.065-.845,8.044-5.226Z" transform="translate(-215.046 -167.741)" fill="#f5f5f5"/>
        <path id="Path_337" data-name="Path 337" d="M285.52,275.9a.812.812,0,0,1,.411.628c0,.239-.145.35-.361.239a.811.811,0,0,1-.411-.628C285.142,275.9,285.309,275.792,285.52,275.9Z" transform="translate(-215.479 -173.481)" fill="#263238"/>
        <path id="Path_338" data-name="Path 338" d="M245.113,238.362l.061.033c-2.307,3-6.076,3.853-6.921,3.458-.678-.317-1.112-1.112-.556-1.612.239-.222.65-.45,1.04-.773a5.711,5.711,0,0,0,1.612-3.858Z" transform="translate(-194.289 -155.609)" fill="#e0e0e0"/>
        <path id="Path_339" data-name="Path 339" d="M239.735,243.212a8.339,8.339,0,0,0-3.747-6.582,2.6,2.6,0,0,0-2.78-.217h0l-2.568,1.445,5.376,9.262,2.541-1.44h0A2.65,2.65,0,0,0,239.735,243.212Z" transform="translate(-191.268 -155.828)" fill="#37474f"/>
        <path id="Path_340" data-name="Path 340" d="M232.4,239.34a8.367,8.367,0,0,1,3.741,6.588c0,2.418-1.712,3.386-3.8,2.163A8.372,8.372,0,0,1,228.6,241.5C228.611,239.09,230.318,238.122,232.4,239.34Z" transform="translate(-190.362 -157.032)" fill="#455a64"/>
        <path id="Path_341" data-name="Path 341" d="M233.09,245.395c0-.945.556-1.379,1.29-.962a3.074,3.074,0,0,1,1.262,2.457c0,.945-.556,1.373-1.284.962A3.08,3.08,0,0,1,233.09,245.395Z" transform="translate(-192.356 -159.457)" fill="#263238"/>
        <path id="Path_342" data-name="Path 342" d="M236.988,233.77s.25,4.447-1.8,6.16c-.384.322-.8.556-1.04.778-.517.484-.111,1.3.556,1.612.99.461,6.065-.845,8.044-5.226Z" transform="translate(-192.724 -154.792)" fill="#f5f5f5"/>
        <path id="Path_343" data-name="Path 343" d="M235.256,246.735a.828.828,0,0,1,.411.628c0,.239-.15.35-.361.239a.834.834,0,0,1-.417-.628C234.878,246.735,235.04,246.624,235.256,246.735Z" transform="translate(-193.155 -160.53)" fill="#263238"/>
        <path id="Path_344" data-name="Path 344" d="M215.382,119.167l-1.056.617-.817-3.336a10.4,10.4,0,0,0-4.214-5.593l-.967-.556a2.107,2.107,0,0,0-1.846,0l-6.571,3.78a.584.584,0,1,1-.584-1.012l6.571-3.786a3.336,3.336,0,0,1,3.013,0l.967.556a11.585,11.585,0,0,1,4.764,6.354Z" transform="translate(-177.233 -99.35)" fill="#37474f"/>
        <path id="Path_345" data-name="Path 345" d="M173.661,125.942l-1.9-3.291,15.877-9.162h0a.906.906,0,0,1,1.028.044,2.969,2.969,0,0,1,1.345,2.329.906.906,0,0,1-.473.917h0Z" transform="translate(-165.121 -101.316)" fill="#ff914d"/>
        <path id="Path_346" data-name="Path 346" d="M173.661,125.942l-1.9-3.291,15.877-9.162h0a.906.906,0,0,1,1.028.044,2.969,2.969,0,0,1,1.345,2.329.906.906,0,0,1-.473.917h0Z" transform="translate(-165.121 -101.224)" fill="#ff914d" opacity="0.25"/>
        <path id="Path_347" data-name="Path 347" d="M171.469,130.055c.5-.289,1.334.211,1.857,1.112s.556,1.879.044,2.168-1.329-.217-1.857-1.112S170.969,130.344,171.469,130.055Z" transform="translate(-164.83 -108.698)" fill="#ff914d"/>
        <path id="Path_348" data-name="Path 348" d="M167.663,147.3l-1.056.606-.817-3.336a10.418,10.418,0,0,0-4.2-5.57l-.973-.556a1.312,1.312,0,0,1,0-2.413l6.276-3.625c.156-.089.411.067.556.345s.167.584,0,.673h0l-6.276,3.625a.478.478,0,0,0-.211.189.523.523,0,0,0,.211.2l.973.556a11.585,11.585,0,0,1,4.759,6.326Z" transform="translate(-159.818 -109.769)" fill="#455a64"/>
        <path id="Path_349" data-name="Path 349" d="M209.378,196.77l-31.688,18.3L224,241.8l31.682-18.3Z" transform="translate(-167.754 -138.361)" fill="#e0e0e0"/>
        <path id="Path_350" data-name="Path 350" d="M209.378,196.77l-31.688,18.3L224,241.8l31.682-18.3Z" transform="translate(-167.754 -138.361)" opacity="0.1"/>
        <path id="Path_351" data-name="Path 351" d="M172.03,145.673l31.36-18.323,3.475,38.592-31.688,18.3Z" transform="translate(-165.241 -107.533)" fill="#e0e0e0"/>
        <path id="Path_352" data-name="Path 352" d="M228.44,127.35l3.475,38.592,46.314,26.734,7.316-32.366Zm16.194,37.1a2.652,2.652,0,0,1-3.336-1.718l-7.655-19.863a2.5,2.5,0,1,1,4.625-1.785l7.655,19.863a2.657,2.657,0,0,1-1.29,3.5Zm14.454,6.8a2.657,2.657,0,0,1-3.335-1.718L248.1,149.676a2.5,2.5,0,1,1,4.642-1.785l7.661,19.846a2.652,2.652,0,0,1-1.306,3.519Zm14.454,6.8a2.652,2.652,0,0,1-3.336-1.723l-7.655-19.858a2.5,2.5,0,1,1,4.625-1.785l7.655,19.863a2.652,2.652,0,0,1-1.279,3.5Z" transform="translate(-190.291 -107.533)" fill="#f0f0f0"/>
        <g id="freepik----inject-49" transform="translate(26.73)">
          <path id="Path_353" data-name="Path 353" d="M224.239,92.847c-2.374-1.368-4.314-1.451-5.832-.556l-6.315,3.647c-2.819,1.618-4.192,6.532-4.192,12.692,0,9.5,3.158,19.341,10.007,23.3,2.485,1.434,4.447,1.551,6,.673l6.338-3.658c2.724-1.579,4-6.315,4-12.386C234.262,107.045,231.1,96.81,224.239,92.847Z" transform="translate(-207.9 -91.703)" fill="#263238"/>
          <path id="Path_354" data-name="Path 354" d="M233.082,101.636c-1.668-3.8-4.019-6.96-7.183-8.789-2.374-1.368-4.314-1.451-5.832-.556l-6.315,3.647a5.993,5.993,0,0,0-2.113,2.224l13.731,7.927Z" transform="translate(-209.561 -91.703)" fill="#37474f"/>
          <path id="Path_355" data-name="Path 355" d="M217.937,134.787c-6.866-3.964-10.007-13.809-10.007-23.3s3.258-16.022,10.007-12.114c6.866,3.964,10.007,14.2,10.007,23.688S224.852,138.8,217.937,134.787Z" transform="translate(-207.913 -94.596)" fill="#455a64"/>
          <path id="Path_356" data-name="Path 356" d="M223.266,116.692c-2.1-1.217-3.336.3-3.336,6.7,0,6.015,1.306,8.928,3.336,10.118s3.336-.072,3.336-6.243S225.473,117.954,223.266,116.692Z" transform="translate(-213.242 -102.629)" fill="#263238"/>
          <path id="Path_357" data-name="Path 357" d="M260.178,112.566l-6.465-3.736-6.315,3.647L232.56,167.958l6.515,3.764,6.315-3.647Z" transform="translate(-218.851 -99.309)" fill="#37474f"/>
          <path id="Path_358" data-name="Path 358" d="M253.863,119.126l-14.788,55.509-6.515-3.764L247.4,115.39Z" transform="translate(-218.851 -102.222)" fill="#455a64"/>
          <path id="Path_359" data-name="Path 359" d="M265.383,115.55l-6.315,3.647L244.28,174.706l6.315-3.647Z" transform="translate(-224.056 -102.293)" fill="#263238"/>
          <path id="Path_360" data-name="Path 360" d="M277.209,165.653c-2.374-1.373-4.314-1.457-5.832-.556l-6.315,3.652c-2.819,1.618-4.192,6.527-4.192,12.692,0,9.49,3.158,19.341,10.007,23.3,2.485,1.429,4.475,1.545,6,.667l6.332-3.658c2.73-1.579,4-6.315,4-12.386C287.232,179.852,284.074,169.617,277.209,165.653Z" transform="translate(-231.423 -124.033)" fill="#263238"/>
          <path id="Path_361" data-name="Path 361" d="M286.052,174.442c-1.668-3.8-4.019-6.966-7.183-8.789-2.374-1.373-4.314-1.457-5.832-.556l-6.315,3.652a6.021,6.021,0,0,0-2.112,2.224l13.731,7.927Z" transform="translate(-233.084 -124.033)" fill="#37474f"/>
          <path id="Path_362" data-name="Path 362" d="M270.907,207.625c-6.866-3.964-10.007-13.815-10.007-23.3s3.258-16.022,10.007-12.119c6.866,3.969,10.007,14.2,10.007,23.693S277.822,211.606,270.907,207.625Z" transform="translate(-231.436 -126.94)" fill="#455a64"/>
          <path id="Path_363" data-name="Path 363" d="M276.236,189.474c-2.1-1.212-3.336.3-3.336,6.7,0,6.021,1.306,8.934,3.336,10.118s3.336-.067,3.336-6.237C279.593,193.8,278.443,190.747,276.236,189.474Z" transform="translate(-236.765 -134.951)" fill="#263238"/>
        </g>
        <path id="Path_364" data-name="Path 364" d="M172,160.31l3.147,38.564,46.331,26.74,7.31-32.371Zm18.279,37.958a2.646,2.646,0,0,1-3.336-1.718l-7.649-19.863a2.5,2.5,0,1,1,4.625-1.779l7.649,19.863a2.646,2.646,0,0,1-1.273,3.5Zm14.454,6.8a2.671,2.671,0,0,1-3.336-1.718l-7.611-19.869a2.5,2.5,0,1,1,4.625-1.779l7.65,19.858a2.644,2.644,0,0,1-1.306,3.508Zm14.454,6.8a2.671,2.671,0,0,1-3.336-1.718L208.246,190.3a2.5,2.5,0,1,1,4.625-1.785l7.655,19.863a2.652,2.652,0,0,1-1.312,3.5Z" transform="translate(-165.228 -122.17)" fill="#fafafa"/>
        <path id="Path_365" data-name="Path 365" d="M268.31,204.94,300,186.65l-7.316,32.366L261,237.306Z" transform="translate(-204.751 -133.867)" fill="#e0e0e0"/>
      </g>
    </g>
    <g id="freepik--Megaphone--inject-49" transform="translate(201.764 124.223)">
      <g id="freepik--megaphone--inject-49-2" data-name="freepik--megaphone--inject-49" transform="translate(0 0)">
        <path id="Path_366" data-name="Path 366" d="M357.4,192.065a8.989,8.989,0,1,0,8.978-8.995A8.989,8.989,0,0,0,357.4,192.065Z" transform="translate(-357.394 -183.07)" fill="#455a64"/>
        <path id="Path_367" data-name="Path 367" d="M361.893,196.37l10.146,5.843a8.984,8.984,0,0,1-13.109-12C358.129,192.506,358.629,194.491,361.893,196.37Z" transform="translate(-357.389 -186.241)" fill="#37474f"/>
        <path id="Path_368" data-name="Path 368" d="M376.57,207.495l6.249-3.625a92.463,92.463,0,0,0-2.474,26.028l-2.5,1.445C376.375,226.563,376.036,216.8,376.57,207.495Z" transform="translate(-365.801 -192.307)" fill="#37474f"/>
        <path id="Path_369" data-name="Path 369" d="M363.07,210.3l2.641,3.336.1,9.84a12.53,12.53,0,0,0,6.171,10.707h0c-1.507-5.693-1.668-15.377-1.279-23.849Z" transform="translate(-359.912 -195.162)" fill="#455a64"/>
        <path id="Path_370" data-name="Path 370" d="M375.481,229.808l-.184.106a1.167,1.167,0,0,1-1.067,0l-1.434-.823c-.295-.172-.556-.033-.556.306v.211a1.173,1.173,0,0,0,.556.923l1.457.845a1.156,1.156,0,0,0,1.062,0l.172-.1a1.206,1.206,0,0,0,.528-.934v-.222C376,229.775,375.776,229.636,375.481,229.808Z" transform="translate(-363.984 -203.474)" fill="#ff914d"/>
        <path id="Path_371" data-name="Path 371" d="M375.891,235.606l-.183.106a1.2,1.2,0,0,1-1.067,0l-1.434-.828c-.295-.167-.556-.028-.556.311v.211a1.184,1.184,0,0,0,.556.923l1.457.839a1.156,1.156,0,0,0,1.062,0l.172-.106a1.2,1.2,0,0,0,.528-.934v-.211C376.425,235.573,376.18,235.434,375.891,235.606Z" transform="translate(-364.166 -206.048)" fill="#ff914d"/>
        <path id="Path_372" data-name="Path 372" d="M376.3,241.368l-.183.106a1.167,1.167,0,0,1-1.067,0l-1.434-.823c-.295-.172-.556-.033-.556.306v.211a1.2,1.2,0,0,0,.556.928l1.457.839a1.156,1.156,0,0,0,1.062,0l.172-.1a1.206,1.206,0,0,0,.556-.934v-.217A.357.357,0,0,0,376.3,241.368Z" transform="translate(-364.348 -208.607)" fill="#ff914d"/>
        <path id="Path_373" data-name="Path 373" d="M380.524,186.871h0a4.878,4.878,0,0,0-4.62.222,5.417,5.417,0,0,0-.556.306q-.347.194-.673.422a11.465,11.465,0,0,0-1.067.828,14.626,14.626,0,0,0-1.823,1.84,17.722,17.722,0,0,0-3.28,6.321,12.15,12.15,0,0,0-.484,3.336c0,2.285.784,3.891,2.057,4.7l-4.525-2.607h0a5.848,5.848,0,0,1-2.674-5.048,12.308,12.308,0,0,1,.445-3.174,17.472,17.472,0,0,1,3.336-6.46,14.575,14.575,0,0,1,1.8-1.851,11.459,11.459,0,0,1,1.067-.828c.222-.15.45-.295.673-.423s.389-.211.556-.3a5.8,5.8,0,0,1,5.131.078h0l.128.067.161.1Z" transform="translate(-359.826 -183.302)" fill="#ff914d"/>
        <path id="Path_374" data-name="Path 374" d="M365.513,210.552h0a5.848,5.848,0,0,1-2.674-5.048,12.31,12.31,0,0,1,.445-3.174l5.176,2.807a12.154,12.154,0,0,0-.484,3.336c0,2.285.784,3.891,2.057,4.7Z" transform="translate(-359.808 -191.623)" opacity="0.1"/>
        <path id="Path_375" data-name="Path 375" d="M386.783,193.869a16.252,16.252,0,0,1-7.338,12.736c-2.04,1.184-3.891,1.29-5.22.506l-.078-.039c-1.273-.789-2.057-2.413-2.057-4.7a16.247,16.247,0,0,1,7.333-12.742c2.024-1.173,3.891-1.29,5.192-.528S386.777,191.518,386.783,193.869Z" transform="translate(-363.917 -185.536)" fill="#ff914d"/>
        <path id="Path_376" data-name="Path 376" d="M386.783,193.869a16.252,16.252,0,0,1-7.338,12.736c-2.04,1.184-3.891,1.29-5.22.506l-.078-.039c-1.273-.789-2.057-2.413-2.057-4.7a16.247,16.247,0,0,1,7.333-12.742c2.024-1.173,3.891-1.29,5.192-.528S386.777,191.518,386.783,193.869Z" transform="translate(-363.917 -184.654)" fill="#ff914d" opacity="0.2"/>
        <path id="Path_377" data-name="Path 377" d="M409.689,193.013s-7.416,3.814-13.737,14.793a49.984,49.984,0,0,0-3,6.115c-3.174,7.783-2.9,13.181-2.9,13.181-2.224-5.409-4.97-11.013-9.562-15.3a68.993,68.993,0,0,0-5.643-4.709h0c-1.212-.7-1.924-2.224-1.929-4.342a12.854,12.854,0,0,1,.828-4.32A17.058,17.058,0,0,1,375,195.743a14.559,14.559,0,0,1,5-5.32c1.823-1.056,3.5-1.206,4.72-.511h0a69.265,69.265,0,0,0,6.9,2.518C397.664,194.219,403.9,193.814,409.689,193.013Z" transform="translate(-364.286 -185.919)" fill="#ff914d"/>
        <path id="Path_378" data-name="Path 378" d="M409.689,193.013s-7.416,3.814-13.737,14.793a49.984,49.984,0,0,0-3,6.115c-3.174,7.783-2.9,13.181-2.9,13.181-2.224-5.409-4.97-11.013-9.562-15.3a68.993,68.993,0,0,0-5.643-4.709h0c-1.212-.7-1.924-2.224-1.929-4.342a12.854,12.854,0,0,1,.828-4.32A17.058,17.058,0,0,1,375,195.743a14.559,14.559,0,0,1,5-5.32c1.823-1.056,3.5-1.206,4.72-.511h0a69.265,69.265,0,0,0,6.9,2.518C397.664,194.219,403.9,193.814,409.689,193.013Z" transform="translate(-364.436 -186.216)" fill="#fff4ed" opacity="0.6"/>
        <path id="Path_379" data-name="Path 379" d="M393,221.078c-3.174,7.783-2.9,13.181-2.9,13.181-2.224-5.409-4.97-11.013-9.562-15.3a68.992,68.992,0,0,0-5.643-4.709h0c-1.212-.7-1.923-2.224-1.929-4.342a12.853,12.853,0,0,1,.828-4.32C379.392,208.392,388.492,213.6,393,221.078Z" transform="translate(-364.304 -193.071)" opacity="0.1"/>
        <path id="Path_380" data-name="Path 380" d="M436.277,204.868a34.618,34.618,0,0,1-4,15.188h0c-3.2,6.332-8.044,11.991-13.464,15.127-9.656,5.587-17.489,1.073-17.506-10.079a29.759,29.759,0,0,1,1.151-7.916,41.655,41.655,0,0,1,10.563-17.973q1.023-1.006,2.107-1.9c.295-.245.6-.484.906-.717h0c.434-.328.867-.645,1.312-.94s.928-.606,1.4-.878C428.428,189.2,436.266,193.711,436.277,204.868Z" transform="translate(-376.893 -187.207)" fill="#ff914d"/>
        <path id="Path_381" data-name="Path 381" d="M432.26,239.869c-3.2,6.332-8.044,11.991-13.464,15.127-9.656,5.587-17.489,1.073-17.506-10.079A29.759,29.759,0,0,1,402.452,237h0c.656,1.445,3.008,3.5,4.058,2.057a26.6,26.6,0,0,0-1.006,7.016c0,3.2.723,5.793,2.074,7.483a5.732,5.732,0,0,0,4.709,2.168,13.321,13.321,0,0,0,6.438-2.035c4.609-2.668,8.845-7.46,11.847-12.886C430.593,240.808,431.176,241.314,432.26,239.869Z" transform="translate(-376.884 -207.019)" opacity="0.1"/>
        <path id="Path_382" data-name="Path 382" d="M438.44,208.313a33.237,33.237,0,0,1-4.5,15.5c-3,5.426-7.227,10.218-11.847,12.886a13.321,13.321,0,0,1-6.438,2.035,5.732,5.732,0,0,1-4.709-2.168c-1.351-1.668-2.068-4.281-2.074-7.483a26.6,26.6,0,0,1,1.006-7.016c.245-.906.556-1.818.862-2.724a39.982,39.982,0,0,1,2.057-4.686c.167-.311.328-.623.5-.934.278-.511.556-1.028.878-1.523a39.152,39.152,0,0,1,3.441-4.859l.044-.05a35.052,35.052,0,0,1,2.607-2.78q.973-.934,2-1.751c.284-.228.556-.445.856-.662s.7-.495,1.056-.728.689-.439,1.04-.645a13.353,13.353,0,0,1,6.443-2.04C435.9,198.64,438.434,202.247,438.44,208.313Z" transform="translate(-380.251 -190.006)" fill="#ff914d"/>
        <path id="Path_383" data-name="Path 383" d="M438.44,208.313a33.237,33.237,0,0,1-4.5,15.5c-3,5.426-7.227,10.218-11.847,12.886a13.321,13.321,0,0,1-6.438,2.035,5.732,5.732,0,0,1-4.709-2.168c-1.351-1.668-2.068-4.281-2.074-7.483a26.6,26.6,0,0,1,1.006-7.016c.245-.906.556-1.818.862-2.724a39.982,39.982,0,0,1,2.057-4.686c.167-.311.328-.623.5-.934.278-.511.556-1.028.878-1.523a39.152,39.152,0,0,1,3.441-4.859l.044-.05a35.052,35.052,0,0,1,2.607-2.78q.973-.934,2-1.751c.284-.228.556-.445.856-.662s.7-.495,1.056-.728.689-.439,1.04-.645a13.353,13.353,0,0,1,6.443-2.04C435.9,198.64,438.434,202.247,438.44,208.313Z" transform="translate(-380.251 -189.7)" fill="#ff914d" opacity="0.4"/>
        <path id="Path_384" data-name="Path 384" d="M427.036,218.886l-5.954,10.563c-2.507-1.323-5.559-2.974-9.412-2.88.1-.3.206-.6.311-.906a38.659,38.659,0,0,1,2.062-4.681c.161-.317.328-.628.495-.934.278-.517.556-1.028.878-1.529a40.179,40.179,0,0,1,3.441-4.859.189.189,0,0,0,.044-.05c.183-.222.372-.439.556-.65C421.382,216.373,427.036,218.886,427.036,218.886Z" transform="translate(-381.494 -196.343)" fill="#37474f"/>
        <path id="Path_385" data-name="Path 385" d="M428.425,234.172c-1.3,0-2.079-1.051-2.085-2.78v-.056a9.623,9.623,0,0,1,4.342-7.533l.044-.028a3.713,3.713,0,0,1,1.818-.556c1.3,0,2.079,1.051,2.079,2.813v.05a9.623,9.623,0,0,1-4.336,7.538h-.05a3.681,3.681,0,0,1-1.812.556Z" transform="translate(-388.009 -200.9)" fill="#ff914d"/>
      </g>
    </g>
    <g id="freepik--button-2--inject-49" transform="translate(86.182 232.276)">
      <g id="freepik--Button--inject-49" transform="translate(0 0)">
        <g id="freepik--speech-bubble--inject-49">
          <path id="Path_386" data-name="Path 386" d="M150.664,402.368l31.688,18.345a2.59,2.59,0,0,0,2.34,0l31.248-17.99a2.546,2.546,0,0,0,1.156-2.029v-2.563a2.63,2.63,0,0,0-1.184-2.029l-31.688-18.345a2.59,2.59,0,0,0-2.34,0l-31.248,17.99a2.552,2.552,0,0,0-1.156,2.029v2.563a2.629,2.629,0,0,0,1.184,2.029Z" transform="translate(-149.48 -377.455)" fill="#ff914d"/>
          <path id="Path_387" data-name="Path 387" d="M243.088,410.94a2.69,2.69,0,0,1,1.184,2.029v2.563a2.557,2.557,0,0,1-1.156,2.029l-31.248,17.99a2.357,2.357,0,0,1-1.217.272v-5.265a2.319,2.319,0,0,0,1.173-.278l31.265-17.99A.724.724,0,0,0,243.088,410.94Z" transform="translate(-176.644 -392.315)" fill="#ff914d" opacity="0.2"/>
          <path id="Path_388" data-name="Path 388" d="M151.122,397.08l31.688,18.345a2.591,2.591,0,0,0,2.34,0l20.108-11.547,11.168-6.465a.712.712,0,0,0,0-1.351l-31.688-18.345a2.591,2.591,0,0,0-2.34,0l-31.248,17.99a.712.712,0,0,0-.028,1.373Z" transform="translate(-149.982 -377.437)" fill="#ff914d"/>
          <g id="Group_16" data-name="Group 16" transform="translate(1.314 0.022)" opacity="0.2">
            <path id="Path_389" data-name="Path 389" d="M151.122,397.08l31.688,18.345a2.591,2.591,0,0,0,2.34,0l20.108-11.547,11.168-6.465a.712.712,0,0,0,0-1.351l-31.688-18.345a2.591,2.591,0,0,0-2.34,0l-31.248,17.99a.712.712,0,0,0-.028,1.373Z" transform="translate(-150.61 -377.437)" fill="#ff914d"/>
          </g>
        </g>
        <path id="Path_390" data-name="Path 390" d="M183.761,411.438a.478.478,0,0,1-.411-.234.473.473,0,0,1,.172-.645l4.108-2.4a.473.473,0,1,1,.478.817l-4.108,2.4A.478.478,0,0,1,183.761,411.438Z" transform="translate(-164.493 -391.051)" fill="#fff"/>
        <path id="Path_391" data-name="Path 391" d="M191.539,410.119a.555.555,0,0,1-.161-.028l-16.383-5.871-3.424.395a.473.473,0,1,1-.106-.94l3.53-.411a.478.478,0,0,1,.217.028l16.283,5.815,11.291-6.515-7.444-7.077-3.764,2.224a.473.473,0,0,1-.65-.172.467.467,0,0,1,.172-.645l4.069-2.379a.478.478,0,0,1,.556.067l8.161,7.755a.478.478,0,0,1,.145.395.473.473,0,0,1-.233.356l-12.03,6.943a.456.456,0,0,1-.228.061Z" transform="translate(-159.056 -385.007)" fill="#fff"/>
        <path id="Path_392" data-name="Path 392" d="M209.568,419.92a4.025,4.025,0,0,1-1.968-.495,1.718,1.718,0,0,1-.99-1.412,1.362,1.362,0,0,1,.767-1.179l5.248-3.03a.467.467,0,0,1,.645.172.478.478,0,0,1-.172.645l-5.248,3.03c-.111.067-.295.195-.295.361s.139.372.517.589a2.924,2.924,0,0,0,2.6.128l11.619-6.71a.474.474,0,1,1,.473.823l-11.619,6.71a3.224,3.224,0,0,1-1.573.367Z" transform="translate(-174.85 -392.767)" fill="#fff"/>
        <path id="Path_393" data-name="Path 393" d="M220.855,427.265a4.1,4.1,0,0,1-1.99-.5,1.729,1.729,0,0,1-1-1.423,1.379,1.379,0,0,1,.773-1.19,3.892,3.892,0,0,1,3.575.128,1.729,1.729,0,0,1,1,1.423,1.378,1.378,0,0,1-.773,1.19A3.224,3.224,0,0,1,220.855,427.265Zm-.634-2.541a2.274,2.274,0,0,0-1.112.245c-.111.067-.3.2-.3.372s.139.378.523.6a2.98,2.98,0,0,0,2.63.128c.111-.061.3-.195.3-.367s-.139-.378-.523-.6h0a3.141,3.141,0,0,0-1.518-.378Z" transform="translate(-179.85 -398.016)" fill="#fff"/>
        <path id="Path_394" data-name="Path 394" d="M235.665,418.709a4.069,4.069,0,0,1-1.99-.5,1.723,1.723,0,0,1-1-1.423,1.373,1.373,0,0,1,.773-1.184,3.892,3.892,0,0,1,3.575.128h0a1.734,1.734,0,0,1,1,1.423,1.368,1.368,0,0,1-.778,1.184,3.2,3.2,0,0,1-1.584.372Zm-.628-2.535a2.285,2.285,0,0,0-1.112.245c-.111.067-.295.2-.295.367s.133.384.517.606a3,3,0,0,0,2.63.128c.111-.067.3-.2.3-.367s-.133-.384-.523-.606A3.179,3.179,0,0,0,235.037,416.174Z" transform="translate(-186.427 -394.219)" fill="#fff"/>
        <path id="Path_395" data-name="Path 395" d="M194.674,405.158a11.674,11.674,0,0,1-5.693-1.418c-1.668-.956-2.6-2.251-2.6-3.563a3.34,3.34,0,0,1,1.907-2.83c2.6-1.5,7.138-1.318,10.123.4,1.668.956,2.6,2.252,2.6,3.563a3.329,3.329,0,0,1-1.907,2.83,9.006,9.006,0,0,1-4.425,1.017Zm-1.962-7.9a8.034,8.034,0,0,0-3.953.906,2.468,2.468,0,0,0-1.434,2.007c0,.962.778,1.962,2.129,2.741,2.718,1.573,6.832,1.751,9.173.4a2.468,2.468,0,0,0,1.434-2.007c0-.962-.773-1.962-2.124-2.741h0a10.762,10.762,0,0,0-5.226-1.306Z" transform="translate(-165.866 -385.828)" fill="#fff"/>
        <path id="Path_396" data-name="Path 396" d="M198.878,403.882h0l-3.8-.15a.478.478,0,0,1-.456-.495.456.456,0,0,1,.495-.45l3.091.117-1.284-3.413a.474.474,0,0,1,.889-.328l1.507,4.081a.478.478,0,0,1-.439.639Z" transform="translate(-169.525 -386.947)" fill="#fff"/>
        <path id="Path_397" data-name="Path 397" d="M227.332,422.887a.484.484,0,0,1-.411-.239A.472.472,0,0,1,227.1,422l2.635-1.523a.473.473,0,0,1,.645.172.484.484,0,0,1-.172.65l-2.635,1.518a.472.472,0,0,1-.239.067Z" transform="translate(-183.842 -396.523)" fill="#fff"/>
      </g>
    </g>
    <g id="freepik--button-1--inject-49" transform="translate(151.436 183.85)">
      <g id="freepik--button--inject-49-2" data-name="freepik--button--inject-49">
        <g id="freepik--speech-bubble--inject-49-2" data-name="freepik--speech-bubble--inject-49">
          <path id="Path_398" data-name="Path 398" d="M268.05,324.824l15.627,9.039a2.591,2.591,0,0,0,2.34,0l47.937-27.6a2.535,2.535,0,0,0,1.156-2.029v-2.563a2.641,2.641,0,0,0-1.184-2.029L318.3,290.607a2.59,2.59,0,0,0-2.34,0l-47.943,27.574a2.557,2.557,0,0,0-1.156,2.029v2.563A2.613,2.613,0,0,0,268.05,324.824Z" transform="translate(-266.86 -290.327)" fill="#ff914d"/>
          <path id="Path_399" data-name="Path 399" d="M348.222,307.13a2.68,2.68,0,0,1,1.184,2.029v2.563a2.535,2.535,0,0,1-1.156,2.029l-47.937,27.574a2.38,2.38,0,0,1-1.223.272v-5.265a2.318,2.318,0,0,0,1.173-.278l47.932-27.568A.714.714,0,0,0,348.222,307.13Z" transform="translate(-281.173 -297.789)" fill="#ff914d" opacity="0.2"/>
          <path id="Path_400" data-name="Path 400" d="M268.516,319.571l15.616,9.039a2.6,2.6,0,0,0,2.346,0l20.091-11.546,27.846-16.027a.712.712,0,0,0,0-1.351l-15.627-9.039a2.591,2.591,0,0,0-2.34,0L268.5,318.221a.712.712,0,0,0,.011,1.351Z" transform="translate(-267.376 -290.345)" fill="#ff914d"/>
          <g id="Group_17" data-name="Group 17" transform="translate(0.685 0.022)" opacity="0.2">
            <path id="Path_401" data-name="Path 401" d="M268.516,319.571l15.616,9.039a2.6,2.6,0,0,0,2.346,0l20.091-11.546,27.846-16.027a.712.712,0,0,0,0-1.351l-15.627-9.039a2.591,2.591,0,0,0-2.34,0L268.5,318.221a.712.712,0,0,0,.011,1.351Z" transform="translate(-268.023 -290.367)" fill="#fff"/>
          </g>
        </g>
        <path id="Path_402" data-name="Path 402" d="M289.656,345.22a1.057,1.057,0,0,1-.478-.15l-7.494-4.325c-.161-.095-.239-.183-.245-.272s.072-.172.222-.261l2.157-1.245a4.357,4.357,0,0,1,4.575-.284c.9.517,1.2,1.112.9,1.773h.061a4,4,0,0,1,1.668-.15,4.17,4.17,0,0,1,1.64.556c.717.417,1.062.878,1.034,1.4s-.495,1.04-1.4,1.557l-2.224,1.267A.906.906,0,0,1,289.656,345.22Zm-2.385-4.275c.256-.15.367-.306.328-.473s-.239-.356-.595-.556a2.162,2.162,0,0,0-.917-.328,1.328,1.328,0,0,0-.784.195l-.856.495,1.99,1.145Zm3.63,2c.3-.172.434-.35.406-.528s-.233-.378-.623-.6a2.163,2.163,0,0,0-1-.339,1.7,1.7,0,0,0-.9.245l-.912.556,2.107,1.217Z" transform="translate(-273.334 -311.568)" fill="#fff"/>
        <path id="Path_403" data-name="Path 403" d="M301.419,337.149a4.859,4.859,0,0,1-2.668-.65l-5.609-3.241c-.256-.15-.15-.361.317-.628l.484-.278c.461-.272.828-.328,1.084-.183l5.487,3.169a2.285,2.285,0,0,0,1.078.306,1.923,1.923,0,0,0,1.056-.256c.306-.178.45-.378.428-.612s-.189-.434-.511-.623l-5.487-3.169c-.261-.145-.156-.356.311-.623l.473-.272q.7-.411,1.084-.183l5.609,3.241c.812.467,1.19.978,1.112,1.534s-.556,1.112-1.457,1.618a6.048,6.048,0,0,1-2.791.851Z" transform="translate(-278.471 -307.867)" fill="#fff"/>
        <path id="Path_404" data-name="Path 404" d="M314.365,329.889l-3.28-1.89-6.115-1.4a1.791,1.791,0,0,1-.411-.111c-.072-.044-.067-.111,0-.211a1.947,1.947,0,0,1,.473-.345l.611-.356a1.262,1.262,0,0,1,.9-.25l3.891,1.167-2.04-2.251c-.061-.061-.056-.139.028-.222a1.934,1.934,0,0,1,.406-.289l.506-.295c.511-.289.845-.389,1.006-.3a1.358,1.358,0,0,1,.217.222l2.457,3.569,3.247,1.873c.122.078.156.167.111.272a1.112,1.112,0,0,1-.439.361l-.467.272C314.987,329.978,314.626,330.039,314.365,329.889Z" transform="translate(-283.578 -304.883)" fill="#fff"/>
        <path id="Path_405" data-name="Path 405" d="M327.013,322.6l-7.722-4.447c-.256-.15-.15-.356.311-.628l.317-.178a1.478,1.478,0,0,1,.45-.183,1.178,1.178,0,0,1,.517,0L327,318.182c.322.056.773.156,1.356.306v-.044a10.071,10.071,0,0,1-1.051-.495l-3.847-2.224c-.256-.15-.156-.361.311-.628l.289-.167a1.14,1.14,0,0,1,1.112-.183l7.716,4.447c.261.15.156.356-.311.628l-.228.133a1.791,1.791,0,0,1-.467.189,1.194,1.194,0,0,1-.523,0l-6.4-1.04a11.235,11.235,0,0,1-1.112-.256v.056a9.309,9.309,0,0,1,.917.417l3.969,2.29c.256.15.15.361-.317.628l-.289.167Q327.408,322.829,327.013,322.6Z" transform="translate(-290.083 -301.136)" fill="#fff"/>
        <path id="Path_406" data-name="Path 406" d="M336.848,313.646q-4.319-2.491-1.156-4.314a5.754,5.754,0,0,1,3.4-.751A9.762,9.762,0,0,1,343.158,310q2.224,1.284,2.468,2.352t-1.3,1.962Q341.173,316.137,336.848,313.646Zm6.371-.789a1.061,1.061,0,0,0-.439-.717,9.733,9.733,0,0,0-1.529-1.034,11.373,11.373,0,0,0-1.779-.873,3.392,3.392,0,0,0-1.234-.256,1.979,1.979,0,0,0-.94.267.794.794,0,0,0-.467.556c-.022.206.122.439.428.723a9.149,9.149,0,0,0,1.507,1.028,11.433,11.433,0,0,0,1.8.873,3.263,3.263,0,0,0,1.251.25,2,2,0,0,0,.951-.267A.755.755,0,0,0,343.219,312.857Z" transform="translate(-296.833 -298.423)" fill="#fff"/>
        <path id="Path_407" data-name="Path 407" d="M353.5,306.22a.6.6,0,0,1-.345,0l-9.328-3.563a.244.244,0,0,1-.106-.056l-.072-.044c-.211-.122-.078-.322.395-.595l.35-.2a1.323,1.323,0,0,1,1.145-.233l5,2.224.978.439,1.051.478-1.245-.967-.289-.239L347.2,300.4a.133.133,0,0,1-.05-.2,1.245,1.245,0,0,1,.361-.272l.606-.35a1.829,1.829,0,0,1,.473-.206.556.556,0,0,1,.345,0l5.3,2.224,2.112.917-1.112-.845-.484-.361-3.891-2.907c-.217-.161-.089-.384.395-.662l.278-.156c.473-.278.817-.35,1.028-.233a1.431,1.431,0,0,1,.167.111l6.115,5.4c.139.117.033.278-.311.473l-.795.461a.95.95,0,0,1-.795.167l-5.081-1.985-1.423-.667,1.145.828,3.424,2.941c.139.117.044.267-.289.456l-.795.461a1.668,1.668,0,0,1-.423.228Z" transform="translate(-300.919 -293.421)" fill="#fff"/>
      </g>
    </g>
    <g id="freepik--Stars--inject-49" transform="translate(191.15 214.133)">
      <g id="freepik--stars--inject-49-2" data-name="freepik--stars--inject-49">
        <path id="Path_408" data-name="Path 408" d="M416,356.4a4.041,4.041,0,0,1-1.885,3.13L357.84,392.015a4.158,4.158,0,0,1-3.764,0l-13.9-8.022a3.536,3.536,0,0,1,0-6.249l56.276-32.494a4.169,4.169,0,0,1,3.769,0l13.9,8.022A4.041,4.041,0,0,1,416,356.4Z" transform="translate(-338.297 -344.8)" fill="#263238"/>
        <path id="Path_409" data-name="Path 409" d="M428.517,360.38c.745.606.65,1.445-.284,1.985l-23.46,13.542-32.8,18.946a3.891,3.891,0,0,1-1.885.456v4.075a3.891,3.891,0,0,0,1.879-.445l56.276-32.5a3.513,3.513,0,0,0,.284-6.06Z" transform="translate(-352.416 -351.719)" fill="#455a64"/>
        <path id="Path_410" data-name="Path 410" d="M354.955,387.94l-13.9-8.022a1.147,1.147,0,0,1,0-2.174l56.276-32.494a4.169,4.169,0,0,1,3.769,0l13.9,8.022a1.147,1.147,0,0,1,0,2.174l-23.46,13.542-32.8,18.951a4.158,4.158,0,0,1-3.786,0Z" transform="translate(-339.177 -344.8)" fill="#37474f"/>
        <g id="freepik--stars--inject-49-3" data-name="freepik--stars--inject-49" transform="translate(12.862 6.844)">
          <path id="Path_411" data-name="Path 411" d="M436.61,357.883l1.234,1.773a.222.222,0,0,1-.05.317l-1.712,1.384c-.272.222.061.556.556.584l3.158.106a.918.918,0,0,1,.523.172l2.012,1.562c.322.25.951.222,1.062-.05l.723-1.707a.445.445,0,0,1,.372-.211l2.952-.422c.473-.061.528-.428.094-.612l-2.713-1.162c-.172-.072-.284-.183-.295-.3l-.195-1.823c-.033-.289-.628-.484-1.006-.328l-2.379,1a.956.956,0,0,1-.556.028l-3.069-.712C436.838,357.361,436.416,357.605,436.61,357.883Z" transform="translate(-394.54 -357.111)" fill="#9bd19d"/>
          <path id="Path_412" data-name="Path 412" d="M417.972,368.715l1.234,1.773a.217.217,0,0,1-.05.317l-1.712,1.39c-.267.217.061.556.556.556l3.158.106a.917.917,0,0,1,.523.172l2.012,1.568c.322.245.951.217,1.062-.056l.723-1.707a.45.45,0,0,1,.372-.211l2.952-.417c.473-.067.528-.428.095-.617l-2.713-1.162c-.172-.072-.284-.183-.295-.3L425.7,368.3c-.033-.289-.628-.484-1.006-.328l-2.4.99a.956.956,0,0,1-.556.028l-3.069-.712C418.2,368.193,417.777,368.437,417.972,368.715Z" transform="translate(-386.265 -361.911)" fill="#9bd19d"/>
          <path id="Path_413" data-name="Path 413" d="M399.335,379.565l1.234,1.773a.217.217,0,0,1-.05.317l-1.707,1.39c-.272.217.061.556.556.556l3.163.106a.956.956,0,0,1,.517.172l2.012,1.568c.322.25.951.217,1.062-.056l.723-1.707a.45.45,0,0,1,.372-.211l2.958-.417c.467-.067.523-.428.089-.617l-2.713-1.162c-.172-.072-.284-.183-.295-.3l-.183-1.823c-.033-.289-.623-.484-1.006-.328l-2.4.99a.956.956,0,0,1-.556.028l-3.069-.712C399.563,379.043,399.14,379.287,399.335,379.565Z" transform="translate(-377.99 -366.73)" fill="#9bd19d"/>
          <path id="Path_414" data-name="Path 414" d="M380.695,390.435l1.234,1.773a.222.222,0,0,1-.05.322l-1.707,1.384c-.272.217.061.556.556.556l3.163.111a.883.883,0,0,1,.517.167l2.012,1.568c.322.25.951.217,1.067-.056l.717-1.707a.472.472,0,0,1,.372-.211l2.958-.417c.467-.067.523-.428.089-.612l-2.7-1.14c-.172-.078-.284-.189-.295-.306l-.183-1.823c-.033-.289-.623-.484-1.006-.322l-2.407.984a.956.956,0,0,1-.556,0L381.412,390C380.922,389.912,380.5,390.157,380.695,390.435Z" transform="translate(-369.712 -371.568)" fill="#9bd19d"/>
          <path id="Path_415" data-name="Path 415" d="M362.06,401.277l1.229,1.768a.222.222,0,0,1-.05.322l-1.707,1.384c-.272.222.061.556.556.556l3.163.111a.883.883,0,0,1,.517.167l2.018,1.568c.317.25.945.217,1.062-.056l.723-1.707a.456.456,0,0,1,.367-.211l2.957-.417c.467-.067.523-.428.089-.612L370.277,403a.45.45,0,0,1-.295-.306l-.183-1.823c-.033-.289-.623-.484-1.006-.322l-2.4.984a.911.911,0,0,1-.556.028l-3.069-.712C362.3,400.771,361.86,400.994,362.06,401.277Z" transform="translate(-361.434 -376.372)" fill="#9bd19d"/>
        </g>
        <g id="freepik--stars--inject-49-4" data-name="freepik--stars--inject-49" transform="translate(12.862 6.844)" opacity="0.65">
          <path id="Path_416" data-name="Path 416" d="M436.61,357.883l1.234,1.773a.222.222,0,0,1-.05.317l-1.712,1.384c-.272.222.061.556.556.584l3.158.106a.918.918,0,0,1,.523.172l2.012,1.562c.322.25.951.222,1.062-.05l.723-1.707a.445.445,0,0,1,.372-.211l2.952-.422c.473-.061.528-.428.094-.612l-2.713-1.162c-.172-.072-.284-.183-.295-.3l-.195-1.823c-.033-.289-.628-.484-1.006-.328l-2.379,1a.956.956,0,0,1-.556.028l-3.069-.712C436.838,357.361,436.416,357.605,436.61,357.883Z" transform="translate(-394.54 -357.111)" fill="#ff914d"/>
          <path id="Path_417" data-name="Path 417" d="M417.972,368.715l1.234,1.773a.217.217,0,0,1-.05.317l-1.712,1.39c-.267.217.061.556.556.556l3.158.106a.917.917,0,0,1,.523.172l2.012,1.568c.322.245.951.217,1.062-.056l.723-1.707a.45.45,0,0,1,.372-.211l2.952-.417c.473-.067.528-.428.095-.617l-2.713-1.162c-.172-.072-.284-.183-.295-.3L425.7,368.3c-.033-.289-.628-.484-1.006-.328l-2.4.99a.956.956,0,0,1-.556.028l-3.069-.712C418.2,368.193,417.777,368.437,417.972,368.715Z" transform="translate(-386.265 -361.911)" fill="#ff914d"/>
          <path id="Path_418" data-name="Path 418" d="M399.335,379.565l1.234,1.773a.217.217,0,0,1-.05.317l-1.707,1.39c-.272.217.061.556.556.556l3.163.106a.956.956,0,0,1,.517.172l2.012,1.568c.322.25.951.217,1.062-.056l.723-1.707a.45.45,0,0,1,.372-.211l2.958-.417c.467-.067.523-.428.089-.617l-2.713-1.162c-.172-.072-.284-.183-.295-.3l-.183-1.823c-.033-.289-.623-.484-1.006-.328l-2.4.99a.956.956,0,0,1-.556.028l-3.069-.712C399.563,379.043,399.14,379.287,399.335,379.565Z" transform="translate(-377.99 -366.73)" fill="#ff914d"/>
          <path id="Path_419" data-name="Path 419" d="M380.695,390.435l1.234,1.773a.222.222,0,0,1-.05.322l-1.707,1.384c-.272.217.061.556.556.556l3.163.111a.883.883,0,0,1,.517.167l2.012,1.568c.322.25.951.217,1.067-.056l.717-1.707a.472.472,0,0,1,.372-.211l2.958-.417c.467-.067.523-.428.089-.612l-2.7-1.14c-.172-.078-.284-.189-.295-.306l-.183-1.823c-.033-.289-.623-.484-1.006-.322l-2.407.984a.956.956,0,0,1-.556,0L381.412,390C380.922,389.912,380.5,390.157,380.695,390.435Z" transform="translate(-369.712 -371.568)" fill="#ff914d"/>
          <path id="Path_420" data-name="Path 420" d="M362.06,401.277l1.229,1.768a.222.222,0,0,1-.05.322l-1.707,1.384c-.272.222.061.556.556.556l3.163.111a.883.883,0,0,1,.517.167l2.018,1.568c.317.25.945.217,1.062-.056l.723-1.707a.456.456,0,0,1,.367-.211l2.957-.417c.467-.067.523-.428.089-.612L370.277,403a.45.45,0,0,1-.295-.306l-.183-1.823c-.033-.289-.623-.484-1.006-.322l-2.4.984a.911.911,0,0,1-.556.028l-3.069-.712C362.3,400.771,361.86,400.994,362.06,401.277Z" transform="translate(-361.434 -376.372)" fill="#ff914d"/>
        </g>
      </g>
    </g>
    <g id="freepik--speech-bubble--inject-49-3" data-name="freepik--speech-bubble--inject-49" transform="translate(169.371 55.649)">
      <g id="freepik--speech-bubble--inject-49-4" data-name="freepik--speech-bubble--inject-49">
        <g id="freepik--speech-bubble--inject-49-5" data-name="freepik--speech-bubble--inject-49">
          <path id="Path_421" data-name="Path 421" d="M328.9,126.208l2.819-5.3-2.268-6.538v-4l6.938,4v4L333.4,123.54a.411.411,0,0,1-.2.178h0Z" transform="translate(-312.345 -82.211)" fill="#ff914d"/>
          <path id="Path_422" data-name="Path 422" d="M328.9,126.208l2.819-5.3-2.268-6.538v-4l6.938,4v4L333.4,123.54a.411.411,0,0,1-.2.178h0Z" transform="translate(-312.345 -82.211)" fill="#ff914d" opacity="0.2"/>
          <path id="Path_423" data-name="Path 423" d="M299.12,64.794a4.6,4.6,0,0,1,2.079-3.6l1.7-.978a4.592,4.592,0,0,1,4.153,0L351.41,85.83a4.6,4.6,0,0,1,2.079,3.6v19.824a4.6,4.6,0,0,1-2.079,3.6l-1.7.978a4.6,4.6,0,0,1-4.158,0L318.805,98.405l-2.974,5.153a.445.445,0,0,1-.8-.078L311.884,94.4,301.2,88.227a4.586,4.586,0,0,1-2.079-3.6Z" transform="translate(-299.12 -59.717)" fill="#ff914d"/>
          <path id="Path_424" data-name="Path 424" d="M390.862,131.35a4.592,4.592,0,0,1-2.074,3.6l-1.7.978a4.642,4.642,0,0,1-3.8.167c.978.372,1.723-.178,1.723-1.368V114.906a4.3,4.3,0,0,0-.606-2.051l5.848-3.374a4.214,4.214,0,0,1,.606,2.046Z" transform="translate(-336.498 -81.816)" fill="#ff914d" opacity="0.2"/>
          <path id="Path_425" data-name="Path 425" d="M299.24,64.2c.245-.878,1.051-1.162,2.007-.606l44.363,25.611a4.136,4.136,0,0,1,1.468,1.557l5.848-3.374a4.225,4.225,0,0,0-1.468-1.557L307.106,60.224a4.6,4.6,0,0,0-4.158,0l-1.7.978A4.592,4.592,0,0,0,299.24,64.2Z" transform="translate(-299.173 -59.722)" fill="#ff914d" opacity="0.3"/>
        </g>
        <path id="Path_426" data-name="Path 426" d="M305.457,91.409a.862.862,0,0,1-.078-.389V84c0-.161.028-.261.078-.3s.128-.033.239,0l2.507,1.445a.445.445,0,0,1,.183.245,1.335,1.335,0,0,1,.061.467v.35a.806.806,0,0,1-.061.395c-.039.067-.1.078-.183.028l-1.5-.862v1.668l1.323.767a.434.434,0,0,1,.189.245,1.485,1.485,0,0,1,.056.467v.35a.9.9,0,0,1-.056.395c-.039.067-.106.078-.189,0l-1.323-.767v1.835l1.5.873a.389.389,0,0,1,.183.239,1.467,1.467,0,0,1,.056.461v.35a.917.917,0,0,1-.056.4c-.039.072-.095.078-.183.033l-2.485-1.445A.556.556,0,0,1,305.457,91.409Z" transform="translate(-301.9 -70.355)" fill="#fff"/>
        <path id="Path_427" data-name="Path 427" d="M311.769,96.065a1.483,1.483,0,0,1-.061-.467V95.52a.884.884,0,0,1,.061-.395c.039-.072.1-.078.183,0l1.457.834a.445.445,0,0,1,.183.245,1.507,1.507,0,0,1,.061.467V96.7a.868.868,0,0,1-.061.395c-.039.072-.1.078-.183,0l-1.457-.834A.445.445,0,0,1,311.769,96.065Z" transform="translate(-304.709 -75.416)" fill="#fff"/>
        <path id="Path_428" data-name="Path 428" d="M316.552,97.624A8.934,8.934,0,0,1,316,94.216a4.592,4.592,0,0,1,.556-2.713c.367-.45.962-.439,1.746,0a3.7,3.7,0,0,1,.739.556.845.845,0,0,1,.267.639,1.785,1.785,0,0,1-.117.7q-.117.272-.284.1a2.78,2.78,0,0,0-.556-.428c-.339-.195-.595-.133-.762.183a4.175,4.175,0,0,0-.25,1.746,6.848,6.848,0,0,0,.25,2.046,1.84,1.84,0,0,0,.806,1.112,1.279,1.279,0,0,0,.272.128,2.57,2.57,0,0,0,.284.072.167.167,0,0,1,.078.033.639.639,0,0,1,.256.428,3.335,3.335,0,0,1,.083.8.556.556,0,0,1-.05.256.189.189,0,0,1-.195.078,1.7,1.7,0,0,1-.384-.106,2.78,2.78,0,0,1-.489-.233,3.964,3.964,0,0,1-1.7-1.99Z" transform="translate(-306.612 -73.685)" fill="#fff"/>
        <path id="Path_429" data-name="Path 429" d="M322.64,98.073q0-4.064,2.224-2.78a3.986,3.986,0,0,1,1.668,1.94,8.767,8.767,0,0,1,.556,3.4,4.635,4.635,0,0,1-.556,2.746c-.367.439-.928.45-1.668,0Q322.64,102.126,322.64,98.073Zm2.724,3.891c.128-.078.222-.289.284-.628a9.008,9.008,0,0,0,.095-1.5,11.238,11.238,0,0,0-.095-1.6,2.779,2.779,0,0,0-.284-.951,1.317,1.317,0,0,0-.489-.511.489.489,0,0,0-.5-.061.945.945,0,0,0-.289.623,8.944,8.944,0,0,0-.095,1.49,11.32,11.32,0,0,0,.094,1.607,2.907,2.907,0,0,0,.289.962,1.339,1.339,0,0,0,.5.511.456.456,0,0,0,.489.089Z" transform="translate(-309.565 -75.379)" fill="#fff"/>
        <path id="Path_430" data-name="Path 430" d="M334.246,105.554a1.112,1.112,0,0,1-.133-.289l-.628-1.929c-.033-.1-.067-.217-.1-.345l-.078-.289h-.033a6.208,6.208,0,0,1,.05.65v3.919c0,.128-.039.2-.117.211a.734.734,0,0,1-.378-.133l-.289-.167a1.317,1.317,0,0,1-.378-.3.6.6,0,0,1-.111-.345V99.311c0-.133.039-.2.111-.211a.617.617,0,0,1,.378.133l.267.15a1.2,1.2,0,0,1,.322.261,1.045,1.045,0,0,1,.183.35l1.056,3.269a5.291,5.291,0,0,1,.161.639,1.9,1.9,0,0,1,.15-.456l1.056-2.057a.222.222,0,0,1,.189-.133.645.645,0,0,1,.322.111l.261.156a1.24,1.24,0,0,1,.378.3.556.556,0,0,1,.117.345V109.4c0,.128-.039.2-.117.211a.717.717,0,0,1-.378-.133l-.289-.167a1.317,1.317,0,0,1-.378-.3.556.556,0,0,1-.117-.345v-3.919a3.263,3.263,0,0,1,.061-.589l-.033-.033a2.607,2.607,0,0,1-.189.428l-.628,1.2a.228.228,0,0,1-.133.128.3.3,0,0,1-.206-.056l-.145-.083a.711.711,0,0,1-.206-.183Z" transform="translate(-313.743 -77.206)" fill="#fff"/>
        <path id="Path_431" data-name="Path 431" d="M344.741,111.63a.934.934,0,0,1-.139-.289l-.628-1.929c-.033-.1-.067-.217-.1-.345l-.078-.289h-.033a6.208,6.208,0,0,1,.05.65v3.919c0,.128-.039.2-.117.211a.734.734,0,0,1-.378-.133l-.289-.167a1.317,1.317,0,0,1-.378-.3.6.6,0,0,1-.111-.345v-7.227c0-.133.039-.2.111-.217a.706.706,0,0,1,.378.133l.267.156a1.2,1.2,0,0,1,.322.261,1.044,1.044,0,0,1,.183.35l1.056,3.269a5.292,5.292,0,0,1,.161.639,1.665,1.665,0,0,1,.156-.456l1.051-2.057a.222.222,0,0,1,.189-.133.645.645,0,0,1,.322.111l.261.156a1.24,1.24,0,0,1,.378.3.556.556,0,0,1,.117.345v7.227c0,.128-.039.2-.117.211a.717.717,0,0,1-.378-.133l-.289-.167a1.318,1.318,0,0,1-.378-.3.556.556,0,0,1-.111-.345v-3.919a3.232,3.232,0,0,1,.056-.589l-.033-.033a2.6,2.6,0,0,1-.189.428l-.628,1.2a.228.228,0,0,1-.133.128.306.306,0,0,1-.206-.056l-.145-.083A.623.623,0,0,1,344.741,111.63Z" transform="translate(-318.402 -79.902)" fill="#fff"/>
        <path id="Path_432" data-name="Path 432" d="M353.215,118.983a.879.879,0,0,1-.078-.389v-7.027a.411.411,0,0,1,.078-.3c.05-.044.133-.033.239,0l2.507,1.451a.422.422,0,0,1,.183.245,1.3,1.3,0,0,1,.061.461v.35a.833.833,0,0,1-.061.4c-.039.067-.1.078-.183.028l-1.5-.867V115l1.323.767a.4.4,0,0,1,.189.239,1.507,1.507,0,0,1,.061.467v.35a.868.868,0,0,1-.061.395c-.039.072-.1.078-.189,0l-1.323-.762v1.873l1.5.867a.383.383,0,0,1,.183.245,1.443,1.443,0,0,1,.056.461v.35a.951.951,0,0,1-.056.4c-.033.067-.095.078-.183.028l-2.513-1.451A.6.6,0,0,1,353.215,118.983Z" transform="translate(-323.106 -82.596)" fill="#fff"/>
        <path id="Path_433" data-name="Path 433" d="M360.08,122.725v-7.138q0-.245.083-.3c.05-.039.139,0,.256.044l1.423.817a3.53,3.53,0,0,1,1.256,1.24,3.808,3.808,0,0,1,.473,1.99c0,.884-.267,1.368-.806,1.451v.044a2.358,2.358,0,0,1,.339.65,4.954,4.954,0,0,1,.234.812l.5,2.463v.156c0,.2-.172.2-.523,0l-.3-.172a.928.928,0,0,1-.511-.6l-.45-2.413a1.622,1.622,0,0,0-.172-.45.867.867,0,0,0-.311-.284l-.2-.117v2.541c0,.239-.172.261-.511.067l-.289-.167A.776.776,0,0,1,360.08,122.725Zm1.785-3.185a.222.222,0,0,0,.322-.067,1.19,1.19,0,0,0,.128-.65,2.017,2.017,0,0,0-.128-.773.906.906,0,0,0-.345-.417l-.45-.261v1.9Z" transform="translate(-326.191 -84.388)" fill="#fff"/>
        <path id="Path_434" data-name="Path 434" d="M368.183,127.474a9.085,9.085,0,0,1-.556-3.413,4.571,4.571,0,0,1,.556-2.707c.367-.445.956-.445,1.746,0a3.7,3.7,0,0,1,.739.556.84.84,0,0,1,.261.639,1.934,1.934,0,0,1-.111.706c-.078.178-.172.211-.284.094a2.779,2.779,0,0,0-.556-.428c-.339-.195-.595-.133-.762.183a4.192,4.192,0,0,0-.25,1.746,6.829,6.829,0,0,0,.25,2.046,1.851,1.851,0,0,0,.8,1.112,1.589,1.589,0,0,0,.272.128,1.98,1.98,0,0,0,.289.072.266.266,0,0,1,.078.033.673.673,0,0,1,.256.428,3.335,3.335,0,0,1,.083.8.522.522,0,0,1-.05.256.178.178,0,0,1-.195.078,1.625,1.625,0,0,1-.384-.106,2.813,2.813,0,0,1-.495-.234A4.025,4.025,0,0,1,368.183,127.474Z" transform="translate(-329.54 -86.94)" fill="#fff"/>
        <path id="Path_435" data-name="Path 435" d="M375.055,131.593a.878.878,0,0,1-.078-.389v-7.027a.411.411,0,0,1,.078-.3c.05-.044.133-.033.239,0l2.507,1.451a.423.423,0,0,1,.183.245,1.3,1.3,0,0,1,.061.461v.35a.834.834,0,0,1-.061.4c-.039.067-.1.072-.183,0l-1.5-.867v1.668l1.323.762a.428.428,0,0,1,.189.245,1.505,1.505,0,0,1,.061.467v.35a.884.884,0,0,1-.061.395c-.039.072-.1.078-.189,0l-1.323-.762v1.835l1.5.867a.389.389,0,0,1,.184.239,1.507,1.507,0,0,1,.056.467v.35a.951.951,0,0,1-.056.4c-.033.067-.095.078-.183.028l-2.513-1.451a.6.6,0,0,1-.239-.183Z" transform="translate(-332.805 -88.196)" fill="#fff"/>
      </g>
    </g>
  </g>
</svg>
