<svg xmlns="http://www.w3.org/2000/svg" width="220.206" height="215.65" viewBox="0 0 220.206 215.65">
  <g id="Online_Groceries-pana" data-name="Online Groceries-pana" transform="translate(-21.961 -28.949)">
    <g id="freepik--background-complete--inject-72" transform="translate(23.335 28.949)">
      <path id="Path_85" data-name="Path 85" d="M209.724,70.61a9.516,9.516,0,0,0,1.517-.692,5.964,5.964,0,0,0,2.688-3.76,6.39,6.39,0,0,0,.133-1.617,8.862,8.862,0,0,0-.351-1.764c-.327-1.228-.683-2.565-1.067-3.992l-2.589-9.738-3.129-11.805c-.28-1.062-.564-2.138-.858-3.238a5.955,5.955,0,0,0-1.555-2.916,5.741,5.741,0,0,0-2.977-1.607,6.818,6.818,0,0,0-3.5.318l-31.059,8.183a5.77,5.77,0,0,0-3.267,2.3,5.642,5.642,0,0,0-.972,3.821,13.394,13.394,0,0,0,.446,1.987c.175.669.346,1.332.522,1.991q.522,1.982,1.029,3.93,2.041,7.823,3.921,14.987.948,3.584,1.821,6.979a6.586,6.586,0,0,0,1.389,3.025,5.732,5.732,0,0,0,2.669,1.759c2.077.73,4.139-.261,6.107-.687l5.689-1.474,17.12-4.419L208.107,71l1.214-.294c.275-.066.417-.085.417-.085s-.133.052-.4.128l-1.2.341-4.642,1.261-17.068,4.561-5.689,1.5-3.015.792a6.13,6.13,0,0,1-6.163-1.953,6.941,6.941,0,0,1-1.484-3.177q-.9-3.385-1.84-6.974c-1.256-4.774-2.579-9.781-3.945-14.977l-1.034-3.93q-.266-.986-.526-1.991a13.671,13.671,0,0,1-.474-2.053,6.111,6.111,0,0,1,1.048-4.13,6.235,6.235,0,0,1,3.556-2.518l31.064-8.136a7.249,7.249,0,0,1,3.693-.313,6.163,6.163,0,0,1,3.172,1.749,6.381,6.381,0,0,1,1.645,3.1c.284,1.1.569,2.176.844,3.238q1.657,6.4,3.072,11.82c.939,3.617,1.783,6.879,2.527,9.753q.555,2.157,1.034,4a9.652,9.652,0,0,1,.36,1.811A6.32,6.32,0,0,1,214.1,66.2a6,6,0,0,1-2.811,3.793,5.179,5.179,0,0,1-1.147.5C209.866,70.582,209.724,70.61,209.724,70.61Z" transform="translate(-97.093 -28.949)" fill="#e0e0e0"/>
      <path id="Path_86" data-name="Path 86" d="M209.155,80.213a1.7,1.7,0,0,1-.289.1l-.834.237-3.11.858L194.49,84.215H194.4l-.038-.081-.721-1.655L188.6,70.38l.076.033-2.788.711-.744.18-.261.052a1.4,1.4,0,0,1,.251-.085l.735-.213,2.778-.768h.057v.052l5.116,12.076.7,1.674-.119-.062,10.468-2.74,3.124-.8.844-.2A1.994,1.994,0,0,1,209.155,80.213Z" transform="translate(-109.012 -50.69)" fill="#e0e0e0"/>
      <path id="Path_87" data-name="Path 87" d="M198.453,78.293a.162.162,0,0,0,.071-.028l.213-.066.839-.237,3.139-.863,10.848-2.916-.071.1c-.161-1.9-.337-3.978-.522-6.121-.09-1.1-.185-2.181-.27-3.215l.128.09-12.8,3.357-3.793.977-1.024.256-.266.057h-.095l.09-.028.261-.081,1.019-.289,3.793-1.034,12.8-3.423.114-.033v.119c.085,1.034.175,2.115.27,3.215.18,2.143.351,4.21.512,6.126v.081h-.081l-10.867,2.845-3.153.806-.849.209-.218.052Z" transform="translate(-114.255 -47.803)" fill="#e0e0e0"/>
      <path id="Path_88" data-name="Path 88" d="M211.558,104.464a2.881,2.881,0,0,0-.175-.327,1.508,1.508,0,0,0-.744-.621,1.46,1.46,0,0,0-1.365.171,1.422,1.422,0,1,0,1.958,2.058,1.5,1.5,0,0,0,.337-.906c0-.237-.028-.37,0-.375a.782.782,0,0,1,.09.375,1.522,1.522,0,0,1-.3,1,1.588,1.588,0,0,1-1.422.631,1.612,1.612,0,0,1-.778-2.935,1.574,1.574,0,0,1,1.527-.147,1.551,1.551,0,0,1,.759.716A.787.787,0,0,1,211.558,104.464Z" transform="translate(-121.41 -68.023)" fill="#e0e0e0"/>
      <path id="Path_89" data-name="Path 89" d="M231.591,99.174a2.464,2.464,0,0,0-.175-.327,1.532,1.532,0,0,0-.744-.621,1.422,1.422,0,1,0,.593,2.228,1.517,1.517,0,0,0,.337-.91c0-.232-.028-.365,0-.37a.749.749,0,0,1,.09.37,1.508,1.508,0,0,1-.3,1,1.588,1.588,0,0,1-1.4.631,1.607,1.607,0,0,1-.768-2.93,1.584,1.584,0,0,1,1.531-.147,1.531,1.531,0,0,1,.759.716A.778.778,0,0,1,231.591,99.174Z" transform="translate(-131.96 -65.242)" fill="#e0e0e0"/>
      <path id="Path_90" data-name="Path 90" d="M398.392,396.2c-10.644-5.215-14.74-17.362-16.082-28.622-.223-1.9-.735-3.793-.095-5.595s2.537-3.219,4.333-2.688c1.489.441,2.342,1.963,3.319,3.177a11.1,11.1,0,0,0,5.03,3.518,4.223,4.223,0,0,0,3.892-.246c1.479-1.138,1.323-3.395,1.029-5.253L398.155,350.1a17.467,17.467,0,0,1-.289-5.609,5.837,5.837,0,0,1,3.025-4.457,3.535,3.535,0,0,1,4.689,1.678,16.841,16.841,0,0,1,.413,2.3,1.987,1.987,0,0,0,1.422,1.669c.763.1,1.422-.54,1.9-1.171a25.008,25.008,0,0,0,3.409-7.382,34.7,34.7,0,0,1,3.077-7.553,10.2,10.2,0,0,1,6.225-4.874c2.641-.564,5.732.65,6.808,3.158s-.019,5.414-1.365,7.813a41.976,41.976,0,0,1-7.372,9.568,3.464,3.464,0,0,0-1.209,1.778c-.213,1.3,1.152,2.371,2.437,2.57a21.281,21.281,0,0,0,4.419-.18c1.479-.057,3.143.346,3.9,1.636,1.057,1.783-.228,4.021-1.593,5.566a36.032,36.032,0,0,1-9.591,7.676,12.088,12.088,0,0,0-3.622,2.5,3.45,3.45,0,0,0-.474,4.115,3.547,3.547,0,0,0,4.035.877,25.085,25.085,0,0,0,3.84-2.186c2.408-1.361,5.737-1.693,7.714.266a5.955,5.955,0,0,1,1.422,5.111A13.7,13.7,0,0,1,429.257,380a36.156,36.156,0,0,1-13.617,13.081c-5.613,2.968-11.023,4.371-17.244,3.12" transform="translate(-212.625 -184.413)" fill="#f5f5f5"/>
      <path id="Path_91" data-name="Path 91" d="M420.5,390.026a168.487,168.487,0,0,1,3.855-18.965q.64-2.494,1.266-4.921c.417-1.612.834-3.21,1.337-4.741a84.9,84.9,0,0,1,3.4-8.681c1.214-2.707,2.465-5.215,3.651-7.586s2.347-4.523,3.485-6.457a66.631,66.631,0,0,1,6.031-8.719c.787-.948,1.422-1.7,1.863-2.19l.5-.555a1.22,1.22,0,0,1,.18-.18,1.954,1.954,0,0,1-.152.2l-.474.578c-.417.5-1.038,1.247-1.811,2.233a70.351,70.351,0,0,0-5.926,8.757c-1.119,1.934-2.257,4.111-3.437,6.462s-2.413,4.888-3.618,7.586a85.752,85.752,0,0,0-3.366,8.657c-.5,1.531-.906,3.115-1.328,4.741s-.834,3.257-1.261,4.917a173.248,173.248,0,0,0-3.878,18.917" transform="translate(-232.921 -185.705)" fill="#e0e0e0"/>
      <path id="Path_92" data-name="Path 92" d="M427.82,377.231a4.11,4.11,0,0,1-.3-.763c-.175-.5-.408-1.233-.678-2.138-.55-1.811-1.219-4.338-1.949-7.112s-1.422-5.3-2.01-7.112c-.284-.9-.522-1.626-.692-2.129a3.793,3.793,0,0,1-.228-.787,3.7,3.7,0,0,1,.356.74c.209.474.474,1.2.8,2.1.635,1.787,1.38,4.3,2.11,7.088s1.356,5.244,1.849,7.15c.228.858.422,1.584.578,2.162A3.584,3.584,0,0,1,427.82,377.231Z" transform="translate(-233.689 -201.566)" fill="#e0e0e0"/>
      <path id="Path_93" data-name="Path 93" d="M457.536,382.28a5.447,5.447,0,0,1-.948.261c-.6.147-1.479.36-2.556.654-2.152.574-5.1,1.47-8.311,2.6s-6.064,2.29-8.107,3.186c-1.024.436-1.844.816-2.413,1.071a5.42,5.42,0,0,1-.9.375,5.266,5.266,0,0,1,.839-.474c.555-.3,1.361-.711,2.371-1.181,2.025-.948,4.879-2.148,8.093-3.286a85.445,85.445,0,0,1,8.363-2.513c1.086-.265,1.972-.441,2.589-.545A5.252,5.252,0,0,1,457.536,382.28Z" transform="translate(-240.178 -214.761)" fill="#e0e0e0"/>
      <path id="Path_94" data-name="Path 94" d="M402.426,427.059a1.189,1.189,0,0,1-.209-.265l-.545-.8c-.474-.7-1.114-1.731-1.9-3.011-1.574-2.56-3.641-6.164-5.865-10.179s-4.267-7.633-5.77-10.227l-1.835-3.063c-.194-.332-.356-.607-.474-.834a1.239,1.239,0,0,1-.152-.308,1.565,1.565,0,0,1,.209.27c.147.218.327.474.54.8.474.7,1.119,1.726,1.9,3.006,1.574,2.565,3.637,6.164,5.865,10.184s4.267,7.633,5.77,10.222l1.806,3.063.474.839A1.381,1.381,0,0,1,402.426,427.059Z" transform="translate(-214.61 -223.222)" fill="#e0e0e0"/>
      <path id="Path_95" data-name="Path 95" d="M451.176,427a1.138,1.138,0,0,1-.294.18l-.877.45-3.233,1.626c-2.726,1.375-6.476,3.319-10.615,5.462s-7.908,4.058-10.668,5.376c-1.38.659-2.5,1.18-3.281,1.527l-.906.393a.173.173,0,1,1-.028-.066l.877-.45,3.229-1.626c2.731-1.37,6.481-3.319,10.62-5.462s7.908-4.058,10.663-5.376c1.38-.659,2.5-1.181,3.286-1.527l.9-.389a1.288,1.288,0,0,1,.327-.119Z" transform="translate(-233.174 -238.278)" fill="#e0e0e0"/>
      <path id="Path_96" data-name="Path 96" d="M28.468,113.433s-5.286,1.285-1.09,12.73a141.427,141.427,0,0,0,7.358,17.244s.673,2.622-1.484,2.755-6.7-1.166-7.951,1.294c-1.3,2.555.341,5.315,4.011,8S40.8,164.334,41.52,164.9s1.3,1.806-.152,2.134-12.019.152-11.8,5.168,11.663,10.834,12.9,11.493,1.484,1.247,1.294,1.949-3.741.308-6.747.379-6.481.687-6.111,3.575,6.751,9.625,23.782,13.4l8,1.233,5.215-6.263c10.3-14.072,10.653-23.35,9.008-25.763s-4.642-.578-6.951,1.351-4.713,4.566-5.32,4.167-.811-1.005-.318-2.318,5.267-13.237,2.119-17.153-10.971,3.191-12.28,3.907-1.678-.635-1.522-1.508,1.953-10.7,2.94-15.138.389-7.586-2.271-8.657c-2.565-1.029-5.125,2.954-6.832,4.267s-2.93-1.09-2.93-1.09A141.556,141.556,0,0,0,37.7,122.214c-4.4-11.369-9.335-8.752-9.335-8.752" transform="translate(-24.86 -73.256)" fill="#ebebeb"/>
      <path id="Path_97" data-name="Path 97" d="M71.03,217.8c-3.2-8.359-8.638-23.317-13.375-36.132s-9.032-24.407-12.189-32.785c-1.579-4.177-2.845-7.586-3.75-9.914-.436-1.166-.782-2.072-1.015-2.7-.114-.3-.2-.536-.261-.706s-.081-.242-.081-.242.038.076.1.232l.284.7,1.062,2.679c.915,2.328,2.224,5.689,3.821,9.89,3.2,8.359,7.524,19.946,12.261,32.761s10.146,27.778,13.3,36.156" transform="translate(-33.011 -84.888)" fill="#e0e0e0"/>
      <path id="Path_98" data-name="Path 98" d="M39.06,189.83a2.846,2.846,0,0,1,.54.228c.341.156.83.4,1.422.7,1.195.612,2.845,1.5,4.618,2.513L50.2,195.88l1.384.782a2.609,2.609,0,0,1,.474.3,2.371,2.371,0,0,1-.54-.218c-.341-.156-.83-.4-1.422-.711-1.195-.626-2.816-1.531-4.6-2.546l-4.57-2.574-1.389-.773A2.162,2.162,0,0,1,39.06,189.83Z" transform="translate(-32.328 -113.554)" fill="#e0e0e0"/>
      <path id="Path_99" data-name="Path 99" d="M67.838,186.98c-.062-.033,1.621-3.48,3.755-7.7s3.921-7.619,3.983-7.586-1.621,3.48-3.755,7.7S67.914,187.008,67.838,186.98Z" transform="translate(-47.461 -104.014)" fill="#e0e0e0"/>
      <path id="Path_100" data-name="Path 100" d="M81.31,233.377a2.442,2.442,0,0,1,.384-.474l1.109-1.185c.948-1.005,2.224-2.371,3.584-3.983s2.555-3.063,3.4-4.139l1.01-1.275a2.939,2.939,0,0,1,.394-.45,2.844,2.844,0,0,1-.313.507c-.218.318-.536.773-.948,1.327-.815,1.1-1.982,2.6-3.352,4.2s-2.679,2.968-3.651,3.94c-.474.474-.882.872-1.166,1.133a3.086,3.086,0,0,1-.455.4Z" transform="translate(-54.546 -130.403)" fill="#e0e0e0"/>
      <path id="Path_101" data-name="Path 101" d="M52.46,239.11a2.139,2.139,0,0,1,.55.076l1.474.3c1.237.261,2.949.64,4.836,1.076s3.594.839,4.822,1.147l1.456.375a2.482,2.482,0,0,1,.526.171,2.1,2.1,0,0,1-.545-.076l-1.484-.275c-1.242-.261-2.954-.64-4.841-1.076s-3.589-.839-4.822-1.147l-1.456-.375A2.284,2.284,0,0,1,52.46,239.11Z" transform="translate(-39.374 -139.47)" fill="#e0e0e0"/>
      <path id="Path_102" data-name="Path 102" d="M59.62,277.87a4.481,4.481,0,0,1,.7.1l1.9.375c1.593.327,3.793.8,6.211,1.332s4.618,1.029,6.2,1.4l1.9.474a4.046,4.046,0,0,1,.683.2,3.391,3.391,0,0,1-.7-.1l-1.9-.375c-1.593-.327-3.793-.8-6.211-1.332s-4.637-1.062-6.22-1.418l-1.9-.474a3.283,3.283,0,0,1-.654-.18Z" transform="translate(-43.14 -159.853)" fill="#e0e0e0"/>
      <path id="Path_103" data-name="Path 103" d="M95.81,269.015a4.005,4.005,0,0,1,.474-.593l1.351-1.555c1.143-1.318,2.707-3.139,4.386-5.215s3.148-3.964,4.2-5.348l1.252-1.64a4.374,4.374,0,0,1,.474-.583,4.336,4.336,0,0,1-.4.64c-.275.408-.678.986-1.19,1.693-1.019,1.422-2.47,3.319-4.149,5.4s-3.271,3.869-4.447,5.158c-.588.64-1.071,1.157-1.422,1.5A5.1,5.1,0,0,1,95.81,269.015Z" transform="translate(-62.172 -147.342)" fill="#e0e0e0"/>
    </g>
    <g id="freepik--Table--inject-72" transform="translate(28.077 241.481)">
      <path id="Path_104" data-name="Path 104" d="M238.862,477.343c0,.071-45.671.123-102,.123s-102.006-.052-102.006-.123,45.662-.123,102.006-.123S238.862,477.277,238.862,477.343Z" transform="translate(-34.86 -477.22)" fill="#263238"/>
    </g>
    <g id="freepik--Screen--inject-72" transform="translate(128.199 46.161)">
      <path id="Path_105" data-name="Path 105" d="M328.09,65.548H314.341a3.409,3.409,0,0,0-3.319,3.489v2.494a3.409,3.409,0,0,1-3.319,3.489H280.892a3.428,3.428,0,0,1-3.342-3.494V69.009a3.423,3.423,0,0,0-3.319-3.489H257.357a10.833,10.833,0,0,0-10.833,10.824l-.033,173.607a10.824,10.824,0,0,0,10.819,10.824l70.8.043A10.819,10.819,0,0,0,338.942,250l.033-173.611A10.824,10.824,0,0,0,328.09,65.548Z" transform="translate(-246.275 -65.394)" fill="#fff"/>
      <path id="Path_106" data-name="Path 106" d="M327.852,65.408h.37a7.315,7.315,0,0,1,1.1.081,10.26,10.26,0,0,1,4.063,1.422,10.538,10.538,0,0,1,2.465,2,10.729,10.729,0,0,1,2.062,3.233,11.208,11.208,0,0,1,.811,4.4v5.1c0,14.423.024,35.288.038,61.066s0,56.486,0,90.556v16.224a11.461,11.461,0,0,1-.412,3.319,10.955,10.955,0,0,1-1.384,3.053,11.757,11.757,0,0,1-2.252,2.5,10.98,10.98,0,0,1-6.254,2.427c-2.266.066-4.523,0-6.8.028H257.82a11.473,11.473,0,0,1-7.06-1.987,11.094,11.094,0,0,1-4.267-5.926,11.984,11.984,0,0,1-.45-3.66V76.36c0-.436.038-.877.062-1.313a6.606,6.606,0,0,1,.218-1.29,10.945,10.945,0,0,1,11.1-8.5h16.2a3.475,3.475,0,0,1,2.134.593,3.608,3.608,0,0,1,1.323,1.74,5.689,5.689,0,0,1,.218,2.138v1.09a8.241,8.241,0,0,0,.033,1.034,3.419,3.419,0,0,0,.868,1.811,3.186,3.186,0,0,0,1.655,1.024,3.679,3.679,0,0,0,.972.1h26.944a3.225,3.225,0,0,0,1.323-.474,3.428,3.428,0,0,0,1.517-2.181,5.855,5.855,0,0,0,.085-1.318V69.524a7.007,7.007,0,0,1,.057-1.261,3.58,3.58,0,0,1,.408-1.157,3.423,3.423,0,0,1,1.712-1.5,5.448,5.448,0,0,1,2.152-.228h0a5.057,5.057,0,0,0-2.115.232,3.319,3.319,0,0,0-1.674,1.484,3.668,3.668,0,0,0-.394,1.128,7.639,7.639,0,0,0-.052,1.242v1.294A6.448,6.448,0,0,1,310.7,72.1a3.551,3.551,0,0,1-1.565,2.262,3.319,3.319,0,0,1-1.38.474c-.5.043-.986,0-1.489,0H280.824a3.759,3.759,0,0,1-1.019-.1,3.319,3.319,0,0,1-1.745-1.081,3.618,3.618,0,0,1-.858-1.9,7.934,7.934,0,0,1-.033-.939V69.751a5.61,5.61,0,0,0-.213-2.072,3.39,3.39,0,0,0-1.252-1.645,3.319,3.319,0,0,0-2.024-.559h-16.2a10.716,10.716,0,0,0-10.876,8.335c-.109.412-.142.839-.218,1.261a7.764,7.764,0,0,0-.057,1.29V249.241a11.63,11.63,0,0,0,.436,3.575,10.809,10.809,0,0,0,4.172,5.76,11.109,11.109,0,0,0,6.875,1.9h63.854c2.271,0,4.547.038,6.785-.028a10.663,10.663,0,0,0,6.083-2.371,11.379,11.379,0,0,0,2.2-2.432,10.675,10.675,0,0,0,1.346-2.968,11.221,11.221,0,0,0,.4-3.224V233.226c0-34.084.033-64.788.047-90.556s.047-46.643.062-61.066V76.5a11.142,11.142,0,0,0-.792-4.362,10.853,10.853,0,0,0-8.51-6.638,8.73,8.73,0,0,0-1.09-.1A1.928,1.928,0,0,1,327.852,65.408Z" transform="translate(-246.037 -65.253)" fill="#263238"/>
      <path id="Path_107" data-name="Path 107" d="M274.524,102.495c0,.043-1.792.1-4,.114s-4,0-4-.047,1.787-.1,4-.119S274.524,102.447,274.524,102.495Z" transform="translate(-256.814 -84.807)" fill="#263238"/>
      <path id="Path_108" data-name="Path 108" d="M274.559,106.8c0,.047-1.787.1-3.992.119s-4,0-4-.052,1.787-.1,3.992-.119S274.559,106.757,274.559,106.8Z" transform="translate(-256.835 -87.074)" fill="#263238"/>
      <path id="Path_109" data-name="Path 109" d="M274.594,111.115c0,.047-1.787.1-4,.119s-4,0-4-.052,1.787-.1,4-.119S274.594,111.067,274.594,111.115Z" transform="translate(-256.851 -89.34)" fill="#263238"/>
      <rect id="Rectangle_43" data-name="Rectangle 43" width="35.582" height="35.582" transform="translate(8.37 151.549)" fill="#f5f5f5"/>
      <path id="Path_110" data-name="Path 110" d="M303.445,420.974c-2.9-4.044-9.046-6.813-14.043-6.069-4.049.6-7.633,2.484-9.6,6.5a1.825,1.825,0,0,0,1.422,2.631,83.38,83.38,0,0,0,20.306-.066c1.038-.133,2.276-.422,2.347-1.707a2.053,2.053,0,0,0-.436-1.294Z" transform="translate(-263.694 -249.067)" fill="#ff914d"/>
      <g id="Group_1" data-name="Group 1" transform="translate(16.043 165.718)" opacity="0.5">
        <path id="Path_111" data-name="Path 111" d="M303.659,420.974c-2.9-4.044-9.046-6.813-14.043-6.069-4.049.6-7.633,2.484-9.6,6.5" transform="translate(-280.02 -414.785)" fill="#ff914d"/>
      </g>
      <path id="Path_112" data-name="Path 112" d="M294.548,422.056a2.325,2.325,0,0,1-.507-.564,4.58,4.58,0,0,1-.768-1.678,8.243,8.243,0,0,1-.152-1.83,2.3,2.3,0,0,1,.062-.754,2.313,2.313,0,0,1,.114.749,13.589,13.589,0,0,0,.213,1.778,5.924,5.924,0,0,0,.673,1.64A2.974,2.974,0,0,1,294.548,422.056Z" transform="translate(-270.794 -250.353)" fill="#f5f5f5"/>
      <path id="Path_113" data-name="Path 113" d="M304.592,421.394c-.071,0,.033-1.147-.119-2.541s-.474-2.489-.412-2.513A8.363,8.363,0,0,1,304.592,421.394Z" transform="translate(-276.547 -249.885)" fill="#f5f5f5"/>
      <path id="Path_114" data-name="Path 114" d="M314.539,421.582c-.071-.028.266-.792.346-1.8s-.1-1.816-.033-1.835A4.011,4.011,0,0,1,314.539,421.582Z" transform="translate(-282.056 -250.731)" fill="#f5f5f5"/>
      <g id="Group_2" data-name="Group 2" transform="translate(27.258 166.029)" opacity="0.3">
        <path id="Path_115" data-name="Path 115" d="M303.53,415.44l.038.071h0Z" transform="translate(-303.53 -415.44)"/>
      </g>
      <rect id="Rectangle_44" data-name="Rectangle 44" width="35.995" height="53.959" transform="translate(8.37 36.524)" fill="#f5f5f5"/>
      <rect id="Rectangle_45" data-name="Rectangle 45" width="35.995" height="53.959" transform="translate(8.37 94.551)" fill="#f5f5f5"/>
      <rect id="Rectangle_46" data-name="Rectangle 46" width="35.995" height="50.379" transform="translate(47.792 84.362)" fill="#f5f5f5"/>
      <rect id="Rectangle_47" data-name="Rectangle 47" width="35.995" height="48.843" transform="translate(47.498 138.283)" fill="#f5f5f5"/>
      <rect id="Rectangle_48" data-name="Rectangle 48" width="35.995" height="44.567" transform="translate(47.792 36.524)" fill="#f5f5f5"/>
      <path id="Path_116" data-name="Path 116" d="M301.038,165.011V179.97c0,.654-.526,1.332-1.493,1.844a9.141,9.141,0,0,1-4.149.863h-.024c-3.532,0-5.642-1.394-5.642-2.707V164.983c0-1.46,1.076-2.982,2.157-4.49a6.552,6.552,0,0,0,.948-3.319V156.9h-.1a.787.787,0,0,1-.844-.721v-.631a.792.792,0,0,1,.844-.73h5.305a.863.863,0,0,1,.778.441.664.664,0,0,1,.066.289v.631a.792.792,0,0,1-.844.721h-.123v.275a6.351,6.351,0,0,0,.948,3.319c1.081,1.508,2.152,3.03,2.157,4.49Z" transform="translate(-269.015 -112.353)" fill="#fafafa"/>
      <path id="Path_117" data-name="Path 117" d="M300.821,164.895v-.152a4.315,4.315,0,0,0-.062-.446,5.8,5.8,0,0,0-.626-1.612,22.562,22.562,0,0,0-1.531-2.309,6.576,6.576,0,0,1-.948-3.58v-.085h.047a.763.763,0,0,0,.853-.564v-.635a.583.583,0,0,0-.213-.522.844.844,0,0,0-.574-.185h-5.192a.844.844,0,0,0-.654.228.583.583,0,0,0-.152.3,3.386,3.386,0,0,0,0,.389v.4a.55.55,0,0,0,.147.308.834.834,0,0,0,.683.242h.109v.119a9.178,9.178,0,0,1-.2,1.821,4.983,4.983,0,0,1-.716,1.764,14.5,14.5,0,0,0-1.958,3.319,4.092,4.092,0,0,0-.209.948V179.27a4.494,4.494,0,0,0,.038.853,1.606,1.606,0,0,0,.393.706,3.969,3.969,0,0,0,1.375.948,9.208,9.208,0,0,0,3.219.659,11.166,11.166,0,0,0,3.129-.28,4.955,4.955,0,0,0,2.551-1.365,1.693,1.693,0,0,0,.332-.588,2.219,2.219,0,0,0,.057-.673v-3.964c0-3.286.028-5.945.038-7.8v-2.124c0-.5.024-.74.024-.74a5.962,5.962,0,0,1,.028.74c0,.5,0,1.214.024,2.124,0,1.859,0,4.518.038,7.8v3.964a2.423,2.423,0,0,1-.057.73,1.9,1.9,0,0,1-.37.664,5.077,5.077,0,0,1-2.655,1.422,11.264,11.264,0,0,1-3.191.3,9.426,9.426,0,0,1-3.319-.673,4.14,4.14,0,0,1-1.46-.991,1.9,1.9,0,0,1-.45-.811,4.6,4.6,0,0,1-.047-.91V164.61a4.168,4.168,0,0,1,.218-1.005,14.544,14.544,0,0,1,2-3.371,6.481,6.481,0,0,0,.882-3.452l.114.114a1.048,1.048,0,0,1-.844-.318.782.782,0,0,1-.2-.427c0-.166,0-.284,0-.427a3.267,3.267,0,0,1,0-.422.787.787,0,0,1,.213-.412,1.043,1.043,0,0,1,.806-.294H297.7a1.043,1.043,0,0,1,.688.232.787.787,0,0,1,.275.659v.659a.92.92,0,0,1-1.019.7l.081-.081a6.423,6.423,0,0,0,.891,3.508,22.485,22.485,0,0,1,1.508,2.342,5.428,5.428,0,0,1,.588,1.645,3.356,3.356,0,0,1,.043.45A.506.506,0,0,1,300.821,164.895Z" transform="translate(-268.798 -112.236)" fill="#263238"/>
      <path id="Path_118" data-name="Path 118" d="M301.151,159.032a22.67,22.67,0,0,1-4.741,0A22.675,22.675,0,0,1,301.151,159.032Z" transform="translate(-272.527 -114.505)" fill="#263238"/>
      <path id="Path_119" data-name="Path 119" d="M301.089,179.57a1.693,1.693,0,0,0-1.617.071,6.046,6.046,0,0,1-1.555.668,2.954,2.954,0,0,1-1.9-.474,11.953,11.953,0,0,0-1.759-.948,3.423,3.423,0,0,0-3.532.83v12.8s.706,2.186,5.666,1.844,4.566-2.532,4.566-2.532Z" transform="translate(-269.54 -124.916)" fill="#ff914d"/>
      <path id="Path_120" data-name="Path 120" d="M380.968,384.051h0v14.835c0,.654-.522,1.323-1.489,1.835a9.008,9.008,0,0,1-4.12.858h0c-3.513,0-5.609-1.389-5.609-2.693V384.07h0v-.033c0-1.451,1.072-2.963,2.143-4.457a6.539,6.539,0,0,0,.948-3.286v-.27h-.128a.787.787,0,0,1-.839-.721v-.626a.782.782,0,0,1,.839-.721h5.272a.853.853,0,0,1,.773.436.654.654,0,0,1,.062.284v.626a.782.782,0,0,1-.835.721h-.1v.27a6.352,6.352,0,0,0,.924,3.286c1.076,1.493,2.138,3.006,2.148,4.457C380.972,384.032,380.968,384.042,380.968,384.051Z" transform="translate(-311.096 -227.595)" fill="#fafafa"/>
      <path id="Path_121" data-name="Path 121" d="M380.809,383.909a1.209,1.209,0,0,0,0-.152,3.911,3.911,0,0,0-.057-.446,5.8,5.8,0,0,0-.621-1.6,21.414,21.414,0,0,0-1.527-2.295,6.543,6.543,0,0,1-.948-3.556v-.09h.081a.754.754,0,0,0,.844-.564v-.631a.6.6,0,0,0-.213-.517.858.858,0,0,0-.569-.185H372.64a.835.835,0,0,0-.65.228.564.564,0,0,0-.152.3,3.265,3.265,0,0,0,0,.384v.393a.55.55,0,0,0,.147.308.825.825,0,0,0,.673.237h.114v.119a9.043,9.043,0,0,1-.2,1.806,4.907,4.907,0,0,1-.711,1.749,14.321,14.321,0,0,0-1.944,3.319,3.793,3.793,0,0,0-.2.948V398.2a4.411,4.411,0,0,0,.038.844,1.636,1.636,0,0,0,.394.706,3.992,3.992,0,0,0,1.365.948,9.2,9.2,0,0,0,3.177.635,11.05,11.05,0,0,0,3.11-.28,4.865,4.865,0,0,0,2.532-1.356,1.673,1.673,0,0,0,.332-.583,2.206,2.206,0,0,0,.052-.668V394.51c0-3.267.028-5.912.038-7.757,0-.906,0-1.612.024-2.105a5.676,5.676,0,0,0,0-.735,4.8,4.8,0,0,1,.028.735c0,.474,0,1.2,0,2.105,0,1.844.024,4.49.043,7.757v3.935a2.271,2.271,0,0,1-.062.725,1.9,1.9,0,0,1-.365.659,5.059,5.059,0,0,1-2.636,1.422,11.149,11.149,0,0,1-3.172.3,9.34,9.34,0,0,1-3.281-.669,4.134,4.134,0,0,1-1.384-.972,1.9,1.9,0,0,1-.446-.806,4.524,4.524,0,0,1-.047-.9V383.639a4.223,4.223,0,0,1,.218-1.005,14.409,14.409,0,0,1,1.982-3.342,6.491,6.491,0,0,0,.877-3.428l.109.109a1.043,1.043,0,0,1-.834-.313.744.744,0,0,1-.2-.427c0-.161,0-.28,0-.422a3.2,3.2,0,0,1,0-.422.806.806,0,0,1,.213-.408,1.043,1.043,0,0,1,.8-.294h5.158a1.019,1.019,0,0,1,.683.232.782.782,0,0,1,.275.654v.654a.948.948,0,0,1-1.015.7l.081-.081a6.4,6.4,0,0,0,.882,3.48,20.735,20.735,0,0,1,1.5,2.328,5.434,5.434,0,0,1,.588,1.636,2.606,2.606,0,0,1,.038.446C380.824,383.857,380.819,383.909,380.809,383.909Z" transform="translate(-310.938 -227.453)" fill="#263238"/>
      <path id="Path_122" data-name="Path 122" d="M381.084,378.063a22.4,22.4,0,0,1-4.694,0A22.4,22.4,0,0,1,381.084,378.063Z" transform="translate(-314.588 -229.691)" fill="#263238"/>
      <path id="Path_123" data-name="Path 123" d="M381,398.469a1.673,1.673,0,0,0-1.607.066,6.052,6.052,0,0,1-1.541.668,2.978,2.978,0,0,1-1.9-.474,11.592,11.592,0,0,0-1.749-.948,3.4,3.4,0,0,0-3.5.83v12.735s.7,2.176,5.623,1.835,4.542-2.518,4.542-2.518Z" transform="translate(-311.595 -240.03)" fill="#ff914d"/>
      <g id="Group_3" data-name="Group 3" transform="translate(58.901 158.12)" opacity="0.5">
        <path id="Path_124" data-name="Path 124" d="M381,398.469a1.673,1.673,0,0,0-1.607.066,6.052,6.052,0,0,1-1.541.668,2.978,2.978,0,0,1-1.9-.474,11.592,11.592,0,0,0-1.749-.948,3.4,3.4,0,0,0-3.5.83v12.735s.7,2.176,5.623,1.835,4.542-2.518,4.542-2.518Z" transform="translate(-370.7 -397.602)" fill="#ff914d"/>
      </g>
      <path id="Path_125" data-name="Path 125" d="M384.395,274.85a1.043,1.043,0,0,0-1,.114c-.071.047-.147.1-.218.161a13.631,13.631,0,0,1-8.326,2.669c-5.827,0-10.653-3.267-11.516-7.534v-.806a.583.583,0,1,0-1.162,0v2.257a.574.574,0,0,0,.033.156,6.989,6.989,0,0,0-.621,2.816c0,4.926,5.215,8.928,11.668,8.928,5.41,0,9.956-2.811,11.284-6.638a.1.1,0,0,0,.028-.062,2.37,2.37,0,0,0,.251-.981A1.114,1.114,0,0,0,384.395,274.85Z" transform="translate(-306.805 -172.306)" fill="#ff914d"/>
      <g id="Group_4" data-name="Group 4" transform="translate(56.099 100.155)" opacity="0.3">
        <path id="Path_126" data-name="Path 126" d="M364.36,276.5s5.495,12.64,20.387,3.793a19.016,19.016,0,0,1-8.838,4.95C371.377,286.11,364.663,283.555,364.36,276.5Z" transform="translate(-364.36 -276.5)"/>
      </g>
      <path id="Path_127" data-name="Path 127" d="M409.127,282.059c-.09.218-.446.28-.792.133s-.555-.446-.474-.664.446-.275.792-.128S409.222,281.84,409.127,282.059Z" transform="translate(-331.129 -178.879)" fill="#263238"/>
      <path id="Path_128" data-name="Path 128" d="M413.12,104.663a.341.341,0,0,1-.119,0h-1.584l-4.186.038H407.2v-.033c-.033-.223-.066-.474-.1-.692-.289-2.029-.545-3.84-.716-5.026h-1.4a.4.4,0,0,1-.1,0h1.536v.024c.175,1.181.446,2.992.749,5.016.033.237.066.474.1.692l-.038-.033h5.889Z" transform="translate(-329.57 -82.974)" fill="#263238"/>
      <path id="Path_129" data-name="Path 129" d="M408.887,104.524H410.6l4.343-.043-.038.033c.123-.735.261-1.527.4-2.342.071-.422.142-.839.213-1.233l.038.047h-5.12l5.12-.043h.047v.047l-.209,1.228c-.142.82-.28,1.612-.4,2.371v.028H408.9Z" transform="translate(-331.406 -84.02)" fill="#263238"/>
      <path id="Path_130" data-name="Path 130" d="M411.645,113.734a.46.46,0,0,0-.033-.142.564.564,0,0,0-.218-.3.574.574,0,0,0-.526-.071.555.555,0,0,0,0,1.038.545.545,0,0,0,.526-.076.579.579,0,0,0,.213-.3c.029-.09.029-.142.033-.142a.3.3,0,0,1,0,.147.612.612,0,0,1-.213.346.619.619,0,1,1,0-.981.588.588,0,0,1,.213.341A.271.271,0,0,1,411.645,113.734Z" transform="translate(-332.485 -90.423)" fill="#263238"/>
      <path id="Path_131" data-name="Path 131" d="M419.654,113.678a.422.422,0,0,0-.033-.138.55.55,0,0,0-.218-.3.569.569,0,1,0,0,.877.621.621,0,0,0,.218-.308c.024-.09.024-.142.028-.142a.3.3,0,0,1,0,.147.6.6,0,0,1-.209.346.621.621,0,0,1-1.005-.474.631.631,0,0,1,.412-.593.611.611,0,0,1,.583.095.555.555,0,0,1,.213.341.27.27,0,0,1,0,.152Z" transform="translate(-336.701 -90.391)" fill="#263238"/>
      <circle id="Ellipse_8" data-name="Ellipse 8" cx="1.678" cy="1.678" r="1.678" transform="matrix(0.977, -0.211, 0.211, 0.977, 81.831, 15.006)" fill="#ff914d"/>
      <path id="Path_132" data-name="Path 132" d="M422.665,98.27v1.275h-.3V98.507h-.256V98.27Z" transform="translate(-338.631 -82.616)" fill="#fff"/>
      <rect id="Rectangle_49" data-name="Rectangle 49" width="62.171" height="16.319" rx="8.16" transform="translate(15.282 170.841)" fill="#ff914d"/>
      <g id="Group_5" data-name="Group 5" transform="translate(15.372 170.85)" opacity="0.3">
        <rect id="Rectangle_50" data-name="Rectangle 50" width="62.171" height="16.319" rx="8.16" fill="#ff914d"/>
      </g>
      <rect id="Rectangle_51" data-name="Rectangle 51" width="62.171" height="16.319" rx="8.16" transform="translate(12.869 170.841)" fill="#ff914d"/>
      <path id="Path_133" data-name="Path 133" d="M331.355,439.416c0,.834-.607,1.342-1.607,1.342H328.8v1.171h-.55V438.07h1.508C330.749,438.07,331.355,438.577,331.355,439.416Zm-.55,0c0-.555-.37-.868-1.076-.868h-.948v1.731h.948C330.436,440.279,330.805,439.966,330.805,439.416Z" transform="translate(-289.272 -261.312)" fill="#fff"/>
      <path id="Path_134" data-name="Path 134" d="M337.935,440.941H335.9l-.422.948h-.569l1.75-3.859h.545l1.749,3.859h-.578Zm-.194-.441-.83-1.9-.834,1.9Z" transform="translate(-292.774 -261.291)" fill="#fff"/>
      <path id="Path_135" data-name="Path 135" d="M344.937,440.592v1.337h-.545v-1.346l-1.531-2.513h.588l1.233,2.034,1.242-2.034h.545Z" transform="translate(-296.955 -261.312)" fill="#fff"/>
      <path id="Path_136" data-name="Path 136" d="M296.846,294.534a6.974,6.974,0,0,0-5.874-7.965.54.54,0,0,0-.687.73,8.42,8.42,0,0,0,6.552,7.434" transform="translate(-269.28 -181.62)" fill="#455a64"/>
      <path id="Path_137" data-name="Path 137" d="M281.881,315.486c1.759,3.627,4.267,6.069,7.42,6.187.626,0,1.1-.389,1.7-.427a3.86,3.86,0,0,1,1,.379,1.518,1.518,0,0,0,.526.119c3.233-.175,5.993-2.451,7.851-6.258,2.584-5.334,1.787-11.061-1.783-12.8a8.533,8.533,0,0,0-1.465-.569,5.775,5.775,0,0,0-1.773-.209,13.194,13.194,0,0,0-4.058.915l-.175.066c-2.9-1.285-5.215-1.29-7.467-.2C280.084,304.425,279.293,310.152,281.881,315.486Z" transform="translate(-264.086 -189.7)" fill="#ff914d"/>
      <path id="Path_138" data-name="Path 138" d="M283.33,311.855a2.844,2.844,0,0,1-.294-1.072,5.76,5.76,0,0,1,1.811-4.9,2.688,2.688,0,0,1,.92-.621c.024.033-.332.266-.8.744a6.3,6.3,0,0,0-1.759,4.741C283.254,311.433,283.373,311.841,283.33,311.855Z" transform="translate(-265.474 -191.469)" fill="#fafafa"/>
      <path id="Path_139" data-name="Path 139" d="M284.731,323.2c-.066,0-.18-.237-.256-.56s-.081-.6,0-.621.18.237.256.564S284.8,323.185,284.731,323.2Z" transform="translate(-266.22 -200.282)" fill="#fafafa"/>
      <path id="Path_140" data-name="Path 140" d="M310.978,285c0,.047-.673.3-1.678.906a14.072,14.072,0,0,0-1.674,1.19,14.67,14.67,0,0,0-1.745,1.792,14.5,14.5,0,0,0-1.422,2.086,13.718,13.718,0,0,0-.834,1.873c-.393,1.109-.507,1.83-.555,1.821a1.977,1.977,0,0,1,.057-.512,4.332,4.332,0,0,1,.118-.593,7.781,7.781,0,0,1,.213-.768,11.677,11.677,0,0,1,.8-1.93,12.7,12.7,0,0,1,3.224-3.94,12.193,12.193,0,0,1,1.716-1.166,7.243,7.243,0,0,1,.716-.36,5.228,5.228,0,0,1,.555-.237A2.291,2.291,0,0,1,310.978,285Z" transform="translate(-276.029 -180.815)" fill="#263238"/>
      <path id="Path_141" data-name="Path 141" d="M385.927,173.49c-2.9-4.04-9.046-6.808-14.043-6.064-4.049.6-7.633,2.484-9.6,6.5a1.83,1.83,0,0,0,1.422,2.631,83.38,83.38,0,0,0,20.306-.066c1.043-.133,2.276-.422,2.347-1.707A2.067,2.067,0,0,0,385.927,173.49Z" transform="translate(-307.071 -118.921)" fill="#ff914d"/>
      <path id="Path_142" data-name="Path 142" d="M377.03,174.571a2.326,2.326,0,0,1-.507-.564,4.617,4.617,0,0,1-.768-1.678,8.245,8.245,0,0,1-.152-1.83,2.518,2.518,0,0,1,.062-.759,2.229,2.229,0,0,1,.114.749,13.75,13.75,0,0,0,.218,1.783,5.642,5.642,0,0,0,.673,1.64A2.934,2.934,0,0,1,377.03,174.571Z" transform="translate(-314.171 -120.201)" fill="#263238"/>
      <path id="Path_143" data-name="Path 143" d="M387.083,173.9c-.076,0,.028-1.147-.119-2.541s-.474-2.489-.413-2.513a6.415,6.415,0,0,1,.654,2.484A6.524,6.524,0,0,1,387.083,173.9Z" transform="translate(-319.928 -119.733)" fill="#263238"/>
      <path id="Path_144" data-name="Path 144" d="M396.99,174.1c-.066-.028.265-.8.346-1.8s-.1-1.816-.033-1.83A4.011,4.011,0,0,1,396.99,174.1Z" transform="translate(-325.417 -120.585)" fill="#263238"/>
      <g id="Group_6" data-name="Group 6" transform="translate(66.359 48.714)" opacity="0.3">
        <path id="Path_145" data-name="Path 145" d="M386,168l.038.071h0Z" transform="translate(-386 -168)"/>
      </g>
      <g id="Group_7" data-name="Group 7" transform="translate(65.875 48.766)" opacity="0.3">
        <path id="Path_146" data-name="Path 146" d="M385.506,168.11a4.3,4.3,0,0,0,.711,5.083A6.955,6.955,0,0,0,385.506,168.11Z" transform="translate(-384.98 -168.11)"/>
      </g>
      <g id="Group_8" data-name="Group 8" transform="translate(60.595 49.714)" opacity="0.3">
        <path id="Path_147" data-name="Path 147" d="M375.525,174.055a6.638,6.638,0,0,1-.806-2.707,4.011,4.011,0,0,0-.18-1.237,3.153,3.153,0,0,0-.687,2.2,3.2,3.2,0,0,0,1.09,2.157.83.83,0,0,0,.332.19.318.318,0,0,0,.337-.128C375.7,174.382,375.61,174.2,375.525,174.055Z" transform="translate(-373.843 -170.11)"/>
      </g>
      <g id="Group_9" data-name="Group 9" transform="translate(70.632 49.566)" opacity="0.3">
        <path id="Path_148" data-name="Path 148" d="M396.358,170.491h0a1.294,1.294,0,0,0-.142-.474.427.427,0,0,0-.408-.218c-.223.038-.332.289-.4.507a5.585,5.585,0,0,0-.327,2.949c.052.223.2.474.432.474s.294-.19.375-.346A4.788,4.788,0,0,0,396.358,170.491Z" transform="translate(-395.013 -169.797)"/>
      </g>
      <path id="Path_149" data-name="Path 149" d="M280.039,231.614v.446h-.327v-.441a1.716,1.716,0,0,1-.972-.332l.175-.4a1.569,1.569,0,0,0,.8.3V230.4c-.441-.109-.915-.251-.915-.806,0-.4.294-.759.915-.815V228.3h.327v.441a1.75,1.75,0,0,1,.806.242l-.166.4a1.621,1.621,0,0,0-.64-.213v.8c.441.1.92.247.92.8C280.959,231.2,280.66,231.548,280.039,231.614Zm-.327-1.7v-.706c-.28.043-.4.19-.4.36S279.48,229.846,279.712,229.912Zm.74.92c0-.194-.175-.289-.412-.356v.7C280.328,231.135,280.452,231,280.452,230.832Z" transform="translate(-263.235 -150.997)" fill="#263238"/>
      <path id="Path_150" data-name="Path 150" d="M287.2,229.36v2.778h-.517v-2.347H286.1v-.431Z" transform="translate(-267.106 -151.555)" fill="#263238"/>
      <path id="Path_151" data-name="Path 151" d="M290.217,234.179a.9.9,0,0,1-.09.346l-.2.559H289.6l.161-.612a.3.3,0,0,1-.185-.294.322.322,0,1,1,.64,0Z" transform="translate(-268.933 -153.899)" fill="#263238"/>
      <path id="Path_152" data-name="Path 152" d="M293.523,231.285c0,.474-.351.9-1.1.9a1.759,1.759,0,0,1-1.043-.322l.218-.4a1.323,1.323,0,0,0,.82.275c.365,0,.588-.161.588-.427s-.175-.431-.749-.431h-.669l.142-1.512h1.631v.431h-1.214l-.062.645h.266C293.2,230.436,293.523,230.792,293.523,231.285Z" transform="translate(-269.882 -151.555)" fill="#263238"/>
      <path id="Path_153" data-name="Path 153" d="M296.53,230.712c0-.915.5-1.422,1.162-1.422s1.162.517,1.162,1.422-.5,1.422-1.162,1.422S296.53,231.627,296.53,230.712Zm1.806,0c0-.673-.266-.981-.645-.981s-.64.308-.64.981.261.981.64.981S298.336,231.381,298.336,230.712Z" transform="translate(-272.591 -151.518)" fill="#263238"/>
      <path id="Path_154" data-name="Path 154" d="M300.428,242.553c0,.071-5.1.123-11.379.123s-11.379-.052-11.379-.123,5.1-.123,11.379-.123S300.428,242.487,300.428,242.553Z" transform="translate(-262.672 -158.428)" fill="#263238"/>
      <path id="Path_155" data-name="Path 155" d="M288.268,246.463c0,.071-2.371.123-5.286.123s-5.291-.052-5.291-.123,2.371-.123,5.291-.123S288.268,246.4,288.268,246.463Z" transform="translate(-262.683 -160.484)" fill="#263238"/>
      <path id="Path_156" data-name="Path 156" d="M364.256,207.666v.446h-.308v-.441a1.754,1.754,0,0,1-.948-.327l.175-.4a1.513,1.513,0,0,0,.8.3v-.8c-.441-.1-.915-.251-.915-.8,0-.4.294-.759.915-.82v-.446h.327v.441a1.659,1.659,0,0,1,.806.242l-.166.4a1.622,1.622,0,0,0-.64-.213v.8c.441.109.92.247.92.8A.93.93,0,0,1,364.256,207.666Zm-.327-1.7v-.706c-.284.043-.4.185-.4.36s.171.28.422.346Zm.74.915c0-.194-.175-.284-.412-.351v.7C364.546,207.192,364.669,207.045,364.669,206.883Z" transform="translate(-307.546 -138.418)" fill="#263238"/>
      <path id="Path_157" data-name="Path 157" d="M372.427,207.668v.436h-2.053v-.346l1.1-1.048c.27-.261.318-.422.318-.578,0-.251-.175-.4-.517-.4a.782.782,0,0,0-.65.289l-.36-.28a1.28,1.28,0,0,1,1.053-.474c.607,0,1,.3,1,.8a1.114,1.114,0,0,1-.474.877l-.744.711Z" transform="translate(-311.369 -138.885)" fill="#263238"/>
      <path id="Path_158" data-name="Path 158" d="M376.155,210.252a.91.91,0,0,1-.09.341l-.2.559h-.322l.161-.607a.3.3,0,0,1-.19-.294.322.322,0,0,1,.645,0Z" transform="translate(-314.125 -141.337)" fill="#263238"/>
      <path id="Path_159" data-name="Path 159" d="M379.517,207.667v.436h-2.053v-.346l1.1-1.048c.27-.261.318-.422.318-.578,0-.251-.175-.4-.517-.4a.782.782,0,0,0-.649.289l-.36-.28a1.28,1.28,0,0,1,1.057-.474c.6,0,.991.3.991.8a1.114,1.114,0,0,1-.474.877l-.744.711Z" transform="translate(-315.098 -138.884)" fill="#263238"/>
      <path id="Path_160" data-name="Path 160" d="M384.423,207.31c0,.474-.351.891-1.1.891a1.73,1.73,0,0,1-1.043-.322l.218-.4a1.318,1.318,0,0,0,.816.27c.37,0,.588-.161.588-.422s-.171-.436-.744-.436h-.673l.147-1.512h1.631v.436h-1.195l-.062.64h.266C384.1,206.456,384.423,206.817,384.423,207.31Z" transform="translate(-317.685 -138.944)" fill="#263238"/>
      <path id="Path_161" data-name="Path 161" d="M384.6,218.583c0,.066-5.1.123-11.379.123s-11.379-.057-11.379-.123,5.1-.123,11.379-.123S384.6,218.517,384.6,218.583Z" transform="translate(-306.936 -145.822)" fill="#263238"/>
      <path id="Path_162" data-name="Path 162" d="M372.457,222.493c0,.066-2.371.123-5.291.123s-5.286-.057-5.286-.123,2.371-.123,5.286-.123S372.457,222.427,372.457,222.493Z" transform="translate(-306.957 -147.879)" fill="#263238"/>
      <path id="Path_163" data-name="Path 163" d="M278.119,353.345v.446h-.327v-.446a1.73,1.73,0,0,1-.972-.332l.18-.4a1.508,1.508,0,0,0,.792.3v-.792c-.441-.109-.91-.251-.91-.8,0-.408.294-.759.91-.82v-.45h.327v.45a1.749,1.749,0,0,1,.806.242l-.161.4a1.669,1.669,0,0,0-.645-.213v.8c.441.109.92.246.92.8C279.039,352.928,278.745,353.279,278.119,353.345Zm-.327-1.7v-.706c-.28.047-.4.19-.4.365s.171.27.4.337Zm.74.92c0-.194-.175-.284-.412-.356v.706c.289-.043.412-.185.412-.356Z" transform="translate(-262.225 -215.024)" fill="#263238"/>
      <path id="Path_164" data-name="Path 164" d="M284.48,352.422c0-.915.5-1.422,1.162-1.422s1.162.512,1.162,1.422-.5,1.422-1.162,1.422S284.48,353.333,284.48,352.422Zm1.806,0c0-.668-.266-.981-.645-.981s-.64.313-.64.981.261.981.64.981S286.286,353.091,286.286,352.422Z" transform="translate(-266.254 -215.523)" fill="#263238"/>
      <path id="Path_165" data-name="Path 165" d="M290.647,355.889a.909.909,0,0,1-.09.341l-.2.559h-.318l.156-.607a.308.308,0,0,1-.185-.294.322.322,0,1,1,.64,0Z" transform="translate(-269.159 -217.904)" fill="#263238"/>
      <path id="Path_166" data-name="Path 166" d="M293.953,352.985c0,.474-.351.9-1.1.9a1.731,1.731,0,0,1-1.043-.322l.218-.4a1.318,1.318,0,0,0,.815.275c.37,0,.588-.161.588-.427s-.171-.431-.744-.431h-.673l.147-1.512H293.8v.446H292.6l-.062.645h.266C293.626,352.136,293.953,352.492,293.953,352.985Z" transform="translate(-270.108 -215.555)" fill="#263238"/>
      <path id="Path_167" data-name="Path 167" d="M297,352.422c0-.915.5-1.422,1.162-1.422s1.162.512,1.162,1.422-.5,1.422-1.162,1.422S297,353.333,297,352.422Zm1.806,0c0-.668-.266-.981-.645-.981s-.64.313-.64.981.261.981.64.981.626-.313.626-.981Z" transform="translate(-272.838 -215.523)" fill="#263238"/>
      <path id="Path_168" data-name="Path 168" d="M298.518,364.263c0,.066-5.1.123-11.379.123s-11.379-.057-11.379-.123,5.1-.123,11.379-.123S298.518,364.192,298.518,364.263Z" transform="translate(-261.668 -222.433)" fill="#263238"/>
      <path id="Path_169" data-name="Path 169" d="M286.373,368.173c0,.066-2.371.123-5.286.123s-5.286-.057-5.286-.123,2.371-.123,5.286-.123S286.373,368.1,286.373,368.173Z" transform="translate(-261.689 -224.49)" fill="#263238"/>
      <path id="Path_170" data-name="Path 170" d="M360.309,321.61v.446h-.322v-.441a1.735,1.735,0,0,1-.977-.332l.18-.4a1.512,1.512,0,0,0,.8.3v-.792c-.441-.109-.915-.251-.915-.8,0-.408.294-.759.915-.82v-.45h.322v.441a1.748,1.748,0,0,1,.806.242l-.161.4a1.641,1.641,0,0,0-.645-.213v.8c.441.109.92.247.92.8C361.229,321.2,360.935,321.549,360.309,321.61Zm-.322-1.7V319.2c-.284.047-.4.19-.4.365S359.754,319.842,359.987,319.908Zm.735.92c0-.194-.175-.284-.412-.356v.706c.289-.047.412-.166.412-.351Z" transform="translate(-305.448 -198.337)" fill="#263238"/>
      <path id="Path_171" data-name="Path 171" d="M367.475,319.33v2.778h-.517v-2.347h-.588v-.431Z" transform="translate(-309.318 -198.868)" fill="#263238"/>
      <path id="Path_172" data-name="Path 172" d="M370.495,324.2a.911.911,0,0,1-.09.341l-.2.559h-.322l.156-.607a.308.308,0,0,1-.185-.294.322.322,0,1,1,.645,0Z" transform="translate(-311.148 -201.261)" fill="#263238"/>
      <path id="Path_173" data-name="Path 173" d="M371.81,320.682c0-.915.5-1.422,1.162-1.422s1.162.512,1.162,1.422-.474,1.422-1.162,1.422S371.81,321.6,371.81,320.682Zm1.806,0c0-.668-.266-.981-.645-.981s-.64.313-.64.981.261.981.64.981S373.616,321.356,373.616,320.682Z" transform="translate(-312.179 -198.832)" fill="#263238"/>
      <path id="Path_174" data-name="Path 174" d="M377.45,320.682c0-.915.5-1.422,1.162-1.422s1.162.512,1.162,1.422-.5,1.422-1.162,1.422S377.45,321.6,377.45,320.682Zm1.806,0c0-.668-.266-.981-.645-.981s-.64.313-.64.981.261.981.64.981S379.256,321.356,379.256,320.682Z" transform="translate(-315.145 -198.832)" fill="#263238"/>
      <path id="Path_175" data-name="Path 175" d="M380.757,332.528c0,.066-5.1.123-11.379.123S358,332.594,358,332.528s5.1-.128,11.379-.128S380.757,332.457,380.757,332.528Z" transform="translate(-304.917 -205.742)" fill="#263238"/>
      <path id="Path_176" data-name="Path 176" d="M368.563,336.438c0,.066-2.371.123-5.286.123s-5.286-.057-5.286-.123,2.371-.128,5.286-.128S368.563,336.367,368.563,336.438Z" transform="translate(-304.911 -207.798)" fill="#263238"/>
      <path id="Path_177" data-name="Path 177" d="M342.535,108.393c0,.066-5.495.123-12.27.123s-12.275-.057-12.275-.123,5.495-.123,12.275-.123S342.535,108.322,342.535,108.393Z" transform="translate(-283.876 -87.875)" fill="#ff914d"/>
    </g>
    <g id="freepik--Character--inject-72" transform="translate(21.961 63.465)">
      <path id="Path_178" data-name="Path 178" d="M27.005,419.029a3.281,3.281,0,0,0-3.082,2.627,31.62,31.62,0,0,0-.725,3.513s-2.783,2.5,0,3.172,3.793-3.082,3.793-3.082l.427-6.249Z" transform="translate(-21.961 -268.592)" fill="#ffbe9d"/>
      <path id="Path_179" data-name="Path 179" d="M91.38,262.256s8.7-29.2,9.582-30.457c1.46-2.081,15.537-8.34,15.537-8.34l3.793-7.7L143.67,212l5.8,7.463,16.3,11.976-1.138,41.3-.607,28.84,3.086,36L93.1,337.451l3.347-7.586,3.513-65.485Z" transform="translate(-58.467 -159.729)" fill="#ff914d"/>
      <path id="Path_180" data-name="Path 180" d="M112.351,283.932a.782.782,0,0,1-.028-.237,4.606,4.606,0,0,0-.038-.678c0-.588-.052-1.422-.071-2.489-.038-2.105-.038-5.011.052-8.221s.261-6.111.422-8.212c.076-1.048.152-1.9.213-2.48l.071-.673a1.308,1.308,0,0,1,.043-.232.7.7,0,0,1,0,.237,6.088,6.088,0,0,1-.028.673c-.033.626-.081,1.465-.137,2.489-.114,2.1-.256,5-.346,8.207s-.119,6.107-.123,8.212V283.7a.839.839,0,0,1-.028.237Z" transform="translate(-69.411 -185.345)" fill="#263238"/>
      <g id="Group_10" data-name="Group 10" transform="translate(57.429 88.414)" opacity="0.3">
        <path id="Path_181" data-name="Path 181" d="M145.366,290.018a1.422,1.422,0,0,1,.27-.915,2.371,2.371,0,0,1,2.764-.683,4.473,4.473,0,0,1,2.105,3.366c.27,1.479.232,3.006.512,4.485a5.35,5.35,0,0,0,2.252,3.75c1.607.948,3.717.522,5.4,1.318,2.513,1.181,3.1,4.447,3.224,7.225.237,5.258,0,10.521-.218,15.779l-1.451,33.577-1.323,16.845-6.808,2.892-9.008-59.193Z" transform="translate(-143.09 -288.231)"/>
      </g>
      <path id="Path_182" data-name="Path 182" d="M149.272,262.454a.474.474,0,0,1-.175.095,1.194,1.194,0,0,1-.578.057,1.986,1.986,0,0,1-1.546-1.351,3.575,3.575,0,0,1-.137-1.46,15.711,15.711,0,0,1,.275-1.636c.228-1.147.474-2.4.74-3.712.531-2.631,1.024-5.011,1.394-6.732l.474-2.034a5.021,5.021,0,0,1,.194-.74,4.143,4.143,0,0,1-.1.759c-.1.526-.223,1.218-.375,2.053-.327,1.726-.8,4.111-1.328,6.742-.27,1.313-.526,2.565-.759,3.708a6.194,6.194,0,0,0-.194,3,1.9,1.9,0,0,0,1.394,1.309A1.649,1.649,0,0,0,149.272,262.454Z" transform="translate(-87.618 -177.051)" fill="#263238"/>
      <path id="Path_183" data-name="Path 183" d="M154.478,258.688c0,.024-.194.024-.517.123a2.4,2.4,0,0,0-1.143.806,2.02,2.02,0,0,0-.351,1.944,2.115,2.115,0,0,0,3.921.313,2.015,2.015,0,0,0-.038-1.972,2.37,2.37,0,0,0-1-.977c-.3-.152-.474-.18-.474-.2s.047,0,.137,0a1.449,1.449,0,0,1,.389.109,2.342,2.342,0,0,1,1.114.977,2.371,2.371,0,0,1,.327.991,2.1,2.1,0,0,1-.237,1.176,2.333,2.333,0,0,1-4.343-.346,2.082,2.082,0,0,1-.047-1.2,2.4,2.4,0,0,1,1.731-1.712,1.42,1.42,0,0,1,.4-.047A.371.371,0,0,1,154.478,258.688Z" transform="translate(-90.426 -184.271)" fill="#263238"/>
      <path id="Path_184" data-name="Path 184" d="M104.3,313.8,61.555,306.06,41.6,310.441l44.652,8.036Z" transform="translate(-32.289 -209.193)" fill="#9bd19d"/>
      <g id="Group_11" data-name="Group 11" transform="translate(9.311 96.867)" opacity="0.6">
        <path id="Path_185" data-name="Path 185" d="M104.3,313.8,61.555,306.06,41.6,310.441l44.652,8.036Z" transform="translate(-41.6 -306.06)"/>
      </g>
      <path id="Path_186" data-name="Path 186" d="M116.2,311.4c.578-7.88,2.74-27.892,4.362-35.625a18.107,18.107,0,0,1,2.371-6.638,5.769,5.769,0,0,1,10.611.92,13.987,13.987,0,0,1,1.076,6.2c-.4,9.558-1.228,20.264-1.218,29.125" transform="translate(-71.52 -188.154)" fill="#455a64"/>
      <path id="Path_187" data-name="Path 187" d="M135.334,322.12a16.038,16.038,0,0,1-1.584.5,31.766,31.766,0,0,0-7.268,3.3,15.746,15.746,0,0,1-1.422.863,3.189,3.189,0,0,1,.337-.3c.228-.18.564-.422.991-.711a25.251,25.251,0,0,1,3.523-1.953,24.539,24.539,0,0,1,3.793-1.361c.5-.133.906-.228,1.185-.28A1.739,1.739,0,0,1,135.334,322.12Z" transform="translate(-76.179 -217.639)" fill="#263238"/>
      <path id="Path_188" data-name="Path 188" d="M136.713,302.937c0,.038-.64.18-1.664.5a22.535,22.535,0,0,0-7.363,3.869c-.839.664-1.328,1.119-1.356,1.09a2.028,2.028,0,0,1,.308-.356,11.7,11.7,0,0,1,.948-.868,18.988,18.988,0,0,1,3.494-2.371,19.225,19.225,0,0,1,3.93-1.541,12.22,12.22,0,0,1,1.247-.28A1.494,1.494,0,0,1,136.713,302.937Z" transform="translate(-76.847 -207.55)" fill="#263238"/>
      <path id="Path_189" data-name="Path 189" d="M137.486,287.463c0,.043-.507.066-1.309.213a11.467,11.467,0,0,0-3,1,11.6,11.6,0,0,0-2.608,1.792c-.6.55-.948.948-.948.915a1.06,1.06,0,0,1,.194-.3,6.666,6.666,0,0,1,.64-.74,9.956,9.956,0,0,1,5.689-2.845,6.994,6.994,0,0,1,.977-.066A1,1,0,0,1,137.486,287.463Z" transform="translate(-78.577 -199.396)" fill="#263238"/>
      <path id="Path_190" data-name="Path 190" d="M112.024,314.891a.142.142,0,0,0,0,.043V342.29c0,1.2-.948,2.437-2.745,3.376a16.6,16.6,0,0,1-7.586,1.584h-.043c-6.472,0-10.34-2.555-10.34-4.959V314.934a.26.26,0,0,0,0-.043v-.052c0-2.674,1.977-5.467,3.959-8.226a11.7,11.7,0,0,0,1.707-6.05v-.507H96.8a1.422,1.422,0,0,1-1.541-1.323v-1.157a1.422,1.422,0,0,1,1.541-1.332h9.719a1.565,1.565,0,0,1,1.422.811,1.219,1.219,0,0,1,.119.522v1.157a1.422,1.422,0,0,1-1.546,1.323h-.175v.507a11.659,11.659,0,0,0,1.712,6.05c1.977,2.759,3.945,5.552,3.959,8.226A.07.07,0,0,1,112.024,314.891Z" transform="translate(-58.431 -204.029)" fill="#fafafa"/>
      <path id="Path_191" data-name="Path 191" d="M111.881,314.775a2.057,2.057,0,0,0,0-.28,7.055,7.055,0,0,0-.1-.815,10.677,10.677,0,0,0-1.133-2.968,40.041,40.041,0,0,0-2.8-4.243,8.633,8.633,0,0,1-1.271-2.944,15.847,15.847,0,0,1-.436-3.58v-.085h.085a1.8,1.8,0,0,0,1.029-.242,1.233,1.233,0,0,0,.6-.858c0-.365,0-.778,0-1.171a1.181,1.181,0,0,0-.422-1.01,1.622,1.622,0,0,0-1.1-.36H96.8a1.612,1.612,0,0,0-1.261.446,1.147,1.147,0,0,0-.3.6,7.145,7.145,0,0,0,0,.725v.74a1.152,1.152,0,0,0,.294.616,1.612,1.612,0,0,0,1.313.474h.114v.119a16.527,16.527,0,0,1-.36,3.319,9.127,9.127,0,0,1-1.309,3.186c-.668.948-1.356,1.9-1.991,2.9a15.645,15.645,0,0,0-1.612,3.191A7.235,7.235,0,0,0,91.3,314.3c-.033.593,0,1.228,0,1.844v24.967a8.283,8.283,0,0,0,.076,1.588,3.12,3.12,0,0,0,.744,1.337,7.378,7.378,0,0,0,2.546,1.759,14.426,14.426,0,0,0,2.94.877,20.122,20.122,0,0,0,2.992.337,20.406,20.406,0,0,0,5.756-.526,12.593,12.593,0,0,0,2.6-.948,6.677,6.677,0,0,0,2.115-1.588,3.319,3.319,0,0,0,.621-1.109,4.086,4.086,0,0,0,.1-1.256v-7.263c0-6.031.028-10.9.038-14.3s.043-5.244.043-5.244a1.393,1.393,0,0,1,0,.346v4.9c0,3.385,0,8.269.038,14.3v7.908a2.656,2.656,0,0,1-.1.668,3.452,3.452,0,0,1-.659,1.181,6.776,6.776,0,0,1-2.176,1.645,12.928,12.928,0,0,1-2.641.948,20.737,20.737,0,0,1-5.746.55,20.028,20.028,0,0,1-3.025-.337,14.818,14.818,0,0,1-2.992-.891,7.462,7.462,0,0,1-2.636-1.8,3.29,3.29,0,0,1-.8-1.422,8.06,8.06,0,0,1-.085-1.645V314.287a7.586,7.586,0,0,1,.4-1.821,15.771,15.771,0,0,1,1.64-3.243c.635-1.01,1.332-1.963,2-2.906a9.008,9.008,0,0,0,1.266-3.11,16.689,16.689,0,0,0,.365-3.262l.109.109a1.835,1.835,0,0,1-1.475-.545,1.327,1.327,0,0,1-.346-.735v-.768a6.984,6.984,0,0,1,0-.763,1.37,1.37,0,0,1,.365-.706,1.84,1.84,0,0,1,1.422-.512h9.511a1.811,1.811,0,0,1,1.214.408,1.346,1.346,0,0,1,.474,1.147v1.195a1.389,1.389,0,0,1-.673.977,1.939,1.939,0,0,1-1.119.256l.076-.076a11.887,11.887,0,0,0,1.655,6.453,39.109,39.109,0,0,1,2.769,4.267,10.278,10.278,0,0,1,1.1,3,6.4,6.4,0,0,1,.081.849.772.772,0,0,1,0,.275Z" transform="translate(-58.288 -203.913)" fill="#263238"/>
      <path id="Path_192" data-name="Path 192" d="M112.283,304a37.176,37.176,0,0,1-4.324.123A37.285,37.285,0,0,1,103.63,304a38.625,38.625,0,0,1,4.329-.123A38.5,38.5,0,0,1,112.283,304Z" transform="translate(-64.91 -208.036)" fill="#263238"/>
      <path id="Path_193" data-name="Path 193" d="M112.134,341.493a3.089,3.089,0,0,0-2.963.128,10.974,10.974,0,0,1-2.845,1.228,5.479,5.479,0,0,1-3.475-.887,21.964,21.964,0,0,0-3.224-1.759,6.277,6.277,0,0,0-6.467,1.527v23.488s1.29,4.006,10.374,3.38,8.368-4.642,8.368-4.642Z" transform="translate(-59.404 -226.975)" fill="#9bd19d"/>
      <path id="Path_194" data-name="Path 194" d="M75.465,301.132a6.638,6.638,0,0,0-5.609-7.586.674.674,0,0,0-.474.052c-.194.133-.2.413-.18.645a8.06,8.06,0,0,0,6.258,7.112" transform="translate(-46.801 -202.601)" fill="#455a64"/>
      <path id="Path_195" data-name="Path 195" d="M61.137,321.1c1.678,3.461,4.092,5.794,7.083,5.908.6,0,1.048-.375,1.617-.408a3.793,3.793,0,0,1,.948.36,1.366,1.366,0,0,0,.474.114c3.091-.166,5.723-2.337,7.5-5.974,2.47-5.087,1.707-10.554-1.7-12.218a8.352,8.352,0,0,0-1.394-.545,5.872,5.872,0,0,0-1.693-.2,12.8,12.8,0,0,0-3.84.882l-.166.062c-2.774-1.223-4.983-1.233-7.112-.194C59.421,310.545,58.662,316.011,61.137,321.1Z" transform="translate(-41.799 -210.283)" fill="#ff914d"/>
      <path id="Path_196" data-name="Path 196" d="M62.513,317.626a2.7,2.7,0,0,1-.284-1.024,5.5,5.5,0,0,1,1.731-4.68,2.669,2.669,0,0,1,.882-.593c0,.038-.313.256-.763.716a6.13,6.13,0,0,0-1.313,2.1,6,6,0,0,0-.36,2.446A8.485,8.485,0,0,1,62.513,317.626Z" transform="translate(-43.118 -211.965)" fill="#fafafa"/>
      <path id="Path_197" data-name="Path 197" d="M63.86,328.463c-.066,0-.18-.223-.251-.536s-.076-.574,0-.588.175.223.251.536S63.927,328.449,63.86,328.463Z" transform="translate(-43.834 -220.384)" fill="#fafafa"/>
      <path id="Path_198" data-name="Path 198" d="M88.913,292c0,.043-.635.289-1.6.868a12.484,12.484,0,0,0-1.593,1.138,14,14,0,0,0-1.683,1.707A14.228,14.228,0,0,0,82.7,297.7a12.547,12.547,0,0,0-.8,1.787c-.375,1.052-.474,1.745-.536,1.735a2.2,2.2,0,0,1,.052-.474,3.7,3.7,0,0,1,.114-.564,7.177,7.177,0,0,1,.2-.74,11.233,11.233,0,0,1,.763-1.84,11.966,11.966,0,0,1,3.077-3.76,10.9,10.9,0,0,1,1.655-1.114,7.144,7.144,0,0,1,.683-.346,4.332,4.332,0,0,1,.531-.223A2.085,2.085,0,0,1,88.913,292Z" transform="translate(-53.203 -201.799)" fill="#263238"/>
      <path id="Path_199" data-name="Path 199" d="M35.642,315.3,30.27,383.06l50.067,12.1s17.466-5.922,17.7-6.325.3-70.169.3-70.169l-18.05,4.68Z" transform="translate(-26.331 -214.053)" fill="#ff914d"/>
      <g id="Group_12" data-name="Group 12" transform="translate(-0.172 96.846)" opacity="0.4">
        <path id="Path_200" data-name="Path 200" d="M35.642,315.3,30.27,383.06l50.067,12.1s17.466-5.922,17.7-6.325.3-70.169.3-70.169l-18.05,4.68Z" transform="translate(-25.27 -311.3)" fill="#ff914d"/>
      </g>
      <path id="Path_201" data-name="Path 201" d="M166.591,127.511,163.8,167.057a12.327,12.327,0,0,1-12.3,11.459h0a12.327,12.327,0,0,1-12.327-13.133c.247-3.764.474-6.851.474-6.851s-9.572-1.489-9.691-11.061c-.066-5.528.887-18.073,1.7-27.684A12.555,12.555,0,0,1,144.2,108.3h5.779a17.718,17.718,0,0,1,16.613,19.211Z" transform="translate(-78.753 -105.194)" fill="#ffbe9d"/>
      <path id="Path_202" data-name="Path 202" d="M150.251,210.164a23.111,23.111,0,0,0,12.464-3.684s-3.082,6.965-12.635,6.1Z" transform="translate(-89.337 -156.826)" fill="#eb996e"/>
      <path id="Path_203" data-name="Path 203" d="M137.357,151.757c.171.18,1.2-.588,2.679-.583s2.546.74,2.707.559c.076-.081-.095-.4-.564-.744a3.793,3.793,0,0,0-2.167-.669,3.67,3.67,0,0,0-2.133.687C137.428,151.358,137.277,151.681,137.357,151.757Z" transform="translate(-82.635 -127.292)" fill="#263238"/>
      <path id="Path_204" data-name="Path 204" d="M171,155.547a1.375,1.375,0,0,0,1.318,1.38,1.313,1.313,0,0,0,1.422-1.233,1.365,1.365,0,0,0-1.318-1.38A1.309,1.309,0,0,0,171,155.547Z" transform="translate(-100.338 -129.39)" fill="#263238"/>
      <path id="Path_205" data-name="Path 205" d="M140.18,155.546a1.37,1.37,0,0,0,1.318,1.38,1.309,1.309,0,0,0,1.422-1.233,1.361,1.361,0,0,0-1.313-1.38,1.3,1.3,0,0,0-1.427,1.233Z" transform="translate(-84.131 -129.389)" fill="#263238"/>
      <path id="Path_206" data-name="Path 206" d="M167.547,151.761c.171.175,1.209-.593,2.679-.588s2.546.74,2.707.559c.076-.081-.095-.4-.564-.744a3.793,3.793,0,0,0-2.167-.668,3.67,3.67,0,0,0-2.134.687C167.618,151.358,167.467,151.681,167.547,151.761Z" transform="translate(-98.512 -127.292)" fill="#263238"/>
      <path id="Path_207" data-name="Path 207" d="M152.2,162.786a10.119,10.119,0,0,0-2.371-.427c-.375-.043-.73-.114-.792-.37a1.9,1.9,0,0,1,.247-1.114l1.114-2.845c1.541-4.073,2.66-7.42,2.494-7.482s-1.55,3.191-3.091,7.263q-.593,1.484-1.067,2.859a2.214,2.214,0,0,0-.194,1.475.948.948,0,0,0,.621.55,2.558,2.558,0,0,0,.635.09A9.214,9.214,0,0,0,152.2,162.786Z" transform="translate(-88.499 -127.412)" fill="#263238"/>
      <path id="Path_208" data-name="Path 208" d="M160.239,178.51c-.237,0-.242,1.584-1.607,2.717s-3.068.948-3.082,1.181c0,.1.379.308,1.1.332a3.987,3.987,0,0,0,2.57-.9,3.485,3.485,0,0,0,1.247-2.28C160.528,178.9,160.348,178.5,160.239,178.51Z" transform="translate(-92.214 -142.117)" fill="#263238"/>
      <path id="Path_209" data-name="Path 209" d="M166.762,142.031c.147.4,1.612.209,3.319.417s3.124.678,3.352.322c.1-.171-.142-.55-.7-.948a5.632,5.632,0,0,0-2.484-.868,5.571,5.571,0,0,0-2.612.308C167.018,141.529,166.7,141.841,166.762,142.031Z" transform="translate(-98.106 -122.346)" fill="#263238"/>
      <path id="Path_210" data-name="Path 210" d="M137.768,142.78c.261.337,1.275,0,2.494-.028s2.247.228,2.489-.123c.1-.171-.062-.507-.512-.82a3.594,3.594,0,0,0-4.011.123C137.8,142.272,137.655,142.618,137.768,142.78Z" transform="translate(-82.843 -122.525)" fill="#263238"/>
      <path id="Path_211" data-name="Path 211" d="M200.01,163.666c.166-.071,6.581-1.944,6.372,4.6s-6.737,4.983-6.742,4.8S200.01,163.666,200.01,163.666Z" transform="translate(-115.4 -134.152)" fill="#ffbe9d"/>
      <path id="Path_212" data-name="Path 212" d="M204,172.988c.028,0,.114.085.3.18a1.133,1.133,0,0,0,.849.043,2.809,2.809,0,0,0,1.384-2.489,3.684,3.684,0,0,0-.266-1.64,1.323,1.323,0,0,0-.83-.906.578.578,0,0,0-.683.294c-.095.18-.057.313-.09.322s-.137-.114-.076-.384a.759.759,0,0,1,.27-.4.863.863,0,0,1,.635-.147,1.617,1.617,0,0,1,1.162,1.053,3.926,3.926,0,0,1,.337,1.84,2.97,2.97,0,0,1-1.754,2.774,1.228,1.228,0,0,1-1.038-.209C204,173.135,204,173,204,172.988Z" transform="translate(-117.693 -136.509)" fill="#eb996e"/>
      <path id="Path_213" data-name="Path 213" d="M174.754,133.029a3.442,3.442,0,0,0-3.148,1.617c-.427.934-.522,1.991-.948,2.925a2.313,2.313,0,0,1-2.371,1.546,2.01,2.01,0,0,1-1.361-1.493,5.443,5.443,0,0,1,0-2.11c.384-3.058,1.024-6.088,1.147-9.165a15.718,15.718,0,0,0-1.93-8.9,8.605,8.605,0,0,0-7.657-4.3c-2.034.166-3.9,1.228-5.917,1.508a7.984,7.984,0,0,1-6.638-2.214c-.223-.218-1.242-.9-1.242-.9a3.742,3.742,0,0,1,.687-2.02c4.006-3.708,11.232-4.741,16.528-3.409a19.081,19.081,0,0,1,12.536,10.032c2.276,4.964,1.6,11.853.346,16.883" transform="translate(-86.502 -103.752)" fill="#263238"/>
      <path id="Path_214" data-name="Path 214" d="M130.376,124.293a6.256,6.256,0,0,0,5.215,3.361,16.925,16.925,0,0,0,6.386-.948,48.711,48.711,0,0,1,9.838-1.451c.322,0,.711,0,.887-.27.228-.365-.137-.806-.474-1.067-2.845-2.238-9.753-3.608-13.375-3.76a10.7,10.7,0,0,0-9.383,4.452" transform="translate(-78.498 -111.425)" fill="#263238"/>
      <path id="Path_215" data-name="Path 215" d="M133.37,114.864s25.128-8.06,35.976,13.65c0,0,1.621-5.438,1.621-8.354,0-1.944-1.162-13.541-13.09-17.187C157.877,102.973,139.9,96.117,133.37,114.864Z" transform="translate(-80.549 -101.75)" fill="#ff914d"/>
      <g id="Group_13" data-name="Group 13" transform="translate(52.937)" opacity="0.4">
        <path id="Path_216" data-name="Path 216" d="M133.37,114.864a11.663,11.663,0,0,1,7.984-3.622c7.41-.332,21.273,3.836,27.973,17.272,0,0,1.621-5.438,1.621-8.354,0-1.944-1.162-13.541-13.09-17.187C157.877,102.973,139.9,96.117,133.37,114.864Z" transform="translate(-133.37 -101.75)" fill="#ff914d"/>
      </g>
      <path id="Path_217" data-name="Path 217" d="M154.76,126.557a47.336,47.336,0,0,0-14.631-14.01c-5.756-3.608-15.3-7.173-21.876-8.923a14.282,14.282,0,0,0-6.045-.631,5.451,5.451,0,0,0-4.485,3.67c-.626,2.48,3.793,6.306,5.846,7.809a67.019,67.019,0,0,0,6.287,3.712s-.057-4.6,7.306-5.547C137.171,111.348,154.76,126.557,154.76,126.557Z" transform="translate(-67.031 -102.339)" fill="#ff914d"/>
      <path id="Path_218" data-name="Path 218" d="M155.554,109.2a23.711,23.711,0,0,0-7.254-2.465,9.117,9.117,0,0,1,1.972-1.185,18.76,18.76,0,0,1,5.651,1.9Z" transform="translate(-88.401 -103.748)" fill="#fafafa"/>
      <path id="Path_219" data-name="Path 219" d="M223.3,249.525s-6.865,7.847-6.107,18.766c.1,1.512.18,3.622.365,5.13,1.157,9.369,2.949,18.064,2.949,18.064h.654l23.938-5.912s-3.608-20.78-4.438-23.54c-2.65-8.833-11.739-13.692-11.739-13.692Z" transform="translate(-124.601 -178.839)" fill="#ff914d"/>
      <path id="Path_220" data-name="Path 220" d="M153.447,392.384v-5.4c0-3.494,0-8.534.028-14.849.043-12.607.1-30.149.175-49.934l.152.119-9.1,2.371-8.942,2.318.09-.119c.123,9.919.09,19.278.043,27.736s-.095,16.011-.133,22.326,0,11.379,0,14.887v4.021c0-.948-.033-2.276-.062-4.021-.043-3.494-.071-8.572-.066-14.887s.052-13.873.081-22.326.057-17.817-.071-27.731v-.1l.095-.024,8.937-2.318,9.108-2.371.156-.043v.161c-.1,19.785-.194,37.332-.256,49.934-.043,6.3-.081,11.355-.1,14.849,0,1.74-.028,3.087-.038,4.006v1.043A.574.574,0,0,1,153.447,392.384Z" transform="translate(-81.737 -217.597)" fill="#263238"/>
      <path id="Path_221" data-name="Path 221" d="M143.539,216.195s-.948,9.108,2.115,10.525c3.456,1.593,6.9.033,9.008-1.318,5.647-3.6,14.039-13.612,14.039-13.612l5.689,7.387s-14.328,17.22-17.206,17.106c-1.9-.071-4.812-1.9-6.638-3.181a12.328,12.328,0,0,1-2.641-2.5l-2.48-3.153a18.681,18.681,0,0,0-7.33,5.993s-.825-6.377.659-9.269,4.442-7.885,4.442-7.885Z" transform="translate(-82.915 -159.618)" fill="#ff914d"/>
      <path id="Path_222" data-name="Path 222" d="M138.259,232.787a.592.592,0,0,1-.057.156c-.043.114-.1.261-.185.446a9.957,9.957,0,0,0-.422,1.811,28.33,28.33,0,0,0,0,6.827l-.171-.033a12.588,12.588,0,0,1,3.072-3.5,22.872,22.872,0,0,1,4.542-2.878l.076-.038.057.066c1,1.162,2.058,2.371,3.172,3.6a22.824,22.824,0,0,0,3.741,3.452,9.356,9.356,0,0,0,2.119,1.124,6.973,6.973,0,0,0,1.138.308,4.655,4.655,0,0,0,1.147.043,7.217,7.217,0,0,0,3.926-1.953h0l9.809-10.459,2.845-3,.763-.792.2-.2.076-.062-.057.076-.19.218-.735.815-2.8,3.049-9.738,10.516h0a10.548,10.548,0,0,1-1.83,1.309,5.69,5.69,0,0,1-2.228.711,5.215,5.215,0,0,1-1.214-.043,6.9,6.9,0,0,1-1.181-.318,9.748,9.748,0,0,1-2.186-1.152,22.929,22.929,0,0,1-3.793-3.489c-1.119-1.233-2.176-2.446-3.172-3.613l.137.028a23.061,23.061,0,0,0-4.5,2.845,12.563,12.563,0,0,0-3.011,3.414l-.142.247-.028-.28a27.191,27.191,0,0,1,.076-6.865,9.331,9.331,0,0,1,.474-1.806c.085-.2.161-.341.209-.441A1.133,1.133,0,0,1,138.259,232.787Z" transform="translate(-82.594 -167.985)" fill="#263238"/>
      <g id="Group_14" data-name="Group 14" transform="translate(55.929 60.711)" opacity="0.3">
        <path id="Path_223" data-name="Path 223" d="M140.013,241.567a1.219,1.219,0,0,0,.351,1.389,1.157,1.157,0,0,0,1.181-.213,4.405,4.405,0,0,0,.8-.972,10.355,10.355,0,0,1,2.024-2.171,2.65,2.65,0,0,1,2.688-.7,3.034,3.034,0,0,1,1.185,1.512c1.19,2.432,2.617,4.907,4.945,6.3a9.462,9.462,0,0,0,7.884.545,15.579,15.579,0,0,0,6.5-4.774,45.989,45.989,0,0,0,4.5-6.8,17.5,17.5,0,0,0,2.489-5.879c-.294.166-.986,1.233-1.28,1.4,0,0-11.052,12.171-12.09,12.8s-3.9,4.831-12.014-4.267l-2.684-2.911S141.383,239.3,140.013,241.567Z" transform="translate(-139.925 -229.8)"/>
      </g>
      <rect id="Rectangle_52" data-name="Rectangle 52" width="12.294" height="3.712" transform="translate(73.464 96.872) rotate(8.72)" fill="#fff"/>
      <path id="Path_224" data-name="Path 224" d="M193.717,327.84l-18.965,4.585,2.19,17.888-36.317,27.276c-1.451.2-2.939.436-3.764.645-1.987.474-5.495,5.476-6.486,5.974l-7.079,5.462s-.621,2.484,2.608,1.987,6.827-2.977,7.2-2.977,1.5.754.948,2.371c-.474,1.422-2.418,6.315-2.418,6.315l-2.4,4.409s10.393.341,13.275-3.513c1.972-2.617,8.06-10.037,8.06-10.037s42.751-21.032,45.316-25.436C199.378,356.794,193.717,327.84,193.717,327.84Z" transform="translate(-75.227 -220.647)" fill="#ffbe9d"/>
      <path id="Path_225" data-name="Path 225" d="M244.053,382.688a11.8,11.8,0,0,0-.085-1.953,6.808,6.808,0,0,0-6.424-5.813,11.765,11.765,0,0,0-1.953.109,1.808,1.808,0,0,1,.512-.156,6.037,6.037,0,0,1,1.451-.128,6.742,6.742,0,0,1,6.585,5.964,6.045,6.045,0,0,1,0,1.456A1.81,1.81,0,0,1,244.053,382.688Z" transform="translate(-134.305 -245.313)" fill="#eb996e"/>
      <path id="Path_226" data-name="Path 226" d="M148.921,469.69a5.452,5.452,0,0,1-.247,1.195,12.8,12.8,0,0,1-1.053,2.764,5.509,5.509,0,0,1-2,2.186,3.006,3.006,0,0,1-.839.341.716.716,0,0,1-.332.033,7.307,7.307,0,0,0,1.081-.522,5.955,5.955,0,0,0,1.9-2.157,16.521,16.521,0,0,0,1.076-2.7A7,7,0,0,1,148.921,469.69Z" transform="translate(-86.376 -295.244)" fill="#eb996e"/>
      <path id="Path_227" data-name="Path 227" d="M160.109,466.2a4.709,4.709,0,0,1-.365,1.152A22.708,22.708,0,0,1,158.5,470a23.081,23.081,0,0,1-1.574,2.465,4.928,4.928,0,0,1-.778.948,7.269,7.269,0,0,1,.635-1.029c.408-.621.948-1.493,1.5-2.484s.991-1.9,1.3-2.593A7.026,7.026,0,0,1,160.109,466.2Z" transform="translate(-92.529 -293.409)" fill="#eb996e"/>
      <path id="Path_228" data-name="Path 228" d="M161.775,400.9a2.684,2.684,0,0,1,.085.607c.043.389.076.948.095,1.655a32.539,32.539,0,0,1-1.565,10.791c-.218.664-.408,1.2-.559,1.56a3.007,3.007,0,0,1-.251.555,2.735,2.735,0,0,1,.161-.588c.123-.37.289-.91.474-1.579a38.871,38.871,0,0,0,1.157-5.315,39.742,39.742,0,0,0,.4-5.424v-1.65a3.253,3.253,0,0,1,0-.612Z" transform="translate(-94.333 -259.068)" fill="#263238"/>
      <path id="Path_229" data-name="Path 229" d="M142.54,412.91a12.656,12.656,0,0,1,.6,1.493c.351.948.839,2.209,1.422,3.608s1.124,2.655,1.527,3.561a13.036,13.036,0,0,1,.621,1.484,8.173,8.173,0,0,1-.778-1.422c-.446-.891-1.019-2.138-1.6-3.542s-1.038-2.7-1.346-3.646A8.676,8.676,0,0,1,142.54,412.91Z" transform="translate(-85.372 -265.384)" fill="#263238"/>
      <path id="Path_230" data-name="Path 230" d="M103.352,436.276a1.243,1.243,0,0,1-.3.085l-.868.209c-.379.09-.839.194-1.384.284s-1.157.223-1.849.308-1.422.2-2.252.275-1.688.133-2.6.185a49.678,49.678,0,0,1-11.891-.905c-.9-.194-1.754-.365-2.541-.583s-1.522-.408-2.186-.612-1.261-.408-1.783-.583-.948-.346-1.323-.474l-.83-.332A2.19,2.19,0,0,1,73.26,434a1.177,1.177,0,0,1,.3.085l.844.289c.36.133.811.294,1.332.474s1.119.37,1.787.545,1.394.4,2.186.578,1.64.375,2.537.559a57.547,57.547,0,0,0,5.893.787,56.653,56.653,0,0,0,5.945.114c.915-.047,1.783-.081,2.593-.161s1.56-.156,2.247-.242,1.3-.19,1.849-.275,1.01-.166,1.389-.242l.877-.161a1.385,1.385,0,0,1,.308-.076Z" transform="translate(-48.938 -276.475)" fill="#263238"/>
      <path id="Path_231" data-name="Path 231" d="M128.056,418.765a12.7,12.7,0,0,1-2.252-1.086,13.134,13.134,0,0,1-2.134-1.3,12.147,12.147,0,0,1,2.252,1.086A12.517,12.517,0,0,1,128.056,418.765Z" transform="translate(-75.448 -267.209)" fill="#263238"/>
      <path id="Path_232" data-name="Path 232" d="M245.053,287.281l-.119.038-.351.095-1.356.346-5.1,1.261-17.637,4.267-.128.028v-.128c-.5-3.257-1.181-6.77-1.84-10.431-.431-2.442-.806-4.836-1.062-7.159s-.37-4.585-.4-6.737a36.385,36.385,0,0,1,.356-6.092,17.542,17.542,0,0,1,1.555-5.087,12.744,12.744,0,0,1,2.617-3.523,10.264,10.264,0,0,1,2.736-1.868,9.144,9.144,0,0,1,2-.631l.54-.066a.9.9,0,0,1,.185,0,.837.837,0,0,1-.185.038l-.531.095a9.212,9.212,0,0,0-1.968.664,10.431,10.431,0,0,0-2.683,1.9,12.8,12.8,0,0,0-2.555,3.5,17.589,17.589,0,0,0-1.508,5.04,36.6,36.6,0,0,0-.332,6.064c.038,2.143.161,4.39.417,6.709s.635,4.708,1.067,7.145c.654,3.655,1.332,7.173,1.83,10.431l-.147-.1,17.661-4.2,5.116-1.195,1.365-.308.356-.076A.566.566,0,0,1,245.053,287.281Z" transform="translate(-124.553 -180.548)" fill="#263238"/>
    </g>
  </g>
</svg>
