<svg xmlns="http://www.w3.org/2000/svg" width="16.642" height="16.638" viewBox="0 0 16.642 16.638">
  <path id="Icon_awesome-star" data-name="Icon awesome-star" d="M8.413.542,6.507,4.581l-4.266.65A.989.989,0,0,0,1.725,6.9l3.086,3.142-.73,4.438A.943.943,0,0,0,5.435,15.5l3.816-2.1,3.816,2.1a.944.944,0,0,0,1.355-1.028l-.73-4.438L16.778,6.9a.989.989,0,0,0-.517-1.666L12,4.581,10.089.542A.918.918,0,0,0,8.413.542Z" transform="translate(-0.93 0.501)" fill="none" stroke="#ff914d" stroke-width="1"/>
</svg>
